<svg xmlns="http://www.w3.org/2000/svg" width="85" height="85" viewBox="0 0 85 85">
  <g id="Grupo_1099813" data-name="Grupo 1099813" transform="translate(-180.051 -2884)">
    <circle id="Elipse_11517" data-name="Elipse 11517" cx="42.5" cy="42.5" r="42.5" transform="translate(180.051 2884)" fill="#7f4d35"/>
    <g id="documentos_1_" data-name="documentos (1)" transform="translate(162.471 2892.691)">
      <g id="Grupo_1099811" data-name="Grupo 1099811" transform="translate(31.486 0.986)">
        <path id="Trazado_874199" data-name="Trazado 874199" d="M163.657,92.5h39.57a.657.657,0,0,1,.657.657V146a.657.657,0,0,1-.657.657h-39.57A.657.657,0,0,1,163,146V93.157A.657.657,0,0,1,163.657,92.5Z" transform="translate(-146.567 -81.326)" fill="#f5f5f5"/>
        <path id="Trazado_874200" data-name="Trazado 874200" d="M200.926,92.5v50.546a.658.658,0,0,1-.657.657H163V93.157a.658.658,0,0,1,.657-.657Z" transform="translate(-146.567 -81.326)" fill="#e6e6e6"/>
        <path id="Trazado_874201" data-name="Trazado 874201" d="M160.727,50h-39.57a.657.657,0,0,0-.657.657V103.5a.657.657,0,0,0,.657.657h39.57a.657.657,0,0,0,.657-.657V50.657A.657.657,0,0,0,160.727,50Z" transform="translate(-109.655 -44.413)" fill="#f5f5f5"/>
        <path id="Trazado_874202" data-name="Trazado 874202" d="M158.426,50v50.546a.658.658,0,0,1-.657.657H120.5V50.657a.658.658,0,0,1,.657-.657Z" transform="translate(-109.655 -44.413)" fill="#e6e6e6"/>
        <path id="Trazado_874203" data-name="Trazado 874203" d="M84.143,8.157V61a.658.658,0,0,1-.657.657H44.573A6.574,6.574,0,0,1,38,55.089V53.38a.658.658,0,0,1,.657-.657h3.966a.656.656,0,0,0,.635-.656V8.157a.658.658,0,0,1,.657-.657h39.57A.658.658,0,0,1,84.143,8.157Z" transform="translate(-38 -7.5)" fill="#f5f5f5"/>
        <path id="Trazado_874204" data-name="Trazado 874204" d="M124.963,69.12H113.657a.657.657,0,0,1-.657-.657V57.157a.657.657,0,0,1,.657-.657h11.306a.657.657,0,0,1,.657.657V68.463A.657.657,0,0,1,124.963,69.12Z" transform="translate(-103.14 -50.058)" fill="#faa515"/>
        <g id="Grupo_1099810" data-name="Grupo 1099810" transform="translate(0 7.165)">
          <path id="Trazado_874205" data-name="Trazado 874205" d="M251.947,133.972H237.486a.986.986,0,0,1,0-1.972h14.461a.986.986,0,0,1,0,1.972Z" transform="translate(-210.405 -122.798)" fill="#2b597f"/>
          <path id="Trazado_874206" data-name="Trazado 874206" d="M186.078,201.972H171.486a.986.986,0,0,1,0-1.972h14.592a.986.986,0,1,1,0,1.972Z" transform="translate(-153.082 -181.859)" fill="#2b597f"/>
          <path id="Trazado_874207" data-name="Trazado 874207" d="M251.947,98.972H237.486a.986.986,0,0,1,0-1.972h14.461a.986.986,0,0,1,0,1.972Z" transform="translate(-210.405 -92.399)" fill="#2b597f"/>
          <path id="Trazado_874208" data-name="Trazado 874208" d="M251.947,63.972H237.486a.986.986,0,0,1,0-1.972h14.461a.986.986,0,0,1,0,1.972Z" transform="translate(-210.405 -62)" fill="#2b597f"/>
          <path id="Trazado_874209" data-name="Trazado 874209" d="M138.168,290.972H106.486a.986.986,0,0,1,0-1.972h31.682a.986.986,0,0,1,0,1.972Z" transform="translate(-96.626 -259.159)" fill="#2b597f"/>
          <path id="Trazado_874210" data-name="Trazado 874210" d="M233.707,245.972H216.486a.986.986,0,0,1,0-1.972h17.221a.986.986,0,1,1,0,1.972Z" transform="translate(-192.166 -220.074)" fill="#2b597f"/>
          <path id="Trazado_874211" data-name="Trazado 874211" d="M115.911,245.972h-9.925a.986.986,0,1,1,0-1.972h9.925a.986.986,0,1,1,0,1.972Z" transform="translate(-96.192 -220.074)" fill="#2b597f"/>
          <path id="Trazado_874212" data-name="Trazado 874212" d="M77.672,360.431h-33.1A6.573,6.573,0,0,1,38,353.858v-1.709a.657.657,0,0,1,.657-.657h31.85a.657.657,0,0,1,.657.657v1.71A6.573,6.573,0,0,0,77.672,360.431Z" transform="translate(-38 -313.434)" fill="#2b597f"/>
        </g>
      </g>
      <g id="Grupo_1099812" data-name="Grupo 1099812" transform="translate(30.5)">
        <path id="Trazado_874213" data-name="Trazado 874213" d="M88.8,11.174H84.2v-4.6a.986.986,0,0,0-.986-.986h-4.6V.986A.986.986,0,0,0,77.628,0H36.744a.986.986,0,0,0-.986.986V45.222H31.486a.986.986,0,0,0-.986.986v2.366a7.567,7.567,0,0,0,7.559,7.559h3.287v4.6a.986.986,0,0,0,.986.986h4.6v4.6a.986.986,0,0,0,.986.986H67.7a.986.986,0,1,0,0-1.972H48.9V61.721H83.216a.986.986,0,0,0,.986-.986V45.222a.986.986,0,1,0-1.972,0V59.749H43.317V56.133H77.628a.986.986,0,0,0,.986-.986V7.559H82.23V40.753a.986.986,0,1,0,1.972,0V13.146h3.615v52.19H72.173a.986.986,0,1,0,0,1.972H88.8a.986.986,0,0,0,.986-.986V12.16A.986.986,0,0,0,88.8,11.174ZM76.643,54.162H71.187A5.593,5.593,0,0,1,65.6,48.575V46.208a.986.986,0,0,0-.986-.986H57.778a.986.986,0,1,0,0,1.972h5.85v1.38A7.541,7.541,0,0,0,66.1,54.162H38.059a5.593,5.593,0,0,1-5.587-5.587v-1.38h20.7a.986.986,0,0,0,0-1.972H37.73V1.972H76.643Z" transform="translate(-30.5)"/>
        <path id="Trazado_874214" data-name="Trazado 874214" d="M106.486,63.592h12.62a.986.986,0,0,0,.986-.986V49.986a.986.986,0,0,0-.986-.986h-12.62a.986.986,0,0,0-.986.986v12.62A.986.986,0,0,0,106.486,63.592Zm.986-12.62H118.12V61.62H107.472Z" transform="translate(-95.64 -42.558)"/>
        <path id="Trazado_874215" data-name="Trazado 874215" d="M251.947,132H237.486a.986.986,0,0,0,0,1.972h14.461a.986.986,0,0,0,0-1.972Z" transform="translate(-209.419 -114.647)"/>
        <path id="Trazado_874216" data-name="Trazado 874216" d="M170.5,200.986a.986.986,0,0,0,.986.986h14.592a.986.986,0,1,0,0-1.972H171.486A.986.986,0,0,0,170.5,200.986Z" transform="translate(-152.096 -173.708)"/>
        <path id="Trazado_874217" data-name="Trazado 874217" d="M251.947,97H237.486a.986.986,0,0,0,0,1.972h14.461a.986.986,0,0,0,0-1.972Z" transform="translate(-209.419 -84.248)"/>
        <path id="Trazado_874218" data-name="Trazado 874218" d="M251.947,62H237.486a.986.986,0,0,0,0,1.972h14.461a.986.986,0,0,0,0-1.972Z" transform="translate(-209.419 -53.849)"/>
        <path id="Trazado_874219" data-name="Trazado 874219" d="M138.168,289H106.486a.986.986,0,0,0,0,1.972h31.682a.986.986,0,0,0,0-1.972Z" transform="translate(-95.64 -251.008)"/>
        <path id="Trazado_874220" data-name="Trazado 874220" d="M233.707,244H216.486a.986.986,0,0,0,0,1.972h17.221a.986.986,0,1,0,0-1.972Z" transform="translate(-191.18 -211.924)"/>
        <path id="Trazado_874221" data-name="Trazado 874221" d="M105.986,245.972h9.925a.986.986,0,1,0,0-1.972h-9.925a.986.986,0,1,0,0,1.972Z" transform="translate(-95.206 -211.924)"/>
      </g>
    </g>
  </g>
</svg>
