<svg xmlns="http://www.w3.org/2000/svg" width="85" height="85" viewBox="0 0 85 85">
  <g id="Grupo_1099882" data-name="Grupo 1099882" transform="translate(-705.051 -4882)">
    <circle id="Elipse_11521" data-name="Elipse 11521" cx="42.5" cy="42.5" r="42.5" transform="translate(705.051 4882)" fill="#2436b1"/>
    <g id="declaracion" transform="translate(718.051 4895)">
      <g id="Grupo_1099880" data-name="Grupo 1099880" transform="translate(0.87 0.87)">
        <path id="Trazado_874363" data-name="Trazado 874363" d="M151.028,93.479H119.672a1.549,1.549,0,0,1-1.549-1.549V41.079a1.549,1.549,0,0,1,1.549-1.549h31.356a1.549,1.549,0,0,1,1.549,1.549V91.93A1.549,1.549,0,0,1,151.028,93.479Z" transform="translate(-105.288 -35.814)" fill="#f4f8f9"/>
        <path id="Trazado_874364" data-name="Trazado 874364" d="M380.354,39.53h-2.8a1.549,1.549,0,0,1,1.549,1.549V91.93a1.549,1.549,0,0,1-1.549,1.549h2.8A1.549,1.549,0,0,0,381.9,91.93V41.079A1.549,1.549,0,0,0,380.354,39.53Z" transform="translate(-334.613 -35.814)" fill="#e7eef3"/>
        <path id="Trazado_874365" data-name="Trazado 874365" d="M225.032,83.517h-10.04a1.1,1.1,0,0,1-1.095-1.095V80.668a1.1,1.1,0,0,1,1.095-1.095h10.04a1.1,1.1,0,0,1,1.095,1.095v1.755A1.1,1.1,0,0,1,225.032,83.517Z" transform="translate(-189.949 -71.211)" fill="#ff7bba"/>
        <path id="Trazado_874366" data-name="Trazado 874366" d="M292.737,79.573h-2.248a1.1,1.1,0,0,1,1.095,1.095v1.755a1.1,1.1,0,0,1-1.095,1.095h2.248a1.1,1.1,0,0,0,1.095-1.095V80.668A1.1,1.1,0,0,0,292.737,79.573Z" transform="translate(-257.654 -71.211)" fill="#ff5cab"/>
        <path id="Trazado_874367" data-name="Trazado 874367" d="M19.77,310.423l2.324-.2,5.811-1.8,2.887-2.125,1.235-4.1-.109-4.776-.781-3.25-3.25-2.073-2.354-1.5-5.2-1.291L14,290.876a7.263,7.263,0,0,0-1.986.821l-2.3,1.379a4.56,4.56,0,0,0-2.214,3.91v6.138a5.426,5.426,0,0,0,2.971,4.828,22.2,22.2,0,0,0,8.544,2.491Z" transform="translate(-7.5 -256.606)" fill="#a2dbff"/>
        <path id="Trazado_874368" data-name="Trazado 874368" d="M118.282,293.075l-2.3-1.379a7.262,7.262,0,0,0-1.986-.821l-6.336-1.573-1.372.341,6.018,1.494,3.23,1.938a4.56,4.56,0,0,1,2.214,3.91v6.162a5.425,5.425,0,0,1-2.947,4.816,21.715,21.715,0,0,1-8.462,2.479,20.872,20.872,0,0,0,11.229-2.491,5.411,5.411,0,0,0,2.925-4.8v-6.162a4.56,4.56,0,0,0-2.214-3.91Z" transform="translate(-94.827 -256.605)" fill="#64caff"/>
        <path id="Trazado_874369" data-name="Trazado 874369" d="M98.5,314.161l-1.424-18.375-.136-2.083H94.123l-.139,2.12-1.421,18.322A19.35,19.35,0,0,0,98.5,314.161Z" transform="translate(-82.694 -260.496)" fill="#ff7bba"/>
        <path id="Trazado_874370" data-name="Trazado 874370" d="M100.4,242.348h4.113V247.8H100.4Z" transform="translate(-89.618 -215.099)" fill="#ffcfc0"/>
        <path id="Trazado_874371" data-name="Trazado 874371" d="M49.688,99.691l1.106-2.3-.318-2.7L49.387,92.3l-2.129-.9s-2.153-.048-2.226,0A15.925,15.925,0,0,1,43.9,89.714L41.67,87.222,39.3,87.44l-3.435.919-1.6,1.116-.584.659-.517.615c-.117.21-.227.426-.326.648l-.044.1a5.8,5.8,0,0,0,1.645,6.811l2.175,1.782,11.3,1.012,1.2-.856c.155-.111.3-.229.443-.352Z" transform="translate(-29.428 -77.972)" fill="#5844a0"/>
        <path id="Trazado_874372" data-name="Trazado 874372" d="M57.861,87.223l-.444-1.613a2.443,2.443,0,0,0-2.974-1.716,2.444,2.444,0,0,1-2.926-1.563l-.141-.407a3.366,3.366,0,0,0-2.628-2.231,9.708,9.708,0,0,0-1.507-.12A8.608,8.608,0,0,0,39.7,83.988a8.606,8.606,0,0,1,6.114-2.523,9.709,9.709,0,0,1,1.507.12,3.366,3.366,0,0,1,2.628,2.231l.141.407a2.444,2.444,0,0,0,2.926,1.563A2.444,2.444,0,0,1,55.991,87.5l.444,1.613a5.8,5.8,0,0,1-.348,4.018A5.807,5.807,0,0,0,57.861,87.223Z" transform="translate(-35.964 -71.211)" fill="#483887"/>
        <path id="Trazado_874373" data-name="Trazado 874373" d="M75.074,164.438a5.65,5.65,0,0,1-5.65-5.65v-4.95a.7.7,0,0,1,.714-.7,9.685,9.685,0,0,0,5.774-1.391.694.694,0,0,1,.931.13,4.163,4.163,0,0,0,3.2,1.23.7.7,0,0,1,.681.7v4.981A5.65,5.65,0,0,1,75.074,164.438Z" transform="translate(-62.239 -134.901)" fill="#ffe0cf"/>
        <path id="Trazado_874374" data-name="Trazado 874374" d="M80.043,153.106a4.162,4.162,0,0,1-3.2-1.23.694.694,0,0,0-.931-.13,9.686,9.686,0,0,1-5.774,1.391.7.7,0,0,0-.714.7v2.173a.7.7,0,0,1,.714-.7,9.685,9.685,0,0,0,5.774-1.391.694.694,0,0,1,.931.13,4.162,4.162,0,0,0,3.2,1.23.7.7,0,0,1,.681.7v-2.173A.7.7,0,0,0,80.043,153.106Z" transform="translate(-62.239 -134.9)" fill="#ffcfc0"/>
        <path id="Trazado_874375" data-name="Trazado 874375" d="M56.77,279.952,55.115,282a1.99,1.99,0,0,1-2.327.582l-3.76-1.6a.508.508,0,0,1-.077-.895l1.156-.747a3.883,3.883,0,0,1,3.254-.448Z" transform="translate(-43.936 -247.255)" fill="#e7eef3"/>
        <path id="Trazado_874376" data-name="Trazado 874376" d="M118.118,279.952,119.773,282a1.99,1.99,0,0,0,2.327.582l3.76-1.6a.508.508,0,0,0,.077-.895l-1.156-.747a3.883,3.883,0,0,0-3.254-.448Z" transform="translate(-105.283 -247.255)" fill="#e7eef3"/>
        <path id="Trazado_874377" data-name="Trazado 874377" d="M359.015,8.1v3.3a.6.6,0,0,1-.3.521l-2.685,1.55a.6.6,0,0,0,0,1.041l2.685,1.55a.6.6,0,0,1,.3.521v3.3a.6.6,0,0,0,.6.6h12.773a.6.6,0,0,0,.6-.6V8.1a.6.6,0,0,0-.6-.6H359.616a.6.6,0,0,0-.6.6Z" transform="translate(-315.324 -7.5)" fill="#9ff497"/>
        <path id="Trazado_874378" data-name="Trazado 874378" d="M482.524,7.5h-2.2a.6.6,0,0,1,.6.6V19.879a.6.6,0,0,1-.6.6h2.2a.6.6,0,0,0,.6-.6V8.1A.6.6,0,0,0,482.524,7.5Z" transform="translate(-425.46 -7.5)" fill="#6ce79a"/>
        <path id="Trazado_874379" data-name="Trazado 874379" d="M420.833,239.606h-5.761V215.848a.663.663,0,0,1,.663-.663h4.435a.663.663,0,0,1,.663.663Z" transform="translate(-367.782 -191.088)" fill="#5844a0"/>
        <g id="Grupo_1099879" data-name="Grupo 1099879" transform="translate(47.29 20.212)">
          <path id="Trazado_874380" data-name="Trazado 874380" d="M420.833,425.661h-5.761l1.962,3.393a1.061,1.061,0,0,0,1.838,0Z" transform="translate(-415.072 -397.354)" fill="#7361ba"/>
          <path id="Trazado_874381" data-name="Trazado 874381" d="M428.726,185.582h-3.377v-2.2a1.688,1.688,0,1,1,3.377,0Z" transform="translate(-424.157 -181.697)" fill="#7361ba"/>
        </g>
      </g>
      <g id="Grupo_1099881" data-name="Grupo 1099881" transform="translate(0 0)">
        <path id="Trazado_874382" data-name="Trazado 874382" d="M208.361,72.072a1.967,1.967,0,0,0-1.965,1.965v1.755a1.967,1.967,0,0,0,1.965,1.965H218.4a1.967,1.967,0,0,0,1.965-1.965V74.037a1.967,1.967,0,0,0-1.965-1.965Zm10.265,1.965v1.755a.225.225,0,0,1-.225.225h-10.04a.225.225,0,0,1-.225-.225V74.037a.225.225,0,0,1,.225-.225H218.4A.225.225,0,0,1,218.626,74.037Z" transform="translate(-182.448 -63.71)"/>
        <path id="Trazado_874383" data-name="Trazado 874383" d="M185.011,203.844h17.394a.87.87,0,1,0,0-1.74H185.011a.87.87,0,1,0,0,1.74Z" transform="translate(-162.776 -178.654)"/>
        <path id="Trazado_874384" data-name="Trazado 874384" d="M185.011,235.551h17.394a.87.87,0,0,0,0-1.74H185.011a.87.87,0,1,0,0,1.74Z" transform="translate(-162.776 -206.682)"/>
        <path id="Trazado_874385" data-name="Trazado 874385" d="M185.011,267.257h17.394a.87.87,0,0,0,0-1.74H185.011a.87.87,0,0,0,0,1.74Z" transform="translate(-162.776 -234.71)"/>
        <path id="Trazado_874386" data-name="Trazado 874386" d="M417.017,26.95h-6.234a.87.87,0,1,0,0,1.74h6.234a.87.87,0,1,0,0-1.74Z" transform="translate(-362.352 -23.823)"/>
        <path id="Trazado_874387" data-name="Trazado 874387" d="M417.017,55.936h-6.234a.87.87,0,1,0,0,1.74h6.234a.87.87,0,1,0,0-1.74Z" transform="translate(-362.352 -49.446)"/>
        <path id="Trazado_874388" data-name="Trazado 874388" d="M417.017,84.921h-6.234a.87.87,0,1,0,0,1.74h6.234a.87.87,0,1,0,0-1.74Z" transform="translate(-362.352 -75.068)"/>
        <path id="Trazado_874389" data-name="Trazado 874389" d="M57.935,0h-4.7a.87.87,0,0,0,0,1.74h4.435V12.98H45.431V9.952a1.476,1.476,0,0,0-.736-1.274L42.414,7.36,44.7,6.043a1.476,1.476,0,0,0,.735-1.274V1.74h4.435a.87.87,0,0,0,0-1.74h-4.7A1.473,1.473,0,0,0,43.69,1.471V3.716H15.255a2.422,2.422,0,0,0-2.419,2.419V8.386q-.338-.022-.685-.024h-.042a9.461,9.461,0,0,0-8.622,5.575l-.048.107a6.685,6.685,0,0,0,1.89,7.835L7.185,23.4v1.357a6.528,6.528,0,0,0,3.594,5.826v1.169l-.226-.07a4.741,4.741,0,0,0-3.983.548l-1.157.747a1.379,1.379,0,0,0-.252,2.107q-.114.064-.226.131l-2.3,1.379A5.457,5.457,0,0,0,0,41.25v1.485a.87.87,0,1,0,1.74,0V41.25a3.708,3.708,0,0,1,1.791-3.164l2.3-1.379a6.39,6.39,0,0,1,1.393-.623L9.382,37a2.841,2.841,0,0,0,1.112.226,2.89,2.89,0,0,0,.721-.092L9.946,53.5a22.838,22.838,0,0,1-5.722-2.069A4.529,4.529,0,0,1,1.74,47.388V46.1A.87.87,0,1,0,0,46.1v1.289a6.262,6.262,0,0,0,3.432,5.6,22.967,22.967,0,0,0,9.4,2.62v1.383a2.422,2.422,0,0,0,2.419,2.419H35.365a.87.87,0,1,0,0-1.74H15.255a.679.679,0,0,1-.679-.679V55.609A22.472,22.472,0,0,0,24,52.995a6.266,6.266,0,0,0,3.406-5.583V41.25a5.383,5.383,0,0,0-.171-1.344H39.63a.87.87,0,1,0,0-1.74H26.444a5.415,5.415,0,0,0-1.671-1.572l-.611-.367H39.63a.87.87,0,1,0,0-1.74H22.582A1.38,1.38,0,0,0,22,32.977L20.84,32.23a4.741,4.741,0,0,0-3.983-.548l-.226.07V30.582a6.528,6.528,0,0,0,3.594-5.826v-.31l.832-.6a6.65,6.65,0,0,0,2.026-2.339H39.63a.87.87,0,1,0,0-1.74H23.7a6.681,6.681,0,0,0,.115-1.938H39.63a.87.87,0,1,0,0-1.74H23.452l-.29-1.053a3.326,3.326,0,0,0-4.033-2.327A1.581,1.581,0,0,1,17.245,11.7L17.1,11.3a4.244,4.244,0,0,0-2.528-2.6V6.136a.679.679,0,0,1,.679-.679H42.23l-1.09.629a1.471,1.471,0,0,0,0,2.548l2.55,1.472v3.142a1.473,1.473,0,0,0,1.471,1.471H47.29V56.987a.679.679,0,0,1-.679.679H38.73a.87.87,0,1,0,0,1.74h7.881a2.422,2.422,0,0,0,2.419-2.419V52.632l.338.585a1.922,1.922,0,0,0,.8.761v1.133a.87.87,0,1,0,1.74,0V53.977a1.921,1.921,0,0,0,.8-.761l1.954-3.379a.868.868,0,0,0,.125-.449V27.8h.643a.3.3,0,0,1,.3.3v7.683a.87.87,0,1,0,1.74,0V28.1a2.041,2.041,0,0,0-2.039-2.039h-.643V25.63a1.536,1.536,0,0,0-1.192-1.5V22.77a2.558,2.558,0,0,0-4.569-1.581V14.72h8.9a1.473,1.473,0,0,0,1.471-1.471V1.471A1.473,1.473,0,0,0,57.935,0ZM14.348,35.75l.477,6.233H14.74a.87.87,0,0,0,0,1.74h.22l.779,10.055a18.552,18.552,0,0,1-4.068-.012l1.391-18.017.643-.8Zm-4.285-.35L6.931,34.068l.583-.377a3.005,3.005,0,0,1,2.525-.348l2.183.675-.85,1.053a1.124,1.124,0,0,1-1.31.327Zm15.607,5.85v6.162A4.532,4.532,0,0,1,23.2,51.449a22.166,22.166,0,0,1-5.739,2.076l-.76-9.8h.7a.87.87,0,1,0,0-1.74h-.831L16.2,37.136a2.888,2.888,0,0,0,.721.092A2.841,2.841,0,0,0,18.028,37l2.159-.918a6.39,6.39,0,0,1,1.393.623l2.3,1.379a3.708,3.708,0,0,1,1.792,3.164Zm-8.3-7.905a3.006,3.006,0,0,1,2.525.348l.583.377L17.347,35.4a1.124,1.124,0,0,1-1.309-.327l-.85-1.053ZM14.891,32.29l-1.186.367-1.186-.367V31.169a6.559,6.559,0,0,0,2.372,0ZM13.7,29.536a4.785,4.785,0,0,1-4.78-4.78V19.98a10.544,10.544,0,0,0,5.981-1.46,4.989,4.989,0,0,0,3.578,1.419v4.818A4.785,4.785,0,0,1,13.7,29.536ZM15.46,11.869l.141.407A3.33,3.33,0,0,0,19.57,14.4a1.58,1.58,0,0,1,1.915,1.1l.444,1.613a4.957,4.957,0,0,1-1.7,5.186V19.776a1.567,1.567,0,0,0-1.52-1.569,3.333,3.333,0,0,1-2.562-.917A1.561,1.561,0,0,0,14.051,17a8.893,8.893,0,0,1-5.263,1.239,1.57,1.57,0,0,0-1.6,1.57V21.15l-.753-.617a4.939,4.939,0,0,1-1.4-5.787l.042-.094A7.719,7.719,0,0,1,12.109,10.1h.034a8.886,8.886,0,0,1,1.372.109,2.488,2.488,0,0,1,1.945,1.657ZM53.051,25.838V48.518H49.03V25.838ZM51.206,52.345a.191.191,0,0,1-.331,0l-1.207-2.087h2.744ZM50.222,22.77a.818.818,0,1,1,1.636,0V24.1H50.222Z" transform="translate(0 0)"/>
        <path id="Trazado_874390" data-name="Trazado 874390" d="M262.558,391.237a6.143,6.143,0,0,0,.127-2.118c-.011-.19-.026-.441-.025-.633a2.352,2.352,0,0,0,1.45-.872,3.391,3.391,0,0,0,.495-2.512.87.87,0,0,0-1.709.329,1.692,1.692,0,0,1-.169,1.126.726.726,0,0,1-.587.244,1.277,1.277,0,0,0-1.185,1.192,5.936,5.936,0,0,0-.008,1.225c.1,1.693-.1,1.882-.617,1.932a.712.712,0,0,1-.463-.067c-.288-.267-.262-1.393-.244-2.216a9.34,9.34,0,0,0-.168-2.547,2.361,2.361,0,0,0-2.019-1.883c-1.9-.283-3.268,1.018-4.178,2.43l-1.3-.194a.87.87,0,1,0-.257,1.721l.689.1a12.383,12.383,0,0,0-.543,1.477.87.87,0,0,0,1.675.472,10.671,10.671,0,0,1,.658-1.681l1.455.217a.882.882,0,0,0,.13.01.87.87,0,0,0,.128-1.731l-.7-.1a2.257,2.257,0,0,1,1.98-1c.655.1.744.867.7,2.67-.03,1.343-.061,2.731.8,3.53a2.116,2.116,0,0,0,1.494.54A2.307,2.307,0,0,0,262.558,391.237Z" transform="translate(-221.844 -339.798)"/>
      </g>
    </g>
  </g>
</svg>
