<svg xmlns="http://www.w3.org/2000/svg" xmlns:xlink="http://www.w3.org/1999/xlink" width="400" height="246" viewBox="0 0 400 246">
  <defs>
    <clipPath id="clip-path">
      <path id="Trazado_873467" data-name="Trazado 873467" d="M225.308,114.935a104,104,0,1,1-104-104,104,104,0,0,1,104,104" transform="translate(-17.313 -10.939)" fill="#fed7c3"/>
    </clipPath>
    <clipPath id="clip-path-2">
      <rect id="Rectángulo_35929" data-name="Rectángulo 35929" width="295" height="246" rx="10" fill="#2c423e"/>
    </clipPath>
    <clipPath id="clip-path-3">
      <rect id="Rectángulo_401431" data-name="Rectángulo 401431" width="338.076" height="883.503" fill="none"/>
    </clipPath>
    <clipPath id="clip-path-5">
      <rect id="Rectángulo_401427" data-name="Rectángulo 401427" width="110.365" height="17.687" fill="none"/>
    </clipPath>
    <clipPath id="clip-path-6">
      <rect id="Rectángulo_401428" data-name="Rectángulo 401428" width="58.291" height="66.504" fill="none"/>
    </clipPath>
    <clipPath id="clip-path-7">
      <rect id="Rectángulo_401429" data-name="Rectángulo 401429" width="17.172" height="66.254" fill="none"/>
    </clipPath>
  </defs>
  <g id="Grupo_1099911" data-name="Grupo 1099911" transform="translate(-1020 -859.776)">
    <g id="Grupo_1099659" data-name="Grupo 1099659">
      <g id="Grupo_133939" data-name="Grupo 133939" transform="translate(419.744 503.323)">
        <rect id="Rectángulo_35929-2" data-name="Rectángulo 35929" width="400" height="198.453" rx="10" transform="translate(600.256 404)" fill="#7f4d35"/>
      </g>
      <g id="Grupo_1099529" data-name="Grupo 1099529" transform="translate(1073 859.776)">
        <g id="Grupo_1099525" data-name="Grupo 1099525" transform="translate(43.005 19)">
          <g id="Grupo_1099433" data-name="Grupo 1099433" clip-path="url(#clip-path)">
            <path id="Trazado_873461" data-name="Trazado 873461" d="M42.356,50.738,81.431,11.662l36.788,36.79,37-37,38.659,38.659,38.243-38.243,34.547,34.547,5.728-5.728L232.119.416,193.876,38.657,155.216,0l-37,36.995L81.431.207,42.356,39.282,5.73,2.657,0,8.382Z" transform="translate(-23.692 -25.721)" fill="#fed7c3"/>
            <path id="Trazado_873462" data-name="Trazado 873462" d="M42.356,67.533,81.431,28.46l36.788,36.785,37-36.995L193.876,66.91l38.243-38.243,34.547,34.549,5.728-5.73L232.119,17.211,193.876,55.455,155.216,16.8l-37,37L81.431,17,42.356,56.078,5.73,19.452,0,25.177Z" transform="translate(-23.692 -3.026)" fill="#fed7c3"/>
            <path id="Trazado_873463" data-name="Trazado 873463" d="M42.356,84.328,81.431,45.255l36.788,36.788,37-36.995,38.659,38.657,38.243-38.243,34.547,34.549,5.728-5.73L232.119,34.007,193.876,72.25,155.216,33.59l-37,37L81.431,33.8,42.356,72.873,5.73,36.247,0,41.975Z" transform="translate(-23.692 19.669)" fill="#fed7c3"/>
            <path id="Trazado_873464" data-name="Trazado 873464" d="M42.356,101.124,81.431,62.049l36.788,36.788,37-36.995L193.876,100.5l38.243-38.246,34.547,34.549,5.728-5.728L232.119,50.8,193.876,89.046,155.216,50.387l-37,37L81.431,50.593,42.356,89.669,5.73,53.041,0,58.769Z" transform="translate(-23.692 42.365)" fill="#fed7c3"/>
            <path id="Trazado_873465" data-name="Trazado 873465" d="M42.356,117.919,81.431,78.844l36.788,36.788,37-36.995L193.876,117.3l38.243-38.243L266.666,113.6l5.728-5.728L232.119,67.6l-38.243,38.243L155.216,67.182l-37,37L81.431,67.391,42.356,106.467,5.73,69.839,0,75.566Z" transform="translate(-23.692 65.059)" fill="#fed7c3"/>
            <path id="Trazado_873466" data-name="Trazado 873466" d="M42.356,134.715,81.431,95.642l36.788,36.788,37-36.995,38.659,38.657,38.243-38.243L266.666,130.4l5.728-5.73L232.119,84.393l-38.243,38.243L155.216,83.977l-37,37L81.431,84.186,42.356,123.26,5.73,86.634,0,92.362Z" transform="translate(-23.692 87.754)" fill="#fed7c3"/>
          </g>
        </g>
        <g id="Enmascarar_grupo_1098695" data-name="Enmascarar grupo 1098695" clip-path="url(#clip-path-2)">
          <g id="Grupo_1099744" data-name="Grupo 1099744" transform="translate(13.503 0)">
            <g id="Grupo_1099755" data-name="Grupo 1099755" transform="translate(0 0)" clip-path="url(#clip-path-3)">
              <g id="Grupo_1099754" data-name="Grupo 1099754">
                <g id="Grupo_1099753" data-name="Grupo 1099753" clip-path="url(#clip-path-3)">
                  <path id="Trazado_873998" data-name="Trazado 873998" d="M0,375.761C0,392.07,74.108,405.29,165.522,405.29s165.521-13.22,165.521-29.529-74.1-29.529-165.521-29.529S0,359.452,0,375.761" transform="translate(7.031 478.212)" fill="#d9e6f8"/>
                  <path id="Trazado_873999" data-name="Trazado 873999" d="M112.831,10.476C135.49,17.1,153.166,40.884,161.909,79.9c4.4,19.631,5.212,39.716,15.692,52.048s12.12,30.136,11.284,40.178,1.357,25.107,7.977,33.327L43.1,205.324s8.577-21.445,6.939-39.706-6.877-30.589-3-49.3,9.122-27.124,1.693-42.9c-10.749-22.831,6.141-79.875,64.1-62.937" transform="translate(38.584 10.195)" fill="#1c1318"/>
                  <path id="Trazado_874000" data-name="Trazado 874000" d="M69.506,12.477A19.463,19.463,0,1,0,94.661,1.3,19.461,19.461,0,0,0,69.506,12.477" transform="translate(68.538 0)" fill="#1c1318"/>
                  <path id="Trazado_874001" data-name="Trazado 874001" d="M107.945,16.432c0,3.822,3.212,25.576,20.843,34.115l1.312,12.2,11.873,39.4-27.8,20.407L97,102.4l.014-17.785C85.548,85.639,76,79,75.273,66.656s-.126-23.062-3.648-29.677c0,0,17.93-.281,36.32-20.547" transform="translate(25.551 22.696)" fill="#f0956d"/>
                  <path id="Trazado_874002" data-name="Trazado 874002" d="M94.489,38.9a6.318,6.318,0,1,1-6.32-6.32,6.319,6.319,0,0,1,6.32,6.32" transform="translate(48.682 45.001)" fill="#e25e59"/>
                  <path id="Trazado_874003" data-name="Trazado 874003" d="M81.151,51.137a27.962,27.962,0,0,0,20.4-10.675" transform="translate(43.287 55.886)" fill="none" stroke="#1c1318" stroke-miterlimit="10" stroke-width="0.464"/>
                  <path id="Trazado_874004" data-name="Trazado 874004" d="M92.391,42.29C89.31,49.269,82.447,53,77.063,50.624S69.812,40.661,72.9,33.682s9.944-10.713,15.328-8.334,7.248,9.963,4.167,16.942" transform="translate(74.161 34.02)" fill="#f0956d"/>
                  <path id="Trazado_874005" data-name="Trazado 874005" d="M74.149,39.526s1.993-10.58,11.144-12.668" transform="translate(76.221 37.096)" fill="none" stroke="#1c1318" stroke-miterlimit="10" stroke-width="0.464"/>
                  <line id="Línea_571" data-name="Línea 571" x1="1.388" y1="6.553" transform="translate(156.81 66.106)" fill="none" stroke="#1c1318" stroke-miterlimit="10" stroke-width="0.464"/>
                  <path id="Trazado_874006" data-name="Trazado 874006" d="M80.891,37.435a4.262,4.262,0,1,1-4.26-4.265A4.265,4.265,0,0,1,80.891,37.435Z" transform="translate(84.869 45.814)" fill="none" stroke="#fff" stroke-miterlimit="10" stroke-width="0.464"/>
                  <path id="Trazado_874007" data-name="Trazado 874007" d="M99.146,33.517l1.422-2.055a3.186,3.186,0,0,0-2.8-1,3.234,3.234,0,1,0,3.7,2.686,2.6,2.6,0,0,0-.131-.352Z" transform="translate(10.258 42.024)" fill="#121f32"/>
                  <path id="Trazado_874008" data-name="Trazado 874008" d="M90.764,32.186l1.422-2.055a3.171,3.171,0,0,0-2.8-1,3.233,3.233,0,1,0,3.7,2.684,2.73,2.73,0,0,0-.131-.352Z" transform="translate(38.599 40.186)" fill="#121f32"/>
                  <path id="Trazado_874009" data-name="Trazado 874009" d="M90.041,31.456s.071,3.455,0,6.32,3.3,4.412,6.979,1.991" transform="translate(26.67 43.447)" fill="none" stroke="#1c1318" stroke-miterlimit="10" stroke-width="0.464"/>
                  <path id="Trazado_874010" data-name="Trazado 874010" d="M85.653,40.521c3.234.957,11.244,1.4,16.318-5.572" transform="translate(32.149 48.271)" fill="none" stroke="#1c1318" stroke-miterlimit="10" stroke-width="0.464"/>
                  <line id="Línea_572" data-name="Línea 572" x2="3.727" y2="2.281" transform="translate(131.718 81.823)" fill="none" stroke="#1c1318" stroke-miterlimit="10" stroke-width="0.464"/>
                  <path id="Trazado_874011" data-name="Trazado 874011" d="M85.089,27.265s8.013-2.638,13.6-.65" transform="translate(36.778 35.736)" fill="none" stroke="#7b2a27" stroke-linecap="round" stroke-linejoin="round" stroke-width="0.971"/>
                  <path id="Trazado_874012" data-name="Trazado 874012" d="M94.041,29.11s5.146-3.007,10.73-1.167" transform="translate(9.376 37.771)" fill="none" stroke="#7b2a27" stroke-linecap="round" stroke-linejoin="round" stroke-width="0.971"/>
                  <path id="Trazado_874013" data-name="Trazado 874013" d="M187.225,314.21l-.041,48.979a29.963,29.963,0,0,0,1.764,10.232c2.965,8.229,8.556,26.731,7.886,47.8l-112.878-.1s6.6-14.949,36.5-24.121a40.79,40.79,0,0,0,14.42-8.046l11.013-9.375a22.465,22.465,0,0,0,7.551-21.081l-7.958-44.326Z" transform="translate(-58.734 433.934)" fill="#f0956d"/>
                  <path id="Trazado_874014" data-name="Trazado 874014" d="M191.526,342.518l-27.369,13.039-20.181-13.23-9.1,7.746a40.872,40.872,0,0,1-14.418,8.046c-29.9,9.172-36.5,24.121-36.5,24.121l112.878.093a131.294,131.294,0,0,0-5.31-39.816" transform="translate(-58.734 472.819)" fill="#1c1318"/>
                  <path id="Trazado_874015" data-name="Trazado 874015" d="M12.01,314.222,21.8,369.175a25.69,25.69,0,0,1,.121,8.3l-6.477,43.747,86.423.074s-1.167-12.935-5.279-16.466-15.863-12.358-15.863-12.358L63.091,374.15a24.244,24.244,0,0,1-6.727-15.24l-2.907-44.652Z" transform="translate(207.607 434)" fill="#f0956d"/>
                  <path id="Trazado_874016" data-name="Trazado 874016" d="M60.323,339.679A42.265,42.265,0,0,0,30.41,354.7L17.65,348l-5.639,38.063,86.423.071s-1.164-12.935-5.277-16.466-15.863-12.358-15.863-12.358Z" transform="translate(211.042 469.161)" fill="#1c1318"/>
                  <path id="Trazado_874017" data-name="Trazado 874017" d="M61.084,92.338,98.157,52.687l44.973-.257,25.1,40L146.886,225.016l-83.708-.069Z" transform="translate(24.392 72.415)" fill="#306ff3"/>
                  <path id="Trazado_874018" data-name="Trazado 874018" d="M70.348,83.424,96.093,61.987,126.632,92" transform="translate(43.933 85.615)" fill="none" stroke="#fff" stroke-miterlimit="10" stroke-width="0.464"/>
                  <line id="Línea_573" data-name="Línea 573" x1="16.499" y2="126.975" transform="translate(123.517 157.744)" fill="none" stroke="#fff" stroke-miterlimit="10" stroke-width="0.464"/>
                  <path id="Trazado_874019" data-name="Trazado 874019" d="M192.47,192.025l69.34,389.551-79.367-.069-81.5-349.287,24.174,353.65L44.867,585.8,22.591,175.273l36.554-50.11L174.3,128.2Z" transform="translate(22.473 172.874)" fill="#ea513b"/>
                  <path id="Trazado_874020" data-name="Trazado 874020" d="M219.767,192.024,201.6,128.2,86.442,125.163l-36.554,50.11.555,10.215c24.981.519,107.277,4.281,173.665,30.925Z" transform="translate(-4.824 172.874)" fill="#d83b2b"/>
                  <path id="Trazado_874021" data-name="Trazado 874021" d="M98.619,227.584,90.149,194l5.982-65.478" transform="translate(24.797 177.51)" fill="none" stroke="#1c1318" stroke-miterlimit="10" stroke-width="0.464"/>
                  <line id="Línea_574" data-name="Línea 574" x2="75.553" y2="0.064" transform="translate(89.265 378.168)" fill="none" stroke="#1c1318" stroke-miterlimit="10" stroke-width="0.464"/>
                  <line id="Línea_575" data-name="Línea 575" x2="4.324" y2="58.794" transform="translate(111.231 306.021)" fill="none" stroke="#1c1318" stroke-miterlimit="10" stroke-width="0.464"/>
                  <line id="Línea_576" data-name="Línea 576" x2="20.804" y2="427.428" transform="translate(71.227 331.267)" fill="none" stroke="#1c1318" stroke-miterlimit="10" stroke-width="0.464"/>
                  <line id="Línea_577" data-name="Línea 577" x2="76.877" y2="423.066" transform="translate(171.249 331.351)" fill="none" stroke="#1c1318" stroke-miterlimit="10" stroke-width="0.464"/>
                  <g id="Grupo_1099746" data-name="Grupo 1099746" transform="translate(79.474 292.179)" opacity="0.2">
                    <g id="Grupo_1099745" data-name="Grupo 1099745">
                      <g id="Grupo_1099744-2" data-name="Grupo 1099744" clip-path="url(#clip-path-5)">
                        <rect id="Rectángulo_401426" data-name="Rectángulo 401426" width="110.349" height="17.597" transform="translate(0.009 0.045)" fill="#4f454d"/>
                      </g>
                    </g>
                  </g>
                  <path id="Trazado_874022" data-name="Trazado 874022" d="M74.042,52.429,47.01,218.162a45.648,45.648,0,0,0,1.631,21.426l10.7,32.989a9.148,9.148,0,0,0,13.27,5.105l52.855-30.465-22.9-34.853L132.9,105.418a30.639,30.639,0,0,0-18.168-36.835Z" transform="translate(93.482 72.414)" fill="#fff"/>
                  <line id="Línea_578" data-name="Línea 578" x1="27.946" y2="23.452" transform="translate(156.492 286.387)" fill="none" stroke="#1c1318" stroke-miterlimit="10" stroke-width="0.464"/>
                  <path id="Trazado_874023" data-name="Trazado 874023" d="M93.03,55,95.576,58.9A39.285,39.285,0,0,1,97,99.429l-4.915,8.837L97.569,124.5a27.924,27.924,0,0,1-1.555,21.564L66.208,204.809" transform="translate(78.477 75.96)" fill="none" stroke="#1c1318" stroke-miterlimit="10" stroke-width="0.464"/>
                  <g id="Grupo_1099749" data-name="Grupo 1099749" transform="translate(160.658 284.781)" opacity="0.2">
                    <g id="Grupo_1099748" data-name="Grupo 1099748" transform="translate(0)">
                      <g id="Grupo_1099747" data-name="Grupo 1099747" clip-path="url(#clip-path-6)">
                        <path id="Trazado_874024" data-name="Trazado 874024" d="M85.42,119.6,50.028,186.055a9.026,9.026,0,0,0,5.434-1.143l52.858-30.463Z" transform="translate(-50.028 -119.596)" fill="#4f454d"/>
                      </g>
                    </g>
                  </g>
                  <g id="Grupo_1099752" data-name="Grupo 1099752" transform="translate(196.854 202.62)" opacity="0.2">
                    <g id="Grupo_1099751" data-name="Grupo 1099751" transform="translate(0)">
                      <g id="Grupo_1099750" data-name="Grupo 1099750" clip-path="url(#clip-path-7)">
                        <path id="Trazado_874025" data-name="Trazado 874025" d="M52.1,85.092,55.8,151.346l13.463-47.471Z" transform="translate(-52.097 -85.092)" fill="#4f454d"/>
                      </g>
                    </g>
                  </g>
                  <path id="Trazado_874026" data-name="Trazado 874026" d="M55.249,155.4l36.094,8.048L69.225,139.159Z" transform="translate(115.174 192.205)" fill="#f0956d"/>
                  <path id="Trazado_874027" data-name="Trazado 874027" d="M213.062,52.537l-21.6,212.507a11.766,11.766,0,0,1-11.715,10.577l-53.3-.045s21.209-51.2,38.428-79.37l-.426-15.4L139.4,207.188a28.338,28.338,0,0,1-44.35-34.9L149.163,88.6A54.037,54.037,0,0,1,174.7,67.677Z" transform="translate(-90.514 72.564)" fill="#fff"/>
                  <path id="Trazado_874028" data-name="Trazado 874028" d="M113.724,53.925c-6.182,9.256-22.728,23.131-9.965,52.022-13.247,23.359-15.918,54.867-6.251,93.464" transform="translate(5.956 74.481)" fill="none" stroke="#1c1318" stroke-miterlimit="10" stroke-width="0.464"/>
                  <line id="Línea_579" data-name="Línea 579" y1="43.354" x2="4.858" transform="translate(46.885 221.164)" fill="none" stroke="#1c1318" stroke-miterlimit="10" stroke-width="0.464"/>
                  <path id="Trazado_874029" data-name="Trazado 874029" d="M209.4,177.931l-83.92-.071L84.3,59.424l83.92.071Z" transform="translate(-72.066 82.076)" fill="#f1a23a"/>
                  <path id="Trazado_874030" data-name="Trazado 874030" d="M26.6,120.39l38.451,67.935L19.142,252.37l30.543,33.537,63.973-59.365a42.455,42.455,0,0,0,8.806-50.676L79.72,93.495A64.248,64.248,0,0,0,46.4,63.373L30.832,57.191Z" transform="translate(165.257 78.992)" fill="#fff"/>
                  <line id="Línea_580" data-name="Línea 580" y1="13.806" x2="10.446" transform="translate(230.31 253.513)" fill="none" stroke="#1c1318" stroke-miterlimit="10" stroke-width="0.464"/>
                  <path id="Trazado_874031" data-name="Trazado 874031" d="M120.551,96.626c.179-.843,5.848-7.713,11.032-11.344a74.121,74.121,0,0,1,8.784-5.148,4.161,4.161,0,0,1,4.893.864l4.21,4.434a4.18,4.18,0,0,1,.562,5.008l-9.758,16.454s14.447-7.7,15.437-7.041c.591.393-4.924,6.567-9.506,11.523a12.387,12.387,0,0,1-14.906,2.612c-6.039-3.227-12.556-8.794-10.749-17.361" transform="translate(-104.004 110.068)" fill="#f0956d"/>
                  <line id="Línea_581" data-name="Línea 581" y1="13.147" x2="16.904" transform="translate(25.145 191.901)" fill="none" stroke="#1c1318" stroke-miterlimit="10" stroke-width="0.464"/>
                  <line id="Línea_582" data-name="Línea 582" y1="16.997" x2="13.989" transform="translate(31.202 195.552)" fill="none" stroke="#1c1318" stroke-miterlimit="10" stroke-width="0.464"/>
                </g>
              </g>
            </g>
          </g>
        </g>
      </g>
    </g>
  </g>
</svg>
