<svg xmlns="http://www.w3.org/2000/svg" width="82" height="82" viewBox="0 0 82 82">
  <g id="Grupo_1099942" data-name="Grupo 1099942" transform="translate(-336.051 -1084)">
    <circle id="Elipse_11497" data-name="Elipse 11497" cx="41" cy="41" r="41" transform="translate(336.051 1084)" fill="#405f5a"/>
    <g id="Page-1" transform="translate(354.051 1103)">
      <g id="_002---Pen-and-Paper" data-name="002---Pen-and-Paper" transform="translate(0 0)">
        <path id="Shape" d="M33.25,2.5V43a1.5,1.5,0,0,1-1.5,1.5H2.5A1.5,1.5,0,0,1,1,43V12.123a1.492,1.492,0,0,1,.255-.832l.495.21h7.5A2.25,2.25,0,0,0,11.5,9.25V1.75l-.443-.307A1.5,1.5,0,0,1,12.123,1H31.75a1.5,1.5,0,0,1,1.5,1.5Z" transform="translate(-0.25 -0.25)" fill="#f5f5f5"/>
        <path id="Shape-2" data-name="Shape" d="M41.25,1H39a1.5,1.5,0,0,1,1.5,1.5V43A1.5,1.5,0,0,1,39,44.5h2.25a1.5,1.5,0,0,0,1.5-1.5V2.5A1.5,1.5,0,0,0,41.25,1Z" transform="translate(-9.75 -0.25)" fill="#cfd8dc"/>
        <path id="Shape-3" data-name="Shape" d="M11.585,1.9V9.4a2.25,2.25,0,0,1-2.25,2.25h-7.5l-.5-.21a1.414,1.414,0,0,1,.188-.233L11.143,1.59Z" transform="translate(-0.335 -0.397)" fill="#cfd8dc"/>
        <path id="Shape-4" data-name="Shape" d="M54.847,24.632l-4.32,2.993L46.26,21.452l4.32-2.985a2.25,2.25,0,0,1,3.128.57l1.71,2.468a2.25,2.25,0,0,1-.57,3.128Z" transform="translate(-11.565 -4.517)" fill="#e91e63"/>
        <path id="Shape-5" data-name="Shape" d="M56.6,21.507l-1.71-2.468a2.243,2.243,0,0,0-2.969-.657,2.212,2.212,0,0,1,.719.657l1.71,2.468a2.25,2.25,0,0,1-.57,3.128l-2.8,1.939.728,1.05,4.32-2.993a2.25,2.25,0,0,0,.57-3.124Z" transform="translate(-12.745 -4.519)" fill="#ad1457"/>
        <path id="Shape-6" data-name="Shape" d="M41.455,31.593,26.763,41.748a.756.756,0,0,1-.173.09l-.067-.187L22.51,35.845l-.21-.068a.8.8,0,0,1,.195-.195L37.188,25.42Z" transform="translate(-5.575 -6.355)" fill="#f44335"/>
        <path id="Shape-7" data-name="Shape" d="M38.394,25.42l-1.522,1.05,3.539,5.123L27.124,40.776l.6.875.068.188a.756.756,0,0,0,.172-.09L42.661,31.593Z" transform="translate(-6.781 -6.355)" fill="#c81e1e"/>
        <path id="Rectangle-path" d="M0,0H3.747V7.5H0Z" transform="translate(31.615 19.086) rotate(-34.612)" fill="#ffdc00"/>
        <path id="Shape-8" data-name="Shape" d="M45.752,22.58,44.23,23.632l3.54,5.12L46.21,29.83l.728,1.052,3.083-2.13Z" transform="translate(-11.057 -5.645)" fill="#fec108"/>
        <path id="Shape-9" data-name="Shape" d="M25.7,45.29c-.022.007-.045.015-.075.022L21.02,46.43l-.037-.142-2.115-3.053-.128-.09,2.67-3.915.21.068L25.633,45.1Z" transform="translate(-4.685 -9.807)" fill="#ffe0b2"/>
        <path id="Shape-10" data-name="Shape" d="M26.177,45.1,22.164,39.3l-.21-.068-1.036,1.52,3.009,4.35.067.188c-.022.007-.045.015-.075.022l-2.625.637.234.338.037.142,4.605-1.118c.03-.007.052-.015.075-.022Z" transform="translate(-5.229 -9.807)" fill="#dfc49c"/>
        <path id="Shape-11" data-name="Shape" d="M20.3,47.735l-3.517.855a.75.75,0,0,1-.795-1.155l2.033-2.985.128.09,2.115,3.053Z" transform="translate(-3.963 -11.112)" fill="#545c60"/>
        <g id="Grupo_1099941" data-name="Grupo 1099941">
          <path id="Shape-12" data-name="Shape" d="M2.25,45H31.5a2.25,2.25,0,0,0,2.25-2.25v-12a.75.75,0,1,0-1.5,0v12a.75.75,0,0,1-.75.75H2.25a.75.75,0,0,1-.75-.75V12H9a3,3,0,0,0,3-3V1.5H31.5a.75.75,0,0,1,.75.75v12a.75.75,0,0,0,1.5,0v-12A2.25,2.25,0,0,0,31.5,0H11.872A2.233,2.233,0,0,0,10.28.659L.659,10.28A2.233,2.233,0,0,0,0,11.872V42.75A2.25,2.25,0,0,0,2.25,45ZM10.5,2.56V9A1.5,1.5,0,0,1,9,10.5H2.56Z" transform="translate(0 0)"/>
          <path id="Shape-13" data-name="Shape" d="M6,20.75a.75.75,0,0,0,.75.75H30A.75.75,0,1,0,30,20H6.75A.75.75,0,0,0,6,20.75Z" transform="translate(-1.5 -5)"/>
          <path id="Shape-14" data-name="Shape" d="M6.75,26.5H24.578a.75.75,0,0,0,0-1.5H6.75a.75.75,0,0,0,0,1.5Z" transform="translate(-1.5 -6.25)"/>
          <path id="Shape-15" data-name="Shape" d="M6.75,31.5h12.4a.75.75,0,1,0,0-1.5H6.75a.75.75,0,0,0,0,1.5Z" transform="translate(-1.5 -7.5)"/>
          <path id="Shape-16" data-name="Shape" d="M6.75,40.5h5.64a.75.75,0,0,0,0-1.5H6.75a.75.75,0,0,0,0,1.5Z" transform="translate(-1.5 -9.75)"/>
          <path id="Shape-17" data-name="Shape" d="M6.75,45.5H9.833a.75.75,0,1,0,0-1.5H6.75a.75.75,0,0,0,0,1.5Z" transform="translate(-1.5 -11)"/>
          <path id="Shape-18" data-name="Shape" d="M32.685,22.717,18,32.877a1.5,1.5,0,0,0-.386.389l-4.709,6.9a1.5,1.5,0,0,0-.262.846H6.75a.75.75,0,0,0,0,1.5h7.384a1.518,1.518,0,0,0,.359-.043l8.12-1.97a1.482,1.482,0,0,0,.5-.225L37.8,30.121l3.084-2.133L45.2,25a3,3,0,0,0,.761-4.174l-1.707-2.467a3,3,0,0,0-4.174-.761l-4.318,2.986Zm3.32-.472,3.413,4.935L37.568,28.46l-3.412-4.935Zm.328,7.068L22.763,38.7,19.35,33.764l13.575-9.386ZM18.311,34.9l3.024,4.372-3.125.757L16.5,37.554ZM15.595,38.88l1.055,1.527-2.511.61ZM40.94,18.832a1.5,1.5,0,0,1,2.087.381l1.706,2.467a1.5,1.5,0,0,1-.381,2.086l-3.7,2.561-3.413-4.935Z" transform="translate(-1.5 -4.267)"/>
          <path id="Shape-19" data-name="Shape" d="M36.75,48.75v3h-3a.75.75,0,0,0,0,1.5H37.5a.75.75,0,0,0,.75-.75V48.75a.75.75,0,0,0-1.5,0Z" transform="translate(-8.25 -12)"/>
          <path id="Shape-20" data-name="Shape" d="M36.75,5h-6a.75.75,0,0,0,0,1.5h6a.75.75,0,0,0,0-1.5Z" transform="translate(-7.5 -1.25)"/>
          <path id="Shape-21" data-name="Shape" d="M37.5,9H33.75a.75.75,0,0,0,0,1.5H37.5a.75.75,0,0,0,0-1.5Z" transform="translate(-8.25 -2.25)"/>
        </g>
      </g>
    </g>
  </g>
</svg>
