<svg xmlns="http://www.w3.org/2000/svg" width="82" height="82" viewBox="0 0 82 82">
  <g id="Grupo_1099945" data-name="Grupo 1099945" transform="translate(-1170.051 -1084)">
    <circle id="Elipse_11497" data-name="Elipse 11497" cx="41" cy="41" r="41" transform="translate(1170.051 1084)" fill="#405f5a"/>
    <g id="lista-de-verificacion_3_" data-name="lista-de-verificacion (3)" transform="translate(1142.977 1094.96)">
      <path id="Trazado_874458" data-name="Trazado 874458" d="M84.978,8.753,96.146,52a3.268,3.268,0,0,1-2.34,3.976L63.645,63.762a3.262,3.262,0,0,1-3.976-2.34L48.5,18.169a3.262,3.262,0,0,1,2.34-3.976L81,6.4a3.26,3.26,0,0,1,3.976,2.351Z" transform="translate(-4.71 -4.651)" fill="#e77c6a"/>
      <path id="Trazado_874459" data-name="Trazado 874459" d="M84.89,8.753l.207.807a6.839,6.839,0,0,1-1.118,5.774l-1.268,1.717a6.81,6.81,0,0,1-3.792,2.559L58.889,24.784a6.81,6.81,0,0,1-4.552-.4l-1.948-.887a6.86,6.86,0,0,1-3.78-4.506L48.4,18.18a3.262,3.262,0,0,1,2.34-3.976L80.914,6.4A3.26,3.26,0,0,1,84.89,8.753Z" transform="translate(-4.622 -4.651)" fill="#f1b2a3"/>
      <path id="Trazado_874460" data-name="Trazado 874460" d="M163.458,8.753,174.626,52a3.268,3.268,0,0,1-2.34,3.976l-30.161,7.791a3.262,3.262,0,0,1-3.976-2.34L137.1,57.377a37.674,37.674,0,0,0,23.765-44.89L159.32,6.448l.173-.046a3.254,3.254,0,0,1,3.965,2.351Z" transform="translate(-83.19 -4.651)" opacity="0.1"/>
      <path id="Trazado_874461" data-name="Trazado 874461" d="M131.561,36.835V82.348a2.833,2.833,0,0,1-2.835,2.835H97.135A2.833,2.833,0,0,1,94.3,82.348V36.835A2.833,2.833,0,0,1,97.135,34h31.59A2.833,2.833,0,0,1,131.561,36.835Z" transform="translate(-45.323 -29.161)" fill="#e8f1f8"/>
      <path id="Trazado_874462" data-name="Trazado 874462" d="M131.661,36.747V82.259a2.833,2.833,0,0,1-2.835,2.835H97.235A2.833,2.833,0,0,1,94.4,82.259V80.531a34.424,34.424,0,0,0,31.026-34.253V33.9h3.4A2.85,2.85,0,0,1,131.661,36.747Z" transform="translate(-45.411 -29.073)" opacity="0.1"/>
      <path id="Trazado_874463" data-name="Trazado 874463" d="M145,92.7a5.3,5.3,0,1,1-5.3-5.3A5.3,5.3,0,0,1,145,92.7Z" transform="translate(-80.801 -76.407)" fill="#f14f4a"/>
      <path id="Trazado_874464" data-name="Trazado 874464" d="M145,215.3a5.3,5.3,0,1,1-5.3-5.3A5.3,5.3,0,0,1,145,215.3Z" transform="translate(-80.801 -184.877)" fill="#0e9c4a"/>
      <path id="Trazado_874465" data-name="Trazado 874465" d="M145,337.8a5.3,5.3,0,1,1-5.3-5.3A5.3,5.3,0,0,1,145,337.8Z" transform="translate(-80.801 -293.259)" fill="#f78721"/>
      <g id="Grupo_1099944" data-name="Grupo 1099944" transform="translate(43.074 1.04)">
        <path id="Trazado_874466" data-name="Trazado 874466" d="M92.035,47.182,86.86,27.152V7.674a3.448,3.448,0,0,0-3.446-3.446H80.937l-.069-.277a3.882,3.882,0,0,0-4.725-2.789L64.271,4.228H51.824a3.45,3.45,0,0,0-3.458,3.446v.657l-2.386.622a3.9,3.9,0,0,0-2.789,4.725L48.367,33.7V53.187a3.448,3.448,0,0,0,3.446,3.446h2.478l.069.277A3.873,3.873,0,0,0,59.085,59.7l11.848-3.054H83.4A3.448,3.448,0,0,0,86.849,53.2V52.53l2.386-.622A3.909,3.909,0,0,0,92.035,47.182ZM79.669,4.228h-10.5L76.453,2.35A2.651,2.651,0,0,1,79.669,4.228Zm-35.29,9.139a2.674,2.674,0,0,1,1.913-3.239l2.075-.53v8.828l-.334-.161a6.647,6.647,0,0,1-3.653-4.9Zm1.233,4.748a7.143,7.143,0,0,0,1.913,1.256l.853.392v9.024ZM58.774,58.5a2.636,2.636,0,0,1-3.216-1.879H66.035Zm26.853-5.313A2.226,2.226,0,0,1,83.4,55.411H51.813a2.233,2.233,0,0,1-2.224-2.224V7.674A2.226,2.226,0,0,1,51.813,5.45c36.016.012,31.141.012,31.59,0a2.226,2.226,0,0,1,2.224,2.224Zm3.308-2.466-2.086.542V32.05l4,15.432A2.674,2.674,0,0,1,88.935,50.72Z" transform="translate(-43.074 -1.04)"/>
        <path id="Trazado_874467" data-name="Trazado 874467" d="M161.207,119.482a.605.605,0,0,0,0,.864l.887.887a.605.605,0,0,0,.864,0l2.363-2.363a.611.611,0,1,0-.864-.864l-1.936,1.936-.449-.449A.6.6,0,0,0,161.207,119.482Z" transform="translate(-147.431 -104.365)"/>
        <path id="Trazado_874468" data-name="Trazado 874468" d="M266.476,110.9H252.611a.611.611,0,0,0,0,1.222h13.865a.615.615,0,0,0,.611-.611A.607.607,0,0,0,266.476,110.9Z" transform="translate(-227.921 -98.239)"/>
        <path id="Trazado_874469" data-name="Trazado 874469" d="M252.611,146.622h8.782a.611.611,0,0,0,0-1.222h-8.782a.611.611,0,0,0,0,1.222Z" transform="translate(-227.921 -128.762)"/>
        <path id="Trazado_874470" data-name="Trazado 874470" d="M164.445,240.607l-1.925,1.925-.449-.449a.611.611,0,1,0-.864.864l.887.887a.605.605,0,0,0,.864,0l2.363-2.363a.605.605,0,0,0,0-.864A.619.619,0,0,0,164.445,240.607Z" transform="translate(-147.431 -212.836)"/>
        <path id="Trazado_874471" data-name="Trazado 874471" d="M266.476,233.4H252.611a.611.611,0,0,0,0,1.222h13.865a.615.615,0,0,0,.611-.611A.607.607,0,0,0,266.476,233.4Z" transform="translate(-227.921 -206.62)"/>
        <path id="Trazado_874472" data-name="Trazado 874472" d="M252.611,269.222h8.782a.611.611,0,0,0,0-1.222h-8.782a.611.611,0,0,0,0,1.222Z" transform="translate(-227.921 -237.233)"/>
        <path id="Trazado_874473" data-name="Trazado 874473" d="M164.445,363.207l-1.925,1.925-.449-.449a.611.611,0,1,0-.864.864l.887.887a.605.605,0,0,0,.864,0l2.363-2.363a.605.605,0,0,0,0-.864A.619.619,0,0,0,164.445,363.207Z" transform="translate(-147.431 -321.306)"/>
        <path id="Trazado_874474" data-name="Trazado 874474" d="M266.476,356H252.611a.611.611,0,0,0,0,1.222h13.865a.615.615,0,0,0,.611-.611A.608.608,0,0,0,266.476,356Z" transform="translate(-227.921 -315.091)"/>
        <path id="Trazado_874475" data-name="Trazado 874475" d="M261.393,390.5h-8.782a.611.611,0,0,0,0,1.222h8.782a.611.611,0,0,0,0-1.222Z" transform="translate(-227.921 -345.614)"/>
        <path id="Trazado_874476" data-name="Trazado 874476" d="M134.912,93.925A5.912,5.912,0,1,0,129,88.012h0A5.917,5.917,0,0,0,134.912,93.925Zm0-10.6a4.691,4.691,0,1,1-4.679,4.691A4.695,4.695,0,0,1,134.912,83.322Z" transform="translate(-119.097 -72.758)"/>
        <path id="Trazado_874477" data-name="Trazado 874477" d="M135.012,204.7a5.918,5.918,0,1,0,5.924,5.912A5.917,5.917,0,0,0,135.012,204.7Zm0,10.6a4.691,4.691,0,1,1,4.691-4.691A4.7,4.7,0,0,1,135.012,215.3Z" transform="translate(-119.185 -181.228)"/>
        <path id="Trazado_874478" data-name="Trazado 874478" d="M135.012,327.2a5.918,5.918,0,1,0,5.924,5.912A5.917,5.917,0,0,0,135.012,327.2Zm0,10.615a4.691,4.691,0,1,1,4.691-4.691A4.7,4.7,0,0,1,135.012,337.815Z" transform="translate(-119.185 -289.61)"/>
      </g>
    </g>
  </g>
</svg>
