<svg xmlns="http://www.w3.org/2000/svg" xmlns:xlink="http://www.w3.org/1999/xlink" width="374" height="422" viewBox="0 0 374 422">
  <defs>
    <clipPath id="clip-path">
      <path id="Trazado_873467" data-name="Trazado 873467" d="M17.313,71.745A60.807,60.807,0,1,0,78.12,10.939,60.807,60.807,0,0,0,17.313,71.745" transform="translate(-17.313 -10.939)" fill="#2436b1"/>
    </clipPath>
    <clipPath id="clip-path-2">
      <rect id="Rectángulo_401258" data-name="Rectángulo 401258" width="156.755" height="138.971" fill="#405f5a"/>
    </clipPath>
    <clipPath id="clip-path-3">
      <rect id="Rectángulo_401262" data-name="Rectángulo 401262" width="330.513" height="402.957" transform="translate(0 0)" fill="none" stroke="#707070" stroke-width="1"/>
    </clipPath>
    <clipPath id="clip-path-4">
      <rect id="Rectángulo_401503" data-name="Rectángulo 401503" width="347.26" height="892.578" transform="translate(0 0)" fill="none"/>
    </clipPath>
    <clipPath id="clip-path-5">
      <rect id="Rectángulo_401502" data-name="Rectángulo 401502" width="347.26" height="892.578" fill="none"/>
    </clipPath>
    <clipPath id="clip-path-6">
      <rect id="Rectángulo_401499" data-name="Rectángulo 401499" width="113.364" height="17.869" fill="none"/>
    </clipPath>
    <clipPath id="clip-path-7">
      <rect id="Rectángulo_401500" data-name="Rectángulo 401500" width="59.874" height="67.187" fill="none"/>
    </clipPath>
    <clipPath id="clip-path-8">
      <rect id="Rectángulo_401501" data-name="Rectángulo 401501" width="17.638" height="66.935" fill="none"/>
    </clipPath>
  </defs>
  <g id="Grupo_1099934" data-name="Grupo 1099934" transform="translate(-284.332 -555)">
    <g id="Grupo_1099915" data-name="Grupo 1099915" transform="translate(18849.793 9925.638)">
      <rect id="Rectángulo_401253" data-name="Rectángulo 401253" width="314.354" height="278.388" rx="17" transform="translate(-18528.6 -9246.798)" fill="#d2d6ef"/>
      <g id="Grupo_1099439" data-name="Grupo 1099439" transform="translate(-18334.563 -9070.627)">
        <g id="Grupo_1099433" data-name="Grupo 1099433" transform="translate(0 0)" clip-path="url(#clip-path)">
          <path id="Trazado_873461" data-name="Trazado 873461" d="M134.5,29.666,111.655,6.819,90.145,28.33,68.513,6.7l-22.6,22.6L23.549,6.941l-20.2,20.2L0,23.792,23.549.243,45.909,22.6,68.513,0,90.145,21.63,111.655.121,134.5,22.968,155.917,1.553l3.35,3.348Z" transform="translate(-23.801 -15.039)" fill="#2436b1"/>
          <path id="Trazado_873462" data-name="Trazado 873462" d="M134.5,46.461,111.655,23.615,90.145,45.124,68.513,23.493l-22.6,22.6L23.549,23.736l-20.2,20.2L0,40.587,23.549,17.039,45.909,39.4l22.6-22.6L90.145,38.427l21.51-21.51L134.5,39.763l21.415-21.415,3.35,3.348Z" transform="translate(-23.801 -8.744)" fill="#2436b1"/>
          <path id="Trazado_873463" data-name="Trazado 873463" d="M134.5,63.257,111.655,40.411,90.145,61.92,68.513,40.29l-22.6,22.6L23.549,40.532l-20.2,20.2L0,57.382,23.549,33.834,45.909,56.194l22.6-22.6L90.145,55.222l21.51-21.51L134.5,56.559l21.415-21.415,3.35,3.349Z" transform="translate(-23.801 -2.45)" fill="#2436b1"/>
          <path id="Trazado_873464" data-name="Trazado 873464" d="M134.5,80.053,111.655,57.205l-21.51,21.51L68.513,57.084l-22.6,22.6L23.549,57.326l-20.2,20.2L0,74.178,23.549,50.63,45.909,72.99l22.6-22.6L90.145,72.018l21.51-21.511L134.5,73.355l21.415-21.416,3.35,3.349Z" transform="translate(-23.801 3.845)" fill="#2436b1"/>
          <path id="Trazado_873465" data-name="Trazado 873465" d="M134.5,96.848,111.655,74,90.145,95.51,68.513,73.88l-22.6,22.6L23.549,74.123l-20.2,20.2L0,90.975l23.548-23.55L45.909,89.786l22.6-22.6L90.145,88.814l21.51-21.51L134.5,90.151l21.415-21.416,3.35,3.349Z" transform="translate(-23.801 10.139)" fill="#2436b1"/>
          <path id="Trazado_873466" data-name="Trazado 873466" d="M134.5,113.643,111.655,90.8l-21.51,21.51L68.513,90.676l-22.6,22.6L23.549,90.918l-20.2,20.2L0,107.769,23.549,84.22l22.361,22.361,22.6-22.6,21.632,21.632,21.51-21.51L134.5,106.945,155.917,85.53l3.35,3.349Z" transform="translate(-23.801 16.433)" fill="#2436b1"/>
        </g>
      </g>
      <g id="Grupo_1099438" data-name="Grupo 1099438" transform="translate(-18543.461 -9357.301)">
        <g id="Grupo_1099431" data-name="Grupo 1099431" clip-path="url(#clip-path-2)">
          <path id="Trazado_873431" data-name="Trazado 873431" d="M6.258,3.129A3.129,3.129,0,1,1,3.129,0,3.129,3.129,0,0,1,6.258,3.129" fill="#405f5a"/>
          <path id="Trazado_873432" data-name="Trazado 873432" d="M35.212,3.129A3.129,3.129,0,1,1,32.083,0a3.129,3.129,0,0,1,3.129,3.129" transform="translate(1.146)" fill="#405f5a"/>
          <path id="Trazado_873433" data-name="Trazado 873433" d="M64.165,3.129A3.129,3.129,0,1,1,61.036,0a3.129,3.129,0,0,1,3.129,3.129" transform="translate(2.292)" fill="#405f5a"/>
          <path id="Trazado_873434" data-name="Trazado 873434" d="M93.118,3.129A3.129,3.129,0,1,1,89.989,0a3.129,3.129,0,0,1,3.129,3.129" transform="translate(3.438)" fill="#405f5a"/>
          <path id="Trazado_873435" data-name="Trazado 873435" d="M122.072,3.129A3.13,3.13,0,1,1,118.943,0a3.13,3.13,0,0,1,3.129,3.129" transform="translate(4.583)" fill="#405f5a"/>
          <path id="Trazado_873436" data-name="Trazado 873436" d="M151.025,3.129A3.129,3.129,0,1,1,147.9,0a3.129,3.129,0,0,1,3.129,3.129" transform="translate(5.729)" fill="#405f5a"/>
          <path id="Trazado_873437" data-name="Trazado 873437" d="M6.258,35.044a3.129,3.129,0,1,1-3.129-3.129,3.13,3.13,0,0,1,3.129,3.129" transform="translate(0 1.263)" fill="#405f5a"/>
          <path id="Trazado_873438" data-name="Trazado 873438" d="M35.212,35.044a3.129,3.129,0,1,1-3.129-3.129,3.13,3.13,0,0,1,3.129,3.129" transform="translate(1.146 1.263)" fill="#405f5a"/>
          <path id="Trazado_873439" data-name="Trazado 873439" d="M64.165,35.044a3.129,3.129,0,1,1-3.129-3.129,3.13,3.13,0,0,1,3.129,3.129" transform="translate(2.292 1.263)" fill="#405f5a"/>
          <path id="Trazado_873440" data-name="Trazado 873440" d="M93.118,35.044a3.129,3.129,0,1,1-3.129-3.129,3.13,3.13,0,0,1,3.129,3.129" transform="translate(3.438 1.263)" fill="#405f5a"/>
          <path id="Trazado_873441" data-name="Trazado 873441" d="M122.072,35.044a3.13,3.13,0,1,1-3.129-3.129,3.13,3.13,0,0,1,3.129,3.129" transform="translate(4.583 1.263)" fill="#405f5a"/>
          <path id="Trazado_873442" data-name="Trazado 873442" d="M151.025,35.044a3.129,3.129,0,1,1-3.129-3.129,3.13,3.13,0,0,1,3.129,3.129" transform="translate(5.729 1.263)" fill="#405f5a"/>
          <path id="Trazado_873443" data-name="Trazado 873443" d="M6.258,66.959A3.129,3.129,0,1,1,3.129,63.83a3.13,3.13,0,0,1,3.129,3.129" transform="translate(0 2.526)" fill="#405f5a"/>
          <path id="Trazado_873444" data-name="Trazado 873444" d="M35.212,66.959a3.129,3.129,0,1,1-3.129-3.129,3.13,3.13,0,0,1,3.129,3.129" transform="translate(1.146 2.526)" fill="#405f5a"/>
          <path id="Trazado_873445" data-name="Trazado 873445" d="M64.165,66.959a3.129,3.129,0,1,1-3.129-3.129,3.13,3.13,0,0,1,3.129,3.129" transform="translate(2.292 2.526)" fill="#405f5a"/>
          <path id="Trazado_873446" data-name="Trazado 873446" d="M93.118,66.959a3.129,3.129,0,1,1-3.129-3.129,3.13,3.13,0,0,1,3.129,3.129" transform="translate(3.438 2.526)" fill="#405f5a"/>
          <path id="Trazado_873447" data-name="Trazado 873447" d="M122.072,66.959a3.13,3.13,0,1,1-3.129-3.129,3.13,3.13,0,0,1,3.129,3.129" transform="translate(4.583 2.526)" fill="#405f5a"/>
          <path id="Trazado_873448" data-name="Trazado 873448" d="M151.025,66.959A3.129,3.129,0,1,1,147.9,63.83a3.13,3.13,0,0,1,3.129,3.129" transform="translate(5.729 2.526)" fill="#405f5a"/>
          <path id="Trazado_873449" data-name="Trazado 873449" d="M6.258,98.874a3.129,3.129,0,1,1-3.129-3.129,3.13,3.13,0,0,1,3.129,3.129" transform="translate(0 3.789)" fill="#405f5a"/>
          <path id="Trazado_873450" data-name="Trazado 873450" d="M35.212,98.874a3.129,3.129,0,1,1-3.129-3.129,3.13,3.13,0,0,1,3.129,3.129" transform="translate(1.146 3.789)" fill="#405f5a"/>
          <path id="Trazado_873451" data-name="Trazado 873451" d="M64.165,98.874a3.129,3.129,0,1,1-3.129-3.129,3.13,3.13,0,0,1,3.129,3.129" transform="translate(2.292 3.789)" fill="#405f5a"/>
          <path id="Trazado_873452" data-name="Trazado 873452" d="M93.118,98.874a3.129,3.129,0,1,1-3.129-3.129,3.13,3.13,0,0,1,3.129,3.129" transform="translate(3.438 3.789)" fill="#405f5a"/>
          <path id="Trazado_873453" data-name="Trazado 873453" d="M122.072,98.874a3.13,3.13,0,1,1-3.129-3.129,3.13,3.13,0,0,1,3.129,3.129" transform="translate(4.583 3.789)" fill="#405f5a"/>
          <path id="Trazado_873454" data-name="Trazado 873454" d="M151.025,98.874a3.129,3.129,0,1,1-3.129-3.129,3.13,3.13,0,0,1,3.129,3.129" transform="translate(5.729 3.789)" fill="#405f5a"/>
          <path id="Trazado_873455" data-name="Trazado 873455" d="M6.258,130.789a3.129,3.129,0,1,1-3.129-3.129,3.13,3.13,0,0,1,3.129,3.129" transform="translate(0 5.052)" fill="#405f5a"/>
          <path id="Trazado_873456" data-name="Trazado 873456" d="M35.212,130.789a3.129,3.129,0,1,1-3.129-3.129,3.13,3.13,0,0,1,3.129,3.129" transform="translate(1.146 5.052)" fill="#405f5a"/>
          <path id="Trazado_873457" data-name="Trazado 873457" d="M64.165,130.789a3.129,3.129,0,1,1-3.129-3.129,3.13,3.13,0,0,1,3.129,3.129" transform="translate(2.292 5.052)" fill="#405f5a"/>
          <path id="Trazado_873458" data-name="Trazado 873458" d="M93.118,130.789a3.129,3.129,0,1,1-3.129-3.129,3.13,3.13,0,0,1,3.129,3.129" transform="translate(3.438 5.052)" fill="#405f5a"/>
          <path id="Trazado_873459" data-name="Trazado 873459" d="M122.072,130.789a3.13,3.13,0,1,1-3.129-3.129,3.13,3.13,0,0,1,3.129,3.129" transform="translate(4.583 5.052)" fill="#405f5a"/>
          <path id="Trazado_873460" data-name="Trazado 873460" d="M151.025,130.789a3.129,3.129,0,1,1-3.129-3.129,3.13,3.13,0,0,1,3.129,3.129" transform="translate(5.729 5.052)" fill="#405f5a"/>
        </g>
      </g>
      <g id="Enmascarar_grupo_1098691" data-name="Enmascarar grupo 1098691" transform="translate(-18543.461 -9370.638)" clip-path="url(#clip-path-3)">
        <g id="Grupo_1099928" data-name="Grupo 1099928" transform="translate(-38.281 0)">
          <g id="Grupo_1099927" data-name="Grupo 1099927" transform="translate(0 0)" clip-path="url(#clip-path-4)">
            <g id="Grupo_1099926" data-name="Grupo 1099926" transform="translate(0 0)">
              <g id="Grupo_1099925" data-name="Grupo 1099925" clip-path="url(#clip-path-5)">
                <path id="Trazado_874397" data-name="Trazado 874397" d="M340.036,376.065c0,16.476-76.121,29.832-170.018,29.832S0,392.541,0,376.065s76.118-29.832,170.018-29.832,170.018,13.356,170.018,29.832" transform="translate(0.001 486.681)" fill="#d9e6f8"/>
                <path id="Trazado_874398" data-name="Trazado 874398" d="M129.415,10.508C106.14,17.2,87.984,41.228,79,80.645c-4.52,19.832-5.354,40.124-16.118,52.583s-12.449,30.446-11.591,40.591S49.9,199.183,43.1,207.488l157.94-.13s-8.81-21.665-7.127-40.114,7.064-30.9,3.079-49.807-9.37-27.4-1.739-43.345c11.041-23.065-6.308-80.7-65.838-63.584" transform="translate(62.317 10.375)" fill="#1c1318"/>
                <path id="Trazado_874399" data-name="Trazado 874399" d="M106.855,12.606A19.562,19.562,0,0,1,95.379,38.019,20.1,20.1,0,0,1,69.541,26.732,19.564,19.564,0,0,1,81.017,1.318a20.094,20.094,0,0,1,25.838,11.287" transform="translate(98.611 0)" fill="#1c1318"/>
                <path id="Trazado_874400" data-name="Trazado 874400" d="M106.577,16.432c0,3.861-3.3,25.839-21.409,34.466L83.82,63.224l-12.2,39.8,28.551,20.616,17.647-20.357-.015-17.968c11.774,1.03,21.582-5.675,22.328-18.148s.13-23.3,3.747-29.982c0,0-18.417-.284-37.307-20.758" transform="translate(103.561 23.098)" fill="#f0956d"/>
                <path id="Trazado_874401" data-name="Trazado 874401" d="M81.852,38.966a6.491,6.491,0,1,0,6.491-6.385,6.438,6.438,0,0,0-6.491,6.385" transform="translate(118.348 45.797)" fill="#e25e59"/>
                <path id="Trazado_874402" data-name="Trazado 874402" d="M102.107,51.247s-12.682-.1-20.956-10.785" transform="translate(117.334 56.875)" fill="none" stroke="#1c1318" stroke-miterlimit="10" stroke-width="0.464"/>
                <path id="Trazado_874403" data-name="Trazado 874403" d="M72.935,42.471c3.165,7.051,10.214,10.821,15.744,8.42s7.448-10.065,4.28-17.116-10.214-10.823-15.744-8.42-7.445,10.065-4.28,17.116" transform="translate(103.248 34.622)" fill="#f0956d"/>
                <path id="Trazado_874404" data-name="Trazado 874404" d="M85.6,39.656s-2.047-10.688-11.447-12.8" transform="translate(107.21 37.753)" fill="none" stroke="#1c1318" stroke-miterlimit="10" stroke-width="0.464"/>
                <line id="Línea_587" data-name="Línea 587" y1="6.62" x2="1.426" transform="translate(184.765 66.785)" fill="none" stroke="#1c1318" stroke-miterlimit="10" stroke-width="0.464"/>
                <path id="Trazado_874405" data-name="Trazado 874405" d="M72.366,37.479a4.379,4.379,0,1,0,4.376-4.309A4.345,4.345,0,0,0,72.366,37.479Z" transform="translate(104.632 46.625)" fill="none" stroke="#fff" stroke-miterlimit="10" stroke-width="0.464"/>
                <path id="Trazado_874406" data-name="Trazado 874406" d="M97.467,33.549l-1.46-2.076a3.172,3.172,0,1,1-.925,1.7,2.6,2.6,0,0,1,.135-.356Z" transform="translate(137.417 42.768)" fill="#121f32"/>
                <path id="Trazado_874407" data-name="Trazado 874407" d="M89.085,32.218l-1.46-2.076a3.172,3.172,0,1,1-.925,1.7,2.729,2.729,0,0,1,.135-.356Z" transform="translate(125.298 40.897)" fill="#121f32"/>
                <path id="Trazado_874408" data-name="Trazado 874408" d="M97.2,31.456s-.073,3.491,0,6.385-3.392,4.458-7.169,2.011" transform="translate(130.179 44.216)" fill="none" stroke="#1c1318" stroke-miterlimit="10" stroke-width="0.464"/>
                <path id="Trazado_874409" data-name="Trazado 874409" d="M102.415,40.578c-3.321.967-11.549,1.419-16.762-5.629" transform="translate(123.843 49.126)" fill="none" stroke="#1c1318" stroke-miterlimit="10" stroke-width="0.464"/>
                <line id="Línea_588" data-name="Línea 588" x1="3.828" y2="2.305" transform="translate(208.136 82.664)" fill="none" stroke="#1c1318" stroke-miterlimit="10" stroke-width="0.464"/>
                <path id="Trazado_874410" data-name="Trazado 874410" d="M99.055,27.28s-8.23-2.665-13.966-.657" transform="translate(123.028 36.369)" fill="none" stroke="#7b2a27" stroke-linecap="round" stroke-linejoin="round" stroke-width="0.971"/>
                <path id="Trazado_874411" data-name="Trazado 874411" d="M105.062,29.128s-5.286-3.038-11.021-1.179" transform="translate(135.971 38.44)" fill="none" stroke="#7b2a27" stroke-linecap="round" stroke-linejoin="round" stroke-width="0.971"/>
                <path id="Trazado_874412" data-name="Trazado 874412" d="M93.886,314.21l.042,49.482a29.824,29.824,0,0,1-1.812,10.337c-3.045,8.314-8.788,27.006-8.1,48.289l115.944-.1s-6.78-15.1-37.49-24.369a42.1,42.1,0,0,1-14.812-8.129l-11.312-9.471a22.489,22.489,0,0,1-7.756-21.3l8.174-44.781Z" transform="translate(121.393 441.619)" fill="#f0956d"/>
                <path id="Trazado_874413" data-name="Trazado 874413" d="M89.469,342.52l28.113,13.173,20.729-13.366,9.348,7.826a42.181,42.181,0,0,0,14.81,8.129c30.71,9.267,37.49,24.369,37.49,24.369l-115.944.094a130.61,130.61,0,0,1,5.454-40.225" transform="translate(121.393 481.192)" fill="#1c1318"/>
                <path id="Trazado_874414" data-name="Trazado 874414" d="M104.312,314.222,94.253,369.74a25.533,25.533,0,0,0-.125,8.386l6.653,44.2L12.01,422.4s1.2-13.068,5.422-16.635,16.294-12.485,16.294-12.485l18.117-18.511a24.305,24.305,0,0,0,6.91-15.4l2.986-45.111Z" transform="translate(17.365 441.686)" fill="#f0956d"/>
                <path id="Trazado_874415" data-name="Trazado 874415" d="M51.157,339.679a43.581,43.581,0,0,1,30.725,15.172l13.107-6.767,5.792,38.454-88.771.072s1.2-13.067,5.42-16.635,16.294-12.485,16.294-12.485Z" transform="translate(17.366 477.47)" fill="#1c1318"/>
                <path id="Trazado_874416" data-name="Trazado 874416" d="M171.141,92.748l-38.08-40.059-46.2-.26L61.084,92.84,83.009,226.788l85.982-.07Z" transform="translate(88.32 73.697)" fill="#306ff3"/>
                <path id="Trazado_874417" data-name="Trazado 874417" d="M128.161,83.645,101.716,61.987,70.348,92.3" transform="translate(101.714 87.131)" fill="none" stroke="#fff" stroke-miterlimit="10" stroke-width="0.464"/>
                <line id="Línea_589" data-name="Línea 589" x2="16.947" y2="128.279" transform="translate(203.44 159.365)" fill="none" stroke="#fff" stroke-miterlimit="10" stroke-width="0.464"/>
                <path id="Trazado_874418" data-name="Trazado 874418" d="M93.815,192.711,22.591,586.264l81.523-.07L187.83,233.319,163,590.6l82.428-.067,22.881-414.746-37.547-50.625-118.283,3.07Z" transform="translate(32.664 175.936)" fill="#ea513b"/>
                <path id="Trazado_874419" data-name="Trazado 874419" d="M54.347,192.711l18.664-64.479,118.283-3.07,37.547,50.625-.57,10.32c-25.66.524-110.192,4.325-178.383,31.242Z" transform="translate(72.132 175.935)" fill="#d83b2b"/>
                <path id="Trazado_874420" data-name="Trazado 874420" d="M90.149,228.6l8.7-33.932L92.7,128.519" transform="translate(130.344 180.653)" fill="none" stroke="#1c1318" stroke-miterlimit="10" stroke-width="0.464"/>
                <line id="Línea_590" data-name="Línea 590" x1="77.605" y2="0.065" transform="translate(177.965 382.053)" fill="none" stroke="#1c1318" stroke-miterlimit="10" stroke-width="0.464"/>
                <line id="Línea_591" data-name="Línea 591" x1="4.442" y2="59.398" transform="translate(228.566 309.164)" fill="none" stroke="#1c1318" stroke-miterlimit="10" stroke-width="0.464"/>
                <line id="Línea_592" data-name="Línea 592" x1="21.37" y2="431.819" transform="translate(252.729 334.67)" fill="none" stroke="#1c1318" stroke-miterlimit="10" stroke-width="0.464"/>
                <line id="Línea_593" data-name="Línea 593" x1="78.965" y2="427.412" transform="translate(92.394 334.755)" fill="none" stroke="#1c1318" stroke-miterlimit="10" stroke-width="0.464"/>
                <g id="Grupo_1099918" data-name="Grupo 1099918" transform="translate(152.263 295.18)" opacity="0.2">
                  <g id="Grupo_1099917" data-name="Grupo 1099917">
                    <g id="Grupo_1099916" data-name="Grupo 1099916" clip-path="url(#clip-path-6)">
                      <rect id="Rectángulo_401498" data-name="Rectángulo 401498" width="113.347" height="17.778" transform="translate(0.008 0.045)" fill="#4f454d"/>
                    </g>
                  </g>
                </g>
                <path id="Trazado_874421" data-name="Trazado 874421" d="M108.075,52.429,135.84,219.865a45.393,45.393,0,0,1-1.675,21.646l-10.989,33.328A9.45,9.45,0,0,1,109.545,280L55.254,249.218l23.52-35.211L47.615,105.962A30.827,30.827,0,0,1,66.277,68.749Z" transform="translate(67.111 73.697)" fill="#fff"/>
                <line id="Línea_594" data-name="Línea 594" x2="28.705" y2="23.693" transform="translate(157.813 289.329)" fill="none" stroke="#1c1318" stroke-miterlimit="10" stroke-width="0.464"/>
                <path id="Trazado_874422" data-name="Trazado 874422" d="M75.365,55,72.75,58.941a39.133,39.133,0,0,0-1.46,40.944l5.048,8.927-5.635,16.4A27.791,27.791,0,0,0,72.3,147l30.615,59.345" transform="translate(95.729 77.305)" fill="none" stroke="#1c1318" stroke-miterlimit="10" stroke-width="0.464"/>
                <g id="Grupo_1099921" data-name="Grupo 1099921" transform="translate(122.363 287.706)" opacity="0.2">
                  <g id="Grupo_1099920" data-name="Grupo 1099920">
                    <g id="Grupo_1099919" data-name="Grupo 1099919" clip-path="url(#clip-path-7)">
                      <path id="Trazado_874423" data-name="Trazado 874423" d="M73.55,119.6,109.9,186.738a9.4,9.4,0,0,1-5.582-1.155L50.028,154.808Z" transform="translate(-50.029 -119.596)" fill="#4f454d"/>
                    </g>
                  </g>
                </g>
                <g id="Grupo_1099924" data-name="Grupo 1099924" transform="translate(127.421 204.702)" opacity="0.2">
                  <g id="Grupo_1099923" data-name="Grupo 1099923" transform="translate(0)">
                    <g id="Grupo_1099922" data-name="Grupo 1099922" clip-path="url(#clip-path-8)">
                      <path id="Trazado_874424" data-name="Trazado 874424" d="M69.734,85.092l-3.808,66.935L52.1,104.068Z" transform="translate(-52.096 -85.092)" fill="#4f454d"/>
                    </g>
                  </g>
                </g>
                <path id="Trazado_874425" data-name="Trazado 874425" d="M92.324,155.563l-37.075,8.131,22.72-24.535Z" transform="translate(79.884 195.609)" fill="#f0956d"/>
                <path id="Trazado_874426" data-name="Trazado 874426" d="M90.513,52.537,112.7,267.227a12.013,12.013,0,0,0,12.034,10.686l54.744-.046s-21.785-51.726-39.472-80.185l.438-15.557,25.728,26.652a29.466,29.466,0,0,0,38.508,3.243,28.325,28.325,0,0,0,7.047-38.5L156.148,88.971a55.318,55.318,0,0,0-26.232-21.138Z" transform="translate(130.87 73.849)" fill="#fff"/>
                <path id="Trazado_874427" data-name="Trazado 874427" d="M91.717,53.925c6.35,9.351,23.346,23.368,10.236,52.556,13.606,23.6,16.351,55.431,6.42,94.424" transform="translate(132.611 75.8)" fill="none" stroke="#1c1318" stroke-miterlimit="10" stroke-width="0.464"/>
                <line id="Línea_595" data-name="Línea 595" x1="4.99" y1="43.8" transform="translate(294.112 223.436)" fill="none" stroke="#1c1318" stroke-miterlimit="10" stroke-width="0.464"/>
                <path id="Trazado_874428" data-name="Trazado 874428" d="M84.3,179.148l86.2-.072L212.8,59.424l-86.2.072Z" transform="translate(121.893 83.529)" fill="#f1a23a"/>
                <path id="Trazado_874429" data-name="Trazado 874429" d="M122.512,121.039l-39.5,68.633,47.159,64.7L98.8,288.256,33.09,228.281a42.384,42.384,0,0,1-9.045-51.2L67.951,93.868a65.618,65.618,0,0,1,34.225-30.431l15.991-6.245Z" transform="translate(27.677 80.391)" fill="#fff"/>
                <line id="Línea_596" data-name="Línea 596" x1="10.73" y1="13.948" transform="translate(99.963 256.117)" fill="none" stroke="#1c1318" stroke-miterlimit="10" stroke-width="0.464"/>
                <path id="Trazado_874430" data-name="Trazado 874430" d="M156.405,96.8c-.183-.852-6.007-7.792-11.332-11.461a76.447,76.447,0,0,0-9.023-5.2,4.326,4.326,0,0,0-5.026.873L126.7,85.491a4.17,4.17,0,0,0-.577,5.059l10.023,16.623s-14.839-7.782-15.857-7.114c-.607.4,5.058,6.635,9.764,11.641a12.876,12.876,0,0,0,15.311,2.639c6.2-3.26,12.9-8.884,11.041-17.54" transform="translate(173.859 112.018)" fill="#f0956d"/>
                <line id="Línea_597" data-name="Línea 597" x1="17.363" y1="13.282" transform="translate(304.069 193.873)" fill="none" stroke="#1c1318" stroke-miterlimit="10" stroke-width="0.464"/>
                <line id="Línea_598" data-name="Línea 598" x1="14.37" y1="17.171" transform="translate(300.841 197.561)" fill="none" stroke="#1c1318" stroke-miterlimit="10" stroke-width="0.464"/>
              </g>
            </g>
          </g>
        </g>
      </g>
    </g>
    <g id="Grupo_1099933" data-name="Grupo 1099933" transform="translate(8.999 -754)">
      <rect id="Rectángulo_401504" data-name="Rectángulo 401504" width="374" height="422" transform="translate(275.333 1309)" fill="none"/>
    </g>
  </g>
</svg>
