<svg xmlns="http://www.w3.org/2000/svg" xmlns:xlink="http://www.w3.org/1999/xlink" width="420" height="318.232" viewBox="0 0 420 318.232">
  <defs>
    <clipPath id="clip-path">
      <path id="Trazado_873467" data-name="Trazado 873467" d="M17.313,136.9A125.964,125.964,0,1,0,143.278,10.939,125.965,125.965,0,0,0,17.313,136.9" transform="translate(-17.313 -10.939)" fill="#b2bebc"/>
    </clipPath>
    <clipPath id="clip-path-2">
      <rect id="Rect치ngulo_35205" data-name="Rect치ngulo 35205" width="420" height="318.233" transform="translate(181 512.412)" fill="#b2bebc"/>
    </clipPath>
    <clipPath id="clip-path-3">
      <rect id="Rect치ngulo_401425" data-name="Rect치ngulo 401425" width="439.904" height="457.97" fill="none"/>
    </clipPath>
  </defs>
  <g id="Grupo_1100112" data-name="Grupo 1100112" transform="translate(9295.73 9912.588)">
    <g id="Grupo_1099524" data-name="Grupo 1099524" transform="translate(-9288.273 -9901.939)">
      <g id="Grupo_1099433" data-name="Grupo 1099433" transform="translate(17.313 10.939)" clip-path="url(#clip-path)">
        <path id="Trazado_873461" data-name="Trazado 873461" d="M278.626,61.455,231.3,14.125,186.739,58.686,141.928,13.875,95.1,60.7,48.782,14.379,6.938,56.223,0,49.285,48.782.5,95.1,46.822,141.928,0l44.812,44.809L231.3.251,278.626,47.58,322.988,3.218l6.94,6.935Z" transform="translate(-49.305 -31.153)" fill="#b2bebc"/>
        <path id="Trazado_873462" data-name="Trazado 873462" d="M278.626,78.25,231.3,30.924,186.739,75.479,141.928,30.67,95.1,77.5,48.782,31.174,6.938,73.021,0,66.081,48.782,17.3,95.1,63.62,141.928,16.8l44.812,44.812L231.3,17.049l47.329,47.326,44.362-44.362,6.94,6.935Z" transform="translate(-49.305 -0.117)" fill="#b2bebc"/>
        <path id="Trazado_873463" data-name="Trazado 873463" d="M278.626,95.045,231.3,47.719,186.739,92.277,141.928,47.468,95.1,94.29,48.782,47.969,6.938,89.816,0,82.876,48.782,34.094,95.1,80.415,141.928,33.59,186.739,78.4,231.3,33.844,278.626,81.17l44.362-44.362,6.94,6.937Z" transform="translate(-49.305 30.918)" fill="#b2bebc"/>
        <path id="Trazado_873464" data-name="Trazado 873464" d="M278.626,111.841,231.3,64.512,186.739,109.07,141.928,64.261,95.1,111.086,48.782,64.763,6.938,106.61,0,99.672,48.782,50.891,95.1,97.212l46.825-46.825L186.739,95.2,231.3,50.637l47.329,47.329L322.988,53.6l6.94,6.937Z" transform="translate(-49.305 61.956)" fill="#b2bebc"/>
        <path id="Trazado_873465" data-name="Trazado 873465" d="M278.626,128.636,231.3,81.307l-44.558,44.558L141.928,81.057,95.1,127.882,48.782,81.561,6.938,123.408,0,116.47,48.782,67.686,95.1,114.007l46.825-46.825,44.812,44.812L231.3,67.435l47.329,47.329L322.988,70.4l6.94,6.937Z" transform="translate(-49.305 92.991)" fill="#b2bebc"/>
        <path id="Trazado_873466" data-name="Trazado 873466" d="M278.626,145.432,231.3,98.105l-44.558,44.558L141.928,97.855,95.1,144.677,48.782,98.356,6.938,140.2,0,133.263,48.782,84.481,95.1,130.8l46.825-46.825,44.812,44.812L231.3,84.23l47.329,47.326L322.988,87.2l6.94,6.937Z" transform="translate(-49.305 124.027)" fill="#b2bebc"/>
      </g>
    </g>
    <g id="Enmascarar_grupo_1098726" data-name="Enmascarar grupo 1098726" transform="translate(-9476.73 -10425)" clip-path="url(#clip-path-2)">
      <g id="Grupo_1099743" data-name="Grupo 1099743" transform="translate(161.097 521.412)" style="isolation: isolate">
        <g id="Grupo_1099742" data-name="Grupo 1099742" clip-path="url(#clip-path-3)">
          <path id="Trazado_873868" data-name="Trazado 873868" d="M448.92,205.471A89.223,89.223,0,1,1,359.7,116.248a89.223,89.223,0,0,1,89.223,89.223" transform="translate(-9.017 -3.875)" fill="#2c423e"/>
          <path id="Trazado_873869" data-name="Trazado 873869" d="M164.654,453.41c4.7,4.088,8,8.573,4.837,14.947h-25.93L134.514,449.1l.256-6.592-.086-.142c2.856-1.593,8.251-4.23,12.434-4.106,4.466.124,7.17.067,8.25.028.721,1.7,5,11.39,9.285,15.118" transform="translate(-4.484 -14.61)" fill="#1a2948"/>
          <path id="Trazado_873870" data-name="Trazado 873870" d="M80.491,442.547l.266,6.592-9.048,19.252H45.78c-3.158-6.373.132-10.859,4.837-14.947,3.5-3.044,7-10.072,8.554-13.468,2.836-.568,12.518-2.011,21.32,2.57" transform="translate(-1.485 -14.645)" fill="#1a2948"/>
          <path id="Trazado_873871" data-name="Trazado 873871" d="M159.776,110.332s5.438,7.144,10.9,20.23a5.577,5.577,0,0,0,8.491,2.332,16.41,16.41,0,0,0,4.341-4.77c3.351-5.807-7.17-13.946-7.17-13.946l-.638-6.733Z" transform="translate(-5.326 -3.582)" fill="#2c423e"/>
          <path id="Trazado_873872" data-name="Trazado 873872" d="M136.644,87.428a3.461,3.461,0,0,0-2.153,3.063c-.084,2.149.232,5.847,2.191,11.34a31.71,31.71,0,0,0,5.551,10.076,3.471,3.471,0,0,0,3.624,1.079q4.728-1.43,9.213-2.53A53.1,53.1,0,0,1,148.6,97.635a54.729,54.729,0,0,1-3.278-14.052q-4.146,1.969-8.678,3.845" transform="translate(-4.483 -2.786)" fill="#2c423e"/>
          <path id="Trazado_873873" data-name="Trazado 873873" d="M193.87,94.726a36.136,36.136,0,0,0,8.581,9.624,165.336,165.336,0,0,0-43.147,4.3c-1.262.283-2.556.592-3.859.921a53.147,53.147,0,0,1-6.471-12.824,54.618,54.618,0,0,1-3.276-14.05c1.215-.569,2.4-1.145,3.56-1.724A165.711,165.711,0,0,0,185.52,56.89,35.331,35.331,0,0,0,184.883,69a58.629,58.629,0,0,0,3.181,13.735,59.238,59.238,0,0,0,5.806,11.988" transform="translate(-4.857 -1.896)" fill="#fbf5e8"/>
          <path id="Trazado_873874" data-name="Trazado 873874" d="M186.864,56.547a35.341,35.341,0,0,0-.638,12.111,58.505,58.505,0,0,0,3.181,13.735,59.2,59.2,0,0,0,5.8,11.991,36.1,36.1,0,0,0,8.585,9.623h0c3.929,2.913,7.961,4.008,11.512,2.741,8.561-3.056,10.6-18.544,4.63-35.253S202.6,44.084,194.038,47.14c-3.546,1.268-5.973,4.668-7.174,9.407m10.522-5.883c5.246-1.876,14.842,6.565,20.236,21.659s3.3,27.709-1.943,29.58c-3.877,1.382-10.136-2.868-15.317-11.293a55.315,55.315,0,0,1-4.917-10.371,54.761,54.761,0,0,1-2.881-12.067C191.5,58.85,193.634,52,197.386,50.664" transform="translate(-6.2 -1.554)" fill="#2c423e"/>
          <path id="Trazado_873875" data-name="Trazado 873875" d="M192.782,68.3a57.386,57.386,0,0,0,7.8,22.438c5.179,8.424,11.439,12.675,15.316,11.293,5.245-1.87,7.329-14.481,1.943-29.58S202.849,48.919,197.6,50.794c-3.751,1.341-5.89,8.187-4.822,17.508" transform="translate(-6.417 -1.685)" fill="#ecb78e"/>
          <path id="Trazado_873876" data-name="Trazado 873876" d="M201.583,68.237l-8.792.655a54.658,54.658,0,0,0,2.881,12.066,55.326,55.326,0,0,0,4.917,10.372l7.39-5.18s1.606-3.461-.681-9.85-5.716-8.063-5.716-8.063" transform="translate(-6.427 -2.275)" fill="#2c423e"/>
          <path id="Trazado_873877" data-name="Trazado 873877" d="M206.959,85.775a.966.966,0,0,1-.7-.3,20.322,20.322,0,0,1-5.47-16.551.966.966,0,1,1,1.917.247,18.626,18.626,0,0,0,4.945,14.962.967.967,0,0,1-.7,1.638" transform="translate(-6.688 -2.27)" fill="#1a2948"/>
          <path id="Trazado_873878" data-name="Trazado 873878" d="M207.719,100.422a.961.961,0,0,1-.685-.285,53.225,53.225,0,0,1-14.624-44.8.966.966,0,0,1,1.91.292A51.26,51.26,0,0,0,208.4,98.774a.967.967,0,0,1-.685,1.648" transform="translate(-6.395 -1.817)" fill="#1a2948"/>
          <path id="Trazado_873879" data-name="Trazado 873879" d="M157.587,154.393a28.715,28.715,0,0,1-1.071,2.974,31.076,31.076,0,0,1-5.786,9.327c-4.837,5.1-13.182,10.023-13.182,10.023l-.17,35.494,4.919,29.094s-.614.45-1.754,1.167c-4.749,3.057-18.633,11.155-34.8,13.073-16.116,1.9-34.729-4.251-41.4-6.735-1.624-.607-2.545-1-2.545-1l5.356-26.882.969-6.434L66.9,201.7l-.538-5.649s-.034.02-.1.054c-.471.246-1.174-7.472-3.917-6.571-.553.178-1.14.355-1.747.511-.15.042-.307.082-.464.116a19.755,19.755,0,0,1-8.065.471c-3.228-.6-7.26-3.916-10.726-7.382l-4.2-4.2s7.957-34.067,12.18-41.88S76.7,126.91,76.7,126.91s5.1-7.056,7.513-6.434c-.191,1.623-.383,3.254-.56,4.878,4.074,3.678,13.435,11.531,20.319,12.868,5.957,1.16,6.387-4.189,5.977-7.976a23.65,23.65,0,0,0-.648-3.507s20.073-3.813,25.962-.819,22.325,28.473,22.325,28.473" transform="translate(-1.238 -4.015)" fill="#ebeaea"/>
          <path id="Trazado_873880" data-name="Trazado 873880" d="M92.736,107.612c.806,7.729,8.924,22.154,17.925,17.754a35.478,35.478,0,0,0,.854,4.325h.038c.408,3.784-.019,9.133-5.975,7.976-6.886-1.338-16.246-9.19-20.324-12.87.181-1.621.37-3.253.56-4.874.4-3.585.816-7.17,1.224-10.745.209-1.8.407-3.6.616-5.406a11.991,11.991,0,0,0,4.666,1.763c.095.56.228,1.271.418,2.077" transform="translate(-2.842 -3.459)" fill="#ecb78e"/>
          <path id="Trazado_873881" data-name="Trazado 873881" d="M119.3,79.22c.209.854,1.859,7.71,1.859,9.18a10.307,10.307,0,0,1-.939,3.556,6.965,6.965,0,0,1,2.968,6.373c-.369,4.315-2.76,18.986-7.235,20.893a15.874,15.874,0,0,1-5.719,1c-4.723.085-10.367-1.243-13.268-4.553a21.541,21.541,0,0,1-4.315-9.094c-.189-.806-.322-1.518-.417-2.077a11.993,11.993,0,0,1-4.666-1.764,12.422,12.422,0,0,1-3.6-3.5l2.532-.047a8.839,8.839,0,0,1,2.086-4.4l.047-.029a9.437,9.437,0,0,0-3.442-3.623l-2.371-.312c.067-.124.143-.246.218-.37a5.194,5.194,0,0,1,8.469-.379C91.4,89.795,90.379,87,90.9,81.9c.484-4.7,4.648-8.469,5.653-9.313a20.653,20.653,0,0,0,3.224,4.78,6.5,6.5,0,0,0,3.1,2.172,2.8,2.8,0,0,0,3.253-1.356,3.885,3.885,0,0,0,.189-1.651c-.029-.7-.1-1.394-.2-2.086a9.419,9.419,0,0,0,9.626,3.442,2.491,2.491,0,0,0,1.422-.758,2.4,2.4,0,0,0,.418-1.252,3.259,3.259,0,0,0-.436-2.276,1.084,1.084,0,0,0,.218-.142,23.394,23.394,0,0,1,1.915,5.671c.01.028.01.057.019.085" transform="translate(-2.761 -2.42)" fill="#ecb78e"/>
          <path id="Trazado_873882" data-name="Trazado 873882" d="M117.069,72.908a1.058,1.058,0,0,1-.218.142,3.264,3.264,0,0,1,.437,2.277,2.411,2.411,0,0,1-.418,1.252,2.5,2.5,0,0,1-1.423.759,9.422,9.422,0,0,1-9.626-3.443c.095.692.171,1.385.2,2.087a3.85,3.85,0,0,1-.189,1.65,2.8,2.8,0,0,1-3.253,1.356,6.5,6.5,0,0,1-3.1-2.172,20.606,20.606,0,0,1-3.225-4.78c-1.005.844-5.169,4.609-5.652,9.314-.522,5.092.5,7.89.607,8.165a5.195,5.195,0,0,0-8.47.379c-.075.124-.152.246-.217.37a5.6,5.6,0,0,0-.607,1.934,8.778,8.778,0,0,0,.617,4.344,11.5,11.5,0,0,0,1.138,2.133,12.41,12.41,0,0,0,3.6,3.5c-.209,1.8-.408,3.6-.617,5.407l-.056-.01a3.481,3.481,0,0,0-.455-2.125c-3.1-6.677-8.508-12.13-11.229-18.968a11.307,11.307,0,0,1-.93-6.486,5.469,5.469,0,0,1,4.049-4.335,10.274,10.274,0,0,1,3.509-12.794,2.241,2.241,0,0,1,1.7-.531A1.716,1.716,0,0,1,84.4,63.548a4.822,4.822,0,0,1,.1,1.735,13.042,13.042,0,0,1,7.834-7.663,4.316,4.316,0,0,1,3.016-.181,1.872,1.872,0,0,1,1.072,2.495,14.544,14.544,0,0,1,9.512-3.984c1.9-.132,4.135.171,5.084,1.812a5.5,5.5,0,0,1,.152,3.974c2.5-1.091,5.6-1.679,7.824-.095a5.855,5.855,0,0,1,1.944,6.2,9.2,9.2,0,0,1-3.87,5.064" transform="translate(-2.461 -1.864)" fill="#1a2948"/>
          <path id="Trazado_873883" data-name="Trazado 873883" d="M82.19,93.382a5.591,5.591,0,0,1,.607-1.933l2.371.312a9.437,9.437,0,0,1,3.442,3.623l-.047.028a8.834,8.834,0,0,0-2.086,4.4l-2.533.047a11.574,11.574,0,0,1-1.138-2.134,8.776,8.776,0,0,1-.617-4.344" transform="translate(-2.738 -3.049)" fill="#ecb78e"/>
          <path id="Trazado_873884" data-name="Trazado 873884" d="M183.278,121.5s1.9,1.764.968,3.832-4.571,6.24-4.571,6.24,7.122,49.914,4.4,55.187-6.686,7.739-15.117,5.4-27.949-15.761-27.949-15.761,8.345-4.922,13.182-10.025a30.973,30.973,0,0,0,5.785-9.323l4.941,3.349,3.509-21.444a18.842,18.842,0,0,1-3.253-8.346,51.234,51.234,0,0,1-.124-12.262c.323-2.769,7.114-5.112,7.114-5.112s5.14-5.691,6.021,0c0,0,5.056.673,3.519,5.946,0,0,2.239-.72,1.575,2.324" transform="translate(-4.701 -3.69)" fill="#ecb78e"/>
          <path id="Trazado_873885" data-name="Trazado 873885" d="M152.7,431.906c-1.081.038-3.784.095-8.251-.028-4.182-.124-9.579,2.512-12.433,4.106-1.213.682-1.972,1.166-1.972,1.166a20.689,20.689,0,0,1-3.87-5.946c-1.4-3.424,1.053-7.028,1.053-7.028s-6.506-57.3-7.909-60.811a4.243,4.243,0,0,1,1.232-5.272l-14.586-71.332L89.437,359.676,86.09,413.81c.882,7.028-2.807,7.379-2.807,7.379a22.985,22.985,0,0,1,1.754,9.142,5.925,5.925,0,0,1-4.22,5.8c-8.8-4.581-18.484-3.14-21.32-2.57-.531.114-.825.189-.825.189a17.949,17.949,0,0,1-3.86-5.349c-1.584-3.338,1.053-6.677,1.053-6.677l4.219-56.248s.759-62.341,1.214-86.687c.124-6.486.218-10.9.275-11.655a20.754,20.754,0,0,1,2.019-7.018s-1.583-1.945-1.053-3.349a29.5,29.5,0,0,1,2.371-3.746c6.667,2.485,25.284,8.64,41.4,6.734,16.169-1.916,30.055-10.015,34.806-13.069C147.28,259.1,149.9,357.21,149.9,357.21s5.092,62.043,5.624,64.681-2.286,9.987-2.286,9.987Z" transform="translate(-1.81 -8.223)" fill="#666464"/>
          <path id="Trazado_873886" data-name="Trazado 873886" d="M120.562,79.446c-.01-.028-.01-.057-.019-.085a.6.6,0,0,1,.019.085" transform="translate(-4.018 -2.646)" fill="#ecb78e"/>
          <path id="Trazado_873887" data-name="Trazado 873887" d="M110.577,121.391a35.036,35.036,0,0,0,.341,4.106c-9,4.4-17.118-10.024-17.924-17.754a21.526,21.526,0,0,0,4.315,9.1c2.9,3.31,8.544,4.637,13.267,4.552" transform="translate(-3.1 -3.592)" fill="#1a2948"/>
          <path id="Trazado_873888" data-name="Trazado 873888" d="M89.844,101.977a1.07,1.07,0,0,1-.111-.006.967.967,0,0,1-.851-1.071,8.787,8.787,0,0,0-4.133-8.326.967.967,0,0,1,.987-1.664A10.777,10.777,0,0,1,90.8,101.12a.966.966,0,0,1-.959.856" transform="translate(-2.809 -3.026)" fill="#1a2948"/>
          <path id="Trazado_873889" data-name="Trazado 873889" d="M86.591,100.885a.914.914,0,0,1-.16-.014.967.967,0,0,1-.794-1.113,9.852,9.852,0,0,1,2.313-4.882A.967.967,0,1,1,89.4,96.152a8.039,8.039,0,0,0-1.861,3.926.967.967,0,0,1-.952.808" transform="translate(-2.854 -3.152)" fill="#1a2948"/>
          <path id="Trazado_873890" data-name="Trazado 873890" d="M70.283,197a.953.953,0,0,1-.316-.054.966.966,0,0,1-.6-1.23l9.68-27.94a.967.967,0,0,1,1.827.632L71.2,196.35a.968.968,0,0,1-.913.651" transform="translate(-2.311 -5.571)" fill="#1a2948"/>
          <path id="Trazado_873891" data-name="Trazado 873891" d="M73.392,196.072a.967.967,0,0,1-.841-1.441l4.485-7.957a.967.967,0,0,1,1.684.949l-4.485,7.957a.967.967,0,0,1-.843.492" transform="translate(-2.414 -6.207)" fill="#1a2948"/>
          <path id="Trazado_873892" data-name="Trazado 873892" d="M140.814,176.887a.966.966,0,0,1-.957-.841L135.8,145.113a.967.967,0,1,1,1.917-.25l4.059,30.931a.967.967,0,0,1-.832,1.085,1.139,1.139,0,0,1-.128.008" transform="translate(-4.527 -4.801)" fill="#1a2948"/>
          <path id="Trazado_873893" data-name="Trazado 873893" d="M162.051,184.683H162a.966.966,0,0,1-.92-1.011,70.2,70.2,0,0,1,4.248-20.972.967.967,0,1,1,1.814.667,68.244,68.244,0,0,0-4.131,20.4.967.967,0,0,1-.965.921" transform="translate(-5.37 -5.403)" fill="#1a2948"/>
          <path id="Trazado_873894" data-name="Trazado 873894" d="M112.177,281.688a.967.967,0,0,1-.469-1.812l21.335-11.8a.967.967,0,0,1,.936,1.692l-21.336,11.8a.958.958,0,0,1-.466.121" transform="translate(-3.707 -8.933)" fill="#1a2948"/>
          <path id="Trazado_873895" data-name="Trazado 873895" d="M113.2,285.091a.967.967,0,0,1-.347-1.869,143.58,143.58,0,0,1,22.122-6.518.966.966,0,1,1,.4,1.892,141.672,141.672,0,0,0-21.823,6.431.97.97,0,0,1-.347.064" transform="translate(-3.741 -9.223)" fill="#1a2948"/>
          <path id="Trazado_873896" data-name="Trazado 873896" d="M109.984,274.6a.967.967,0,0,1-.963-.875l-1.141-12.038a.967.967,0,0,1,.872-1.054.954.954,0,0,1,1.054.87l1.058,11.16,1.509,0-.312-11.733a.967.967,0,1,1,1.932-.05l.338,12.722a.966.966,0,0,1-.964.992l-3.38.01Z" transform="translate(-3.596 -8.665)" fill="#1a2948"/>
          <path id="Trazado_873897" data-name="Trazado 873897" d="M60.527,415.9h-.049a.965.965,0,0,1-.916-1.014l6.494-139.156c.2-3.969.441-8.84,2.654-12.863a3.378,3.378,0,0,1-.894-1.061,3.2,3.2,0,0,1,4.154-4.41.967.967,0,1,1-.825,1.749,1.272,1.272,0,1,0-.848,2.393A.967.967,0,0,1,70.878,263c-2.439,3.745-2.68,8.567-2.892,12.822l-6.5,139.156a.966.966,0,0,1-.964.918" transform="translate(-1.985 -8.571)" fill="#1a2948"/>
          <path id="Trazado_873898" data-name="Trazado 873898" d="M136.259,431.953a.967.967,0,0,1-.231-1.905,46.115,46.115,0,0,1,17.235-.888.967.967,0,0,1-.268,1.915,44.164,44.164,0,0,0-16.5.851.952.952,0,0,1-.231.028" transform="translate(-4.51 -14.292)" fill="#1a2948"/>
          <path id="Trazado_873899" data-name="Trazado 873899" d="M82.74,432.83a.976.976,0,0,1-.335-.06,42.034,42.034,0,0,0-23.185-1.644.967.967,0,1,1-.409-1.89,43.992,43.992,0,0,1,24.265,1.722.966.966,0,0,1-.335,1.872" transform="translate(-1.935 -14.277)" fill="#1a2948"/>
          <path id="Trazado_873900" data-name="Trazado 873900" d="M179.536,132.967a4.547,4.547,0,0,1-.632-.043,3.077,3.077,0,0,1-2.329-1.527,3.814,3.814,0,0,1,.032-3.032,15.319,15.319,0,0,1,4.029-6.145,5.38,5.38,0,0,1,1.591-1.1,2.852,2.852,0,0,1,2.343.014.967.967,0,1,1-.853,1.735.97.97,0,0,0-.754.039,3.582,3.582,0,0,0-1.013.726,13.381,13.381,0,0,0-3.52,5.367,2.045,2.045,0,0,0-.142,1.5,1.189,1.189,0,0,0,.888.509,5.042,5.042,0,0,0,1.636-.144.967.967,0,1,1,.379,1.9,8.472,8.472,0,0,1-1.656.206" transform="translate(-5.876 -4.03)" fill="#1a2948"/>
          <path id="Trazado_873901" data-name="Trazado 873901" d="M176.805,130.259a.967.967,0,0,1-.377-.077,3.981,3.981,0,0,1-2.136-2.351,5.708,5.708,0,0,1-.192-2.93,7.83,7.83,0,0,1,8.84-6.423.967.967,0,0,1-.277,1.914A5.9,5.9,0,0,0,176,125.228a3.836,3.836,0,0,0,.107,1.948,2.08,2.08,0,0,0,1.072,1.226.967.967,0,0,1-.378,1.857" transform="translate(-5.8 -3.947)" fill="#1a2948"/>
          <path id="Trazado_873902" data-name="Trazado 873902" d="M174.891,124.561a3.1,3.1,0,0,1-2.684-1.674,4.143,4.143,0,0,1-.113-3.375A8.221,8.221,0,0,1,173.737,117a20.78,20.78,0,0,1,5.084-4.141.967.967,0,1,1,.97,1.673,18.848,18.848,0,0,0-4.612,3.755,6.376,6.376,0,0,0-1.274,1.906,2.254,2.254,0,0,0,.012,1.794,1.132,1.132,0,0,0,1.133.626.966.966,0,1,1,.444,1.881,2.586,2.586,0,0,1-.6.07" transform="translate(-5.727 -3.758)" fill="#1a2948"/>
          <path id="Trazado_873903" data-name="Trazado 873903" d="M172.747,120.806a1.035,1.035,0,0,1-.109-.006,3.4,3.4,0,0,1-2.746-2.3,4.318,4.318,0,0,1,.332-3.357,6.492,6.492,0,0,1,2.118-2.295.967.967,0,1,1,1.1,1.588,4.61,4.61,0,0,0-1.507,1.6,2.424,2.424,0,0,0-.215,1.842,1.478,1.478,0,0,0,1.131,1,.967.967,0,0,1-.106,1.928" transform="translate(-5.657 -3.756)" fill="#1a2948"/>
          <path id="Trazado_873904" data-name="Trazado 873904" d="M174.543,133.162a.967.967,0,0,1-.949-1.153,8.333,8.333,0,0,0-3.6-8.57.967.967,0,0,1-.346-1.214l1.329-2.868a.967.967,0,0,1,1.754.814l-.994,2.143a10.262,10.262,0,0,1,3.751,10.069.967.967,0,0,1-.947.78" transform="translate(-5.652 -3.96)" fill="#1a2948"/>
          <path id="Trazado_873905" data-name="Trazado 873905" d="M78.686,77.488a.96.96,0,0,1-.227-.027A12.557,12.557,0,0,1,69.915,70.1a.966.966,0,1,1,1.79-.729,10.585,10.585,0,0,0,4.356,5.031,14.042,14.042,0,0,1-1.386-8.969.966.966,0,1,1,1.9.355,12.065,12.065,0,0,0,2.831,10.082.967.967,0,0,1-.719,1.612" transform="translate(-2.328 -2.155)" fill="#1a2948"/>
          <path id="Trazado_873906" data-name="Trazado 873906" d="M96.731,88.445S99.7,85.67,105.343,86.2a1.409,1.409,0,0,0,1.647-1.3c-.043-.578-.451-1.208-1.745-1.644-3.018-1.017-8.355,2.144-8.514,5.189" transform="translate(-3.225 -2.769)" fill="#1a2948"/>
          <path id="Trazado_873907" data-name="Trazado 873907" d="M105.059,98.684c.091,1.268-1.675,2.429-3.945,2.593s-4.185-.734-4.276-2,1.675-2.429,3.946-2.592,4.184.734,4.275,2" transform="translate(-3.228 -3.222)" fill="#e06f43"/>
          <path id="Trazado_873908" data-name="Trazado 873908" d="M121.281,86.56a8.989,8.989,0,0,0-7.716-1.07,1.255,1.255,0,0,1-1.592-1.071c-.04-.577.226-1.256,1.283-1.86,2.463-1.411,7.481,1.007,8.025,4" transform="translate(-3.733 -2.738)" fill="#1a2948"/>
          <path id="Trazado_873909" data-name="Trazado 873909" d="M111.256,88.868a62.182,62.182,0,0,0,3.073,7.282c1.905,3.793,3.934,3.032,3.067,5.794s-7.27,2.96-8.534,1.843-.366-4.45,1.483-4.416c0,0-1.113-7.774.911-10.5" transform="translate(-3.609 -2.962)" fill="#e06f43"/>
          <path id="Trazado_873910" data-name="Trazado 873910" d="M116.552,109.571a5.612,5.612,0,0,1-5.306,3.189v-.02a4.153,4.153,0,0,0-3.423-2.926,6.3,6.3,0,0,0-3.079.563,5.5,5.5,0,0,1-1.258-2.8A1.371,1.371,0,0,1,105.051,106l.25.034v.01c.042.142.566,1.535,4.517,2.143,4.161.654,5.45-.588,5.45-.588l.242.034a1.375,1.375,0,0,1,1.04,1.936" transform="translate(-3.449 -3.533)" fill="#1a2948"/>
          <path id="Trazado_873911" data-name="Trazado 873911" d="M111.289,112.871v.02a9.8,9.8,0,0,1-1.873-.125,7.3,7.3,0,0,1-4.629-2.258,6.287,6.287,0,0,1,3.079-.564,4.153,4.153,0,0,1,3.423,2.926" transform="translate(-3.493 -3.664)" fill="#dc3d3d"/>
          <path id="Trazado_873912" data-name="Trazado 873912" d="M115.388,107.611s-1.342,1.235-5.5.581c-3.951-.608-4.476-2-4.464-2.134Z" transform="translate(-3.514 -3.536)" fill="#fbf5e8"/>
          <path id="Trazado_873913" data-name="Trazado 873913" d="M104.784,110.529a.234.234,0,0,0-.081.026" transform="translate(-3.49 -3.685)" fill="#dc3d3d"/>
          <path id="Trazado_873914" data-name="Trazado 873914" d="M106.277,91.188a2.117,2.117,0,1,1-2.263-2.251,2.268,2.268,0,0,1,2.263,2.251" transform="translate(-3.403 -2.965)" fill="#1a2948"/>
          <path id="Trazado_873915" data-name="Trazado 873915" d="M121.869,89.91a2.117,2.117,0,1,1-2.263-2.25,2.269,2.269,0,0,1,2.263,2.25" transform="translate(-3.923 -2.922)" fill="#1a2948"/>
          <path id="Trazado_873916" data-name="Trazado 873916" d="M114.363,90.877a.967.967,0,0,1-.668-1.666c3.1-2.959,6.163-3.177,9.649-.692a.967.967,0,1,1-1.123,1.574c-2.74-1.954-4.755-1.81-7.192.516a.959.959,0,0,1-.666.268" transform="translate(-3.78 -2.894)" fill="#1a2948"/>
          <path id="Trazado_873917" data-name="Trazado 873917" d="M98.048,92.047a.967.967,0,0,1-.668-1.666c3.1-2.957,6.162-3.178,9.65-.692a.967.967,0,0,1-1.123,1.575c-2.741-1.955-4.758-1.81-7.191.515a.964.964,0,0,1-.668.268" transform="translate(-3.236 -2.933)" fill="#1a2948"/>
          <path id="Trazado_873918" data-name="Trazado 873918" d="M96.731,88.445S99.7,85.67,105.343,86.2a1.409,1.409,0,0,0,1.647-1.3c-.043-.578-.451-1.208-1.745-1.644-3.018-1.017-8.355,2.144-8.514,5.189" transform="translate(-3.225 -2.769)" fill="#1a2948"/>
          <path id="Trazado_873919" data-name="Trazado 873919" d="M105.059,98.684c.091,1.268-1.675,2.429-3.945,2.593s-4.185-.734-4.276-2,1.675-2.429,3.946-2.592,4.184.734,4.275,2" transform="translate(-3.228 -3.222)" fill="#e06f43"/>
          <path id="Trazado_873920" data-name="Trazado 873920" d="M121.281,86.56a8.989,8.989,0,0,0-7.716-1.07,1.255,1.255,0,0,1-1.592-1.071c-.04-.577.226-1.256,1.283-1.86,2.463-1.411,7.481,1.007,8.025,4" transform="translate(-3.733 -2.738)" fill="#1a2948"/>
          <path id="Trazado_873921" data-name="Trazado 873921" d="M111.256,88.868a62.182,62.182,0,0,0,3.073,7.282c1.905,3.793,3.934,3.032,3.067,5.794s-7.27,2.96-8.534,1.843-.366-4.45,1.483-4.416c0,0-1.113-7.774.911-10.5" transform="translate(-3.609 -2.962)" fill="#e06f43"/>
          <path id="Trazado_873922" data-name="Trazado 873922" d="M116.552,109.571a5.612,5.612,0,0,1-5.306,3.189v-.02a4.153,4.153,0,0,0-3.423-2.926,6.3,6.3,0,0,0-3.079.563,5.5,5.5,0,0,1-1.258-2.8A1.371,1.371,0,0,1,105.051,106l.25.034v.01c.042.142.566,1.535,4.517,2.143,4.161.654,5.45-.588,5.45-.588l.242.034a1.375,1.375,0,0,1,1.04,1.936" transform="translate(-3.449 -3.533)" fill="#1a2948"/>
          <path id="Trazado_873923" data-name="Trazado 873923" d="M111.289,112.871v.02a9.8,9.8,0,0,1-1.873-.125,7.3,7.3,0,0,1-4.629-2.258,6.287,6.287,0,0,1,3.079-.564,4.153,4.153,0,0,1,3.423,2.926" transform="translate(-3.493 -3.664)" fill="#dc3d3d"/>
          <path id="Trazado_873924" data-name="Trazado 873924" d="M115.388,107.611s-1.342,1.235-5.5.581c-3.951-.608-4.476-2-4.464-2.134Z" transform="translate(-3.514 -3.536)" fill="#fbf5e8"/>
          <path id="Trazado_873925" data-name="Trazado 873925" d="M104.784,110.529a.234.234,0,0,0-.081.026" transform="translate(-3.49 -3.685)" fill="#dc3d3d"/>
          <path id="Trazado_873926" data-name="Trazado 873926" d="M106.277,91.188a2.117,2.117,0,1,1-2.263-2.251,2.268,2.268,0,0,1,2.263,2.251" transform="translate(-3.403 -2.965)" fill="#1a2948"/>
          <path id="Trazado_873927" data-name="Trazado 873927" d="M121.869,89.91a2.117,2.117,0,1,1-2.263-2.25,2.269,2.269,0,0,1,2.263,2.25" transform="translate(-3.923 -2.922)" fill="#1a2948"/>
          <path id="Trazado_873928" data-name="Trazado 873928" d="M114.363,90.877a.967.967,0,0,1-.668-1.666c3.1-2.959,6.163-3.177,9.649-.692a.967.967,0,1,1-1.123,1.574c-2.74-1.954-4.755-1.81-7.192.516a.959.959,0,0,1-.666.268" transform="translate(-3.78 -2.894)" fill="#1a2948"/>
          <path id="Trazado_873929" data-name="Trazado 873929" d="M98.048,92.047a.967.967,0,0,1-.668-1.666c3.1-2.957,6.162-3.178,9.65-.692a.967.967,0,0,1-1.123,1.575c-2.741-1.955-4.758-1.81-7.191.515a.964.964,0,0,1-.668.268" transform="translate(-3.236 -2.933)" fill="#1a2948"/>
          <path id="Trazado_873930" data-name="Trazado 873930" d="M132.368,191.076l-4.038,3.715a4.815,4.815,0,0,1-2.057,2.687l-1.658,1.029s.892,1.659-1.659,3.633c0,0-.135,2.866-4.841,7.348s-20.437,5.319-20.437,5.319-44.372,13.318-46.023,13.468c-4.169.375-11.8,1.494-13.591-5.691-1.133-4.551,3.3-37.3,3.3-37.3,3.465,3.466,7.5,6.782,10.726,7.382a21.718,21.718,0,0,0,8.065-.471c.157-.034.313-.075.464-.116a38.832,38.832,0,0,0,7.025-2.378c.068-.034-.72,14.033-.72,14.033l26.669-2.469s4-8.361,5.734-10.635,12.466-9.022,12.466-9.022,2.979,2.38,0,5.742a51.6,51.6,0,0,1-6.312,5.914l13.082-.27s11.784-5.495,13.8-1.922" transform="translate(-1.263 -6.054)" fill="#ecb78e"/>
          <path id="Trazado_873931" data-name="Trazado 873931" d="M43.132,212.645a.967.967,0,0,1-.6-1.723c.224-.178,5.535-4.384,10.244-5.5A137.43,137.43,0,0,1,66.985,203.5a.967.967,0,1,1,.167,1.927,138.181,138.181,0,0,0-13.936,1.878c-4.284,1.011-9.431,5.085-9.483,5.126a.96.96,0,0,1-.6.211" transform="translate(-1.406 -6.784)" fill="#1a2948"/>
          <path id="Trazado_873932" data-name="Trazado 873932" d="M118.587,199.588a.967.967,0,0,1-.182-1.916c.024,0,2.464-.475,4.13-.876,1.637-.393,8.31-2.787,8.378-2.811a.967.967,0,0,1,.652,1.82c-.278.1-6.84,2.452-8.578,2.871-1.709.411-4.115.875-4.217.894a1,1,0,0,1-.184.017" transform="translate(-3.921 -6.465)" fill="#1a2948"/>
          <path id="Trazado_873933" data-name="Trazado 873933" d="M118.609,202.9a.972.972,0,0,1-.933-.679.956.956,0,0,1,.606-1.2c.066-.022.269-.072.578-.141,1.449-.327,5.859-1.321,7.98-2.909A.966.966,0,0,1,128,199.523c-2.451,1.836-7.165,2.9-8.714,3.248-.2.046-.346.077-.411.095a.968.968,0,0,1-.266.037" transform="translate(-3.921 -6.593)" fill="#1a2948"/>
          <path id="Trazado_873934" data-name="Trazado 873934" d="M118.588,208.361a.967.967,0,0,1-.275-1.894c2.969-.884,6.948-4.106,6.989-4.138a.966.966,0,1,1,1.221,1.5c-.175.142-4.318,3.5-7.658,4.493a.981.981,0,0,1-.276.041" transform="translate(-3.921 -6.738)" fill="#1a2948"/>
          <path id="Trazado_873935" data-name="Trazado 873935" d="M361.088,54.424a2.836,2.836,0,0,1,2.889-2.962,2.761,2.761,0,0,1,2.161.944,3.08,3.08,0,0,1,.72,2.017,2.886,2.886,0,1,1-5.771,0" transform="translate(-12.037 -1.716)" fill="#1a2948"/>
          <path id="Trazado_873936" data-name="Trazado 873936" d="M369.268,72.667a.8.8,0,0,1-.8.8H365.73v2.738a.8.8,0,1,1-1.6,0V73.468h-2.738a.8.8,0,1,1,0-1.6h2.738V69.121a.8.8,0,1,1,1.6,0v2.745h2.738a.792.792,0,0,1,.8.8" transform="translate(-12.021 -2.278)" fill="#1a2948"/>
          <path id="Trazado_873937" data-name="Trazado 873937" d="M381.468,63.428a4.409,4.409,0,1,1-4.41-4.538,4.207,4.207,0,0,1,3.314,1.441,4.751,4.751,0,0,1,1.1,3.1" transform="translate(-12.423 -1.963)" fill="#1a2948"/>
          <path id="Trazado_873938" data-name="Trazado 873938" d="M370.592,14.763l5.287-7.718L375.62,16.4l8.813-3.136-5.705,7.413,8.974,2.644-8.974,2.644,5.705,7.413-8.813-3.136.258,9.351-5.287-7.717L365.3,39.59l.259-9.351-8.814,3.136,5.706-7.413-8.974-2.644,8.974-2.644-5.706-7.413,8.814,3.136L365.3,7.045Z" transform="translate(-11.784 -0.235)" fill="#eaac36"/>
          <path id="Trazado_873939" data-name="Trazado 873939" d="M222.39,171.177l5.287-7.718-.258,9.352,8.813-3.136-5.705,7.413,8.974,2.644-8.974,2.644,5.705,7.413-8.813-3.136.258,9.351-5.287-7.717L217.1,196l.259-9.351-8.813,3.136,5.705-7.413-8.974-2.644,8.974-2.644-5.705-7.413,8.813,3.136-.259-9.352Z" transform="translate(-6.843 -5.449)" fill="#71c4bb"/>
          <path id="Trazado_873940" data-name="Trazado 873940" d="M246.58,183.745a2.835,2.835,0,0,1,2.889-2.962,2.761,2.761,0,0,1,2.161.944,3.08,3.08,0,0,1,.72,2.017,2.886,2.886,0,1,1-5.771,0" transform="translate(-8.22 -6.027)" fill="#1a2948"/>
          <path id="Trazado_873941" data-name="Trazado 873941" d="M254.76,201.988a.8.8,0,0,1-.8.8h-2.738v2.738a.8.8,0,1,1-1.6,0v-2.738h-2.738a.8.8,0,1,1,0-1.6h2.738v-2.745a.8.8,0,1,1,1.6,0v2.745h2.738a.792.792,0,0,1,.8.8" transform="translate(-8.203 -6.589)" fill="#1a2948"/>
          <path id="Trazado_873942" data-name="Trazado 873942" d="M266.96,192.749a4.409,4.409,0,1,1-4.41-4.538,4.207,4.207,0,0,1,3.314,1.441,4.751,4.751,0,0,1,1.1,3.1" transform="translate(-8.606 -6.274)" fill="#1a2948"/>
          <path id="Trazado_873943" data-name="Trazado 873943" d="M330.931,70.66c5.641,23.2-10.8,47.121-36.743,53.429S242.653,116.7,237.011,93.5a39.063,39.063,0,0,1-.92-13.032,43.857,43.857,0,0,0-22.881-9.445,44.611,44.611,0,0,1,27.007-4.9c6.074-12.339,18.133-22.306,33.537-26.053,25.94-6.31,51.536,7.39,57.177,30.585" transform="translate(-7.108 -1.285)" fill="#71c4bb"/>
          <path id="Trazado_873944" data-name="Trazado 873944" d="M381.415,425.45a10.017,10.017,0,0,1-4.837,1.005,39.377,39.377,0,0,1-8.032-1.6c-2.694-.778-4.619-1.555-4.619-1.555l-8.441-130.541L320.661,424.88s-1.451,1.783-5.083,2.144a17.4,17.4,0,0,1-6.668-.74,28.438,28.438,0,0,1-5.728-2.276c-3.86-2.1-4.932-4.2-4.932-4.2l12.415-75.733s-1.935-58.089,4.219-76.212,12.149-22.686,12.149-22.686l.095.028.057.019c4.457,1.575,10.489,2.21,14.235.73,3.063-1.213,7.9-4.154,12.074-6.857,4.059,3.12,11.978,8.4,18.9,8.308l.389.427c-1.176.759-2.248,1.6-2.371,2.21-.284,1.384,1.983,2.7,1.983,2.7s-2.068,1.09-1.575,2.437,3.3,1.612,5.738.93c0,0-1.356,1.508-1.119,2.437s2.3,1.745,4.942,1.319,7.245-1,7.245-1,.266,4.913,3.5,7.976a3.412,3.412,0,0,0,1.508.825l-.057.19c4.562,45.408-5.453,81.134-5.453,81.134l1.584,71.134a25.548,25.548,0,0,1-7.294,5.321" transform="translate(-9.942 -7.97)" fill="#eaac36"/>
          <path id="Trazado_873945" data-name="Trazado 873945" d="M386.231,137.817c-.436,1.138-.977,2.5-1.583,3.879a25.408,25.408,0,0,1-3.386,5.918,24.491,24.491,0,0,1-4.656,4.059l-.01.01c-3.1,2.067-7.065,3.613-11.248,2.674-.018,0-.038-.01-.057-.01-4.182-.976-7.084-4.1-8.972-7.3a25.009,25.009,0,0,1-2.437-5.681,25.4,25.4,0,0,1-.475-6.79,8.269,8.269,0,0,1-3.821-3.491,8.181,8.181,0,0,1-.778-5.9,5.613,5.613,0,0,1,1.48-2.75,3.606,3.606,0,0,1,2.873-1.072,2.67,2.67,0,0,1,2.277,1.906,18.611,18.611,0,0,1,1.5-4.6l6.914,2.068c3.519-.873,11.163-4.553,11.163-4.553-2.058,2.741-5.35,6.212-5.35,6.212l3.158,1.338c5.359-.683,10.982-10.252,10.982-10.252s6.089,8.327,4.021,17.034a2.691,2.691,0,0,1,2.769-.607,3.606,3.606,0,0,1,2.125,2.21c.047.132.095.275.132.417l-1.309.465a10.471,10.471,0,0,0-4.485,5.131Z" transform="translate(-11.62 -3.783)" fill="#ecb78e"/>
          <path id="Trazado_873946" data-name="Trazado 873946" d="M385.512,103.4a15.076,15.076,0,0,1,6.544,1.859,7.24,7.24,0,0,1,3.661,5.548c.132,2.561-1.452,5.226-.437,7.587.664,1.536,2.247,2.438,3.329,3.708a9.107,9.107,0,0,1,1.735,6.971,28.63,28.63,0,0,1-2.171,7.047,8.228,8.228,0,0,0-.8,3.186c.039,1.537.92,2.9,1.518,4.315,1.736,4.041.7,10.158-1.9,13.8a5.784,5.784,0,0,1-2.551.218c-1.433-.161-2.807-.683-4.22-.987a6.06,6.06,0,0,0-4.23.341,18.6,18.6,0,0,0-1.517-5.035c-.029,1.679-.057,3.367-.086,5.055a10.2,10.2,0,0,1-5.425,1.29c-1.432-.056-2.93-.417-4.277.086a23.227,23.227,0,0,1,.512-4.344,19.9,19.9,0,0,1,.872-2.959l.01-.009a24.491,24.491,0,0,0,4.656-4.06,25.365,25.365,0,0,0,3.386-5.918,8.129,8.129,0,0,0,4.941-1.479,8.214,8.214,0,0,0,3.272-4.979,6.187,6.187,0,0,0-.01-2.7c-.038-.142-.085-.284-.132-.418a3.61,3.61,0,0,0-2.125-2.21,2.7,2.7,0,0,0-2.77.607c2.068-8.706-4.021-17.033-4.021-17.033s-5.623,9.569-10.982,10.252l-3.158-1.338s3.291-3.471,5.35-6.212c0,0-7.644,3.68-11.163,4.552l-6.914-2.067a18.611,18.611,0,0,0-1.5,4.6,2.667,2.667,0,0,0-2.276-1.906,3.606,3.606,0,0,0-2.873,1.072,5.613,5.613,0,0,0-1.48,2.75,8.182,8.182,0,0,0,.778,5.9,8.266,8.266,0,0,0,3.821,3.49,25.4,25.4,0,0,0,.475,6.791,25.026,25.026,0,0,0,2.437,5.681,21.313,21.313,0,0,1-1.574,6.383v.009c-.124.295-.256.607-.4.92a18.209,18.209,0,0,0-3.187-2.334,6.593,6.593,0,0,0-4.087-.862,12.845,12.845,0,0,0,1.972-5.017,13.041,13.041,0,0,0-3.9,4.913,10.148,10.148,0,0,0-5.386-2.618,18.208,18.208,0,0,1-2.286-.351,7.716,7.716,0,0,1-3.974-3.282,8.153,8.153,0,0,0,3.747-6.23c.17-2.343-.7-4.648-.664-7a9.285,9.285,0,0,1,2.153-5.785c2.324-2.76,6.155-4.05,8.08-7.094,2.02-3.215,1.366-7.493,3.026-10.907a8.8,8.8,0,0,1,4.448-4.219c2.77-1.167,6.013-.854,8.735-2.125,1.8-.835,3.234-2.3,4.913-3.357a12.381,12.381,0,0,1,18.1,5.908" transform="translate(-11.1 -3.187)" fill="#1a2948"/>
          <path id="Trazado_873947" data-name="Trazado 873947" d="M394.1,135.894a8.217,8.217,0,0,1-3.272,4.979,8.129,8.129,0,0,1-4.941,1.479c.607-1.375,1.147-2.74,1.583-3.878l.826.312a10.474,10.474,0,0,1,4.485-5.13l1.309-.465a6.187,6.187,0,0,1,.01,2.7" transform="translate(-12.864 -4.44)" fill="#ecb78e"/>
          <path id="Trazado_873948" data-name="Trazado 873948" d="M378.43,246.047c-3.026.9-6.278-1-5.387-2.048s5.937-4.154,9.294-4.353a14.593,14.593,0,0,1,6.838,1.668c1.005.475,1.963,1,2.855,1.5,1.062.6,3.281,3.537,5.642,6.971.845,1.233,1.707,2.522,2.542,3.793,2.6,3.974,4.9,7.71,5.425,8.564-1.888,3.7-7.227,6.478-10.518,5.549a3.414,3.414,0,0,1-1.508-.826c-3.233-3.063-3.5-7.976-3.5-7.976s-4.609.56-7.245,1-4.713-.4-4.942-1.319,1.119-2.437,1.119-2.437c-2.438.682-5.245.427-5.738-.929s1.575-2.438,1.575-2.438-2.267-1.319-1.983-2.7c.124-.607,1.195-1.451,2.371-2.21,1.423-.92,3-1.717,3.158-1.8" transform="translate(-12.43 -7.988)" fill="#ecb78e"/>
          <path id="Trazado_873949" data-name="Trazado 873949" d="M299.179,143.991c.739.2,1.167.351,1.167.351a10.106,10.106,0,0,1,.663,6.107c-.73,3.339-4.618,26.318-4.618,26.318s18.057-16.805,25.18-21.434,19.907-.93,19.907-.93a11.33,11.33,0,0,1,4.676,0,14.01,14.01,0,0,1,5.159,2.153l.009.01c-.341.617-.72,1.252-1.147,1.878.569,1.745,2.855,7.691,7.767,9.494,5.767,2.105,14.994-4.989,14.994-4.989-.066-.493-.1-.977-.123-1.441.361-.086,3.2-.721,5.045.759,0,0,16.35-1.85,24.26,7.777s26.82,44.422,29.134,49.041.322,9.539-2.77,13.883-25.967,26.125-25.967,26.125l-.1-.18c-.522-.854-2.827-4.591-5.425-8.564-.834-1.271-1.7-2.561-2.541-3.794l16.6-27.69L392.889,197.2,386.8,225.871c3.727,7.444-.816,12.13-.816,12.13l-.038.085a14.594,14.594,0,0,0-6.838-1.669c-3.357.2-8.4,3.3-9.294,4.354s2.362,2.949,5.386,2.048c-.16.085-1.735.882-3.158,1.8l-.389-.427c-6.923.095-14.842-5.187-18.9-8.308-4.173,2.7-9.009,5.642-12.073,6.857-3.747,1.48-9.778.844-14.236-.73l-.057-.019c-3.034-1.071-5.311-2.579-5.6-4.126-.73-3.821,3.424-25.242,3.424-25.242s-4.741-6.592-5.928-9.228,1.319-13.316,1.319-13.316S292.9,203.4,288.092,203.4s-11.077-2.769-12-8.839,5.074-39.681,6.326-44.9,4.22-6.278,4.22-6.278a13.639,13.639,0,0,1,2.162-.446,28.17,28.17,0,0,1,10.375,1.053" transform="translate(-9.201 -4.76)" fill="#a6aedf"/>
          <path id="Trazado_873950" data-name="Trazado 873950" d="M387.142,460.2c.266,5.007-.4,9.616-5.671,10.015s-12.054-.73-12.386-7.777a66.325,66.325,0,0,1,.617-9.654c.057.217,1.792,7.236,8.422,8.735,5.254,1.175,7.824-2.921,8.706-4.79.161,1.527.276,2.732.313,3.471" transform="translate(-12.303 -15.094)" fill="#7666fa"/>
          <path id="Trazado_873951" data-name="Trazado 873951" d="M383.8,431.855c.844,6.241,2.38,17.886,3.054,24.155-.882,1.869-3.452,5.966-8.706,4.79-6.629-1.5-8.365-8.516-8.422-8.735v-.01c.862-7.264,2.285-14.984,2.285-14.984l-1.081-5.814a39.377,39.377,0,0,0,8.032,1.6,10.017,10.017,0,0,0,4.837-1.005" transform="translate(-12.325 -14.376)" fill="#ecb78e"/>
          <path id="Trazado_873952" data-name="Trazado 873952" d="M376.809,152.839a19.967,19.967,0,0,0-.873,2.959s-7.16,5.624-12.4,5.89c-5.169.265-8.469-6.876-8.573-7.094v-.01a21.306,21.306,0,0,0,1.574-6.383c1.888,3.206,4.79,6.326,8.972,7.3.019,0,.039.01.057.01,4.183.939,8.147-.607,11.248-2.675" transform="translate(-11.833 -4.94)" fill="#1a2948"/>
          <path id="Trazado_873953" data-name="Trazado 873953" d="M375.369,161.908c.019.465.057.948.124,1.441,0,0-9.228,7.094-14.995,4.989-4.913-1.8-7.2-7.749-7.767-9.494.427-.625.806-1.261,1.147-1.878.218-.417.427-.834.607-1.232.143-.313.275-.625.4-.92.1.218,3.4,7.36,8.572,7.094,5.245-.266,12.405-5.89,12.405-5.89a23.306,23.306,0,0,0-.512,4.344c-.009.493-.009,1.015.019,1.546" transform="translate(-11.759 -5.161)" fill="#ecb78e"/>
          <path id="Trazado_873954" data-name="Trazado 873954" d="M316.711,455.658a65.289,65.289,0,0,1,.625,9.655c-.332,7.056-7.122,8.175-12.395,7.776s-5.928-5.007-5.663-10.015c.039-.73.152-1.934.313-3.462.883,1.869,3.462,5.956,8.7,4.78,6.742-1.518,8.422-8.735,8.422-8.735" transform="translate(-9.975 -15.19)" fill="#7666fa"/>
          <path id="Trazado_873955" data-name="Trazado 873955" d="M315.624,433.4l.009.075-1.186,6.345s1.423,7.729,2.276,14.994c0,0-1.679,7.217-8.421,8.735-5.236,1.175-7.815-2.912-8.7-4.78.93-8.715,3.549-27.845,3.623-28.385a28.515,28.515,0,0,0,5.729,2.276,17.412,17.412,0,0,0,6.667.74" transform="translate(-9.988 -14.347)" fill="#ecb78e"/>
          <path id="Trazado_873956" data-name="Trazado 873956" d="M299.358,134.9c1.451,2.2.54,6.09-.114,8.148a28.167,28.167,0,0,0-10.375-1.053L290,138.446s-7.313-5.168-8.431-6.259-.6-4.352-.6-4.352-2.732-5.463-2.969-9.228,2.437-4.145,2.437-4.145h6.923c.4,3.453-5.206,3.424-5.206,3.424l.664,2.884c.882-2.921,4.41-2.486,4.41-2.486s6.829.949,7.643,1.765-.066,2.589-.066,2.589.568,4.875-1.053,5.463-2.637-2.693-2.637-2.693l-2.37,1.869s8.573,4.514,10.612,7.624" transform="translate(-9.267 -3.816)" fill="#ecb78e"/>
          <path id="Trazado_873957" data-name="Trazado 873957" d="M352.791,132.058a.968.968,0,0,1-.962-1.072,9.559,9.559,0,0,0-1.617-6.385.967.967,0,0,1,1.59-1.1,11.512,11.512,0,0,1,1.949,7.7.966.966,0,0,1-.96.861" transform="translate(-11.669 -4.103)" fill="#1a2948"/>
          <path id="Trazado_873958" data-name="Trazado 873958" d="M350.509,130.959a.955.955,0,0,1-.4-.085.967.967,0,0,1-.486-1.278,6.474,6.474,0,0,1,2.317-2.723.967.967,0,0,1,1.064,1.614,4.523,4.523,0,0,0-1.618,1.9.966.966,0,0,1-.882.571" transform="translate(-11.652 -4.224)" fill="#1a2948"/>
          <path id="Trazado_873959" data-name="Trazado 873959" d="M388.174,140.171a.967.967,0,0,1-.911-1.29,11.516,11.516,0,0,1,5.093-6.087.966.966,0,1,1,.955,1.68,9.574,9.574,0,0,0-4.227,5.052.964.964,0,0,1-.911.645" transform="translate(-12.908 -4.423)" fill="#1a2948"/>
          <path id="Trazado_873960" data-name="Trazado 873960" d="M390.808,140.142h-.026a.966.966,0,0,1-.942-.992,4.518,4.518,0,0,0-.632-2.414.966.966,0,1,1,1.658-.993,6.48,6.48,0,0,1,.908,3.459.967.967,0,0,1-.966.941" transform="translate(-12.97 -4.509)" fill="#1a2948"/>
          <path id="Trazado_873961" data-name="Trazado 873961" d="M386.856,105.09a.967.967,0,0,1-.954-1.121,11.248,11.248,0,0,0-4.617-10.757.967.967,0,0,1,1.091-1.6,13.09,13.09,0,0,1,5.511,9.281,15.063,15.063,0,0,0,1.761-7.915.967.967,0,0,1,.909-1.021.977.977,0,0,1,1.021.911,17,17,0,0,1-3.986,11.878.967.967,0,0,1-.737.34" transform="translate(-12.696 -3.048)" fill="#1a2948"/>
          <path id="Trazado_873962" data-name="Trazado 873962" d="M387.131,184.261a.967.967,0,0,1-.967-.944,28.155,28.155,0,0,1,6.269-18.231.966.966,0,1,1,1.5,1.224,26.193,26.193,0,0,0-5.831,16.963.967.967,0,0,1-.945.989h-.022" transform="translate(-12.873 -5.491)" fill="#1a2948"/>
          <path id="Trazado_873963" data-name="Trazado 873963" d="M395.466,199.693a.962.962,0,0,1-.693-.293l-5.264-5.412a.967.967,0,0,1,1.386-1.349l5.264,5.413a.967.967,0,0,1-.693,1.64" transform="translate(-12.975 -6.412)" fill="#1a2948"/>
          <path id="Trazado_873964" data-name="Trazado 873964" d="M394.091,201.21a.959.959,0,0,1-.408-.091l-5.022-2.344a.966.966,0,1,1,.817-1.752l5.023,2.344a.967.967,0,0,1-.41,1.842" transform="translate(-12.938 -6.565)" fill="#1a2948"/>
          <path id="Trazado_873965" data-name="Trazado 873965" d="M331.721,214.492a.967.967,0,0,1-.3-1.885,99.334,99.334,0,0,1,34.983-4.993.967.967,0,0,1-.072,1.932,97.245,97.245,0,0,0-34.3,4.9.977.977,0,0,1-.3.049" transform="translate(-11.026 -6.919)" fill="#1a2948"/>
          <path id="Trazado_873966" data-name="Trazado 873966" d="M353.96,239.228a.966.966,0,0,1-.7-.305l-8.866-9.451a.967.967,0,1,1,1.41-1.323l8.865,9.451a.967.967,0,0,1-.7,1.629" transform="translate(-11.472 -7.595)" fill="#1a2948"/>
          <path id="Trazado_873967" data-name="Trazado 873967" d="M320.84,190.6a.967.967,0,0,1-.949-1.154l3.189-16.129a.967.967,0,1,1,1.9.374l-3.19,16.13a.967.967,0,0,1-.947.779" transform="translate(-10.663 -5.752)" fill="#1a2948"/>
          <path id="Trazado_873968" data-name="Trazado 873968" d="M416.345,222.082a.967.967,0,0,1-.537-1.771c3.844-2.56,10.338-2.068,13.566-1.374a.966.966,0,0,1-.406,1.89c-3.927-.843-9.338-.74-12.087,1.092a.971.971,0,0,1-.536.162" transform="translate(-13.847 -7.28)" fill="#1a2948"/>
          <path id="Trazado_873969" data-name="Trazado 873969" d="M297.017,189.966a.967.967,0,0,1-.967-.965l-.025-10.414a.966.966,0,0,1,.964-.969h0a.967.967,0,0,1,.967.965L297.983,189a.967.967,0,0,1-.964.97Z" transform="translate(-9.868 -5.921)" fill="#1a2948"/>
          <path id="Trazado_873970" data-name="Trazado 873970" d="M283.152,127.775a.956.956,0,0,1-.5-.142.966.966,0,0,1-.322-1.329c1.2-1.954,3.39-5.291,4.667-5.691,1.2-.38,7.553.319,8.676,1.577a.966.966,0,1,1-1.44,1.289c-.753-.553-5.789-1.261-6.66-1.02-.53.278-2.3,2.74-3.591,4.855a.969.969,0,0,1-.826.462" transform="translate(-9.407 -4.017)" fill="#1a2948"/>
          <path id="Trazado_873971" data-name="Trazado 873971" d="M283.691,124.131l-1.705-.911s1.025-1.918,1.481-2.832c.546-1.093,2.848-2.336,3.811-2.821a.966.966,0,1,1,.867,1.727,10.719,10.719,0,0,0-2.949,1.96c-.463.926-1.5,2.876-1.5,2.876" transform="translate(-9.4 -3.916)" fill="#1a2948"/>
          <path id="Trazado_873972" data-name="Trazado 873972" d="M281.039,128.972h-.007a.966.966,0,0,1-.96-.973c.022-3.107,1.725-7.689,1.8-7.882a.967.967,0,1,1,1.811.678c-.015.044-1.655,4.455-1.674,7.218a.967.967,0,0,1-.967.96" transform="translate(-9.336 -3.983)" fill="#1a2948"/>
          <path id="Trazado_873973" data-name="Trazado 873973" d="M356.845,265.141h-4.369a.967.967,0,0,1-.962-.875L349.556,243.7a.965.965,0,0,1,.87-1.053.952.952,0,0,1,1.054.87l1.876,19.689h2.568l1.01-21.049a.967.967,0,0,1,1.931.092l-1.055,21.97a.967.967,0,0,1-.966.92" transform="translate(-11.653 -8.042)" fill="#1a2948"/>
          <path id="Trazado_873974" data-name="Trazado 873974" d="M359.244,293.249a.967.967,0,0,1-.524-1.78,110.758,110.758,0,0,1,21.146-10.6.966.966,0,0,1,.676,1.811A108.867,108.867,0,0,0,359.766,293.1a.965.965,0,0,1-.522.154" transform="translate(-11.943 -9.361)" fill="#1a2948"/>
          <path id="Trazado_873975" data-name="Trazado 873975" d="M354.513,293.477a.959.959,0,0,1-.632-.236A97.88,97.88,0,0,0,337.5,281.77a.967.967,0,0,1,.942-1.688,99.827,99.827,0,0,1,16.7,11.7.967.967,0,0,1-.632,1.7" transform="translate(-11.235 -9.333)" fill="#1a2948"/>
          <path id="Trazado_873976" data-name="Trazado 873976" d="M350.67,294.3a.917.917,0,0,1-.184-.018l-11.779-2.272a.966.966,0,1,1,.366-1.9l11.779,2.273a.966.966,0,0,1-.183,1.915" transform="translate(-11.265 -9.671)" fill="#1a2948"/>
          <path id="Trazado_873977" data-name="Trazado 873977" d="M379.09,257.5a.967.967,0,0,1-.194-1.913l10.28-2.122a.967.967,0,0,1,.391,1.894l-10.279,2.121a.975.975,0,0,1-.2.02" transform="translate(-12.605 -8.449)" fill="#1a2948"/>
          <path id="Trazado_873978" data-name="Trazado 873978" d="M374.813,253.638a.967.967,0,0,1-.474-1.81,24.836,24.836,0,0,1,6.78-2.949,13.056,13.056,0,0,1,8.461,1.018.966.966,0,0,1-.848,1.737,11.086,11.086,0,0,0-7.2-.865,23.368,23.368,0,0,0-6.247,2.745.961.961,0,0,1-.472.124" transform="translate(-12.462 -8.287)" fill="#1a2948"/>
          <path id="Trazado_873979" data-name="Trazado 873979" d="M390.43,248.416a.959.959,0,0,1-.62-.224,20.642,20.642,0,0,0-3.083-2.276,6.313,6.313,0,0,0-3.311-.893c-1.635.091-3.1,1.032-4.843,2.253a.966.966,0,0,1-1.108-1.583c1.573-1.1,3.529-2.473,5.845-2.6a8,8,0,0,1,4.358,1.136,22.22,22.22,0,0,1,3.382,2.479.966.966,0,0,1-.622,1.708" transform="translate(-12.569 -8.103)" fill="#1a2948"/>
          <path id="Trazado_873980" data-name="Trazado 873980" d="M362.384,134.972c-.382,1.185-2.41,1.591-4.53.908s-3.529-2.2-3.147-3.382,2.41-1.591,4.53-.908,3.529,2.2,3.147,3.382" transform="translate(-11.822 -4.376)" fill="#e06f43"/>
          <path id="Trazado_873981" data-name="Trazado 873981" d="M375.792,139.293c-.382,1.186,1.027,2.7,3.147,3.383s4.148.276,4.53-.908-1.027-2.7-3.147-3.383-4.148-.275-4.53.908" transform="translate(-12.525 -4.602)" fill="#e06f43"/>
          <path id="Trazado_873982" data-name="Trazado 873982" d="M370.709,139.963c-2.177.909-6.093-1.395-5.8-3.6.179-.764.968-1.236,1.665-1.7a14.3,14.3,0,0,0,5.646-7.043,8.837,8.837,0,0,1-1.434,9.4,1.677,1.677,0,0,1-.072,2.935" transform="translate(-12.164 -4.255)" fill="#e06f43"/>
          <path id="Trazado_873983" data-name="Trazado 873983" d="M358.44,122.6s3.785-1.462,8.812,1.142a1.406,1.406,0,0,0,2.012-.592c.176-.552.034-1.287-1-2.174-2.415-2.069-8.539-1.136-9.823,1.624" transform="translate(-11.949 -3.996)" fill="#1a2948"/>
          <path id="Trazado_873984" data-name="Trazado 873984" d="M363.032,128.076a2.113,2.113,0,1,1-1.255-2.93,2.265,2.265,0,0,1,1.255,2.93" transform="translate(-11.965 -4.169)" fill="#1a2948"/>
          <path id="Trazado_873985" data-name="Trazado 873985" d="M366.726,129.066a.966.966,0,0,1-.816-.447c-1.809-2.833-3.728-3.452-6.85-2.209a.966.966,0,1,1-.715-1.8c3.971-1.583,6.9-.641,9.195,2.964a.967.967,0,0,1-.814,1.487" transform="translate(-11.925 -4.129)" fill="#1a2948"/>
          <path id="Trazado_873986" data-name="Trazado 873986" d="M386.1,132.136s-1.9-3.583-7.406-4.912a1.406,1.406,0,0,1-1.132-1.765c.228-.532.818-.994,2.18-.986,3.18.019,7.195,4.736,6.358,7.663" transform="translate(-12.584 -4.149)" fill="#1a2948"/>
          <path id="Trazado_873987" data-name="Trazado 873987" d="M375,131.811a2.113,2.113,0,1,0,2.868-1.391A2.264,2.264,0,0,0,375,131.811" transform="translate(-12.494 -4.343)" fill="#1a2948"/>
          <path id="Trazado_873988" data-name="Trazado 873988" d="M383.989,135.181a.968.968,0,0,1-.86-.523c-1.54-2.983-3.4-3.774-6.621-2.82a.966.966,0,1,1-.55-1.853c4.1-1.215,6.926-.014,8.889,3.785a.968.968,0,0,1-.858,1.41" transform="translate(-12.51 -4.318)" fill="#1a2948"/>
          <path id="Trazado_873989" data-name="Trazado 873989" d="M360.949,143.407a5.681,5.681,0,0,0,4.215,4.641l.007-.019a4.205,4.205,0,0,1,4.173-1.838,6.361,6.361,0,0,1,2.822,1.444,5.574,5.574,0,0,0,2.038-2.349,1.389,1.389,0,0,0-1.059-1.984l-.253-.041,0,.011c-.081.126-1,1.322-5.005.759-4.226-.58-5.114-2.161-5.114-2.161l-.244-.037a1.393,1.393,0,0,0-1.575,1.574" transform="translate(-12.032 -4.728)" fill="#1a2948"/>
          <path id="Trazado_873990" data-name="Trazado 873990" d="M365.317,148.179l-.008.019a10.045,10.045,0,0,0,1.854.426,7.388,7.388,0,0,0,5.148-.839,6.378,6.378,0,0,0-2.822-1.445,4.206,4.206,0,0,0-4.173,1.839" transform="translate(-12.178 -4.876)" fill="#dc3d3d"/>
          <path id="Trazado_873991" data-name="Trazado 873991" d="M362.775,141.865s.942,1.589,5.168,2.168c4.009.565,4.924-.633,4.952-.767Z" transform="translate(-12.093 -4.729)" fill="#fbf5e8"/>
          <path id="Trazado_873992" data-name="Trazado 873992" d="M372.624,147.886a.239.239,0,0,0-.071-.049" transform="translate(-12.419 -4.928)" fill="#dc3d3d"/>
          <path id="Trazado_873993" data-name="Trazado 873993" d="M209.07,57.192a16.414,16.414,0,0,0,12.97-2.23c18.609,14.706,54.286,7.457,55.146-23,.842-41.526-64.994-43.129-66.175-1.616A30.69,30.69,0,0,0,216,48.471c-1.039,5.331-6.932,8.72-6.932,8.72" transform="translate(-6.97 0)" fill="#eaac36"/>
          <path id="Trazado_873994" data-name="Trazado 873994" d="M213.191,91.518a13.438,13.438,0,0,1,10.617,1.826c15.234-12.039,44.44-6.1,45.144,18.83.688,33.994-53.205,35.305-54.172,1.323a25.124,25.124,0,0,1,4.085-14.84c-.851-4.364-5.674-7.139-5.674-7.139" transform="translate(-7.107 -2.911)" fill="#2c423e"/>
          <path id="Trazado_873995" data-name="Trazado 873995" d="M266.372,86.508a6.555,6.555,0,0,1,0-13.1,6.089,6.089,0,0,1,4.78,2.081,6.829,6.829,0,0,1,1.582,4.468,6.262,6.262,0,0,1-6.363,6.555m0-11.171a4.207,4.207,0,0,0-3.313,1.41,4.982,4.982,0,0,0-1.116,3.212,4.3,4.3,0,0,0,4.428,4.615,4.346,4.346,0,0,0,4.429-4.622,4.974,4.974,0,0,0-1.115-3.208,4.211,4.211,0,0,0-3.315-1.407" transform="translate(-8.668 -2.447)" fill="#1a2948"/>
          <path id="Trazado_873996" data-name="Trazado 873996" d="M285.169,86.508a6.555,6.555,0,0,1,0-13.1,6.085,6.085,0,0,1,4.78,2.081,6.832,6.832,0,0,1,1.581,4.467,6.262,6.262,0,0,1-6.362,6.556m0-11.171a4.207,4.207,0,0,0-3.313,1.41,4.982,4.982,0,0,0-1.116,3.212,4.3,4.3,0,0,0,4.428,4.615,4.347,4.347,0,0,0,4.428-4.623,4.968,4.968,0,0,0-1.115-3.207,4.207,4.207,0,0,0-3.314-1.407" transform="translate(-9.294 -2.447)" fill="#1a2948"/>
          <path id="Trazado_873997" data-name="Trazado 873997" d="M303.966,86.508a6.555,6.555,0,0,1,0-13.1,6.089,6.089,0,0,1,4.78,2.081,6.833,6.833,0,0,1,1.581,4.468,6.261,6.261,0,0,1-6.362,6.555m0-11.171a4.348,4.348,0,0,0-4.429,4.622,4.974,4.974,0,0,0,1.115,3.208,4.211,4.211,0,0,0,3.315,1.407,4.347,4.347,0,0,0,4.428-4.622,4.3,4.3,0,0,0-4.428-4.616" transform="translate(-9.921 -2.447)" fill="#1a2948"/>
        </g>
      </g>
    </g>
  </g>
</svg>
