<svg xmlns="http://www.w3.org/2000/svg" width="132" height="132" viewBox="0 0 132 132">
  <g id="Grupo_1099762" data-name="Grupo 1099762" transform="translate(-632.051 -1460)">
    <rect id="Rectángulo_401228" data-name="Rectángulo 401228" width="132" height="132" rx="14" transform="translate(632.051 1460)" fill="#ff9b6a"/>
    <g id="chat" transform="translate(645.884 1472.884)">
      <path id="Trazado_874096" data-name="Trazado 874096" d="M282.087,36.137c-13.878,0-25.126,7.336-25.126,21.487a25.13,25.13,0,1,0,50.25,0C307.21,43.473,295.963,36.137,282.087,36.137Zm0,0" transform="translate(-203.838 -28.666)" fill="#fbc4ac"/>
      <path id="Trazado_874097" data-name="Trazado 874097" d="M261.926,41.759a25.439,25.439,0,0,1,22.645-25.5q-1.223-.122-2.48-.124a25.376,25.376,0,0,0-25.125,25.622A25.376,25.376,0,0,0,282.09,67.381q1.255,0,2.48-.124A25.438,25.438,0,0,1,261.926,41.759Zm0,0" transform="translate(-203.841 -12.801)" fill="#e3b098"/>
      <path id="Trazado_874098" data-name="Trazado 874098" d="M432.3,172.675H428.75a1.55,1.55,0,1,1,0-3.1H432.3a1.55,1.55,0,1,1,0,3.1Zm0,0" transform="translate(-338.883 -134.518)" fill="#f98084"/>
      <path id="Trazado_874099" data-name="Trazado 874099" d="M302.73,172.675h-3.548a1.55,1.55,0,0,1,0-3.1h3.548a1.55,1.55,0,1,1,0,3.1Zm0,0" transform="translate(-236.102 -134.518)" fill="#f98084"/>
      <path id="Trazado_874100" data-name="Trazado 874100" d="M306.009,27.06c-1.726-21.005-10.2-17.771-23.921-17.771-10.377,0-15.361-1.039-17.484-1.7a1.819,1.819,0,0,0-2.167.909c-1.7,3.326-5.476,12.324-5.476,26.414,0,0,6.009-10.821,25.125-10.821C290.979,24.09,290.235,27.06,306.009,27.06Zm0,0" transform="translate(-203.838 -5.953)" fill="#c86d5c"/>
      <path id="Trazado_874101" data-name="Trazado 874101" d="M267.4,8.5a1.834,1.834,0,0,1,.133-.217,25.09,25.09,0,0,1-2.928-.692,1.819,1.819,0,0,0-2.167.909c-1.7,3.326-5.476,12.324-5.476,26.414A18.208,18.208,0,0,1,262.1,29.68C262.871,18.581,265.924,11.391,267.4,8.5Zm0,0" transform="translate(-203.838 -5.953)" fill="#ad4f3d"/>
      <path id="Trazado_874102" data-name="Trazado 874102" d="M7.59,375.762v16.517a8.076,8.076,0,0,0,7.184,8.027l11.872,1.321Zm0,0" transform="translate(-6.021 -298.079)" fill="#3a484a"/>
      <path id="Trazado_874103" data-name="Trazado 874103" d="M177.354,375.762v16.517a8.077,8.077,0,0,1-7.184,8.027L158.3,401.627Zm0,0" transform="translate(-125.572 -298.079)" fill="#3a484a"/>
      <path id="Trazado_874104" data-name="Trazado 874104" d="M57.732,301.328l0,0-25.662-19.4L7.521,301.33l0,0c-.012.33-.019.66-.019.992a25.376,25.376,0,0,0,25.125,25.623A25.376,25.376,0,0,0,57.749,302.32C57.749,301.988,57.744,301.658,57.732,301.328Zm0,0" transform="translate(-5.949 -223.645)" fill="#fbc4ac"/>
      <path id="Trazado_874105" data-name="Trazado 874105" d="M11.675,371.813a26.105,26.105,0,0,1-4.154.819l0,0c-.012.329-.019.659-.019.991a25.377,25.377,0,0,0,25.125,25.624c.717,0,1.426-.032,2.128-.093C22.276,398.01,12.366,386.333,11.675,371.813Zm0,0" transform="translate(-5.949 -294.946)" fill="#e3b098"/>
      <path id="Trazado_874106" data-name="Trazado 874106" d="M53.269,413.16H49.722a1.551,1.551,0,0,1,0-3.1h3.547a1.551,1.551,0,1,1,0,3.1Zm0,0" transform="translate(-38.213 -325.286)" fill="#f98084"/>
      <path id="Trazado_874107" data-name="Trazado 874107" d="M182.836,413.16h-3.547a1.551,1.551,0,0,1,0-3.1h3.547a1.551,1.551,0,1,1,0,3.1Zm0,0" transform="translate(-140.994 -325.286)" fill="#f98084"/>
      <path id="Trazado_874108" data-name="Trazado 874108" d="M7.59,281.255l0,0c13.484-1.492,25.1-14.516,25.1-14.516s11.62,13.024,25.1,14.516l0,0A25.354,25.354,0,0,0,32.7,256.625,25.353,25.353,0,0,0,7.59,281.255Zm0,0" transform="translate(-6.021 -203.572)" fill="#3a484a"/>
      <path id="Trazado_874109" data-name="Trazado 874109" d="M34.867,256.721c-.715-.062-1.439-.1-2.171-.1A25.354,25.354,0,0,0,7.59,281.255l0,0a23.457,23.457,0,0,0,4.154-.819A25.672,25.672,0,0,1,34.867,256.721Zm0,0" transform="translate(-6.021 -203.572)" fill="#323e40"/>
      <path id="Trazado_874110" data-name="Trazado 874110" d="M48.185,78.576V63.088A10.018,10.018,0,0,0,38.167,53.07H17.519A10.019,10.019,0,0,0,7.5,63.088V77.241A10.018,10.018,0,0,0,17.519,87.259H52.983Zm0,0" transform="translate(-5.949 -42.099)" fill="#58b78c"/>
      <path id="Trazado_874111" data-name="Trazado 874111" d="M284.818,323.381V307.893a10.017,10.017,0,0,1,10.018-10.018h20.648A10.018,10.018,0,0,1,325.5,307.893v14.153a10.017,10.017,0,0,1-10.018,10.018H280.02Zm0,0" transform="translate(-222.13 -236.294)" fill="#f2c42c"/>
      <path id="Trazado_874112" data-name="Trazado 874112" d="M437.328,144.173a1.55,1.55,0,0,0,1.551-1.551v-2.6a1.551,1.551,0,0,0-3.1,0v2.6A1.55,1.55,0,0,0,437.328,144.173Zm0,0" transform="translate(-345.687 -109.843)"/>
      <path id="Trazado_874113" data-name="Trazado 874113" d="M307.758,144.173a1.55,1.55,0,0,0,1.551-1.551v-2.6a1.551,1.551,0,0,0-3.1,0v2.6A1.55,1.55,0,0,0,307.758,144.173Zm0,0" transform="translate(-242.904 -109.843)"/>
      <path id="Trazado_874114" data-name="Trazado 874114" d="M366.768,164.124a1.551,1.551,0,0,0-2.188.147,1.688,1.688,0,0,1-2.456,0,1.551,1.551,0,1,0-2.335,2.042,4.788,4.788,0,0,0,7.126,0A1.551,1.551,0,0,0,366.768,164.124Zm0,0" transform="translate(-285.105 -129.89)"/>
      <path id="Trazado_874115" data-name="Trazado 874115" d="M58.3,384.655a1.551,1.551,0,0,0,1.551-1.551v-2.6a1.551,1.551,0,1,0-3.1,0v2.6A1.55,1.55,0,0,0,58.3,384.655Zm0,0" transform="translate(-45.018 -300.608)"/>
      <path id="Trazado_874116" data-name="Trazado 874116" d="M187.867,384.655a1.551,1.551,0,0,0,1.551-1.551v-2.6a1.551,1.551,0,0,0-3.1,0v2.6A1.551,1.551,0,0,0,187.867,384.655Zm0,0" transform="translate(-147.798 -300.608)"/>
      <path id="Trazado_874117" data-name="Trazado 874117" d="M112.664,404.754a1.551,1.551,0,0,0-2.335,2.041,4.787,4.787,0,0,0,7.126,0,1.55,1.55,0,0,0-2.335-2.041,1.688,1.688,0,0,1-2.456,0Zm0,0" transform="translate(-87.216 -320.657)"/>
      <path id="Trazado_874118" data-name="Trazado 874118" d="M11.568,82.864H47.033a1.566,1.566,0,0,0,1.357-2.3l-4.6-8.332V57.142A11.581,11.581,0,0,0,32.217,45.574H11.568A11.582,11.582,0,0,0,0,57.142V71.3A11.582,11.582,0,0,0,11.568,82.864ZM3.1,57.142a8.477,8.477,0,0,1,8.467-8.467H32.217a8.477,8.477,0,0,1,8.467,8.467V72.63a1.543,1.543,0,0,0,.194.75l3.527,6.383H11.568A8.477,8.477,0,0,1,3.1,71.295Zm0,0" transform="translate(0 -36.153)"/>
      <path id="Trazado_874119" data-name="Trazado 874119" d="M47.64,97.132H69.268a1.551,1.551,0,0,0,0-3.1H47.64a1.551,1.551,0,0,0,0,3.1Zm0,0" transform="translate(-36.562 -74.592)"/>
      <path id="Trazado_874120" data-name="Trazado 874120" d="M47.64,131.363H69.268a1.551,1.551,0,1,0,0-3.1H47.64a1.551,1.551,0,0,0,0,3.1Zm0,0" transform="translate(-36.562 -101.746)"/>
      <path id="Trazado_874121" data-name="Trazado 874121" d="M47.64,165.593H61.128a1.551,1.551,0,0,0,0-3.1H47.64a1.551,1.551,0,0,0,0,3.1Zm0,0" transform="translate(-36.562 -128.9)"/>
      <path id="Trazado_874122" data-name="Trazado 874122" d="M274.092,327.665h35.465A11.581,11.581,0,0,0,321.124,316.1V301.943a11.582,11.582,0,0,0-11.568-11.568H288.907a11.582,11.582,0,0,0-11.568,11.568v15.088l-4.6,8.333A1.566,1.566,0,0,0,274.092,327.665Zm6.155-9.483a1.554,1.554,0,0,0,.193-.75V301.944a8.477,8.477,0,0,1,8.467-8.467h20.649a8.477,8.477,0,0,1,8.467,8.467V316.1a8.477,8.477,0,0,1-8.467,8.467H276.719Zm0,0" transform="translate(-216.202 -230.345)"/>
      <path id="Trazado_874123" data-name="Trazado 874123" d="M343.367,341.937h21.628a1.551,1.551,0,0,0,0-3.1H343.367a1.551,1.551,0,1,0,0,3.1Zm0,0" transform="translate(-271.151 -268.787)"/>
      <path id="Trazado_874124" data-name="Trazado 874124" d="M366.545,374.613a1.55,1.55,0,0,0-1.551-1.55H343.367a1.55,1.55,0,1,0,0,3.1h21.628A1.55,1.55,0,0,0,366.545,374.613Zm0,0" transform="translate(-271.151 -295.938)"/>
      <path id="Trazado_874125" data-name="Trazado 874125" d="M397.78,408.843a1.55,1.55,0,0,0-1.551-1.551H382.742a1.551,1.551,0,1,0,0,3.1H396.23A1.55,1.55,0,0,0,397.78,408.843Zm0,0" transform="translate(-302.386 -323.092)"/>
      <path id="Trazado_874126" data-name="Trazado 874126" d="M276.137,56.131c14.708,0,26.674-12.19,26.674-27.173a27.634,27.634,0,0,0-1.221-8.134c-.764-9.079-2.827-14.313-6.681-16.956-3.637-2.494-8.424-2.348-13.967-2.178-1.539.047-3.13.1-4.806.1-10.262,0-15.069-1.022-17.021-1.631a3.364,3.364,0,0,0-4.01,1.686,47.068,47.068,0,0,0-3.4,9.125,1.55,1.55,0,0,0,3,.8,43.963,43.963,0,0,1,3.164-8.52.266.266,0,0,1,.323-.133c2.59.808,7.806,1.771,17.945,1.771,1.723,0,3.338-.049,4.9-.1,5.206-.16,9.317-.285,12.118,1.636,2.778,1.905,4.444,6.094,5.2,13.118a64.192,64.192,0,0,1-6.991-.407,49.469,49.469,0,0,1-6.638-1.327,28.865,28.865,0,0,0-8.588-1.223,44.014,44.014,0,0,0-10.627,1.236,31.335,31.335,0,0,0-8.489,3.461,25.238,25.238,0,0,0-4.275,3.208l-.053.049a68.084,68.084,0,0,1,.756-6.893,1.55,1.55,0,0,0-3.061-.5,73.812,73.812,0,0,0-.926,11.809C249.461,43.941,261.428,56.131,276.137,56.131Zm0-3.1A23.844,23.844,0,0,1,252.566,29.4c0-.015.034-.05.042-.062a18.89,18.89,0,0,1,5.652-5.151c6.066-3.784,13.977-5.117,21.035-4.339,3.475.384,6.792,1.663,10.252,2.173a67.49,67.49,0,0,0,9.081.63l.264,0a24.583,24.583,0,0,1,.819,6.307C299.71,42.232,289.135,53.03,276.137,53.03Zm0,0" transform="translate(-197.889 0)"/>
      <path id="Trazado_874127" data-name="Trazado 874127" d="M.023,291.823a9.617,9.617,0,0,0,8.563,9.568L20.378,302.7a26.239,26.239,0,0,0,12.6,0l11.792-1.311a9.617,9.617,0,0,0,8.563-9.568V277.252c0-.669.023-1.335,0-2a27.253,27.253,0,0,0-8.125-18.5,26.356,26.356,0,0,0-39.7,3.01,1.551,1.551,0,0,0,2.476,1.867,23.255,23.255,0,0,1,35.047-2.667,24.127,24.127,0,0,1,7.06,14.521q-.571-.11-1.135-.248A37.646,37.646,0,0,1,36.435,267.2l-.012-.008a59.156,59.156,0,0,1-6.793-5.615c-.5-.481-.993-.971-1.472-1.475a2.486,2.486,0,0,0-.994-.785,1.515,1.515,0,0,0-.966,0,3.1,3.1,0,0,0-1.134.932c-.949.991-1.945,1.937-2.97,2.847a58.958,58.958,0,0,1-5.2,4.135,36.068,36.068,0,0,1-13.625,6.25,24.228,24.228,0,0,1,1.811-6.83,1.551,1.551,0,1,0-2.85-1.223,27.4,27.4,0,0,0-2.2,9.819c-.025.668-.023,1.336,0,2Zm11.414,6.765-2.508-.279a6.52,6.52,0,0,1-5.8-6.486v-2.754a27.44,27.44,0,0,0,2.922,4.449,26.936,26.936,0,0,0,5.02,4.8C11.142,298.371,11.389,298.555,11.437,298.588Zm38.8-6.765a6.52,6.52,0,0,1-5.8,6.486l-2.507.279c.047-.033.3-.218.376-.277a26.913,26.913,0,0,0,5.015-4.793,27.421,27.421,0,0,0,2.922-4.449ZM27,263.367a50.817,50.817,0,0,0,17.271,11.647,30.653,30.653,0,0,0,5.975,1.648c0,.166-.008.332-.014.5a.11.11,0,0,1,0,.016,24.32,24.32,0,0,1-8.561,17.681l-.023.019a23.149,23.149,0,0,1-29.968-.02,24.322,24.322,0,0,1-8.56-17.681.089.089,0,0,1,0-.015c-.006-.166-.01-.332-.013-.5.142-.023.283-.053.426-.078a32.581,32.581,0,0,0,4.345-1.136,41.732,41.732,0,0,0,10.655-5.555l.009-.006a58.409,58.409,0,0,0,8.136-6.844Zm0,0" transform="translate(-0.004 -197.623)"/>
    </g>
  </g>
</svg>
