<svg xmlns="http://www.w3.org/2000/svg" width="132" height="132" viewBox="0 0 132 132">
  <g id="Grupo_1099790" data-name="Grupo 1099790" transform="translate(-1052.051 -1460)">
    <rect id="Rectángulo_401228" data-name="Rectángulo 401228" width="132" height="132" rx="14" transform="translate(1052.051 1460)" fill="#ff9b6a"/>
    <g id="medios-de-comunicacion-social_1_" data-name="medios-de-comunicacion-social (1)" transform="translate(1061.051 1447.701)">
      <g id="Grupo_1099764" data-name="Grupo 1099764" transform="translate(8.719 29.992)">
        <g id="Grupo_1099763" data-name="Grupo 1099763" transform="translate(0 0)">
          <path id="Trazado_874128" data-name="Trazado 874128" d="M51.994,35.8H72.162a13.383,13.383,0,1,1,0,26.766H69.63a.754.754,0,0,0-.653.377l-3.228,5.59a.754.754,0,0,1-1.305,0l-3.228-5.59a.754.754,0,0,0-.653-.377h-8.57a13.383,13.383,0,0,1,0-26.766Z" transform="translate(-38.611 -35.798)" fill="#97da7b"/>
        </g>
      </g>
      <g id="Grupo_1099766" data-name="Grupo 1099766" transform="translate(42.795 41.761)">
        <g id="Grupo_1099765" data-name="Grupo 1099765">
          <path id="Trazado_874129" data-name="Trazado 874129" d="M189.5,102.9a13.36,13.36,0,0,0,12.758-14.984A16.327,16.327,0,0,0,189.5,102.9Z" transform="translate(-189.504 -87.912)" fill="#80d261"/>
        </g>
      </g>
      <g id="Grupo_1099768" data-name="Grupo 1099768" transform="translate(1.694 69.534)">
        <g id="Grupo_1099767" data-name="Grupo 1099767" transform="translate(0 0)">
          <path id="Trazado_874130" data-name="Trazado 874130" d="M64.233,210.895H24.486a16.986,16.986,0,1,0,0,33.972H27.7a.956.956,0,0,1,.828.478l4.1,7.1a.956.956,0,0,0,1.657,0l4.1-7.1a.957.957,0,0,1,.828-.478H64.233a16.986,16.986,0,1,0,0-33.972Z" transform="translate(-7.5 -210.895)" fill="#99e6fc"/>
        </g>
      </g>
      <g id="Grupo_1099770" data-name="Grupo 1099770" transform="translate(24.26 103.506)">
        <g id="Grupo_1099769" data-name="Grupo 1099769">
          <path id="Trazado_874131" data-name="Trazado 874131" d="M108.962,361.806l-1.537,2.663,2.559,4.433a.956.956,0,0,0,1.657,0l4.1-7.1a.957.957,0,0,1,.828-.478h-6.775A.956.956,0,0,0,108.962,361.806Z" transform="translate(-107.425 -361.328)" fill="#62dbfb"/>
        </g>
      </g>
      <g id="Grupo_1099772" data-name="Grupo 1099772" transform="translate(51.652 69.534)">
        <g id="Grupo_1099771" data-name="Grupo 1099771" transform="translate(0 0)">
          <path id="Trazado_874132" data-name="Trazado 874132" d="M235.5,210.895h-6.775a16.986,16.986,0,1,1,0,33.972H235.5a16.986,16.986,0,1,0,0-33.972Z" transform="translate(-228.723 -210.895)" fill="#62dbfb"/>
        </g>
      </g>
      <g id="Grupo_1099774" data-name="Grupo 1099774" transform="translate(66.996 44.911)">
        <g id="Grupo_1099773" data-name="Grupo 1099773">
          <path id="Trazado_874133" data-name="Trazado 874133" d="M327.961,101.86h-17.91a13.383,13.383,0,0,0,0,26.766h2.533a.754.754,0,0,1,.653.377l3.228,5.59a.754.754,0,0,0,1.305,0L321,129a.754.754,0,0,1,.653-.377h6.312a13.383,13.383,0,0,0,0-26.766Z" transform="translate(-296.668 -101.86)" fill="#d9b1ee"/>
        </g>
      </g>
      <g id="Grupo_1099776" data-name="Grupo 1099776" transform="translate(11.483 75.878)">
        <g id="Grupo_1099775" data-name="Grupo 1099775">
          <path id="Trazado_874134" data-name="Trazado 874134" d="M61.49,239.392l2.4,5.349a.685.685,0,0,0,.551.4l5.829.63a.685.685,0,0,1,.386,1.189L66.312,250.9a.685.685,0,0,0-.211.648l1.2,5.739a.685.685,0,0,1-1.011.735L61.206,255.1a.685.685,0,0,0-.682,0l-5.086,2.917a.685.685,0,0,1-1.011-.735l1.2-5.739a.685.685,0,0,0-.211-.648l-4.346-3.936a.685.685,0,0,1,.386-1.189l5.829-.63a.685.685,0,0,0,.551-.4l2.4-5.349a.685.685,0,0,1,1.25,0Z" transform="translate(-50.847 -238.987)" fill="#ffe177"/>
        </g>
      </g>
      <g id="Grupo_1099778" data-name="Grupo 1099778" transform="translate(47.244 43.069)">
        <g id="Grupo_1099777" data-name="Grupo 1099777" transform="translate(0 0)">
          <circle id="Elipse_11524" data-name="Elipse 11524" cx="16.324" cy="16.324" r="16.324" fill="#ffe177"/>
        </g>
      </g>
      <g id="Grupo_1099780" data-name="Grupo 1099780" transform="translate(47.586 88.11)">
        <g id="Grupo_1099779" data-name="Grupo 1099779">
          <path id="Trazado_874135" data-name="Trazado 874135" d="M226.515,293.151h27.93a15.8,15.8,0,1,1,0,31.592h-2.989a.89.89,0,0,0-.77.445l-3.81,6.6a.889.889,0,0,1-1.541,0l-3.809-6.6a.889.889,0,0,0-.77-.445h-14.24a15.8,15.8,0,1,1,0-31.592Z" transform="translate(-210.719 -293.151)" fill="#feaee1"/>
        </g>
      </g>
      <g id="Grupo_1099782" data-name="Grupo 1099782" transform="translate(91.514 44.911)">
        <g id="Grupo_1099781" data-name="Grupo 1099781">
          <path id="Trazado_874136" data-name="Trazado 874136" d="M412.013,101.86h-6.775a13.383,13.383,0,0,1,.72,26.746v.02h6.054a13.383,13.383,0,0,0,0-26.766Z" transform="translate(-405.238 -101.86)" fill="#cb97e7"/>
        </g>
      </g>
      <g id="Grupo_1099784" data-name="Grupo 1099784" transform="translate(60.18 43.069)">
        <g id="Grupo_1099783" data-name="Grupo 1099783" transform="translate(0 0)">
          <path id="Trazado_874137" data-name="Trazado 874137" d="M269.873,93.7a16.38,16.38,0,0,0-3.387.354,16.325,16.325,0,0,1,0,31.939A16.324,16.324,0,1,0,269.873,93.7Z" transform="translate(-266.486 -93.703)" fill="#ffd15b"/>
        </g>
      </g>
      <g id="Grupo_1099786" data-name="Grupo 1099786" transform="translate(84.537 88.11)">
        <g id="Grupo_1099785" data-name="Grupo 1099785">
          <path id="Trazado_874138" data-name="Trazado 874138" d="M381.119,293.151h-6.775a15.8,15.8,0,0,1,3.794,31.13v.462h2.981a15.8,15.8,0,1,0,0-31.592Z" transform="translate(-374.344 -293.151)" fill="#fe93d3"/>
        </g>
      </g>
      <g id="Grupo_1099788" data-name="Grupo 1099788" transform="translate(65.398 95.259)">
        <g id="Grupo_1099787" data-name="Grupo 1099787">
          <path id="Trazado_874139" data-name="Trazado 874139" d="M305.173,324.806a6.342,6.342,0,0,0-4.609,1.979,6.361,6.361,0,1,0-9.131,8.858c1.153,1.165,9.131,7.306,9.131,7.306s7.939-6.124,9.089-7.264a6.362,6.362,0,0,0-4.48-10.88Z" transform="translate(-289.592 -324.806)" fill="#fe646f"/>
        </g>
      </g>
      <g id="Grupo_1099789" data-name="Grupo 1099789" transform="translate(0 28.299)">
        <path id="Trazado_874140" data-name="Trazado 874140" d="M301.448,146.01a1.672,1.672,0,1,0-1.672-1.672A1.672,1.672,0,0,0,301.448,146.01Z" transform="translate(-232.078 -116.838)"/>
        <path id="Trazado_874141" data-name="Trazado 874141" d="M250.315,146.01a1.672,1.672,0,1,0-1.672-1.672A1.672,1.672,0,0,0,250.315,146.01Z" transform="translate(-192.492 -116.838)"/>
        <path id="Trazado_874142" data-name="Trazado 874142" d="M64.651,238.281l-5.254-.568-2.164-4.822a2.382,2.382,0,0,0-2.17-1.4h0a2.382,2.382,0,0,0-2.17,1.4l-2.164,4.822-5.254.568a2.379,2.379,0,0,0-1.341,4.128l3.917,3.548-1.084,5.173a2.379,2.379,0,0,0,3.512,2.551l4.585-2.629,4.585,2.629a2.379,2.379,0,0,0,3.512-2.551l-1.084-5.173,3.917-3.548a2.379,2.379,0,0,0-1.342-4.128Zm-10.509-4v0h0Zm5.23,9.556a2.387,2.387,0,0,0-.732,2.251l.741,3.539-3.136-1.8a2.387,2.387,0,0,0-2.367,0l-3.137,1.8.741-3.538a2.386,2.386,0,0,0-.731-2.251l-2.68-2.427,3.595-.388a2.386,2.386,0,0,0,1.915-1.391l1.48-3.3,1.481,3.3a2.387,2.387,0,0,0,1.915,1.391l3.595.388Z" transform="translate(-33.562 -185.601)"/>
        <path id="Trazado_874143" data-name="Trazado 874143" d="M294.758,338.838a1.691,1.691,0,0,0,1.035-.353c.821-.633,8.057-6.222,9.247-7.4a8.057,8.057,0,0,0-10.281-12.329,7.973,7.973,0,0,0-4.609-1.447,8.056,8.056,0,0,0-5.726,13.722c1.2,1.211,8.476,6.822,9.3,7.457A1.694,1.694,0,0,0,294.758,338.838Zm-9.278-13.475a4.667,4.667,0,0,1,8.051-3.215,1.694,1.694,0,0,0,2.455,0,4.626,4.626,0,0,1,3.382-1.453,4.668,4.668,0,0,1,3.287,7.983c-.7.694-4.854,3.966-7.9,6.326-3.056-2.366-7.228-5.652-7.927-6.357A4.638,4.638,0,0,1,285.48,325.363Z" transform="translate(-218.388 -252.041)"/>
        <path id="Trazado_874144" data-name="Trazado 874144" d="M75.863,72.682a15.075,15.075,0,0,0,4.516.689h1.99l2.956,5.12a2.455,2.455,0,0,0,2.119,1.224h0a2.455,2.455,0,0,0,2.12-1.224l2.956-5.12h5.769a15.077,15.077,0,1,0,0-30.153H80.379a14.941,14.941,0,0,0-6.451,1.448A17.975,17.975,0,0,0,57.32,42.494,15.094,15.094,0,0,0,42.271,28.3H32.625a1.694,1.694,0,0,0,0,3.387h9.645A11.7,11.7,0,0,1,53.96,43.376c0,.268-.011.538-.029.8a18.087,18.087,0,0,0-7.662,10.186l-.04.012a11.659,11.659,0,0,1-3.958.687H39.738a2.455,2.455,0,0,0-2.12,1.224l-2.414,4.18-2.413-4.18a2.454,2.454,0,0,0-2.12-1.224H22.1a11.689,11.689,0,1,1,0-23.379h3.748a1.694,1.694,0,1,0,0-3.387H22.1a15.077,15.077,0,1,0,0,30.153H30.13l2.957,5.12A2.454,2.454,0,0,0,35.205,64.8h0a2.455,2.455,0,0,0,2.119-1.224l2.956-5.12h1.99a15.109,15.109,0,0,0,3.332-.371c-.031.434-.053.87-.053,1.312a17.9,17.9,0,0,0,2.109,8.448H18.679a18.679,18.679,0,0,0,0,37.359h2.789l3.884,6.727a2.65,2.65,0,0,0,4.59,0l3.884-6.727h12.12a17.509,17.509,0,0,0,17.437,16.2h.068a1.694,1.694,0,0,0,0-3.387h-.068a14.1,14.1,0,0,1,0-28.2h27.93a14.1,14.1,0,0,1,0,28.2H88.323a2.591,2.591,0,0,0-2.237,1.292l-3.113,5.392L79.86,119.3a2.591,2.591,0,0,0-2.237-1.291h-7.4a1.694,1.694,0,1,0,0,3.387h6.933l3.577,6.2a2.583,2.583,0,0,0,4.474,0l3.577-6.2h2.525a17.49,17.49,0,0,0,0-34.979H77.1a18.494,18.494,0,0,0-4.158-11.645,18.128,18.128,0,0,0,2.814-2.127c.034.013.068.027.1.038ZM98.289,46.6a11.689,11.689,0,1,1,0,23.379H91.977a2.454,2.454,0,0,0-2.119,1.224l-2.413,4.18-2.414-4.181a2.455,2.455,0,0,0-2.119-1.223H80.379a11.782,11.782,0,0,1-2.112-.191A17.966,17.966,0,0,0,76.789,47.17a11.625,11.625,0,0,1,3.59-.565h17.91ZM73.716,86.416H63.382a17.512,17.512,0,0,0-17.36,15.4H33.4a2.656,2.656,0,0,0-2.3,1.325l-3.458,5.989-3.458-5.989a2.658,2.658,0,0,0-2.3-1.325H18.679a15.292,15.292,0,0,1,0-30.585H50A17.99,17.99,0,0,0,69.8,76.3a15.143,15.143,0,0,1,3.92,10.117ZM63.567,74.023A14.63,14.63,0,1,1,78.2,59.393,14.646,14.646,0,0,1,63.567,74.023Z" transform="translate(0 -28.299)"/>
        <path id="Trazado_874145" data-name="Trazado 874145" d="M261.591,167.668a1.694,1.694,0,0,0-1.694,1.694,4.109,4.109,0,0,1-8.217,0,1.694,1.694,0,1,0-3.387,0,7.5,7.5,0,1,0,14.992,0A1.694,1.694,0,0,0,261.591,167.668Z" transform="translate(-192.221 -136.195)"/>
        <path id="Trazado_874146" data-name="Trazado 874146" d="M116.06,72.841H97.814a1.694,1.694,0,1,0,0,3.387H116.06a1.694,1.694,0,1,0,0-3.387Z" transform="translate(-74.413 -62.782)"/>
        <path id="Trazado_874147" data-name="Trazado 874147" d="M116.06,104.36H97.814a1.694,1.694,0,1,0,0,3.387H116.06a1.694,1.694,0,1,0,0-3.387Z" transform="translate(-74.413 -87.183)"/>
        <path id="Trazado_874148" data-name="Trazado 874148" d="M379.156,142.3h12.682a1.694,1.694,0,0,0,0-3.387H379.156a1.694,1.694,0,0,0,0,3.387Z" transform="translate(-292.221 -113.935)"/>
        <path id="Trazado_874149" data-name="Trazado 874149" d="M379.156,173.821h12.682a1.694,1.694,0,0,0,0-3.387H379.156a1.694,1.694,0,0,0,0,3.387Z" transform="translate(-292.221 -138.336)"/>
        <path id="Trazado_874150" data-name="Trazado 874150" d="M166.607,242.763h6.187a1.694,1.694,0,0,0,0-3.387h-6.187a1.694,1.694,0,0,0,0,3.387Z" transform="translate(-127.671 -191.709)"/>
        <path id="Trazado_874151" data-name="Trazado 874151" d="M171.141,299.438h-4.535a1.694,1.694,0,0,0,0,3.387h4.535a1.694,1.694,0,0,0,0-3.387Z" transform="translate(-127.671 -238.207)"/>
        <path id="Trazado_874152" data-name="Trazado 874152" d="M180.615,270.669H166.607a1.694,1.694,0,0,0,0,3.387h14.008a1.694,1.694,0,1,0,0-3.387Z" transform="translate(-127.671 -215.935)"/>
      </g>
    </g>
  </g>
</svg>
