<svg xmlns="http://www.w3.org/2000/svg" width="105.223" height="105.224" viewBox="0 0 105.223 105.224">
  <g id="Layer_20" data-name="Layer 20" transform="translate(-1 -1)">
    <path id="Trazado_874153" data-name="Trazado 874153" d="M8,2H75.886V93.646H8Z" transform="translate(4.88 0.697)" fill="#c8cded"/>
    <path id="Trazado_874154" data-name="Trazado 874154" d="M69.886,99.646H2V8H54.612L69.886,23.274Z" transform="translate(0.697 4.88)" fill="#e2e7f6"/>
    <path id="Trazado_874155" data-name="Trazado 874155" d="M2,92.858H63.1V16.486L54.612,8H2Z" transform="translate(0.697 4.88)" fill="#f2f2f2"/>
    <path id="Trazado_874156" data-name="Trazado 874156" d="M6,26H60.309V73.52H6Z" transform="translate(3.486 17.429)" fill="#5e87ca"/>
    <path id="Trazado_874157" data-name="Trazado 874157" d="M6,26H55.218V65.035H6Z" transform="translate(3.486 17.429)" fill="#78a0d4"/>
    <path id="Trazado_874158" data-name="Trazado 874158" d="M17.149,14.358A1.7,1.7,0,0,0,15.486,13H10.394a1.7,1.7,0,0,0-1.663,1.358l-1.7,8.485A1.7,1.7,0,0,0,7,23.183v6.789h3.394V24.88h5.091v5.091H18.88V23.183a1.7,1.7,0,0,0-.034-.339Zm-3.055,2.037,1.018,5.091H10.768l1.018-5.091Z" transform="translate(4.183 8.366)" fill="#78a0d4"/>
    <path id="Trazado_874159" data-name="Trazado 874159" d="M21.789,13H16.7A1.7,1.7,0,0,0,15,14.7V28.274a1.7,1.7,0,0,0,1.7,1.7h5.091a5.091,5.091,0,0,0,3.791-8.486A5.091,5.091,0,0,0,21.789,13Zm0,13.577H18.394V23.183h3.394a1.7,1.7,0,0,1,0,3.394Zm0-6.789H18.394V16.394h3.394a1.7,1.7,0,0,1,0,3.394Z" transform="translate(9.76 8.366)" fill="#78a0d4"/>
    <path id="Trazado_874160" data-name="Trazado 874160" d="M34.88,19.789v-1.7A5.091,5.091,0,0,0,29.789,13h-1.7A5.091,5.091,0,0,0,23,18.091V24.88a5.091,5.091,0,0,0,5.091,5.091h1.7A5.091,5.091,0,0,0,34.88,24.88v-1.7H31.486v1.7a1.7,1.7,0,0,1-1.7,1.7h-1.7a1.7,1.7,0,0,1-1.7-1.7V18.091a1.7,1.7,0,0,1,1.7-1.7h1.7a1.7,1.7,0,0,1,1.7,1.7v1.7Z" transform="translate(15.337 8.366)" fill="#78a0d4"/>
    <g id="Grupo_1099791" data-name="Grupo 1099791" transform="translate(14.577 51.915)">
      <path id="Trazado_874161" data-name="Trazado 874161" d="M13,31H40.154v3.394H13Z" transform="translate(-6.211 -31)" fill="#f2f2f2"/>
      <path id="Trazado_874162" data-name="Trazado 874162" d="M31,31h6.789v3.394H31Z" transform="translate(6.337 -31)" fill="#f2f2f2"/>
      <path id="Trazado_874163" data-name="Trazado 874163" d="M9,35H53.126v3.394H9Z" transform="translate(-9 -28.211)" fill="#f2f2f2"/>
      <path id="Trazado_874164" data-name="Trazado 874164" d="M9,39H53.126v3.394H9Z" transform="translate(-9 -25.423)" fill="#f2f2f2"/>
      <path id="Trazado_874165" data-name="Trazado 874165" d="M9,43H53.126v3.394H9Z" transform="translate(-9 -22.634)" fill="#f2f2f2"/>
      <path id="Trazado_874166" data-name="Trazado 874166" d="M9,47H53.126v3.394H9Z" transform="translate(-9 -19.846)" fill="#f2f2f2"/>
    </g>
    <path id="Trazado_874167" data-name="Trazado 874167" d="M33,8V23.274H48.274" transform="translate(22.309 4.88)" fill="#fff"/>
    <path id="Trazado_874168" data-name="Trazado 874168" d="M42,20H65.76l-5.091,5.091,5.091,5.091H42" transform="translate(28.583 13.246)" fill="#4d8c28"/>
    <path id="Trazado_874169" data-name="Trazado 874169" d="M48,7H71.76l-5.091,5.091,5.091,5.091H48" transform="translate(32.766 4.183)" fill="#3b5892"/>
    <path id="Trazado_874170" data-name="Trazado 874170" d="M38,33H61.76l-5.091,5.091,5.091,5.091H38" transform="translate(25.795 22.309)" fill="#f0ae42"/>
    <path id="Trazado_874171" data-name="Trazado 874171" d="M42,45H65.76l-5.091,5.091,5.091,5.091H42" transform="translate(28.583 30.675)" fill="#5e87ca"/>
    <path id="Trazado_874172" data-name="Trazado 874172" d="M48,12.091H66.669L71.76,7H48Z" transform="translate(32.766 4.183)" fill="#4c6cb5"/>
    <path id="Trazado_874173" data-name="Trazado 874173" d="M42,25.091H60.669L65.76,20H42Z" transform="translate(28.583 13.246)" fill="#559b2d"/>
    <path id="Trazado_874174" data-name="Trazado 874174" d="M38,38.091H56.669L61.76,33H38Z" transform="translate(25.795 22.309)" fill="#f9d266"/>
    <path id="Trazado_874175" data-name="Trazado 874175" d="M42,50.091H60.669L65.76,45H42Z" transform="translate(28.583 30.675)" fill="#78a0d4"/>
    <path id="Trazado_874176" data-name="Trazado 874176" d="M10.394,24.88h5.091v5.091H18.88V23.183a1.7,1.7,0,0,0-.034-.339l-1.7-8.486A1.7,1.7,0,0,0,15.486,13H10.394a1.7,1.7,0,0,0-1.663,1.358l-1.7,8.485A1.7,1.7,0,0,0,7,23.183v6.789h3.394Zm3.7-8.486,1.018,5.091H10.768l1.018-5.091Z" transform="translate(4.183 8.366)"/>
    <path id="Trazado_874177" data-name="Trazado 874177" d="M16.7,29.972h5.091a5.091,5.091,0,0,0,3.791-8.486A5.091,5.091,0,0,0,21.789,13H16.7A1.7,1.7,0,0,0,15,14.7V28.274A1.7,1.7,0,0,0,16.7,29.972Zm1.7-13.577h3.394a1.7,1.7,0,0,1,0,3.394H18.394Zm0,6.789h3.394a1.7,1.7,0,0,1,0,3.394H18.394Z" transform="translate(9.76 8.366)"/>
    <path id="Trazado_874178" data-name="Trazado 874178" d="M28.091,29.972h1.7A5.091,5.091,0,0,0,34.88,24.88v-1.7H31.486v1.7a1.7,1.7,0,0,1-1.7,1.7h-1.7a1.7,1.7,0,0,1-1.7-1.7V18.091a1.7,1.7,0,0,1,1.7-1.7h1.7a1.7,1.7,0,0,1,1.7,1.7v1.7H34.88v-1.7A5.091,5.091,0,0,0,29.789,13h-1.7A5.091,5.091,0,0,0,23,18.091V24.88A5.091,5.091,0,0,0,28.091,29.972Z" transform="translate(15.337 8.366)"/>
    <path id="Trazado_874179" data-name="Trazado 874179" d="M13,31H40.154v3.394H13Z" transform="translate(8.366 20.915)"/>
    <path id="Trazado_874180" data-name="Trazado 874180" d="M31,31h6.789v3.394H31Z" transform="translate(20.915 20.915)"/>
    <path id="Trazado_874181" data-name="Trazado 874181" d="M9,35H53.126v3.394H9Z" transform="translate(5.577 23.703)"/>
    <path id="Trazado_874182" data-name="Trazado 874182" d="M9,39H53.126v3.394H9Z" transform="translate(5.577 26.492)"/>
    <path id="Trazado_874183" data-name="Trazado 874183" d="M9,43H53.126v3.394H9Z" transform="translate(5.577 29.281)"/>
    <path id="Trazado_874184" data-name="Trazado 874184" d="M9,47H53.126v3.394H9Z" transform="translate(5.577 32.069)"/>
    <path id="Trazado_874185" data-name="Trazado 874185" d="M101.835,16.274l3.892-3.892a1.7,1.7,0,0,0-1.2-2.9H82.463V2.7a1.7,1.7,0,0,0-1.7-1.7H12.88a1.7,1.7,0,0,0-1.7,1.7v8.486H2.7A1.7,1.7,0,0,0,1,12.88v91.646a1.7,1.7,0,0,0,1.7,1.7H70.583a1.7,1.7,0,0,0,1.7-1.7V96.041h8.486a1.7,1.7,0,0,0,1.7-1.7V87.555h11.88a1.7,1.7,0,0,0,1.2-2.9l-3.892-3.892,3.892-3.892a1.7,1.7,0,0,0-1.2-2.9H82.463V67.189h5.091a1.7,1.7,0,0,0,1.2-2.9L84.863,60.4l3.892-3.892a1.7,1.7,0,0,0-1.2-2.9H82.463V45.126h11.88a1.7,1.7,0,0,0,1.2-2.9l-3.892-3.892,3.892-3.892a1.7,1.7,0,0,0-1.2-2.9H82.463V23.063h22.063a1.7,1.7,0,0,0,1.2-2.9ZM4.394,102.829V14.577H53.612V28.154a1.7,1.7,0,0,0,1.7,1.7H68.886v23.76H65.492V43.429a1.7,1.7,0,0,0-1.7-1.7H9.486a1.7,1.7,0,0,0-1.7,1.7v47.52a1.7,1.7,0,0,0,1.7,1.7H63.795a1.7,1.7,0,0,0,1.7-1.7V67.189h3.394v35.64ZM57.006,16.977l9.48,9.48h-9.48ZM62.1,45.126V89.252H11.183V45.126Zm16.972,47.52H72.281V87.555h6.789Zm8.983-10.675,2.194,2.189H72.281V77.372H90.247l-2.194,2.194a1.7,1.7,0,0,0,0,2.4Zm-8.983-7.994H72.281V67.189h6.789ZM81.264,61.6l2.194,2.194H65.492V57.006H83.458L81.264,59.2A1.7,1.7,0,0,0,81.264,61.6Zm-2.194-7.989H72.281V45.126h6.789Zm8.983-14.075,2.194,2.194H72.281V34.943H90.247l-2.194,2.194a1.7,1.7,0,0,0,0,2.4ZM72.281,31.549V28.154a1.7,1.7,0,0,0-.5-1.2L56.509,11.68a1.7,1.7,0,0,0-1.2-.5H14.577V4.394H79.069V31.549ZM98.235,17.474l2.194,2.194H82.463V12.88H100.43l-2.194,2.194A1.7,1.7,0,0,0,98.235,17.474Z"/>
  </g>
</svg>
