<svg xmlns="http://www.w3.org/2000/svg" xmlns:xlink="http://www.w3.org/1999/xlink" width="292" height="226" viewBox="0 0 292 226">
  <defs>
    <clipPath id="clip-path">
      <rect id="Rectángulo_401304" data-name="Rectángulo 401304" width="292" height="226" transform="translate(941.99 3576)" fill="none" stroke="#707070" stroke-width="1"/>
    </clipPath>
    <clipPath id="clip-path-2">
      <path id="Trazado_873467" data-name="Trazado 873467" d="M17.313,104.19a93.252,93.252,0,1,0,93.253-93.251A93.254,93.254,0,0,0,17.313,104.19" transform="translate(-17.313 -10.939)" fill="#feeae0"/>
    </clipPath>
  </defs>
  <g id="Grupo_1099808" data-name="Grupo 1099808" transform="translate(8655 9157)">
    <g id="Grupo_1099735" data-name="Grupo 1099735" transform="translate(-10280.73 -12447)">
      <g id="Enmascarar_grupo_1098707" data-name="Enmascarar grupo 1098707" transform="translate(683.74 -286)" clip-path="url(#clip-path)">
        <rect id="Rectángulo_401306" data-name="Rectángulo 401306" width="101.5" height="305.965" rx="50.75" transform="translate(1120.49 3730.276) rotate(-40)" fill="#0826f2"/>
        <rect id="Rectángulo_401307" data-name="Rectángulo 401307" width="117.281" height="351.393" rx="58.641" transform="translate(918.985 3830.478) rotate(-40)" fill="#454444"/>
        <rect id="Rectángulo_401312" data-name="Rectángulo 401312" width="91.367" height="274.663" rx="45.684" transform="translate(830.301 3442.628) rotate(-40)" fill="#fc6120"/>
      </g>
    </g>
    <g id="Grupo_1099806" data-name="Grupo 1099806" transform="translate(-8566 -9134)">
      <g id="Grupo_1099433" data-name="Grupo 1099433" transform="translate(-64 -3)" clip-path="url(#clip-path-2)">
        <path id="Trazado_873461" data-name="Trazado 873461" d="M206.271,45.5,171.232,10.457,138.245,43.446,105.071,10.272,70.406,44.937,36.114,10.645,5.136,41.622,0,36.487,36.114.373l34.292,34.29L105.071,0l33.174,33.172L171.232.185l35.038,35.038L239.112,2.382l5.138,5.134Z" transform="translate(-36.501 -23.063)" fill="#feeae0"/>
        <path id="Trazado_873462" data-name="Trazado 873462" d="M206.271,62.291,171.232,27.255,138.245,60.239,105.071,27.067,70.406,61.732,36.114,27.44,5.136,58.42,0,53.282,36.114,17.168,70.406,51.46,105.071,16.8,138.245,49.97l32.987-32.987,35.038,35.036,32.841-32.841,5.138,5.134Z" transform="translate(-36.501 -4.448)" fill="#feeae0"/>
        <path id="Trazado_873463" data-name="Trazado 873463" d="M206.271,79.086,171.232,44.05,138.245,77.037,105.071,43.864,70.406,78.527,36.114,44.235,5.136,75.215,0,70.077,36.114,33.964,70.406,68.256,105.071,33.59l33.174,33.175,32.987-32.987,35.038,35.036,32.841-32.841,5.138,5.136Z" transform="translate(-36.501 14.166)" fill="#feeae0"/>
        <path id="Trazado_873464" data-name="Trazado 873464" d="M206.271,95.882,171.232,60.844,138.245,93.831,105.071,60.658,70.406,95.323,36.114,61.029,5.136,92.009,0,86.873,36.114,50.76,70.406,85.052l34.665-34.665,33.174,33.174,32.987-32.989L206.271,85.61l32.841-32.843L244.25,57.9Z" transform="translate(-36.501 32.782)" fill="#feeae0"/>
        <path id="Trazado_873465" data-name="Trazado 873465" d="M206.271,112.677,171.232,77.639l-32.987,32.987L105.071,77.453,70.406,112.118,36.114,77.827,5.136,108.806,0,103.671,36.114,67.555l34.292,34.292,34.665-34.665,33.174,33.174,32.987-32.987,35.038,35.038,32.841-32.843L244.25,74.7Z" transform="translate(-36.501 51.396)" fill="#feeae0"/>
        <path id="Trazado_873466" data-name="Trazado 873466" d="M206.271,129.473,171.232,94.436l-32.987,32.987L105.071,94.251,70.406,128.914,36.114,94.622,5.136,125.6,0,120.464,36.114,84.35l34.292,34.292,34.665-34.665,33.174,33.175,32.987-32.987L206.271,119.2l32.841-32.841L244.25,91.5Z" transform="translate(-36.501 70.011)" fill="#feeae0"/>
      </g>
    </g>
    <g id="Grupo_1099807" data-name="Grupo 1099807" transform="translate(-8923.958 -11526.167)">
      <g id="consejo" transform="translate(330.958 2402.167)">
        <g id="Grupo_1099804" data-name="Grupo 1099804" transform="translate(2.848 20.937)">
          <g id="Grupo_1099793" data-name="Grupo 1099793" transform="translate(57.491 59.37)">
            <path id="Trazado_874186" data-name="Trazado 874186" d="M278.867,320.909H268.853V333.54l-15.108-12.631H215.139a14.045,14.045,0,0,1-14-14V270.919a14.045,14.045,0,0,1,14-14h63.727a14.037,14.037,0,0,1,13.993,14v35.988A14.037,14.037,0,0,1,278.867,320.909Z" transform="translate(-201.138 -256.918)" fill="#23a8fe"/>
          </g>
          <g id="Grupo_1099794" data-name="Grupo 1099794" transform="translate(57.49 59.37)">
            <path id="Trazado_874187" data-name="Trazado 874187" d="M201.137,305.036V270.919a14.045,14.045,0,0,1,14-14h26.808v27.546a20.618,20.618,0,0,1-20.581,20.572Z" transform="translate(-201.137 -256.918)" fill="#0193fa"/>
          </g>
          <g id="Grupo_1099795" data-name="Grupo 1099795" transform="translate(0 36.928)">
            <path id="Trazado_874188" data-name="Trazado 874188" d="M31.566,249.241H41.579v14.467l18.666-14.467H95.293a14.037,14.037,0,0,0,14-13.993v-36a14.037,14.037,0,0,0-14-13.993H31.566a14.035,14.035,0,0,0-13.993,13.993v36a14.035,14.035,0,0,0,13.993,13.993Z" transform="translate(-17.573 -185.259)" fill="#9da0df"/>
          </g>
          <g id="Grupo_1099796" data-name="Grupo 1099796" transform="translate(37.964 68.418)">
            <path id="Trazado_874189" data-name="Trazado 874189" d="M154.584,285.806v3.54c0,4.023-3.549,7.326-7.9,7.326s-7.9-3.3-7.9-7.326v-3.54Z" transform="translate(-138.79 -285.806)" fill="#7ca1b1"/>
          </g>
          <g id="Grupo_1099797" data-name="Grupo 1099797" transform="translate(37.964 68.418)">
            <path id="Trazado_874190" data-name="Trazado 874190" d="M149.691,296.118a8.45,8.45,0,0,1-3,.553c-4.348,0-7.9-3.3-7.9-7.326v-3.54H144.8v3.54A7.386,7.386,0,0,0,149.691,296.118Z" transform="translate(-138.79 -285.806)" fill="#678d98"/>
          </g>
          <g id="Grupo_1099798" data-name="Grupo 1099798" transform="translate(31.49 57.851)">
            <path id="Trazado_874191" data-name="Trazado 874191" d="M146.86,252.066v7.888a3.933,3.933,0,0,1-4.058,3.768H122.177a3.933,3.933,0,0,1-4.058-3.768v-7.888Z" transform="translate(-118.119 -252.066)" fill="#a8d3d8"/>
          </g>
          <g id="Grupo_1099799" data-name="Grupo 1099799" transform="translate(31.49 57.851)">
            <path id="Trazado_874192" data-name="Trazado 874192" d="M128.194,263.722h-6.017a3.933,3.933,0,0,1-4.058-3.768v-7.888h6.017v7.888A3.933,3.933,0,0,0,128.194,263.722Z" transform="translate(-118.119 -252.066)" fill="#8ebac5"/>
          </g>
          <g id="Grupo_1099800" data-name="Grupo 1099800" transform="translate(16.97)">
            <path id="Trazado_874193" data-name="Trazado 874193" d="M100.649,67.351c15.96,0,28.89,12.658,28.89,28.275,0,16.856-11.059,16.8-11.059,27.169a3.24,3.24,0,0,1-3.259,3.2H86.076a3.239,3.239,0,0,1-3.259-3.2c0-10.365-11.059-10.312-11.059-27.169C71.758,80.009,84.7,67.351,100.649,67.351Z" transform="translate(-71.758 -67.351)" fill="#fed402"/>
          </g>
          <g id="Grupo_1099801" data-name="Grupo 1099801" transform="translate(16.97)">
            <path id="Trazado_874194" data-name="Trazado 874194" d="M100.649,67.351c1.019,0,2.02.053,3,.149C89.115,68.976,77.767,81,77.767,95.626c0,16.856,11.059,16.8,11.059,27.169a3.243,3.243,0,0,0,3.25,3.2h-6a3.239,3.239,0,0,1-3.259-3.2c0-10.365-11.059-10.312-11.059-27.169C71.758,80.009,84.7,67.351,100.649,67.351Z" transform="translate(-71.758 -67.351)" fill="#ebc505"/>
          </g>
          <g id="Grupo_1099802" data-name="Grupo 1099802" transform="translate(37.209 20.247)">
            <path id="Trazado_874195" data-name="Trazado 874195" d="M145.03,149.294a8.648,8.648,0,1,0-8.652-8.652A8.669,8.669,0,0,0,145.03,149.294Z" transform="translate(-136.378 -131.998)" fill="#ffb74d"/>
          </g>
          <g id="Grupo_1099803" data-name="Grupo 1099803" transform="translate(0 36.928)">
            <path id="Trazado_874196" data-name="Trazado 874196" d="M21.526,235.248v-36a14.035,14.035,0,0,1,13.993-13.993H31.566a14.035,14.035,0,0,0-13.993,13.993v36a14.035,14.035,0,0,0,13.993,13.993h3.953A14.035,14.035,0,0,1,21.526,235.248Z" transform="translate(-17.573 -185.259)" fill="#8286c6"/>
          </g>
        </g>
        <path id="Trazado_874197" data-name="Trazado 874197" d="M163.521,95.184v36.3a16.327,16.327,0,0,1-16.3,16.312h-7.912v10.553a2.188,2.188,0,0,1-3.592,1.679L121.082,147.8H82.934a16.331,16.331,0,0,1-16.312-16.312v-.709a2.189,2.189,0,1,1,4.377,0v.709A11.949,11.949,0,0,0,82.934,143.42h38.942a2.187,2.187,0,0,1,1.4.51l11.648,9.738v-8.059a2.189,2.189,0,0,1,2.189-2.189h10.1a11.944,11.944,0,0,0,11.927-11.935v-36.3a11.944,11.944,0,0,0-11.927-11.935H111.155a2.189,2.189,0,0,1,0-4.377h36.063a16.326,16.326,0,0,1,16.3,16.312Zm-57.992,13.663V72.537a16.372,16.372,0,0,0-12.01-15.729,2.189,2.189,0,1,0-1.163,4.22,11.984,11.984,0,0,1,8.8,11.509v36.311a11.944,11.944,0,0,1-11.935,11.926H53.863a2.19,2.19,0,0,0-1.341.459l-15.3,11.858V122.962a2.189,2.189,0,0,0-2.189-2.189h-10.1a11.94,11.94,0,0,1-11.926-11.926V72.537a11.984,11.984,0,0,1,8.787-11.509,2.189,2.189,0,1,0-1.165-4.219,16.372,16.372,0,0,0-12,15.728v36.311a16.322,16.322,0,0,0,16.3,16.3h7.913v12.4a2.189,2.189,0,0,0,3.529,1.73l18.237-14.135h34.6A16.326,16.326,0,0,0,105.529,108.847ZM32.846,68.471c-3.162-3.765-7.1-8.45-7.1-18.777,0-16.934,14.055-30.711,31.331-30.711S88.41,32.76,88.41,49.694c0,10.328-3.936,15.013-7.1,18.777-2.356,2.8-4.058,4.831-4.058,8.629a5.421,5.421,0,0,1-3.491,5.04v5.344a6.153,6.153,0,0,1-6.291,5.99h-.239v.283c0,5.282-4.555,9.579-10.154,9.579s-10.154-4.3-10.154-9.579v-.283h-.248a6.148,6.148,0,0,1-6.282-5.99V82.14A5.421,5.421,0,0,1,36.9,77.1c0-3.8-1.7-5.824-4.057-8.629Zm30.01,25H51.3v.283a5.809,5.809,0,0,0,11.554,0Zm6.53-5.99v-4.97H44.772v4.97A1.8,1.8,0,0,0,46.677,89.1h20.8a1.807,1.807,0,0,0,1.914-1.613Zm-6.4-37.17a5.91,5.91,0,1,0-5.91,5.919A5.917,5.917,0,0,0,62.989,50.314Zm-32.864-.62c0,8.733,3.087,12.408,6.072,15.962,2.5,2.975,5.083,6.051,5.083,11.444a1.084,1.084,0,0,0,1.1,1.037H54.891V60.373a10.287,10.287,0,1,1,4.377,0V78.136H71.779a1.083,1.083,0,0,0,1.1-1.037c0-5.393,2.584-8.469,5.083-11.444,2.985-3.554,6.072-7.229,6.072-15.962,0-14.52-12.091-26.333-26.954-26.333S30.125,35.174,30.125,49.694ZM57.079,12.807a2.189,2.189,0,0,0,2.189-2.189V2.689a2.189,2.189,0,0,0-4.377,0v7.93A2.189,2.189,0,0,0,57.079,12.807Zm18.213,4.748a2.187,2.187,0,0,0,2.99-.8L82.18,10A2.188,2.188,0,1,0,78.39,7.815l-3.9,6.752A2.188,2.188,0,0,0,75.292,17.556Zm15.53,14.25a2.178,2.178,0,0,0,1.092-.293l6.45-3.722A2.189,2.189,0,1,0,96.177,24l-6.45,3.722a2.189,2.189,0,0,0,1.1,4.085ZM10.668,51.289h6.964a2.189,2.189,0,0,0,0-4.377H10.668a2.189,2.189,0,0,0,0,4.377ZM94.338,49.1a2.189,2.189,0,0,0,2.189,2.189h6.956a2.189,2.189,0,0,0,0-4.377H96.526A2.189,2.189,0,0,0,94.338,49.1ZM15.793,27.789l6.442,3.722a2.188,2.188,0,1,0,2.19-3.79L17.982,24a2.188,2.188,0,1,0-2.19,3.79ZM35.877,16.755a2.189,2.189,0,0,0,3.791-2.189l-3.9-6.751A2.188,2.188,0,1,0,31.978,10Z" transform="translate(-8.479 -0.5)"/>
      </g>
      <path id="Trazado_874198" data-name="Trazado 874198" d="M-28.923-33h-7v21.73H-42.06V-33h-6.868V-37.72h20Zm8.558,21.73h-6.159V-30.925h6.159Zm0-24.219h-6.159v-4.124h6.159ZM1.6-20.677a11.616,11.616,0,0,1-2,7.113,6.616,6.616,0,0,1-5.632,2.68,5.592,5.592,0,0,1-2.516-.545,5.6,5.6,0,0,1-1.917-1.581v9.3H-16.6V-30.925h5.8l.182,2.144a5.974,5.974,0,0,1,1.953-1.853,5.129,5.129,0,0,1,2.607-.654,6.546,6.546,0,0,1,5.66,2.816A12.5,12.5,0,0,1,1.6-21.059Zm-6.123-.382a9.283,9.283,0,0,0-.727-4,2.425,2.425,0,0,0-2.326-1.508,3.7,3.7,0,0,0-1.753.382,2.815,2.815,0,0,0-1.136,1.108v8.212a2.631,2.631,0,0,0,1.154.945,4.485,4.485,0,0,0,1.771.309,2.414,2.414,0,0,0,2.317-1.335,8.164,8.164,0,0,0,.7-3.734Zm19.078,4.27a1.6,1.6,0,0,0-.827-1.3,8.916,8.916,0,0,0-3.007-1.027,11.871,11.871,0,0,1-5.178-2.08A4.713,4.713,0,0,1,3.8-25.074a5.528,5.528,0,0,1,2.18-4.406,8.968,8.968,0,0,1,5.9-1.808,10.14,10.14,0,0,1,6.25,1.753A5.155,5.155,0,0,1,20.351-25l-.036.109H14.355a2.435,2.435,0,0,0-.581-1.762,2.573,2.573,0,0,0-1.908-.6,2.5,2.5,0,0,0-1.617.527A1.652,1.652,0,0,0,9.6-25.383a1.6,1.6,0,0,0,.754,1.326,8.529,8.529,0,0,0,3.043.981,12.226,12.226,0,0,1,5.342,2.117,4.855,4.855,0,0,1,1.726,3.988,5.207,5.207,0,0,1-2.353,4.37,10.32,10.32,0,0,1-6.223,1.717,9.332,9.332,0,0,1-6.35-2.035,5.606,5.606,0,0,1-2.226-4.542l.036-.109H8.9a2.464,2.464,0,0,0,.845,2.017,3.721,3.721,0,0,0,2.3.618,3.068,3.068,0,0,0,1.871-.481A1.618,1.618,0,0,0,14.555-16.789Z" transform="translate(478.414 2476.491)"/>
    </g>
  </g>
</svg>
