<svg xmlns="http://www.w3.org/2000/svg" xmlns:xlink="http://www.w3.org/1999/xlink" width="505" height="135" viewBox="0 0 505 135">
  <defs>
    <clipPath id="clip-path">
      <rect id="Rectángulo_401483" data-name="Rectángulo 401483" width="505" height="135" transform="translate(180.051 3774)" fill="#a6aedf"/>
    </clipPath>
    <clipPath id="clip-path-2">
      <rect id="Rectángulo_401465" data-name="Rectángulo 401465" width="88.344" height="143.609" fill="none"/>
    </clipPath>
    <clipPath id="clip-path-4">
      <rect id="Rectángulo_401442" data-name="Rectángulo 401442" width="2.812" height="6.211" fill="none"/>
    </clipPath>
    <clipPath id="clip-path-5">
      <rect id="Rectángulo_401443" data-name="Rectángulo 401443" width="2.874" height="6.211" fill="none"/>
    </clipPath>
    <clipPath id="clip-path-6">
      <rect id="Rectángulo_401459" data-name="Rectángulo 401459" width="20.455" height="18.425" fill="none"/>
    </clipPath>
    <clipPath id="clip-path-7">
      <rect id="Rectángulo_401460" data-name="Rectángulo 401460" width="12.995" height="1.461" fill="none"/>
    </clipPath>
    <clipPath id="clip-path-8">
      <rect id="Rectángulo_401461" data-name="Rectángulo 401461" width="12.718" height="1.434" fill="none"/>
    </clipPath>
    <clipPath id="clip-path-9">
      <rect id="Rectángulo_401462" data-name="Rectángulo 401462" width="12.281" height="1.375" fill="none"/>
    </clipPath>
    <clipPath id="clip-path-10">
      <rect id="Rectángulo_401463" data-name="Rectángulo 401463" width="11.172" height="1.031" fill="none"/>
    </clipPath>
    <clipPath id="clip-path-11">
      <rect id="Rectángulo_401481" data-name="Rectángulo 401481" width="153.937" height="87.785" fill="none"/>
    </clipPath>
    <clipPath id="clip-path-12">
      <rect id="Rectángulo_401472" data-name="Rectángulo 401472" width="7.367" height="13.874" fill="none"/>
    </clipPath>
    <clipPath id="clip-path-13">
      <rect id="Rectángulo_401474" data-name="Rectángulo 401474" width="131.948" height="70.436" fill="none"/>
    </clipPath>
    <clipPath id="clip-path-15">
      <rect id="Rectángulo_401478" data-name="Rectángulo 401478" width="131.947" height="70.436" fill="none"/>
    </clipPath>
    <clipPath id="clip-path-17">
      <rect id="Rectángulo_401437" data-name="Rectángulo 401437" width="184.467" height="264.859" fill="none"/>
    </clipPath>
    <clipPath id="clip-path-18">
      <rect id="Rectángulo_401436" data-name="Rectángulo 401436" width="184.466" height="264.859" fill="none"/>
    </clipPath>
    <clipPath id="clip-path-19">
      <rect id="Rectángulo_401435" data-name="Rectángulo 401435" width="107.823" height="107.822" fill="none"/>
    </clipPath>
    <clipPath id="clip-path-20">
      <rect id="Rectángulo_401404" data-name="Rectángulo 401404" width="65.882" height="48.005" fill="#18257b"/>
    </clipPath>
  </defs>
  <g id="Grupo_1100111" data-name="Grupo 1100111" transform="translate(-180.051 -3777)">
    <g id="Grupo_1099878" data-name="Grupo 1099878" transform="translate(0 3)">
      <rect id="Rectángulo_401399" data-name="Rectángulo 401399" width="505" height="81" rx="40.5" transform="translate(180.051 3801)" fill="#2436b1"/>
      <g id="Enmascarar_grupo_1098727" data-name="Enmascarar grupo 1098727" clip-path="url(#clip-path)">
        <g id="Grupo_1099877" data-name="Grupo 1099877">
          <g id="Grupo_1099848" data-name="Grupo 1099848" transform="matrix(0.996, -0.087, 0.087, 0.996, 205.253, 3767.471)">
            <g id="Grupo_1099847" data-name="Grupo 1099847" clip-path="url(#clip-path-2)">
              <rect id="Rectángulo_401438" data-name="Rectángulo 401438" width="88.344" height="128.922" transform="translate(0 14.687)" fill="#f0a963"/>
              <rect id="Rectángulo_401439" data-name="Rectángulo 401439" width="81.043" height="120.688" transform="translate(4.465 19.383)" fill="#fff"/>
              <rect id="Rectángulo_401440" data-name="Rectángulo 401440" width="77.112" height="102.161" transform="translate(6.431 35.214)" fill="#fff8ed"/>
              <rect id="Rectángulo_401441" data-name="Rectángulo 401441" width="28.306" height="10.278" transform="translate(30.019 7.077)" fill="#c9bebe"/>
              <g id="Grupo_1099846" data-name="Grupo 1099846">
                <g id="Grupo_1099845" data-name="Grupo 1099845" clip-path="url(#clip-path-2)">
                  <path id="Trazado_874281" data-name="Trazado 874281" d="M666.254,167.338s28.7-1.292,28.306-10.278v10.278Z" transform="translate(-636.235 -149.983)" fill="#978989"/>
                  <path id="Trazado_874282" data-name="Trazado 874282" d="M830.585,10.053h0a1.039,1.039,0,0,1-1.039-1.039V0h2.078V9.014a1.039,1.039,0,0,1-1.039,1.039" transform="translate(-792.169)" fill="#978989"/>
                  <path id="Trazado_874283" data-name="Trazado 874283" d="M1083.624,10.053h0a1.039,1.039,0,0,1-1.039-1.039V0h2.078V9.014a1.039,1.039,0,0,1-1.039,1.039" transform="translate(-1033.807)" fill="#978989"/>
                  <path id="Trazado_874284" data-name="Trazado 874284" d="M831.623,0l-2.078,7.226V0Z" transform="translate(-792.169 0)" fill="#c9bebe"/>
                  <path id="Trazado_874285" data-name="Trazado 874285" d="M1084.663,0l-2.078,7.226V0Z" transform="translate(-1033.808 0)" fill="#c9bebe"/>
                  <path id="Trazado_874286" data-name="Trazado 874286" d="M249.867,899.446a10.9,10.9,0,0,1-1.355,2.719v0q-.066.1-.134.19l-.052.071q-.064.088-.13.174-.081.106-.165.21c-.049.061-.1.122-.15.182l-.058.069-.061.07-.073.084q-.173.2-.355.382c-.042.044-.085.087-.128.13l-.012.012-.1.1-.019.018q-.131.126-.266.246l-.082.073-.083.072-.094.08-.02.017c-.062.052-.125.1-.189.154q-.372.3-.767.561-.095.063-.19.124-.153.1-.31.19-.188.111-.38.214h0q-.136.073-.274.143l-.033.017q-.169.084-.34.162c-.065.03-.13.059-.2.087q-.208.09-.419.171l-.009,0q-.2.076-.393.143l-.09.03-.036.012-.2.062-.172.051q-.392.114-.794.2-.163.034-.327.063l-.255.042-.014,0-.161.024q-.29.04-.584.064-.4.033-.8.036h-.041q-.329,0-.659-.017-.459-.026-.92-.092-.3-.042-.6-.1l-.126-.026-.017,0-.135-.03-.125-.029-.216-.054q-.285-.074-.569-.165l-.121-.039-.031-.01-.124-.043q-.281-.1-.552-.209-.16-.065-.317-.136-.193-.086-.38-.179l-.151-.076q-.242-.124-.475-.259l-.18-.106q-.189-.115-.373-.236-.321-.211-.624-.444t-.611-.5c-.081-.072-.16-.144-.239-.219l-.029-.028q-.073-.069-.145-.14l-.09-.09q-.23-.233-.446-.478-.1-.114-.2-.231t-.2-.251l-.053-.069-.016-.021c-.039-.05-.077-.1-.114-.152l-.049-.066a10.92,10.92,0,1,1,19.19-2.945" transform="translate(-218.292 -845.174)" fill="#c9bebe"/>
                  <path id="Trazado_874287" data-name="Trazado 874287" d="M245.7,886.946a10.9,10.9,0,0,1-1.355,2.719v0q-.066.1-.134.19l-.052.071q-.064.088-.13.174-.081.106-.165.21c-.049.062-.1.122-.15.182l-.058.069-.061.07-.073.084q-.173.2-.355.382c-.042.044-.085.087-.128.13l-.012.012-.1.1-.019.018q-.131.126-.266.246l-.082.073-.083.072-.094.08-.02.017q-.094.078-.189.154-.372.3-.767.561-.095.063-.19.124-.153.1-.31.19c-.125.074-.252.146-.38.214h0q-.136.073-.274.143l-.033.017q-.169.084-.34.162c-.065.03-.13.059-.2.087q-.208.09-.419.171l-.009,0q-.2.076-.393.143l-.09.03-.036.012-.2.062-.172.051q-.392.114-.794.2-.163.034-.327.063l-.255.042-.014,0-.161.023q-.29.04-.584.064-.4.033-.8.036h-.041q-.329,0-.659-.017-.459-.026-.92-.092-.3-.043-.6-.1l-.126-.026-.017,0-.135-.03-.125-.029-.216-.054q-.285-.074-.569-.165l-.121-.039-.031-.01-.124-.043q-.281-.1-.552-.209-.16-.065-.317-.136-.193-.086-.38-.179l-.151-.076q-.242-.124-.475-.259l-.18-.106q-.189-.114-.373-.236-.321-.211-.624-.444t-.611-.5q-.121-.108-.239-.219l-.029-.028q-.073-.069-.145-.14l-.09-.09q-.23-.233-.446-.478c-.067-.076-.132-.153-.2-.231s-.136-.166-.2-.251l-.053-.069-.016-.021c-.039-.05-.077-.1-.114-.152l-.049-.066a10.92,10.92,0,1,1,19.19-2.945" transform="translate(-214.313 -833.237)" fill="#fff"/>
                  <path id="Trazado_874288" data-name="Trazado 874288" d="M365.981,939.73c-.049.062-.1.122-.15.182l-.058.069-.061.07-.073.084q-.173.2-.355.382c-.042.044-.085.087-.128.13l-.012.012-.1.1-.019.018q-.131.126-.266.246l-.082.073-.083.072-.094.08-.02.017q-.094.078-.189.154-.372.3-.767.561-.095.063-.19.124l-.72.349-.316.153c-.526.254-1.053.509-1.6.718l-.042.016-.17.065s0-.01,0-.015q-.392.114-.793.2c-.108.023-.217.044-.327.063l-.255.042-.014,0-.161.024q-.29.04-.584.064-.4.033-.8.036h-.041q-.329,0-.659-.017-.459-.026-.92-.092-.3-.043-.6-.1l-.126-.026-.017,0-.135-.03-.125-.029-.216-.054q-.285-.074-.569-.165l-.121-.039-.031-.01-.124-.043q-.281-.1-.552-.209-.16-.065-.317-.136-.193-.086-.38-.179a7.427,7.427,0,0,1-.316-2.388,13.766,13.766,0,0,1,.109-1.493c.168-1.37.491-2.723.689-3.878a11.751,11.751,0,0,0,.123-2.4h0q-.007-.2-.018-.4c-.012-.228-.057-.522-.112-.863h0c-.038-.232-.08-.484-.121-.753-.314-2.092-.49-5.093,2.874-5.945a4.732,4.732,0,0,1,3.612.2c1.085.642,1.813.549,2.4,1.918a18.65,18.65,0,0,1,.877,4.618c.066.418.129.837.207,1.253a11.558,11.558,0,0,0,.268,1.148c.116.392.253.81.4,1.227.157.452.323.9.48,1.319a13.207,13.207,0,0,0,1.221,2.346l.026.042c.07.113.139.227.208.341.149.246.3.5.437.762" transform="translate(-336.43 -882.655)" fill="#302626"/>
                  <path id="Trazado_874289" data-name="Trazado 874289" d="M304.825,1276.07a14.244,14.244,0,0,1-.235,1.83q-.285-.075-.569-.165l-.121-.039-.031-.01-.124-.042q-.281-.1-.552-.209-.16-.065-.317-.135-.193-.086-.38-.179l-.151-.076q-.242-.123-.475-.259-.091-.052-.18-.106-.189-.114-.373-.235-.321-.211-.624-.444t-.611-.5c-.081-.072-.16-.145-.239-.219l-.029-.028a7.431,7.431,0,0,1,.587-.723l0,0a4.227,4.227,0,0,0,1.776.212c1.5-.087,2.746-.54,2.645,1.338" transform="translate(-286.305 -1217.094)" fill="#f4b267"/>
                  <path id="Trazado_874290" data-name="Trazado 874290" d="M316.824,1227.589l-.052.071q-.064.088-.13.174-.081.106-.165.21c-.049.062-.1.122-.15.182l-.058.069-.061.07-.073.084q-.173.2-.355.382c-.042.044-.085.087-.128.13l-.012.011-.1.1-.019.018c-.087.084-.176.166-.266.246l-.082.073-.083.072-.094.08-.02.017q-.094.078-.189.154-.372.3-.767.561-.095.063-.19.124-.153.1-.31.19-.188.111-.38.214h0q-.136.073-.274.143l-.034.017q-.169.084-.34.162c-.065.029-.13.059-.2.087q-.208.09-.419.171l-.009,0q-.2.076-.393.143l-.09.03-.036.012-.2.062-.17.065s0-.01,0-.014q-.392.114-.793.2-.163.034-.327.063l-.255.042-.014,0-.161.024q-.29.04-.584.064-.4.033-.8.036h-.041q-.329,0-.659-.017c-.306-.017-.613-.047-.92-.092q-.3-.042-.6-.1l-.126-.026-.017,0-.135-.03-.125-.029-.216-.054q-.285-.074-.569-.165l-.121-.039-.031-.011-.124-.042q-.281-.1-.552-.209-.16-.065-.317-.136-.193-.086-.38-.179l-.151-.076c-.161-.082-.32-.169-.475-.259l-.18-.106q-.189-.114-.373-.236-.321-.211-.624-.444t-.611-.505q-.121-.107-.239-.219a6.663,6.663,0,0,1,.558-.751l0,0a4.379,4.379,0,0,1,1.884-1.281,12.41,12.41,0,0,1,1.675-.464l.411-.088.012,0,.013,0c.5-.072,1.972.6,3.827.669l1.629-.423c1.236-.321,2.252-.584,2.264-.584l.157.027a21.4,21.4,0,0,1,2.91.654l.1.033c.432.163.74.3.824.343a.425.425,0,0,1,.094.313" transform="translate(-286.926 -1170.969)" fill="#f0ac5f"/>
                  <path id="Trazado_874291" data-name="Trazado 874291" d="M397.588,1082.035l-.241-5.667-3.68,1.893.2,4.253a.777.777,0,0,1,0,.086.743.743,0,0,1-.628.663l-1.586.272s3.293,4.406,8.325-.389c-.834-.2-1.364-.263-1.845-.408a.766.766,0,0,1-.539-.7" transform="translate(-374.001 -1027.871)" fill="#f59979"/>
                  <path id="Trazado_874292" data-name="Trazado 874292" d="M440.305,1086.526l-.06-1.418h0c-.188-.488-.5-1.158-.708-1.586l-3.053,1.57.16,3.48c.978.114,2.39-.64,3.662-2.047" transform="translate(-416.818 -1034.703)" fill="#dd7a5c"/>
                  <path id="Trazado_874293" data-name="Trazado 874293" d="M394.625,1237.237a4.558,4.558,0,0,1-1.8-.365,4.756,4.756,0,0,1-1.838-1.379.14.14,0,0,1,.226-.167,4.559,4.559,0,0,0,1.734,1.293,5.131,5.131,0,0,0,4.888-.708.14.14,0,0,1,.15.238,6.288,6.288,0,0,1-3.36,1.088" transform="translate(-373.344 -1179.612)" fill="#07242b"/>
                  <path id="Trazado_874294" data-name="Trazado 874294" d="M372.413,930.873a3.118,3.118,0,0,0-1.342-.787,4.978,4.978,0,0,0-1.184-.161,6.534,6.534,0,0,0-3.281.959,3.532,3.532,0,0,0-1.524,2.843,5.674,5.674,0,0,0,1.124,3.758,5.452,5.452,0,0,0,3.333,2.053c.5.091,3.638-2.351,4.053-3.272a4.762,4.762,0,0,0-1.178-5.393" transform="translate(-348.622 -888.023)" fill="#302626"/>
                  <path id="Trazado_874295" data-name="Trazado 874295" d="M389.324,972.454c.155,2.651,1.187,4.473,3.023,4.527,2.761.082,3.561-2.1,3.617-4.915.053-2.656-1.785-4.186-3.618-4.079s-3.177,1.816-3.022,4.467" transform="translate(-371.771 -924.368)" fill="#f59979"/>
                  <path id="Trazado_874296" data-name="Trazado 874296" d="M422.787,1054.554c-.008.179-.089.32-.181.316s-.161-.152-.153-.331.088-.32.181-.316.161.152.153.331" transform="translate(-403.419 -1006.723)" fill="#302626"/>
                  <path id="Trazado_874297" data-name="Trazado 874297" d="M408.517,1033.953a.139.139,0,0,1-.067-.017,1.19,1.19,0,0,0-1.045,0,.14.14,0,1,1-.134-.247,1.453,1.453,0,0,1,1.313,0,.141.141,0,0,1-.067.264" transform="translate(-388.851 -986.961)" fill="#07242b"/>
                  <path id="Trazado_874298" data-name="Trazado 874298" d="M486.41,1054.539c-.008.179.061.327.153.331s.173-.138.181-.316-.061-.327-.153-.331-.173.138-.181.316" transform="translate(-464.493 -1006.723)" fill="#302626"/>
                  <path id="Trazado_874299" data-name="Trazado 874299" d="M475.653,1036.352a.142.142,0,0,1-.067-.017,1.526,1.526,0,0,0-1.262-.176.14.14,0,0,1-.111-.258,1.792,1.792,0,0,1,1.507.187.14.14,0,0,1-.067.264" transform="translate(-452.767 -989.145)" fill="#07242b"/>
                  <path id="Trazado_874300" data-name="Trazado 874300" d="M525.743,1066.064s1.166-.832,1.615.068a1.09,1.09,0,0,1,.061.8,1.54,1.54,0,0,1-2.141.98c-.007.066.466-1.853.466-1.853" transform="translate(-501.61 -1017.697)" fill="#f59979"/>
                  <path id="Trazado_874301" data-name="Trazado 874301" d="M533.56,1082.769a.14.14,0,0,1-.115-.221,1.75,1.75,0,0,1,1.371-.764.14.14,0,0,1,0,.281h0a1.468,1.468,0,0,0-1.138.644.14.14,0,0,1-.115.06" transform="translate(-509.385 -1033.042)" fill="#07242b"/>
                  <path id="Trazado_874302" data-name="Trazado 874302" d="M545.657,1087.956a.14.14,0,0,1-.11-.053l-.273-.341a.14.14,0,1,1,.219-.175l.273.341a.14.14,0,0,1-.109.228" transform="translate(-520.677 -1038.343)" fill="#07242b"/>
                  <path id="Trazado_874303" data-name="Trazado 874303" d="M360.067,1060.144s-1.109-.907-1.616-.038a1.09,1.09,0,0,0-.114.8,1.54,1.54,0,0,0,2.072,1.119c0,.066-.343-1.88-.343-1.88" transform="translate(-342.163 -1011.982)" fill="#f59979"/>
                  <path id="Trazado_874304" data-name="Trazado 874304" d="M366.147,1076.374a.141.141,0,0,1-.12-.068,1.467,1.467,0,0,0-1.093-.717.14.14,0,0,1,.016-.281,1.752,1.752,0,0,1,1.318.853.141.141,0,0,1-.12.213" transform="translate(-348.365 -1026.858)" fill="#07242b"/>
                  <path id="Trazado_874305" data-name="Trazado 874305" d="M374.012,1082.5a.14.14,0,0,1-.1-.235l.295-.323a.14.14,0,1,1,.207.189l-.295.323a.14.14,0,0,1-.1.046" transform="translate(-357.026 -1033.154)" fill="#07242b"/>
                  <path id="Trazado_874306" data-name="Trazado 874306" d="M439.648,1053.482h-.011a1.587,1.587,0,0,1-.487-.117.269.269,0,0,1-.186-.354,3.117,3.117,0,0,1,.195-.491,2.474,2.474,0,0,0,.193-.506,1.438,1.438,0,0,0,0-.568.14.14,0,0,1,.276-.051,1.717,1.717,0,0,1,0,.679,2.723,2.723,0,0,1-.213.565,2.842,2.842,0,0,0-.179.446l0,.009.025.012a1.3,1.3,0,0,0,.4.1.141.141,0,0,1-.011.281" transform="translate(-419.172 -1003.912)" fill="#07242b"/>
                  <path id="Trazado_874307" data-name="Trazado 874307" d="M451.927,1112.6a2.345,2.345,0,0,1-.462-.049.14.14,0,0,1,.056-.275c1.061.214,1.308-.425,1.31-.432a.14.14,0,1,1,.264.1,1.183,1.183,0,0,1-1.167.66" transform="translate(-431.015 -1061.663)" fill="#07242b"/>
                  <path id="Trazado_874308" data-name="Trazado 874308" d="M452.235,952.312c-.1-.64-1.432-4.042-3.969-5.137.685-.1,1-.407,1.688-.508a2.434,2.434,0,0,1,.692-.036,1.9,1.9,0,0,1,.847.394,4.23,4.23,0,0,1,1.159,1.316,2.075,2.075,0,0,1,.289.831,9.68,9.68,0,0,1-.309,1.666c-.042.445-.183,1.34-.4,1.474" transform="translate(-428.069 -903.966)" fill="#302626"/>
                  <path id="Trazado_874309" data-name="Trazado 874309" d="M559.173,1240.848c-.044.064-.089.127-.134.19l-.052.071c-.043.059-.086.117-.13.174s-.109.141-.165.21-.1.122-.15.182l-.058.068-.061.07-.073.084q-.173.2-.355.382c-.042.044-.085.087-.128.13l-.012.012-.1.1-.019.018q-.131.126-.266.246l-.082.073-.083.072-.094.08-.02.017q-.094.078-.189.154-.372.3-.767.561c-.063.042-.126.083-.19.124q-.153.1-.31.19-.188.111-.38.214l-.031-.056c-.576-1.051-1.03-1.889-1.219-2.259,1.423-1.116,2.45-1.927,3.94-1.561l.085.022a4.484,4.484,0,0,1,.814.317c.074.037.15.076.226.118" transform="translate(-529.141 -1184.418)" fill="#f0ac5f"/>
                  <path id="Trazado_874310" data-name="Trazado 874310" d="M526.379,1114.729l-.061.07-.073.084q-.173.2-.355.382c-.042.044-.085.087-.129.13l-.012.012-.1.1-.019.018q-.131.125-.266.245l-.082.073-.083.072-.094.08-.02.017c-.062.052-.125.1-.189.154q-.372.3-.767.561-.095.063-.19.124-.153.1-.31.191c-.125.074-.252.146-.38.214h0q-.136.073-.274.143l-.034.017q-.169.084-.34.162c-.065.03-.13.059-.2.087q-.207.09-.419.172l-.009,0q-.2.076-.393.142l-.091.03-.036.012-.2.062-.17.065c0-.005,0-.01,0-.015-.146-1.248-.3-2.441-.421-3.775,0-.01,0-.019,0-.028-.031-.354-.059-.717-.083-1.095-.075-1.161-.115-2.452-.092-3.977,0-.165.006-.334.01-.505.288.06,2.337-1.245,3.045-1.46h0a20.2,20.2,0,0,0,1.188,3.157c.417.923.864,1.862,1.279,2.916l.012.031q.062.158.123.319l.045.121a3.335,3.335,0,0,1,.184.892" transform="translate(-497.035 -1057.403)" fill="#302626"/>
                  <path id="Trazado_874311" data-name="Trazado 874311" d="M590.071,1130.018a.14.14,0,0,1-.135-.1c-.016-.057-.035-.117-.055-.179v0a9.484,9.484,0,0,0-1.52-2.466c-.187-.247-.381-.5-.564-.756a8.236,8.236,0,0,1-.53-.8,6.617,6.617,0,0,1-.621-1.513.14.14,0,0,1,.271-.074,6.34,6.34,0,0,0,.594,1.448,7.972,7.972,0,0,0,.513.77c.18.251.373.5.56.75a9.672,9.672,0,0,1,1.562,2.546l0,0c.022.066.042.131.059.192a.14.14,0,0,1-.1.173.138.138,0,0,1-.038.005" transform="translate(-560.208 -1073.38)" fill="#07242b"/>
                  <path id="Trazado_874312" data-name="Trazado 874312" d="M389.26,962.8s-3.369,1.818-3.669,4.405c0-.059-1.4-4.929,3.669-4.405" transform="translate(-368.049 -919.38)" fill="#302626"/>
                  <g id="Grupo_1099826" data-name="Grupo 1099826" transform="translate(76.862 31.824)" opacity="0.8">
                    <g id="Grupo_1099825" data-name="Grupo 1099825">
                      <g id="Grupo_1099824" data-name="Grupo 1099824" clip-path="url(#clip-path-4)">
                        <path id="Trazado_874319" data-name="Trazado 874319" d="M1706.855,712.528a.9.9,0,0,1-.13-.01.8.8,0,0,1-.669-.554v-.418c.146-.657.251-1.312.353-1.945a24.5,24.5,0,0,1,.491-2.494.42.42,0,0,1,.24-.313.509.509,0,0,1,.467.052c.25.15.336.437.253.85-.048.241-.092.48-.135.712-.109.588-.211,1.143-.372,1.7l-.117-.034c.16-.553.261-1.105.369-1.69.043-.232.087-.471.135-.714.071-.358.005-.6-.2-.722a.39.39,0,0,0-.356-.045.3.3,0,0,0-.171.23,24.015,24.015,0,0,0-.489,2.486c-.1.633-.207,1.288-.353,1.946v.38a.68.68,0,0,0,.569.452.97.97,0,0,0,.831-.364c.167-.837.338-1.673.5-2.481s.335-1.648.5-2.485c-.186-.692-1.226-.648-1.554-.616l-.082.026c-.144.043-.341.1-.378.215a14.438,14.438,0,0,0-.336,1.755c-.062.418-.126.85-.218,1.278l-.119-.026c.091-.424.155-.854.217-1.27a14.628,14.628,0,0,1,.34-1.772c.058-.175.281-.242.459-.3l.085-.027.013,0c.346-.035,1.493-.085,1.694.72l0,.013,0,.013c-.169.843-.34,1.685-.505,2.5s-.337,1.657-.505,2.5l0,.018-.013.013a1.175,1.175,0,0,1-.82.42" transform="translate(-1705.894 -706.317)" fill="#160028"/>
                      </g>
                    </g>
                  </g>
                  <g id="Grupo_1099829" data-name="Grupo 1099829" transform="translate(11.872 31.487)" opacity="0.8">
                    <g id="Grupo_1099828" data-name="Grupo 1099828">
                      <g id="Grupo_1099827" data-name="Grupo 1099827" clip-path="url(#clip-path-5)">
                        <path id="Trazado_874320" data-name="Trazado 874320" d="M265.35,705.048a1.174,1.174,0,0,1-.822-.419l-.013-.013,0-.018c-.169-.842-.34-1.685-.505-2.5s-.337-1.657-.505-2.5l0-.013,0-.013c.2-.8,1.347-.755,1.694-.72l.013,0,.085.027c.179.054.4.121.458.293a18.1,18.1,0,0,1,.382,2c.076.493.148.959.238,1.378l-.119.026c-.091-.422-.163-.89-.239-1.385a18.041,18.041,0,0,0-.378-1.982c-.036-.109-.233-.168-.377-.212l-.082-.025c-.328-.032-1.368-.076-1.554.616.168.838.338,1.675.5,2.485s.335,1.645.5,2.481a.971.971,0,0,0,.834.363.678.678,0,0,0,.566-.451v-.38c-.146-.658-.251-1.313-.353-1.946a24.009,24.009,0,0,0-.488-2.482.308.308,0,0,0-.172-.234.389.389,0,0,0-.355.045c-.2.121-.268.364-.2.722.048.242.093.482.135.714.108.585.21,1.137.369,1.69l-.117.034c-.161-.559-.263-1.114-.372-1.7-.043-.231-.087-.471-.135-.712-.083-.414,0-.7.253-.85a.508.508,0,0,1,.467-.052.423.423,0,0,1,.241.317,24.422,24.422,0,0,1,.489,2.49c.1.633.207,1.288.353,1.945v.418a.793.793,0,0,1-.666.553.924.924,0,0,1-.132.01" transform="translate(-263.498 -698.837)" fill="#160028"/>
                      </g>
                    </g>
                  </g>
                  <path id="Trazado_874321" data-name="Trazado 874321" d="M448.68,1585.885h-51.5a.169.169,0,0,1,0-.337h51.5a.169.169,0,0,1,0,.337" transform="translate(-379.122 -1514.108)" fill="#c9bebe"/>
                  <rect id="Rectángulo_401444" data-name="Rectángulo 401444" width="8.537" height="2.527" transform="translate(9.688 69.249)" fill="#978989"/>
                  <rect id="Rectángulo_401445" data-name="Rectángulo 401445" width="4.156" height="4.156" transform="translate(71.636 67.62)" fill="#978989"/>
                  <rect id="Rectángulo_401446" data-name="Rectángulo 401446" width="3.37" height="3.37" transform="translate(72.029 68.013)" fill="#fff8ed"/>
                  <path id="Trazado_874322" data-name="Trazado 874322" d="M1596.427,1489.364l-1.5-1.869a.168.168,0,1,1,.263-.21l1.2,1.5,2.625-4.126a.169.169,0,1,1,.284.181Z" transform="translate(-1523.035 -1417.692)" fill="#0d5e00"/>
                  <path id="Trazado_874323" data-name="Trazado 874323" d="M448.68,1704.3h-51.5a.168.168,0,1,1,0-.337h51.5a.168.168,0,1,1,0,.337" transform="translate(-379.122 -1627.19)" fill="#c9bebe"/>
                  <rect id="Rectángulo_401447" data-name="Rectángulo 401447" width="8.537" height="2.527" transform="translate(9.688 74.585)" fill="#978989"/>
                  <rect id="Rectángulo_401448" data-name="Rectángulo 401448" width="4.156" height="4.156" transform="translate(71.636 72.956)" fill="#978989"/>
                  <rect id="Rectángulo_401449" data-name="Rectángulo 401449" width="3.37" height="3.37" transform="translate(72.029 73.349)" fill="#fff8ed"/>
                  <path id="Trazado_874324" data-name="Trazado 874324" d="M1596.427,1607.781l-1.5-1.869a.168.168,0,0,1,.263-.21l1.2,1.5,2.625-4.126a.168.168,0,1,1,.284.181Z" transform="translate(-1523.035 -1530.773)" fill="#0d5e00"/>
                  <path id="Trazado_874325" data-name="Trazado 874325" d="M448.68,1809.009h-51.5a.168.168,0,1,1,0-.337h51.5a.168.168,0,1,1,0,.337" transform="translate(-379.122 -1727.179)" fill="#c9bebe"/>
                  <rect id="Rectángulo_401450" data-name="Rectángulo 401450" width="8.537" height="2.527" transform="translate(9.688 79.302)" fill="#978989"/>
                  <rect id="Rectángulo_401451" data-name="Rectángulo 401451" width="4.156" height="4.156" transform="translate(71.636 77.674)" fill="#978989"/>
                  <rect id="Rectángulo_401452" data-name="Rectángulo 401452" width="3.37" height="3.37" transform="translate(72.029 78.067)" fill="#fff8ed"/>
                  <path id="Trazado_874326" data-name="Trazado 874326" d="M1599.568,1733.793a.169.169,0,0,1-.119-.049c-.282-.283-.611-.586-.959-.906a17.047,17.047,0,0,1-2.317-2.429.169.169,0,0,1,.276-.194,16.8,16.8,0,0,0,2.27,2.376c.35.323.681.628.969.916a.169.169,0,0,1-.119.288" transform="translate(-1524.225 -1652.188)" fill="#ab4f47"/>
                  <path id="Trazado_874327" data-name="Trazado 874327" d="M1596.311,1731.413a.168.168,0,0,1-.13-.276c.421-.512.925-1.029,1.413-1.528a15.588,15.588,0,0,0,1.667-1.886.168.168,0,1,1,.278.19,15.787,15.787,0,0,1-1.7,1.932c-.483.494-.982,1.006-1.394,1.506a.169.169,0,0,1-.13.062" transform="translate(-1524.226 -1649.808)" fill="#ab4f47"/>
                  <path id="Trazado_874328" data-name="Trazado 874328" d="M569.186,1966.067H516.843a.169.169,0,0,1,0-.337h52.344a.169.169,0,0,1,0,.337" transform="translate(-493.394 -1877.161)" fill="#c9bebe"/>
                  <path id="Trazado_874329" data-name="Trazado 874329" d="M312.074,2019.667H247.6a.168.168,0,1,1,0-.337h64.475a.168.168,0,0,1,0,.337" transform="translate(-236.282 -1928.346)" fill="#c9bebe"/>
                  <path id="Trazado_874330" data-name="Trazado 874330" d="M312.074,2073.266H247.6a.169.169,0,0,1,0-.337h64.475a.169.169,0,0,1,0,.337" transform="translate(-236.282 -1979.53)" fill="#c9bebe"/>
                  <path id="Trazado_874331" data-name="Trazado 874331" d="M314.568,2126.867H250.092a.169.169,0,0,1,0-.337h64.475a.169.169,0,0,1,0,.337" transform="translate(-238.663 -2030.715)" fill="#c9bebe"/>
                  <path id="Trazado_874332" data-name="Trazado 874332" d="M315.814,2176.726H251.338a.168.168,0,1,1,0-.337h64.475a.168.168,0,1,1,0,.337" transform="translate(-239.853 -2078.328)" fill="#c9bebe"/>
                  <path id="Trazado_874333" data-name="Trazado 874333" d="M315.814,2230.325H251.338a.169.169,0,0,1,0-.337h64.475a.169.169,0,0,1,0,.337" transform="translate(-239.853 -2129.512)" fill="#c9bebe"/>
                  <path id="Trazado_874334" data-name="Trazado 874334" d="M312.8,2283.924H253.832a.169.169,0,0,1,0-.337H312.8a.169.169,0,0,1,0,.337" transform="translate(-242.234 -2180.696)" fill="#c9bebe"/>
                  <path id="Trazado_874335" data-name="Trazado 874335" d="M259.744,2395.47a1.1,1.1,0,1,1,1.1-1.1,1.1,1.1,0,0,1-1.1,1.1m0-2.022a.927.927,0,1,0,.927.927.928.928,0,0,0-.927-.927" transform="translate(-246.995 -2285.446)" fill="#a89f9f"/>
                  <path id="Trazado_874336" data-name="Trazado 874336" d="M259.744,2475.246a1.1,1.1,0,1,1,1.1-1.1,1.1,1.1,0,0,1-1.1,1.1m0-2.022a.927.927,0,1,0,.927.927.928.928,0,0,0-.927-.927" transform="translate(-246.995 -2361.628)" fill="#a89f9f"/>
                  <path id="Trazado_874337" data-name="Trazado 874337" d="M259.744,2555.021a1.1,1.1,0,1,1,1.1-1.095,1.1,1.1,0,0,1-1.1,1.095m0-2.021a.927.927,0,1,0,.927.927.927.927,0,0,0-.927-.927" transform="translate(-246.995 -2437.809)" fill="#a89f9f"/>
                  <path id="Trazado_874338" data-name="Trazado 874338" d="M259.744,2632.3a1.1,1.1,0,1,1,1.1-1.1,1.1,1.1,0,0,1-1.1,1.1m0-2.021a.927.927,0,1,0,.927.926.927.927,0,0,0-.927-.926" transform="translate(-246.995 -2511.61)" fill="#a89f9f"/>
                  <path id="Trazado_874339" data-name="Trazado 874339" d="M259.744,2712.082a1.1,1.1,0,1,1,1.1-1.1,1.1,1.1,0,0,1-1.1,1.1m0-2.022a.927.927,0,1,0,.927.927.928.928,0,0,0-.927-.927" transform="translate(-246.995 -2587.793)" fill="#a89f9f"/>
                  <path id="Trazado_874340" data-name="Trazado 874340" d="M259.744,2791.856a1.1,1.1,0,1,1,1.1-1.1,1.1,1.1,0,0,1-1.1,1.1m0-2.022a.927.927,0,1,0,.927.927.928.928,0,0,0-.927-.927" transform="translate(-246.995 -2663.973)" fill="#a89f9f"/>
                  <rect id="Rectángulo_401453" data-name="Rectángulo 401453" width="27.745" height="0.197" transform="translate(15.052 108.984)" fill="#c9bebe"/>
                  <rect id="Rectángulo_401454" data-name="Rectángulo 401454" width="27.745" height="0.197" transform="translate(15.052 112.579)" fill="#c9bebe"/>
                  <rect id="Rectángulo_401455" data-name="Rectángulo 401455" width="27.745" height="0.197" transform="translate(15.052 116.173)" fill="#c9bebe"/>
                  <rect id="Rectángulo_401456" data-name="Rectángulo 401456" width="27.745" height="0.197" transform="translate(15.052 119.543)" fill="#c9bebe"/>
                  <rect id="Rectángulo_401457" data-name="Rectángulo 401457" width="27.745" height="0.197" transform="translate(15.052 123.138)" fill="#c9bebe"/>
                  <rect id="Rectángulo_401458" data-name="Rectángulo 401458" width="27.745" height="0.197" transform="translate(15.052 126.62)" fill="#c9bebe"/>
                  <path id="Trazado_874341" data-name="Trazado 874341" d="M268.778,2482.484a.7.7,0,1,1-.7-.7.7.7,0,0,1,.7.7" transform="translate(-255.327 -2369.961)" fill="#ab4f47"/>
                  <path id="Trazado_874342" data-name="Trazado 874342" d="M1248.625,2415.717s1.146,13.836-4.151,18.422h17.79s3.561-12.931,2.49-18.422Z" transform="translate(-1188.402 -2306.873)" fill="#ebba44"/>
                  <g id="Grupo_1099832" data-name="Grupo 1099832" transform="translate(56.077 108.844)" opacity="0.5" style="mix-blend-mode: multiply;isolation: isolate">
                    <g id="Grupo_1099831" data-name="Grupo 1099831">
                      <g id="Grupo_1099830" data-name="Grupo 1099830" clip-path="url(#clip-path-6)">
                        <path id="Trazado_874343" data-name="Trazado 874343" d="M1244.6,2434.138s19.352.664,20.282-18.422c0,0,1.151,5.89-2.48,18.422-8.325-.044-17.8,0-17.8,0" transform="translate(-1244.597 -2415.716)" fill="#ebba44"/>
                      </g>
                    </g>
                  </g>
                  <g id="Grupo_1099835" data-name="Grupo 1099835" transform="translate(61.924 110.985)" opacity="0.55">
                    <g id="Grupo_1099834" data-name="Grupo 1099834">
                      <g id="Grupo_1099833" data-name="Grupo 1099833" clip-path="url(#clip-path-7)">
                        <path id="Trazado_874344" data-name="Trazado 874344" d="M1376.995,2464.685a1.136,1.136,0,0,1-.558-.139,2.012,2.012,0,0,1-.393-.311,1.692,1.692,0,0,0-.365-.287.831.831,0,0,0-1.108.427.112.112,0,0,1-.211-.078,1.055,1.055,0,0,1,1.423-.548,1.9,1.9,0,0,1,.415.323,1.824,1.824,0,0,0,.348.278,1.63,1.63,0,0,0,1.571-.3c.083-.055.167-.115.249-.172a2.836,2.836,0,0,1,1.4-.646,2.765,2.765,0,0,1,1.609.591,3.733,3.733,0,0,0,1.147.549,3.441,3.441,0,0,0,1.829-.3,5.43,5.43,0,0,1,1.4-.352,2.686,2.686,0,0,1,1.545.369.112.112,0,0,1-.115.193,2.46,2.46,0,0,0-1.415-.338,5.3,5.3,0,0,0-1.338.34,3.657,3.657,0,0,1-1.949.3,3.886,3.886,0,0,1-1.219-.578,2.565,2.565,0,0,0-1.476-.557,2.673,2.673,0,0,0-1.287.605c-.083.058-.168.118-.253.175a2.4,2.4,0,0,1-1.247.453" transform="translate(-1374.353 -2463.225)" fill="#fff"/>
                      </g>
                    </g>
                  </g>
                  <g id="Grupo_1099838" data-name="Grupo 1099838" transform="translate(62.064 113.452)" opacity="0.55">
                    <g id="Grupo_1099837" data-name="Grupo 1099837">
                      <g id="Grupo_1099836" data-name="Grupo 1099836" clip-path="url(#clip-path-8)">
                        <path id="Trazado_874345" data-name="Trazado 874345" d="M1387.285,2519.433a1.451,1.451,0,0,1-.25-.021,2.668,2.668,0,0,1-1.095-.578,2.153,2.153,0,0,0-1.094-.542,2.219,2.219,0,0,0-.975.255l-.2.084a1.472,1.472,0,0,1-1.336.043,1.933,1.933,0,0,1-.27-.208c-.156-.135-.289-.251-.451-.241-.179.011-.308.179-.444.356-.043.056-.088.114-.135.167a1.417,1.417,0,0,1-1.676.314,2.671,2.671,0,0,1-.459-.327c-.062-.052-.126-.1-.19-.153a.959.959,0,0,0-.645-.246.455.455,0,0,0-.308.171.284.284,0,0,0-.064.22.112.112,0,0,1-.222.037.506.506,0,0,1,.108-.394.675.675,0,0,1,.465-.257,1.163,1.163,0,0,1,.8.29c.068.052.134.106.2.159a2.457,2.457,0,0,0,.419.3,1.2,1.2,0,0,0,1.4-.263c.042-.048.083-.1.126-.156a.9.9,0,0,1,.608-.443.88.88,0,0,1,.613.3,1.718,1.718,0,0,0,.238.185,1.288,1.288,0,0,0,1.137-.058l.2-.083a2.38,2.38,0,0,1,1.078-.272,2.346,2.346,0,0,1,1.214.585,2.467,2.467,0,0,0,1,.537,2.514,2.514,0,0,0,1.4-.33l.04-.018a2.257,2.257,0,0,1,1.593-.248.112.112,0,1,1-.07.213,2.067,2.067,0,0,0-1.432.24l-.04.018a3.262,3.262,0,0,1-1.278.367" transform="translate(-1377.464 -2517.999)" fill="#fff"/>
                      </g>
                    </g>
                  </g>
                  <g id="Grupo_1099841" data-name="Grupo 1099841" transform="translate(62.238 115.758)" opacity="0.55">
                    <g id="Grupo_1099840" data-name="Grupo 1099840">
                      <g id="Grupo_1099839" data-name="Grupo 1099839" clip-path="url(#clip-path-9)">
                        <path id="Trazado_874346" data-name="Trazado 874346" d="M1391.751,2570.54a.848.848,0,0,1-.407-.1,1.4,1.4,0,0,1-.4-.367,1.431,1.431,0,0,0-.284-.286,1.115,1.115,0,0,0-.891-.06c-.131.038-.263.087-.391.136a3.748,3.748,0,0,1-.587.185,3.832,3.832,0,0,1-2.017-.333l-.074-.026a3.016,3.016,0,0,0-1.961-.207,3.125,3.125,0,0,0-.584.306c-.108.067-.22.136-.336.2a1.351,1.351,0,0,1-1.118.144,1.625,1.625,0,0,1-.468-.334c-.056-.051-.109-.1-.165-.144-.079-.065-.356-.266-.585-.159a.112.112,0,0,1-.1-.2.8.8,0,0,1,.822.188c.061.049.119.1.175.153a1.432,1.432,0,0,0,.4.292,1.141,1.141,0,0,0,.927-.135c.109-.058.218-.125.323-.19a3.368,3.368,0,0,1,.626-.328,3.2,3.2,0,0,1,2.111.207l.074.026a3.671,3.671,0,0,0,1.9.324,3.522,3.522,0,0,0,.551-.175c.132-.05.268-.1.408-.142a1.3,1.3,0,0,1,1.079.089,1.644,1.644,0,0,1,.331.329,1.206,1.206,0,0,0,.33.312,1.232,1.232,0,0,0,.969-.088,1.494,1.494,0,0,1,1.125-.094.112.112,0,0,1-.094.2,1.318,1.318,0,0,0-.958.1,2.353,2.353,0,0,1-.742.172" transform="translate(-1381.329 -2569.165)" fill="#fff"/>
                      </g>
                    </g>
                  </g>
                  <g id="Grupo_1099844" data-name="Grupo 1099844" transform="translate(62.257 118.02)" opacity="0.55">
                    <g id="Grupo_1099843" data-name="Grupo 1099843">
                      <g id="Grupo_1099842" data-name="Grupo 1099842" clip-path="url(#clip-path-10)">
                        <path id="Trazado_874347" data-name="Trazado 874347" d="M1391.685,2620.407a8.371,8.371,0,0,1-1.87-.212c-.124-.029-.249-.06-.37-.091s-.273-.069-.409-.1a7.277,7.277,0,0,0-2.073-.157l-.117.009a2.517,2.517,0,0,1-.773-.021,2.549,2.549,0,0,1-.332-.11,1.44,1.44,0,0,0-.463-.122,1.5,1.5,0,0,0-.735.262,1.471,1.471,0,0,1-.936.275,1.491,1.491,0,0,1-.6-.287l-.078-.053a.85.85,0,0,0-.581-.191,1.075,1.075,0,0,1-.146.019c-.04,0-.048,0-.3.112a.112.112,0,1,1-.089-.207,1.047,1.047,0,0,1,.376-.129.932.932,0,0,0,.12-.016,1.045,1.045,0,0,1,.747.225l.08.054a1.307,1.307,0,0,0,.505.25,1.292,1.292,0,0,0,.792-.249,1.682,1.682,0,0,1,.85-.291,1.619,1.619,0,0,1,.537.137,2.436,2.436,0,0,0,.3.1,2.329,2.329,0,0,0,.7.016l.119-.008a7.484,7.484,0,0,1,2.137.162c.14.031.28.067.416.1.12.031.243.062.365.09a8.127,8.127,0,0,0,2.923.131.112.112,0,0,1,.03.223,8.423,8.423,0,0,1-1.134.077" transform="translate(-1381.744 -2619.376)" fill="#fff"/>
                      </g>
                    </g>
                  </g>
                  <path id="Trazado_874348" data-name="Trazado 874348" d="M1631.835,2411.666l-.208-.075a.085.085,0,0,1-.051-.108l.619-1.705.366.133-.619,1.706a.084.084,0,0,1-.108.05" transform="translate(-1558.059 -2301.201)" fill="#c9bebe"/>
                  <path id="Trazado_874349" data-name="Trazado 874349" d="M1624.883,2403.495c-.086.311-.66.424-1.282.253s-1.057-.562-.972-.874.66-.425,1.282-.253,1.057.563.971.874" transform="translate(-1549.509 -2294.291)" fill="#4a6c61"/>
                  <path id="Trazado_874350" data-name="Trazado 874350" d="M1636.576,2385.786l-.443-.126a1.3,1.3,0,0,1-.174-.063l-.42-.187a.09.09,0,0,1-.042-.126l.64-1.143a.09.09,0,0,1,.107-.042l.634.212a.09.09,0,0,1,.06.1l-.25,1.3a.09.09,0,0,1-.113.07" transform="translate(-1561.797 -2276.676)" fill="#5b8577"/>
                  <path id="Trazado_874351" data-name="Trazado 874351" d="M1645.661,2380.746c-.049.179-.38.244-.738.146s-.609-.324-.559-.5.38-.244.738-.146.609.324.559.5" transform="translate(-1570.268 -2272.953)" fill="#4a6c61"/>
                  <path id="Trazado_874352" data-name="Trazado 874352" d="M871.152,972.712h-38.8a.313.313,0,1,1,0-.626h38.8a.313.313,0,0,1,0,.626" transform="translate(-794.55 -928.287)" fill="#c9bebe"/>
                  <path id="Trazado_874353" data-name="Trazado 874353" d="M871.152,1043.762h-38.8a.313.313,0,1,1,0-.626h38.8a.313.313,0,1,1,0,.626" transform="translate(-794.55 -996.136)" fill="#c9bebe"/>
                  <path id="Trazado_874354" data-name="Trazado 874354" d="M871.152,1112.319h-38.8a.313.313,0,1,1,0-.626h38.8a.313.313,0,0,1,0,.626" transform="translate(-794.55 -1061.604)" fill="#c9bebe"/>
                  <path id="Trazado_874355" data-name="Trazado 874355" d="M871.152,1184.616h-38.8a.313.313,0,0,1,0-.626h38.8a.313.313,0,0,1,0,.626" transform="translate(-794.55 -1130.643)" fill="#c9bebe"/>
                  <path id="Trazado_874356" data-name="Trazado 874356" d="M4.665-1.349H4.7L6.688-7.063H8.718V.691H7.162V-4.6L7.13-4.608,5.213.691H4.159L2.241-4.619l-.032.005v5.3H.654V-7.063h2.04ZM12.525.8A2.593,2.593,0,0,1,10.512.012a2.9,2.9,0,0,1-.724-2.037v-.213a3.155,3.155,0,0,1,.7-2.12,2.39,2.39,0,0,1,1.933-.82,2.237,2.237,0,0,1,1.781.711,2.81,2.81,0,0,1,.62,1.915v.8H11.391l-.016.032a1.557,1.557,0,0,0,.359.959,1.2,1.2,0,0,0,.956.367A3.2,3.2,0,0,0,13.577-.5a3.618,3.618,0,0,0,.754-.325l.421.959a2.886,2.886,0,0,1-.937.474A4.157,4.157,0,0,1,12.525.8Zm-.1-4.783a.864.864,0,0,0-.722.322A1.616,1.616,0,0,0,11.4-2.8l.011.027h1.9v-.117a1.346,1.346,0,0,0-.208-.8A.768.768,0,0,0,12.424-3.98Zm4.751-1.092.064.762a1.936,1.936,0,0,1,.7-.642,2,2,0,0,1,.967-.226,1.76,1.76,0,0,1,.948.245,1.511,1.511,0,0,1,.6.74,2,2,0,0,1,.692-.724,1.879,1.879,0,0,1,1-.261,1.642,1.642,0,0,1,1.345.6,2.886,2.886,0,0,1,.493,1.845V.691H22.421V-2.733a1.615,1.615,0,0,0-.213-.964.756.756,0,0,0-.634-.272A1.086,1.086,0,0,0,21-3.823a1.067,1.067,0,0,0-.386.407q0,.1.005.173t.005.146V.691h-1.55V-2.733a1.62,1.62,0,0,0-.213-.956.753.753,0,0,0-.639-.28,1.206,1.206,0,0,0-.551.12,1.057,1.057,0,0,0-.391.338v4.2h-1.55V-5.071Zm7.754,2.828a3.092,3.092,0,0,1,.719-2.112,2.506,2.506,0,0,1,1.992-.823,2.533,2.533,0,0,1,2,.82,3.076,3.076,0,0,1,.724,2.114v.112a3.081,3.081,0,0,1-.722,2.117A2.522,2.522,0,0,1,27.651.8a2.529,2.529,0,0,1-2-.818,3.081,3.081,0,0,1-.722-2.117Zm1.55.112a2.507,2.507,0,0,0,.277,1.265.956.956,0,0,0,.895.477.947.947,0,0,0,.881-.479,2.49,2.49,0,0,0,.28-1.262v-.112A2.465,2.465,0,0,0,28.529-3.5a.955.955,0,0,0-.889-.485.943.943,0,0,0-.881.487,2.487,2.487,0,0,0-.28,1.249Zm7.877-1.6-.57-.016a1.036,1.036,0,0,0-.57.144.911.911,0,0,0-.341.4V.691h-1.55V-5.071h1.443l.069.852a1.818,1.818,0,0,1,.525-.706,1.169,1.169,0,0,1,.743-.253,1.162,1.162,0,0,1,.216.019q.1.019.2.045ZM38.563.691a3.27,3.27,0,0,1-.146-.415,2.89,2.89,0,0,1-.088-.447,2.132,2.132,0,0,1-.634.7A1.588,1.588,0,0,1,36.758.8a1.946,1.946,0,0,1-1.4-.466,1.67,1.67,0,0,1-.49-1.27,1.52,1.52,0,0,1,.652-1.313,3.258,3.258,0,0,1,1.9-.466H38.3V-3.17a.9.9,0,0,0-.218-.644.857.857,0,0,0-.65-.229.845.845,0,0,0-.583.184.641.641,0,0,0-.205.5h-1.5l-.011-.032a1.462,1.462,0,0,1,.636-1.26,2.764,2.764,0,0,1,1.76-.53,2.58,2.58,0,0,1,1.68.522,1.818,1.818,0,0,1,.642,1.5V-.779a4.5,4.5,0,0,0,.061.762,3.822,3.822,0,0,0,.194.708ZM37.141-.347a1.325,1.325,0,0,0,.724-.2,1.089,1.089,0,0,0,.437-.469v-.815h-.873a1.035,1.035,0,0,0-.748.245.805.805,0,0,0-.253.6.6.6,0,0,0,.189.466A.748.748,0,0,0,37.141-.347Zm5.3-4.724.069.825a2.108,2.108,0,0,1,.708-.687,1.839,1.839,0,0,1,.943-.245,1.713,1.713,0,0,1,1.363.562,2.664,2.664,0,0,1,.49,1.776V.691h-1.56V-2.835a1.379,1.379,0,0,0-.216-.876.8.8,0,0,0-.647-.258,1.358,1.358,0,0,0-.61.13,1.19,1.19,0,0,0-.434.359V.691H41V-5.071Zm4.495,2.929a3.745,3.745,0,0,1,.588-2.2,1.911,1.911,0,0,1,1.659-.836,1.614,1.614,0,0,1,.778.186,1.871,1.871,0,0,1,.607.533V-7.617h1.56V.691H50.807l-.133-.708a1.926,1.926,0,0,1-.644.61,1.7,1.7,0,0,1-.852.21A1.948,1.948,0,0,1,47.529.025a3.32,3.32,0,0,1-.588-2.056Zm1.55.112a2.347,2.347,0,0,0,.256,1.19.89.89,0,0,0,.831.434,1.21,1.21,0,0,0,.586-.136,1.083,1.083,0,0,0,.41-.4V-3.394a1.2,1.2,0,0,0-.407-.423,1.083,1.083,0,0,0-.578-.152.878.878,0,0,0-.833.506,2.859,2.859,0,0,0-.264,1.321ZM53.1-2.243a3.092,3.092,0,0,1,.719-2.112,2.506,2.506,0,0,1,1.992-.823,2.533,2.533,0,0,1,2,.82,3.076,3.076,0,0,1,.724,2.114v.112a3.081,3.081,0,0,1-.722,2.117A2.522,2.522,0,0,1,55.819.8a2.529,2.529,0,0,1-2-.818A3.081,3.081,0,0,1,53.1-2.132Zm1.55.112a2.507,2.507,0,0,0,.277,1.265.956.956,0,0,0,.895.477A.947.947,0,0,0,56.7-.869a2.49,2.49,0,0,0,.28-1.262v-.112A2.465,2.465,0,0,0,56.7-3.5a.955.955,0,0,0-.889-.485.943.943,0,0,0-.881.487,2.487,2.487,0,0,0-.28,1.249Z" transform="translate(15.146 29.647)" fill="#12263f"/>
                </g>
              </g>
            </g>
          </g>
          <rect id="Rectángulo_401466" data-name="Rectángulo 401466" width="81.243" height="107.633" transform="translate(309.946 3797.367)" fill="#fff4ef"/>
          <rect id="Rectángulo_401467" data-name="Rectángulo 401467" width="81.243" height="107.633" transform="matrix(0.996, -0.087, 0.087, 0.996, 394.567, 3785.081)" fill="#fff4ef"/>
          <rect id="Rectángulo_401482" data-name="Rectángulo 401482" width="81.243" height="107.633" transform="translate(346.291 3782.268) rotate(7)" fill="#fed7c3"/>
          <g id="Grupo_1099876" data-name="Grupo 1099876" transform="translate(22)">
            <rect id="Rectángulo_401468" data-name="Rectángulo 401468" width="82.243" height="109.633" transform="matrix(0.999, 0.052, -0.052, 0.999, 436.825, 3785.265)" fill="#fed7c3"/>
            <g id="Grupo_1099872" data-name="Grupo 1099872" transform="translate(342.914 3794.238)">
              <g id="Grupo_1099873" data-name="Grupo 1099873">
                <g id="Grupo_1099853" data-name="Grupo 1099853">
                  <g id="Grupo_1099875" data-name="Grupo 1099875">
                    <g id="Grupo_1099851" data-name="Grupo 1099851" transform="translate(69.588 69.237)" opacity="0.21">
                      <g id="Grupo_1099850" data-name="Grupo 1099850">
                        <g id="Grupo_1099874" data-name="Grupo 1099874">
                          <path id="Trazado_874357" data-name="Trazado 874357" d="M673.6,603.211l-64.649.906V587.482l49.486-1.2Z" transform="translate(-589.253 -586.282)" fill="#302626"/>
                        </g>
                      </g>
                    </g>
                  </g>
                </g>
                <rect id="Rectángulo_401471" data-name="Rectángulo 401471" width="15.686" height="148.49" transform="translate(0.098 13.888) rotate(-62.189)" fill="#ebba44"/>
                <path id="Trazado_874358" data-name="Trazado 874358" d="M1112.96,600.642l22.466,2.984-15.147-16.857Z" transform="translate(-981.524 -517.473)" fill="#fce2c2"/>
                <g id="Grupo_1099870" data-name="Grupo 1099870">
                  <g id="Grupo_1099869" data-name="Grupo 1099869" clip-path="url(#clip-path-11)">
                    <g id="Grupo_1099856" data-name="Grupo 1099856" transform="translate(131.436 69.295)" opacity="0.5" style="mix-blend-mode: multiply;isolation: isolate">
                      <g id="Grupo_1099855" data-name="Grupo 1099855">
                        <g id="Grupo_1099854" data-name="Grupo 1099854" clip-path="url(#clip-path-12)">
                          <path id="Trazado_874359" data-name="Trazado 874359" d="M1120.278,586.768a3.153,3.153,0,0,1-1.829,3.469,2.789,2.789,0,0,1-1.772,3.358,3.132,3.132,0,0,1-1.888,3.579,2.947,2.947,0,0,1-1.83,3.468Z" transform="translate(-1112.96 -586.768)" fill="#ebba44"/>
                        </g>
                      </g>
                    </g>
                    <path id="Trazado_874360" data-name="Trazado 874360" d="M1267.416,701.908s-1.8,1.14-1.415,2.683l4.344.577Z" transform="translate(-1116.443 -619.016)" fill="#302626"/>
                    <g id="Grupo_1099859" data-name="Grupo 1099859" transform="translate(6.806 0.015)" opacity="0.5" style="mix-blend-mode: multiply;isolation: isolate">
                      <g id="Grupo_1099858" data-name="Grupo 1099858">
                        <g id="Grupo_1099857" data-name="Grupo 1099857" clip-path="url(#clip-path-13)">
                          <rect id="Rectángulo_401473" data-name="Rectángulo 401473" width="1.307" height="148.49" transform="translate(0 1.157) rotate(-62.189)" fill="#ebba44"/>
                        </g>
                      </g>
                    </g>
                    <g id="Grupo_1099862" data-name="Grupo 1099862" transform="translate(5.022 3.469)" opacity="0.5" style="mix-blend-mode: multiply;isolation: isolate">
                      <g id="Grupo_1099861" data-name="Grupo 1099861">
                        <g id="Grupo_1099860" data-name="Grupo 1099860" clip-path="url(#clip-path-13)">
                          <rect id="Rectángulo_401475" data-name="Rectángulo 401475" width="1.307" height="148.49" transform="translate(0 1.157) rotate(-62.189)" fill="#ebba44"/>
                        </g>
                      </g>
                    </g>
                    <g id="Grupo_1099865" data-name="Grupo 1099865" transform="translate(2.876 7.504)" opacity="0.5" style="mix-blend-mode: multiply;isolation: isolate">
                      <g id="Grupo_1099864" data-name="Grupo 1099864">
                        <g id="Grupo_1099863" data-name="Grupo 1099863" clip-path="url(#clip-path-15)">
                          <rect id="Rectángulo_401477" data-name="Rectángulo 401477" width="1.307" height="148.49" transform="translate(0 1.157) rotate(-62.189)" fill="#ebba44"/>
                        </g>
                      </g>
                    </g>
                    <g id="Grupo_1099868" data-name="Grupo 1099868" transform="translate(0.626 11.73)" opacity="0.5" style="mix-blend-mode: multiply;isolation: isolate">
                      <g id="Grupo_1099867" data-name="Grupo 1099867">
                        <g id="Grupo_1099866" data-name="Grupo 1099866" clip-path="url(#clip-path-13)">
                          <rect id="Rectángulo_401479" data-name="Rectángulo 401479" width="1.307" height="148.49" transform="translate(0 1.157) rotate(-62.189)" fill="#ebba44"/>
                        </g>
                      </g>
                    </g>
                    <path id="Trazado_874361" data-name="Trazado 874361" d="M.1,13.888c-.468-.247.79-3.553,2.811-7.384S6.948-.232,7.416.015,6.626,3.568,4.6,7.4.566,14.135.1,13.888" transform="translate(0 0)" fill="#fce2c2"/>
                    <path id="Trazado_874362" data-name="Trazado 874362" d="M23.355,46.871c-.125-.066.211-.947.75-1.969s1.077-1.8,1.2-1.731-.211.947-.75,1.969-1.077,1.8-1.2,1.731" transform="translate(-20.574 -38.069)" fill="#302626"/>
                  </g>
                </g>
              </g>
            </g>
          </g>
          <g id="Grupo_1099823" data-name="Grupo 1099823" transform="translate(489.051 3774)">
            <g id="Grupo_1099822" data-name="Grupo 1099822" clip-path="url(#clip-path-17)">
              <g id="Grupo_1099821" data-name="Grupo 1099821" transform="translate(0 -0.001)">
                <g id="Grupo_1099820" data-name="Grupo 1099820" clip-path="url(#clip-path-18)">
                  <path id="Trazado_874223" data-name="Trazado 874223" d="M774.526,1480.934c.857,17.843,2.023,35.289,2.38,51.213a24.282,24.282,0,0,1-1.021,6.665c-.256.687-.654,3.115-5.283,4.427l16.6-2.717.067-1.991c.759-11.507,4.413-56.822,4.413-56.822s-17.99-18.119-17.157-.775" transform="translate(-672.566 -1285.974)" fill="#f39779"/>
                  <path id="Trazado_874224" data-name="Trazado 874224" d="M887.531,2024.756l.006-.007c0,.008,0,.009-.006.007" transform="translate(-774.62 -1767.161)" fill="#f39779"/>
                  <path id="Trazado_874225" data-name="Trazado 874225" d="M720.294,1989.223a15.512,15.512,0,0,0,.523-6.237c-.147-1.919-.029-4-.671-3.985-5.568,3.314-10.608.813-10.919-.881-.744-.023-5.639,5.611-7.6,6.1-7.248,1.943-7.778,3.58-7.811,4.987-.011.474,26.4.23,26.474.012" transform="translate(-605.553 -1726.465)" fill="#302626"/>
                  <path id="Trazado_874226" data-name="Trazado 874226" d="M701.871,2044.638c3.071-.018,6.143-.281,9.206-.541a76.826,76.826,0,0,1,8.005-.5,1.55,1.55,0,0,0,.8-.137.494.494,0,0,0,.042-.028,1.111,1.111,0,0,0,.368-.588,11.928,11.928,0,0,0,.587-3.287,14.92,14.92,0,0,0-1.711.208c-.724.134-1.437.322-2.153.5a73.485,73.485,0,0,1-20.841,1.662,10.38,10.38,0,0,1-2.108-.258,2.75,2.75,0,0,0-.249,1.168,1.15,1.15,0,0,0,.8,1.077c2.24.823,4.9.739,7.25.726" transform="translate(-605.551 -1780.088)" fill="#433d3d"/>
                  <path id="Trazado_874227" data-name="Trazado 874227" d="M983.488,1480.633c1.551,17.8,3.395,35.184,4.37,51.082a24.294,24.294,0,0,1-.761,6.7c-.229.7-.533,3.139-5.107,4.63l16.484-3.362-.011-1.992c.312-11.527,2.2-56.95,2.2-56.95s-18.681-17.406-17.174-.108" transform="translate(-857.061 -1285.582)" fill="#f39779"/>
                  <path id="Trazado_874228" data-name="Trazado 874228" d="M1098.93,2021.747l.006-.008c0,.009,0,.01-.006.008" transform="translate(-959.125 -1764.535)" fill="#f39779"/>
                  <path id="Trazado_874229" data-name="Trazado 874229" d="M933.391,1988.637a15.516,15.516,0,0,0,.28-6.253c-.222-1.911-.184-4-.826-3.955-5.435,3.528-10.568,1.226-10.945-.456-.744.006-5.417,5.826-7.352,6.4-7.167,2.224-7.633,3.88-7.612,5.287.007.475,26.388-.8,26.455-1.018" transform="translate(-791.556 -1726.336)" fill="#302626"/>
                  <path id="Trazado_874230" data-name="Trazado 874230" d="M915.054,2041.616c3.069-.137,6.178-.48,9.231-.838,2.619-.308,5.29-.821,7.927-.867a1.559,1.559,0,0,0,.793-.169l.041-.029a1.117,1.117,0,0,0,.345-.6,11.928,11.928,0,0,0,.458-3.307,14.884,14.884,0,0,0-1.7.274c-.718.162-1.423.377-2.132.578a73.464,73.464,0,0,1-20.76,2.471,10.413,10.413,0,0,1-2.117-.176,2.752,2.752,0,0,0-.2,1.178.779.779,0,0,0,.631.875,22.458,22.458,0,0,0,7.486.612" transform="translate(-791.556 -1776.809)" fill="#433d3d"/>
                  <path id="Trazado_874231" data-name="Trazado 874231" d="M920.4,1010.782l3.336,35.6s4.306,60.118,7.379,83.673c4.684,1.853,11.826,1.995,16.022-.1.775-8.773,3.88-97.962-.228-115.859-2.983-.667-26.508-3.311-26.508-3.311" transform="translate(-803.308 -882.191)" fill="#ebba44"/>
                  <path id="Trazado_874232" data-name="Trazado 874232" d="M769.632,1022.809s-1.031,75.518,2.475,117.61c5.506,2.529,13.061,1.17,16.025-.108.557-10.718,5.075-83.637,5.075-83.637s1.2-16.112.771-33.344c-10.361-.064-24.346-.522-24.346-.522" transform="translate(-671.596 -892.688)" fill="#ebba44"/>
                  <path id="Trazado_874233" data-name="Trazado 874233" d="M909.628,1181.467a.428.428,0,0,1-.427-.409l-1.107-24.747-4.709-4.011a.428.428,0,0,1,.555-.652l4.851,4.132a.427.427,0,0,1,.15.307l1.116,24.933a.428.428,0,0,1-.409.447h-.02" transform="translate(-788.325 -1005.046)" fill="#302626"/>
                  <path id="Trazado_874234" data-name="Trazado 874234" d="M1006.454,1912.96a25.261,25.261,0,0,1-9.075-1.787.428.428,0,1,1,.307-.8c9.9,3.8,16.3.071,16.366.033a.428.428,0,0,1,.443.733,16.428,16.428,0,0,1-8.039,1.82" transform="translate(-870.253 -1667.311)" fill="#302626"/>
                  <path id="Trazado_874235" data-name="Trazado 874235" d="M793.681,1912.942a26.928,26.928,0,0,1-9.229-1.768.428.428,0,1,1,.293-.8c10.33,3.763,16.156.082,16.214.044a.428.428,0,0,1,.47.716,14.764,14.764,0,0,1-7.748,1.813" transform="translate(-684.408 -1667.311)" fill="#302626"/>
                  <path id="Trazado_874236" data-name="Trazado 874236" d="M1082.6,1077.521a.428.428,0,0,1-.424-.372c-.507-3.844-.479-3.873-.29-4.061a.427.427,0,0,1,.2-.114c1.141-.269,4.251-1.1,4.282-1.114a.428.428,0,0,1,.223.827c-.117.031-2.649.712-3.967,1.038.049.541.191,1.723.341,2.887a28.34,28.34,0,0,0,3.782-.8.428.428,0,1,1,.243.821,29.142,29.142,0,0,1-4.345.881.373.373,0,0,1-.049,0" transform="translate(-944.137 -935.485)" fill="#302626"/>
                  <path id="Trazado_874237" data-name="Trazado 874237" d="M1125.832,720.835s11.43,26.243,15.671,31.924c-.276-.38,7.87-.425,7.87-.425s-5.225-26.1-12.592-41.37c-.226-.247-10.949,9.871-10.949,9.871" transform="translate(-982.605 -620.512)" fill="#f39779"/>
                  <path id="Trazado_874238" data-name="Trazado 874238" d="M1074.225,603.729s6.572,3.185,16.938,25.119c.33,1.278-5.661,5.766-14.336,8.173-4.349-4.538-20-16.358-2.6-33.292" transform="translate(-930.556 -526.923)" fill="#757575"/>
                  <path id="Trazado_874239" data-name="Trazado 874239" d="M922.511,294.522a16.272,16.272,0,0,1-1.595,3.252c-2.22,2.716-4.933,4.437-8.445,4.288a11.035,11.035,0,0,1-7.31-3.337c-.957-.958-.773-1.079-1.32-2.321-.365-.83-.422-1.758-.764-2.575a20.561,20.561,0,0,1-.4-3.727c-.029-1.009-1.233-11.819,10.241-11.313,13.639.6,10.5,14.131,9.757,15.43q-.084.148-.16.3" transform="translate(-787.793 -243.306)" fill="#302626"/>
                  <path id="Trazado_874240" data-name="Trazado 874240" d="M901.82,430.446l.746-15.2,9.888,5.124-.6,11.406a2.071,2.071,0,0,0,1.032,1.9l1.976,2.572s-4.39,12.168-17.87-.756c1.82-.435,1.833-2.747,3.313-3.156a2.07,2.07,0,0,0,1.516-1.895" transform="translate(-782.877 -362.421)" fill="#f39779"/>
                  <path id="Trazado_874241" data-name="Trazado 874241" d="M936.877,439.372c3.869,1.044,8.684.362,10.183-1.167l.205-3.9-9.987-3.094Z" transform="translate(-817.688 -376.35)" fill="#db7a5c"/>
                  <path id="Trazado_874242" data-name="Trazado 874242" d="M921.5,320.875c.162,6.728,2.012,11.4,6.657,11.694,6.984.447,8.708-4.965,9.094-12.079.365-6.72-3.662-10.81-8.315-10.7s-7.6,4.355-7.436,11.083" transform="translate(-804.259 -270.378)" fill="#f39779"/>
                  <path id="Trazado_874243" data-name="Trazado 874243" d="M949.711,388.335c.019-.453.224-.812.457-.8s.407.385.388.838-.224.812-.457.8-.407-.385-.388-.838" transform="translate(-828.888 -338.231)" fill="#302626"/>
                  <path id="Trazado_874244" data-name="Trazado 874244" d="M1004.251,390.643c.019-.453-.155-.828-.388-.838s-.438.349-.457.8.155.828.388.838.438-.349.458-.8" transform="translate(-875.751 -340.214)" fill="#302626"/>
                  <path id="Trazado_874245" data-name="Trazado 874245" d="M1038.833,395.508s2.589-2.542,4.068-.467a2.763,2.763,0,0,1,.471,1.989c-.212,1.477-1.284,3.76-4.973,3.3.008.166.433-4.821.433-4.821" transform="translate(-906.295 -344.072)" fill="#f39779"/>
                  <path id="Trazado_874246" data-name="Trazado 874246" d="M1043.468,410.145a.428.428,0,0,1-.385-.615,4.511,4.511,0,0,1,3.184-2.495.428.428,0,0,1,.127.847,3.649,3.649,0,0,0-2.54,2.021.429.429,0,0,1-.386.242" transform="translate(-910.345 -355.248)" fill="#302626"/>
                  <path id="Trazado_874247" data-name="Trazado 874247" d="M1053.358,415.794a.429.429,0,0,1-.289-.112l-.817-.746a.428.428,0,1,1,.577-.632l.818.746a.428.428,0,0,1-.289.744" transform="translate(-918.263 -361.498)" fill="#302626"/>
                  <path id="Trazado_874248" data-name="Trazado 874248" d="M898.158,389.99s-2.051-2.994-3.9-1.242a2.761,2.761,0,0,0-.846,1.861c-.077,1.49.534,3.937,4.243,4.2-.04.162.5-4.814.5-4.814" transform="translate(-779.746 -338.811)" fill="#f39779"/>
                  <path id="Trazado_874249" data-name="Trazado 874249" d="M902.451,403.294a.428.428,0,0,1-.414-.32,3.648,3.648,0,0,0-2.1-2.473.428.428,0,0,1,.288-.806,4.511,4.511,0,0,1,2.643,3.062.428.428,0,0,1-.414.537" transform="translate(-785.198 -348.824)" fill="#302626"/>
                  <path id="Trazado_874250" data-name="Trazado 874250" d="M904.422,410.718a.428.428,0,0,1-.223-.794l.946-.574a.428.428,0,1,1,.444.732l-.946.574a.425.425,0,0,1-.222.062" transform="translate(-788.988 -357.218)" fill="#302626"/>
                  <path id="Trazado_874251" data-name="Trazado 874251" d="M995.465,373.3a.427.427,0,0,1-.288-.111c-1.151-1.047-3.1-.279-3.124-.271a.428.428,0,0,1-.319-.794c.1-.04,2.475-.973,4.02.432a.428.428,0,0,1-.288.745" transform="translate(-865.332 -324.48)" fill="#302626"/>
                  <path id="Trazado_874252" data-name="Trazado 874252" d="M927.887,308.845c-.159-1.212-.153-2.439-.357-3.646a9.792,9.792,0,0,0-1.242-3.808,3.572,3.572,0,0,0-.881-1.086,3.214,3.214,0,0,0-2.706-.171,5.76,5.76,0,0,1-2.749.372,16.529,16.529,0,0,1-1.868-.815,3.212,3.212,0,0,0-3.36.73c-2.328,2.078-2.131,6.143-2.53,7.273a7.383,7.383,0,0,1-.936-6.6,10.28,10.28,0,0,1,4.448-4.692,8.214,8.214,0,0,1,2.45-.98,7.647,7.647,0,0,1,3.978.394,21.322,21.322,0,0,1,3.625,1.794,7.315,7.315,0,0,1,1.711,1.234,5.641,5.641,0,0,1,1.092,1.874c.893,2.331-.324,7.684-.675,8.123" transform="translate(-794.963 -257.742)" fill="#302626"/>
                  <path id="Trazado_874253" data-name="Trazado 874253" d="M969.484,390.34a1.2,1.2,0,0,1-.956-.376,1.718,1.718,0,0,1-.035-1.8,3.8,3.8,0,0,0,.3-1,4.165,4.165,0,0,0-.377-2.484.428.428,0,0,1,.73-.447,4.923,4.923,0,0,1,.5,3.038,4.614,4.614,0,0,1-.358,1.231c-.19.449-.2.8-.107.905.074.085.351.134.887-.009a.428.428,0,0,1,.222.827,3.123,3.123,0,0,1-.8.119" transform="translate(-845.081 -335.17)" fill="#302626"/>
                  <path id="Trazado_874254" data-name="Trazado 874254" d="M936.83,370.875a.426.426,0,0,1-.233-.069,3.246,3.246,0,0,0-3.207,0,.428.428,0,1,1-.409-.752,4.1,4.1,0,0,1,4.083.039.428.428,0,0,1-.235.787" transform="translate(-814.093 -322.512)" fill="#302626"/>
                  <path id="Trazado_874255" data-name="Trazado 874255" d="M780.175,551.343s6.557,7.08,13.775,1.236c.132.047,10.532,2.665,14.293,6.222-.383,1.37,1.534,49.775,1.2,64.792-2.906,1.385-29.123,6.267-49.106-1.94,1.443-17.452,7.9-53.276,3.379-64.171a30.816,30.816,0,0,1,16.456-6.138" transform="translate(-663.61 -481.201)" fill="#757575"/>
                  <path id="Trazado_874256" data-name="Trazado 874256" d="M921.243,552.187c-4.446,0-8.166-3.419-8.219-3.468a.428.428,0,0,1,.586-.625,14.523,14.523,0,0,0,4.267,2.6,7.835,7.835,0,0,0,8.6-1.482.428.428,0,1,1,.574.635,8.447,8.447,0,0,1-5.805,2.345" transform="translate(-796.752 -478.264)" fill="#302626"/>
                  <path id="Trazado_874257" data-name="Trazado 874257" d="M667.095,678.734a107.065,107.065,0,0,1-10.451,13.1c.327-.336-9.309-7-9.309-7s.86-3.381,10.336-17.434c.26-.212,9.424,11.337,9.424,11.337" transform="translate(-564.982 -582.488)" fill="#f39779"/>
                  <path id="Trazado_874258" data-name="Trazado 874258" d="M684.651,580.215s-9.137,3.929-19.231,21.527c-.51,1.218,4.777,6.517,13.018,10.142,4.954-3.869,21.008-12.418,6.213-31.669" transform="translate(-580.737 -506.4)" fill="#757575"/>
                  <path id="Trazado_874259" data-name="Trazado 874259" d="M796.832,688.621a.428.428,0,0,1-.428-.412c-.2-5.587-.756-9.585-1.6-11.562a.428.428,0,1,1,.787-.337c.9,2.1,1.46,6.095,1.67,11.867a.428.428,0,0,1-.413.443h-.016" transform="translate(-693.658 -590.042)" fill="#302626"/>
                  <path id="Trazado_874260" data-name="Trazado 874260" d="M1113.8,700.429h-.017a.428.428,0,0,1-.411-.445c.023-.568.577-13.982,2.246-20.24a.428.428,0,0,1,.827.221c-1.645,6.167-2.212,19.915-2.218,20.053a.428.428,0,0,1-.428.411" transform="translate(-971.726 -592.99)" fill="#302626"/>
                  <path id="Trazado_874261" data-name="Trazado 874261" d="M674.564,794.6a.427.427,0,0,1-.206-.053l-4.556-2.509a.428.428,0,1,1,.413-.75l4.555,2.509a.428.428,0,0,1-.207.8" transform="translate(-584.397 -690.57)" fill="#302626"/>
                  <path id="Trazado_874262" data-name="Trazado 874262" d="M966.315,449.54a3.916,3.916,0,0,1-2.271-.755.428.428,0,1,1,.49-.7,2.879,2.879,0,0,0,3.488.024.428.428,0,1,1,.553.654,3.632,3.632,0,0,1-2.261.779" transform="translate(-841.239 -391.011)" fill="#302626"/>
                  <rect id="Rectángulo_401433" data-name="Rectángulo 401433" width="15.706" height="103.994" transform="matrix(0.518, -0.856, 0.856, 0.518, 87.356, 83.319)" fill="#5f6163"/>
                  <rect id="Rectángulo_401434" data-name="Rectángulo 401434" width="15.706" height="78.454" transform="matrix(0.518, -0.856, 0.856, 0.518, 90.208, 85.044)" fill="#44474a"/>
                  <g id="Grupo_1099819" data-name="Grupo 1099819" transform="translate(0 0.001)" opacity="0.31">
                    <g id="Grupo_1099818" data-name="Grupo 1099818">
                      <g id="Grupo_1099817" data-name="Grupo 1099817" clip-path="url(#clip-path-19)">
                        <path id="Trazado_874263" data-name="Trazado 874263" d="M26.013,100.03A53.9,53.9,0,1,0,7.789,26.009,53.9,53.9,0,0,0,26.013,100.03" transform="translate(0 0.003)" fill="#ececec"/>
                      </g>
                    </g>
                  </g>
                  <path id="Trazado_874264" data-name="Trazado 874264" d="M26.012,100.029A53.9,53.9,0,1,0,7.789,26.008a53.9,53.9,0,0,0,18.223,74.021m5.21-8.613A43.837,43.837,0,1,1,91.42,76.6a43.837,43.837,0,0,1-60.2,14.82" transform="translate(0 0.004)" fill="#5f6163"/>
                  <path id="Trazado_874265" data-name="Trazado 874265" d="M406.052,695.239q-1.059,0-2.117-.059a.428.428,0,0,1,.048-.855,37.7,37.7,0,0,0,17.732-3.353.428.428,0,0,1,.356.779,38.611,38.611,0,0,1-16.018,3.489" transform="translate(-352.193 -603.033)" fill="#302626"/>
                  <path id="Trazado_874266" data-name="Trazado 874266" d="M148.928,359.536a.426.426,0,0,1-.138-.023,38.31,38.31,0,0,1-23.208-50.66.428.428,0,1,1,.793.323A37.241,37.241,0,0,0,141.7,355.268a37.684,37.684,0,0,0,7.368,3.435.428.428,0,0,1-.138.834" transform="translate(-107.16 -269.327)" fill="#302626"/>
                  <path id="Trazado_874267" data-name="Trazado 874267" d="M887.246,661.866a.423.423,0,0,1-.221-.062L816.24,618.987a.428.428,0,0,1,.443-.733l70.785,42.817a.428.428,0,0,1-.222.795" transform="translate(-712.218 -539.546)" fill="#302626"/>
                  <path id="Trazado_874268" data-name="Trazado 874268" d="M677.966,766.276c.1-.723-2.122-4.054-2.448-4.034-7.363-.294-28.2-.608-30.5,4.5-1.171,2.594-.964,5,2.086,6.837,7.112,4.275,25.761-2.427,30.459-3.837.072-1.348.224-2.133.407-3.469" transform="translate(-562.379 -665.148)" fill="#f39779"/>
                  <path id="Trazado_874269" data-name="Trazado 874269" d="M884.07,745.553s7.414-2.633,10.379-2.839c-.054.049-1.624,8.152-3.261,10.708-1.732.18-2.952.89-6.733-1.1.1-.981-.384-6.772-.384-6.772" transform="translate(-771.599 -648.226)" fill="#f39779"/>
                  <path id="Trazado_874270" data-name="Trazado 874270" d="M948.662,755.071c.209-.811-2.687-2.264-5.228-3.369h0l-.011-.012a.454.454,0,0,1,.352-.76,3.494,3.494,0,0,1,.645.046c6.911.925,8.28.427,8.38-.3-.007-.312-.457-.594-1.157-.843,1.1-.049,1.456-.323,1.523-.666.043-1.2-6.187-2.446-8.518-2.871a.207.207,0,0,1-.14-.312l0,0a.213.213,0,0,1,.2-.1c5.791.64,8.144.361,8.284-.352.052-1.474-9.72-2.821-9.72-2.821l-3.261,10.708,2.04.313h0c5.1,2.09,6.341,1.95,6.608,1.337" transform="translate(-820.426 -648.226)" fill="#f39779"/>
                  <path id="Trazado_874271" data-name="Trazado 874271" d="M975.7,785.071a.436.436,0,0,1-.089-.009l-7.694-1.621a.428.428,0,0,1,.176-.838l7.694,1.621a.428.428,0,0,1-.088.847" transform="translate(-844.484 -683.032)" fill="#302626"/>
                  <path id="Trazado_874272" data-name="Trazado 874272" d="M886.6,762.493a.428.428,0,0,1-.425-.378l-.214-1.8a.428.428,0,1,1,.85-.1l.214,1.8a.428.428,0,0,1-.375.476.417.417,0,0,1-.051,0" transform="translate(-773.244 -663.169)" fill="#302626"/>
                  <path id="Trazado_874273" data-name="Trazado 874273" d="M1291.075,998.832a13.776,13.776,0,0,0-1.111-3.974c-.438-.826-1.356-.689-1.506.235a14.891,14.891,0,0,0,.287,4.185,1.6,1.6,0,0,0,1.139,1.27c1.2.349,1.386-.873,1.193-1.717" transform="translate(-1124.489 -867.817)" fill="#f39779"/>
                  <path id="Trazado_874274" data-name="Trazado 874274" d="M1273.049,1002.592a21.07,21.07,0,0,0-.681-4.894.691.691,0,0,0-1.294-.044,17.335,17.335,0,0,0-.74,4.476,1.567,1.567,0,0,0,.716,1.469,1.292,1.292,0,0,0,2-1.007" transform="translate(-1108.719 -870.36)" fill="#f39779"/>
                  <path id="Trazado_874275" data-name="Trazado 874275" d="M1256,1002.808a20.478,20.478,0,0,0-.472-5.054.635.635,0,0,0-1.158-.056,15.709,15.709,0,0,0-.88,4.629,1.567,1.567,0,0,0,.694,1.48,1.153,1.153,0,0,0,1.817-1" transform="translate(-1094.013 -870.467)" fill="#f39779"/>
                  <path id="Trazado_874276" data-name="Trazado 874276" d="M1238.582,1005.259a17.229,17.229,0,0,0-.46-4.212.714.714,0,0,0-1.3-.127,10.218,10.218,0,0,0-.768,3.444,1.727,1.727,0,0,0,.177,1.021c.673,1.216,2.378.723,2.353-.126" transform="translate(-1078.791 -873.263)" fill="#f39779"/>
                  <path id="Trazado_874277" data-name="Trazado 874277" d="M1287.595,1007.052a.429.429,0,0,1-.427-.394l-.326-4.109a.428.428,0,0,1,.854-.068l.327,4.108a.429.429,0,0,1-.393.461h-.035" transform="translate(-1123.13 -874.602)" fill="#302626"/>
                  <path id="Trazado_874278" data-name="Trazado 874278" d="M1271.053,1010.732a.428.428,0,0,1-.428-.421l-.076-4.809a.428.428,0,0,1,.422-.435.42.42,0,0,1,.435.421l.076,4.809a.428.428,0,0,1-.421.435Z" transform="translate(-1108.91 -877.202)" fill="#302626"/>
                  <path id="Trazado_874279" data-name="Trazado 874279" d="M1251.871,1019.38h-.031a.428.428,0,0,1-.4-.457l.2-2.782a.428.428,0,0,1,.854.061l-.2,2.782a.429.429,0,0,1-.427.4" transform="translate(-1092.235 -886.52)" fill="#302626"/>
                  <path id="Trazado_874280" data-name="Trazado 874280" d="M665.163,765.871a.428.428,0,0,1-.2-.806,22.267,22.267,0,0,1,9.352-2.117.421.421,0,0,1,.436.42.428.428,0,0,1-.421.436,21.757,21.757,0,0,0-8.965,2.017.426.426,0,0,1-.2.05" transform="translate(-580.167 -665.885)" fill="#302626"/>
                </g>
              </g>
            </g>
          </g>
        </g>
      </g>
    </g>
    <g id="Grupo_1100110" data-name="Grupo 1100110" transform="translate(509.988 3807.622)">
      <g id="Grupo_1099725" data-name="Grupo 1099725" clip-path="url(#clip-path-20)">
        <path id="Trazado_873861" data-name="Trazado 873861" d="M34.226,28.635a16.857,16.857,0,0,1-7.167-2.993A26.446,26.446,0,0,1,21.335,20.3a15.092,15.092,0,0,1-1.994-3.281,10.727,10.727,0,0,1-.6-1.784q-.105-.444-.168-.9-.029-.214-.048-.429c-.009-.1-.01-.2-.021-.3q-.012-.327-.006.219t0,.219a12.241,12.241,0,0,1,.308-1.908,10.471,10.471,0,0,1,.694-1.836A12.817,12.817,0,0,1,21.713,7.15a22.359,22.359,0,0,1,6.716-4.566c.618-.3,1.24-.6,1.874-.859A3.284,3.284,0,0,1,32.2,1.4a1.614,1.614,0,0,1,1.14.939,2.389,2.389,0,0,1,.176.678c.026.22.016.58.019-.287,0-.89.006-.512-.008-.31-.012.163-.032.325-.059.487a20.281,20.281,0,0,1-.991,3.321q-.594,1.7-1.3,3.363a57.559,57.559,0,0,1-3.191,6.4,59.286,59.286,0,0,1-8.668,11.488A58.408,58.408,0,0,1,8.139,36.53q-1.531.951-3.122,1.8-.772.414-1.557.8-.416.206-.835.4a1.961,1.961,0,0,1-.992.284A1.251,1.251,0,0,1,.662,38.9a2.945,2.945,0,0,1-.16-.782c0-.027,0-.054-.006-.081q-.022-.509-.006.621c0-.065.006-.13.01-.195.012-.185.032-.369.059-.552a8.4,8.4,0,0,1,1.13-3.084,15.823,15.823,0,0,1,5.066-4.934A27.793,27.793,0,0,1,13.481,26.7a16.931,16.931,0,0,1,7.282-.843,10.46,10.46,0,0,1,6.413,3.363,23.841,23.841,0,0,1,2.367,3.169l.246.381c.054.084.185.379.274.428s.072,0,.148-.075.13-.137.193-.206q.173-.186.343-.376.659-.737,1.259-1.524a25.969,25.969,0,0,0,3.768-6.921,25.826,25.826,0,0,0,1.027-3.7V19.034a17.171,17.171,0,0,0-.022,3.731,10.636,10.636,0,0,0,1.05,3.632c.035.071.071.141.108.211q.053.209.119,0A1.7,1.7,0,0,0,38.3,26.2q.24-.418.459-.846.438-.858.788-1.756a19.5,19.5,0,0,0,1.031-3.7,4.084,4.084,0,0,0,.007-.68c0-.16,0-.321,0-.481a.686.686,0,0,1,0-.2,4.07,4.07,0,0,0-.406,1.558,13.365,13.365,0,0,0,.013,2.011,4.322,4.322,0,0,0,1.427,2.877,2.991,2.991,0,0,0,3.034.56,3.685,3.685,0,0,0,2.2-2.363,6.993,6.993,0,0,0,.108-1.961,3.1,3.1,0,0,0-.076-.721,2.373,2.373,0,0,0-.119-.355c-.039-.092-.033-.141-.093-.116s-.1.229-.121.279a5.86,5.86,0,0,0-.127,2.005,2.975,2.975,0,0,0,.439,1.53,3.384,3.384,0,0,0,2.86,1.657,4.314,4.314,0,0,0,3.158-1.745,7.028,7.028,0,0,0,1.374-4.37,23.088,23.088,0,0,0-.084-2.809c-.1-.946-.282-1.881-.465-2.814.085.434-.071.92,0,1.361a73.817,73.817,0,0,1,.788,17.467c-.195,2.524-.349,5.267-1.611,7.526a8.468,8.468,0,0,1-4.584,3.713,17.818,17.818,0,0,1-6.173.932,49.564,49.564,0,0,1-7.555-.693,63.447,63.447,0,0,1-8.092-1.818q-1.99-.586-3.939-1.3a10.213,10.213,0,0,1-2.961-1.468,3.514,3.514,0,0,1-.954-1.136,2.835,2.835,0,0,1-.252-.734c-.013-.065-.023-.13-.031-.2-.053-.439.155-.615-.013.851a4.051,4.051,0,0,1,.077-.5,5.056,5.056,0,0,1,1.945-2.664,11.271,11.271,0,0,1,3.225-1.628,18.153,18.153,0,0,1,3.626-.841c5.092-.658,10.22.573,15.014,2.2,5.1,1.733,10.089,3.932,15.424,4.864,2.078.363,4.7.712,6.44-.777a5.288,5.288,0,0,0,1.562-3,21.7,21.7,0,0,0,.41-3.252,31.137,31.137,0,0,0-1.874-13.13A28.54,28.54,0,0,0,56.827,8.7a26.589,26.589,0,0,0-2.491-2.006,2.842,2.842,0,0,1-.007.59c0,.248-.007.5,0,.747q.422,8.86,1.7,17.651,1.291,8.829,3.448,17.5.309,1.241.635,2.479.159.6.322,1.2.077.285.155.57l.087.316.035.127q.021.22.059.064a1.973,1.973,0,0,0,.21-.564l.234-.627.444-1.191.912-2.445a2.342,2.342,0,0,0,.007-.68c0-.16,0-.321,0-.481a.746.746,0,0,1,0-.2L60.99,46.015a3.435,3.435,0,0,1-.187.5c-.107.185-.025.12-.082,0a1.706,1.706,0,0,1-.07-.253q-.157-.569-.311-1.139-.289-1.077-.566-2.158-1.1-4.291-1.983-8.632-1.778-8.711-2.7-17.568-.519-5.013-.757-10.05,0,.668,0,1.336A27.85,27.85,0,0,1,62.93,18.1a29.24,29.24,0,0,1,2.327,6.224,28.512,28.512,0,0,1,.616,3.292q.11.869.165,1.743.025.4.038.811c0,.129,0,.259.009.388-.033-.758,0-.124-.01.075a24.51,24.51,0,0,1-.346,3.434A6.157,6.157,0,0,1,64.4,37.236c-1.57,1.71-4.2,1.508-6.277,1.177-5.454-.868-10.545-3.11-15.738-4.886-4.85-1.659-10.036-2.93-15.192-2.263a18.147,18.147,0,0,0-3.68.86A11.076,11.076,0,0,0,20.26,33.8a4.907,4.907,0,0,0-1.881,2.69,8.535,8.535,0,0,0-.065,1.89,2.992,2.992,0,0,0,.372,1.438,5.006,5.006,0,0,0,2.4,1.907,35.479,35.479,0,0,0,3.678,1.347,63.5,63.5,0,0,0,8.163,2.068,57.806,57.806,0,0,0,8.028.946,20.682,20.682,0,0,0,6.306-.578,9.255,9.255,0,0,0,5.043-3.166c1.544-2.037,1.844-4.675,2.074-7.141a86.46,86.46,0,0,0-.111-17.23q-.228-2.116-.569-4.218v1.361c.133.679.265,1.358.365,2.043.05.342.093.684.124,1.028.019.206.03.412.042.618.014.247-.084.416,0-.415-.013.122-.012.248-.021.37a6.677,6.677,0,0,1-1.08,3.27c-1.127,1.663-3.313,2.788-5.174,1.576a3.437,3.437,0,0,1-1.522-2.28c-.074-.39-.078,1.172,0,.783.011-.054.016-.11.027-.164a2.147,2.147,0,0,1,.079-.284c.014-.039.107-.319.141-.318s.137.323.146.351a2.381,2.381,0,0,1,.08.318c.009.053.014.108.023.161.066.393.074-1.188,0-.8a4.26,4.26,0,0,1-.162.671,3.378,3.378,0,0,1-4.367,2.07,3.84,3.84,0,0,1-1.942-2.189,4.61,4.61,0,0,1-.206-.729c-.024-.124-.044-.25-.058-.376-.008-.076-.014-.152-.019-.228-.037-.517-.04,1.294,0,.849a4.3,4.3,0,0,1,.4-1.552V18.529a19.4,19.4,0,0,1-2.189,6.15q-.1.184-.211.365a2.031,2.031,0,0,1-.187.309,4.352,4.352,0,0,1-.366-.746,10.609,10.609,0,0,1-.533-1.51,10.746,10.746,0,0,1-.3-1.574q-.02-.177-.035-.355c-.009-.11-.016-.221-.021-.331q-.017-.478-.007.481c.019-.309.035-.616.072-.923a5.908,5.908,0,0,0,.007-.68,3.694,3.694,0,0,1-.007-.68A25.877,25.877,0,0,1,31.658,30.1q-.634.795-1.331,1.537c-.042.045-.135.186-.195.2-.087.027-.071-.01-.13-.1l-.275-.429q-.292-.454-.591-.9a13.036,13.036,0,0,0-5.81-5.263A13.308,13.308,0,0,0,15.9,24.71,26.021,26.021,0,0,0,8.56,27.456a19.655,19.655,0,0,0-5.875,4.6A10.106,10.106,0,0,0,.926,35.069a10.494,10.494,0,0,0-.449,3.706c.008.873.152,2.625,1.446,2.391a7.354,7.354,0,0,0,1.814-.81q.829-.416,1.643-.86a57.759,57.759,0,0,0,12.038-8.769,59.384,59.384,0,0,0,9.455-11.52A57.137,57.137,0,0,0,33.106,5.681,9.482,9.482,0,0,0,33.508,4a13.316,13.316,0,0,0,.035-1.977,2.4,2.4,0,0,0-.4-1.383A1.709,1.709,0,0,0,31.614.006a5.906,5.906,0,0,0-1.946.64c-.649.295-1.295.6-1.932.919a26.739,26.739,0,0,0-3.711,2.214,13.591,13.591,0,0,0-4.985,6.275,11.439,11.439,0,0,0-.554,3.96,10.837,10.837,0,0,0,.633,3.818,17.661,17.661,0,0,0,4.623,6.449,23.52,23.52,0,0,0,6.739,4.648A14.734,14.734,0,0,0,34.226,30c-.054-.008.074-1.35,0-1.361" transform="translate(-0.346 0)" fill="#18257b"/>
      </g>
    </g>
  </g>
</svg>
