<svg xmlns="http://www.w3.org/2000/svg" width="45.194" height="39.545" viewBox="0 0 45.194 39.545">
  <path id="Icon_awesome-quote-right" data-name="Icon awesome-quote-right" d="M40.957,2.25h-11.3a4.238,4.238,0,0,0-4.237,4.237v11.3a4.238,4.238,0,0,0,4.237,4.237H36.72v5.649a5.654,5.654,0,0,1-5.649,5.649h-.706a2.113,2.113,0,0,0-2.118,2.118v4.237a2.113,2.113,0,0,0,2.118,2.118h.706A14.119,14.119,0,0,0,45.194,27.672V6.487A4.238,4.238,0,0,0,40.957,2.25Zm-25.422,0H4.237A4.238,4.238,0,0,0,0,6.487v11.3a4.238,4.238,0,0,0,4.237,4.237H11.3v5.649a5.654,5.654,0,0,1-5.649,5.649H4.943a2.113,2.113,0,0,0-2.118,2.118v4.237a2.113,2.113,0,0,0,2.118,2.118h.706A14.119,14.119,0,0,0,19.772,27.672V6.487A4.238,4.238,0,0,0,15.535,2.25Z" transform="translate(0 -2.25)" fill="#ff9b6a"/>
</svg>
