<svg xmlns="http://www.w3.org/2000/svg" width="82" height="82" viewBox="0 0 82 82">
  <g id="Grupo_1099943" data-name="Grupo 1099943" transform="translate(-758.051 -1084)">
    <circle id="Elipse_11497" data-name="Elipse 11497" cx="41" cy="41" r="41" transform="translate(758.051 1084)" fill="#405f5a"/>
    <g id="escrito" transform="translate(756.051 1082.002)">
      <path id="Trazado_874439" data-name="Trazado 874439" d="M24,64H63.568V111.66H24Z" transform="translate(-7.101 -42.605)" fill="#4976f2"/>
      <path id="Trazado_874440" data-name="Trazado 874440" d="M59.071,92.775v14.388H24V64H59.071V85.581" transform="translate(-7.101 -42.604)" fill="#548aff"/>
      <path id="Trazado_874441" data-name="Trazado 874441" d="M0,0H5.087V2.543H0Z" transform="translate(63.654 33.088) rotate(-45)" fill="#ffa100"/>
      <path id="Trazado_874442" data-name="Trazado 874442" d="M240,341.4l1.8-5.4,3.6,3.6Z" transform="translate(-198.821 -284.031)" fill="#ffb401"/>
      <path id="Trazado_874443" data-name="Trazado 874443" d="M0,0H27.979V5.087H0Z" transform="translate(42.972 51.969) rotate(-45)" fill="#ffc431"/>
      <path id="Trazado_874444" data-name="Trazado 874444" d="M69.693,30.65l-1.8-1.8a.9.9,0,0,0-1.272,0l-2.961,2.961-.263-.263a.9.9,0,0,0-1.272,0l-4.76,4.76V21.394a.9.9,0,0,0-.9-.9H49.273v-.9a3.6,3.6,0,0,0-7.194,0v.9h-1.8v-.9a3.6,3.6,0,1,0-7.194,0v.9h-1.8v-.9a3.6,3.6,0,0,0-7.194,0v.9H16.9a.9.9,0,0,0-.9.9V69.055a.9.9,0,0,0,.9.9H56.467a.9.9,0,0,0,.9-.9V46.047l9.629-9.629a.9.9,0,0,0,0-1.272l-.263-.263,2.961-2.961A.9.9,0,0,0,69.693,30.65ZM52.87,22.293h2.7V38.107l-2.7,2.7Zm-8.993-2.7a1.8,1.8,0,0,1,3.6,0v.9h-3.6Zm-8.993,0a1.8,1.8,0,0,1,3.6,0v.9h-3.6Zm-8.993,0a1.8,1.8,0,0,1,3.6,0v.9h-3.6Zm-8.093,2.7h6.295v2.7h1.8v-2.7h7.194v2.7h1.8v-2.7h7.194v2.7h1.8v-2.7h7.194V42.6l-4.5,4.5V45.674H40.28v1.8H46.2l-3.6,3.6h-8.62v1.8H41.73l-1.2,3.6H27.69v1.8H41.18a.9.9,0,0,0,.284-.046l5.4-1.8a.9.9,0,0,0,.35-.218h0l3.86-3.86V63.659H17.8ZM43.371,53.634l1.539,1.539-2.309.77Zm12.2,14.522H17.8v-2.7H51.971a.9.9,0,0,0,.9-.9V50.543l2.7-2.7ZM46.575,54.294,44.25,51.969,60.064,36.155l2.325,2.325ZM63.661,37.208l-2.325-2.325,1.426-1.426,2.325,2.325Zm1.8-3.6-.527-.527,2.325-2.325.527.527Z"/>
      <path id="Trazado_874445" data-name="Trazado 874445" d="M72,376h3.6v1.8H72Z" transform="translate(-49.705 -319.535)"/>
      <path id="Trazado_874446" data-name="Trazado 874446" d="M72,328h9.892v1.8H72Z" transform="translate(-49.705 -276.93)"/>
      <path id="Trazado_874447" data-name="Trazado 874447" d="M72,280h5.4v1.8H72Z" transform="translate(-49.705 -234.326)"/>
      <path id="Trazado_874448" data-name="Trazado 874448" d="M136,280h8.993v1.8H136Z" transform="translate(-106.511 -234.326)"/>
      <path id="Trazado_874449" data-name="Trazado 874449" d="M72,232h3.6v1.8H72Z" transform="translate(-49.705 -191.722)"/>
      <path id="Trazado_874450" data-name="Trazado 874450" d="M120,232h13.489v1.8H120Z" transform="translate(-92.31 -191.722)"/>
      <path id="Trazado_874451" data-name="Trazado 874451" d="M256,232h3.6v1.8H256Z" transform="translate(-213.022 -191.722)"/>
      <path id="Trazado_874452" data-name="Trazado 874452" d="M72,184h1.8v1.8H72Z" transform="translate(-49.705 -149.117)"/>
      <path id="Trazado_874453" data-name="Trazado 874453" d="M104,184h11.69v1.8H104Z" transform="translate(-78.108 -149.117)"/>
      <path id="Trazado_874454" data-name="Trazado 874454" d="M224,184h7.194v1.8H224Z" transform="translate(-184.619 -149.117)"/>
      <path id="Trazado_874455" data-name="Trazado 874455" d="M128,136h1.8v1.8H128Z" transform="translate(-99.41 -106.513)"/>
      <path id="Trazado_874456" data-name="Trazado 874456" d="M160,136h8.093v1.8H160Z" transform="translate(-127.813 -106.513)"/>
      <path id="Trazado_874457" data-name="Trazado 874457" d="M248,136h4.5v1.8H248Z" transform="translate(-205.921 -106.513)"/>
    </g>
  </g>
</svg>
