<svg xmlns="http://www.w3.org/2000/svg" width="104" height="132" viewBox="0 0 104 132">
  <g id="Grupo_1100002" data-name="Grupo 1100002" transform="translate(-206.051 -2726)">
    <rect id="Rectángulo_401536" data-name="Rectángulo 401536" width="104" height="132" rx="14" transform="translate(206.051 2726)" fill="#a6aedf"/>
    <g id="bombilla" transform="translate(214.618 2747.5)">
      <g id="Grupo_1099946" data-name="Grupo 1099946" transform="translate(31.161 67.298)">
        <path id="Trazado_874479" data-name="Trazado 874479" d="M24.87,50.76l.041,9.069a4.872,4.872,0,0,0,.759,3.186c.881,1.071,2.454,1.193,3.85,1.22,2.67.054,5.341.122,8.011.176,1.857.041,3.972-.041,5.151-1.464a6.1,6.1,0,0,0,.976-3.728c.081-2.9.054-5.314-.108-8.215" transform="translate(-23.894 -49.784)" fill="#1e1d26"/>
        <path id="Trazado_874480" data-name="Trazado 874480" d="M38.492,65.642c-.271,0-.515,0-.732-.014l-8.011-.176c-1.613-.041-3.443-.19-4.582-1.572a5.821,5.821,0,0,1-.976-3.8l-.041-9.069a.976.976,0,0,1,1.952,0l.041,9.069a4.2,4.2,0,0,0,.529,2.562c.624.746,1.938.84,3.118.868l8.011.176c1.64.041,3.47-.014,4.378-1.112a5.23,5.23,0,0,0,.746-3.131c.081-2.833.054-5.192-.108-8.133a.977.977,0,1,1,1.952-.108c.163,3,.19,5.409.108,8.3a6.834,6.834,0,0,1-1.193,4.324c-1.342,1.627-3.606,1.816-5.192,1.816Z" transform="translate(-24.15 -50.04)" fill="#1e1d26"/>
      </g>
      <g id="Grupo_1099947" data-name="Grupo 1099947" transform="translate(15.292 10.191)">
        <path id="Trazado_874481" data-name="Trazado 874481" d="M54.329,63.269a3.349,3.349,0,0,1,1.586-2.847A27.583,27.583,0,0,0,68.467,40.944,28.273,28.273,0,0,0,36.178,8.953a27.684,27.684,0,0,0-12.037,4.934A27.375,27.375,0,0,0,13.4,39.29c1.139,8.052,5.856,15.128,11.359,21.147a3.344,3.344,0,0,1,.881,2.033c.068.976.149,1.938.217,2.9a2.462,2.462,0,0,0,2.426,2.277c5.232.027,18.069.149,23.559.2A2.459,2.459,0,0,0,54.329,65.4c0-.718.014-1.437,0-2.128Z" transform="translate(-12.189 -7.653)" fill="#1e1d26"/>
        <path id="Trazado_874482" data-name="Trazado 874482" d="M52.129,69.072H52.1c-5.49-.054-18.327-.163-23.559-.2a3.459,3.459,0,0,1-3.4-3.186l-.068-.949c-.054-.651-.095-1.288-.149-1.952a2.387,2.387,0,0,0-.624-1.437C17.5,53.9,13.7,46.814,12.7,39.67A28.463,28.463,0,0,1,23.825,13.345,28.623,28.623,0,0,1,36.3,8.235a29.256,29.256,0,0,1,33.4,33.1,28.638,28.638,0,0,1-13,20.171,2.393,2.393,0,0,0-1.125,2.02v2.115a3.394,3.394,0,0,1-1.03,2.44A3.476,3.476,0,0,1,52.129,69.072ZM40.566,9.875a25.988,25.988,0,0,0-3.972.3,26.714,26.714,0,0,0-11.617,4.758A26.452,26.452,0,0,0,14.635,39.4c.949,6.737,4.582,13.488,11.115,20.618a4.317,4.317,0,0,1,1.125,2.616c.041.651.095,1.3.149,1.938l.068.949a1.487,1.487,0,0,0,1.464,1.369c5.232.027,18.083.149,23.573.2h.014a1.444,1.444,0,0,0,1.03-.42,1.534,1.534,0,0,0,.447-1.057v-.773c0-.447.014-.895,0-1.328a4.334,4.334,0,0,1,2.033-3.687A26.627,26.627,0,0,0,67.759,41.039a27.759,27.759,0,0,0-7.808-23.3A27.916,27.916,0,0,0,40.566,9.875Z" transform="translate(-12.443 -7.912)" fill="#1e1d26"/>
      </g>
      <g id="Grupo_1099948" data-name="Grupo 1099948" transform="translate(38.006 79.092)">
        <path id="Trazado_874483" data-name="Trazado 874483" d="M29.2,58.74c0,1.5.014,3.023.014,4.528a2.437,2.437,0,0,0,.38,1.586,2.459,2.459,0,0,0,1.925.61c1.342.027,2.67.054,4.012.095a3.1,3.1,0,0,0,2.576-.732,3.034,3.034,0,0,0,.488-1.871c.041-1.45.027-2.657-.054-4.107" transform="translate(-29.2 -58.74)" fill="#1e1d26"/>
      </g>
      <g id="Grupo_1099949" data-name="Grupo 1099949" transform="translate(37.03 78.129)">
        <path id="Trazado_874484" data-name="Trazado 874484" d="M36.152,66.8h-.393l-4.012-.095a3.361,3.361,0,0,1-2.657-.962,3.341,3.341,0,0,1-.6-2.21l-.014-4.528a.976.976,0,0,1,1.952,0l.014,4.528a2.007,2.007,0,0,0,.149.976c.19.23.895.244,1.193.258l4.012.095c.759.027,1.5-.014,1.8-.38a2.292,2.292,0,0,0,.258-1.274c.041-1.41.027-2.576-.054-4.026a.977.977,0,1,1,1.952-.108c.081,1.518.095,2.725.054,4.189a3.858,3.858,0,0,1-.7,2.454A3.663,3.663,0,0,1,36.152,66.8Z" transform="translate(-28.48 -58.03)" fill="#1e1d26"/>
      </g>
      <g id="Grupo_1099950" data-name="Grupo 1099950" transform="translate(33.302 68.274)">
        <path id="Trazado_874485" data-name="Trazado 874485" d="M25.73,50.76l.041,9.069a4.872,4.872,0,0,0,.759,3.186c.881,1.071,2.454,1.193,3.85,1.22,2.67.054,5.341.122,8.011.176,1.857.041,3.972-.041,5.151-1.464a6.1,6.1,0,0,0,.976-3.728c.081-2.9.054-5.314-.108-8.215" transform="translate(-25.73 -50.76)" fill="#3d68f8"/>
      </g>
      <g id="Grupo_1099951" data-name="Grupo 1099951" transform="translate(32.326 67.298)">
        <path id="Trazado_874486" data-name="Trazado 874486" d="M39.352,65.642c-.271,0-.515,0-.732-.014l-8.011-.176c-1.613-.041-3.443-.19-4.582-1.572a5.821,5.821,0,0,1-.976-3.8l-.041-9.069a.976.976,0,0,1,1.952,0L27,60.085a4.2,4.2,0,0,0,.529,2.562c.624.746,1.938.84,3.118.868l8.011.176c1.64.041,3.47-.014,4.378-1.112a5.23,5.23,0,0,0,.746-3.131c.081-2.833.054-5.192-.108-8.133a.977.977,0,1,1,1.952-.108c.163,3,.19,5.4.108,8.3a6.834,6.834,0,0,1-1.193,4.324c-1.342,1.627-3.619,1.816-5.192,1.816Z" transform="translate(-25.01 -50.04)" fill="#1e1d26"/>
      </g>
      <g id="Grupo_1099952" data-name="Grupo 1099952" transform="translate(29.642 72.72)">
        <path id="Trazado_874487" data-name="Trazado 874487" d="M47.5,56.317h-.014l-23.492-.325A.972.972,0,0,1,23.03,55a.987.987,0,0,1,.976-.962h.014l23.492.325a.972.972,0,0,1,.962.99A.987.987,0,0,1,47.5,56.317Z" transform="translate(-23.03 -54.04)" fill="#1e1d26"/>
      </g>
      <g id="Grupo_1099953" data-name="Grupo 1099953" transform="translate(29.642 76.935)">
        <path id="Trazado_874488" data-name="Trazado 874488" d="M47.5,59.428h-.014L23.993,59.1a.976.976,0,0,1,.027-1.952l23.492.325a.972.972,0,0,1,.962.99A.987.987,0,0,1,47.5,59.428Z" transform="translate(-23.03 -57.149)" fill="#1e1d26"/>
      </g>
      <g id="Grupo_1099954" data-name="Grupo 1099954" transform="translate(15.08 11.163)">
        <path id="Trazado_874489" data-name="Trazado 874489" d="M67.611,40.947A27.679,27.679,0,0,1,55.058,60.426a3.349,3.349,0,0,0-1.586,2.847c0,.691,0,1.41-.014,2.115a2.45,2.45,0,0,1-2.481,2.454c-5.49-.054-18.327-.176-23.559-.2a2.442,2.442,0,0,1-2.426-2.277c-.068-.962-.149-1.925-.217-2.9a3.413,3.413,0,0,0-.881-2.033c-4.69-5.138-8.811-11.048-10.627-17.663a29.981,29.981,0,0,1-.732-3.484,27.388,27.388,0,0,1,10.736-25.4A27.684,27.684,0,0,1,35.308,8.942,28.827,28.827,0,0,1,54.774,13.05,27.53,27.53,0,0,1,59.518,16.8a28.739,28.739,0,0,1,8.093,24.142Z" transform="translate(-12.287 -8.629)" fill="#ffc94d"/>
      </g>
      <g id="Grupo_1099955" data-name="Grupo 1099955" transform="translate(16.06 15.584)" opacity="0.1">
        <path id="Trazado_874490" data-name="Trazado 874490" d="M67.354,39.787A27.679,27.679,0,0,1,54.8,59.266a3.349,3.349,0,0,0-1.586,2.847c0,.691,0,1.41-.014,2.115a2.45,2.45,0,0,1-2.481,2.454c-5.49-.054-18.327-.176-23.559-.2A2.442,2.442,0,0,1,24.735,64.2c-.068-.962-.149-1.925-.217-2.9a3.413,3.413,0,0,0-.881-2.033C18.947,54.129,14.826,48.219,13.01,41.6A24.856,24.856,0,0,0,39.1,53.3c3.226-.624,6.737-2.359,7.428-5.558.339-1.586-.054-3.375.84-4.731A4.5,4.5,0,0,1,50.6,41.319c1.234-.176,2.508-.108,3.714-.393,3.5-.813,5.815-4.365,6.249-7.916s-.637-7.1-1.816-10.478q-1.891-5.409-4.229-10.641a27.53,27.53,0,0,1,4.744,3.755,28.739,28.739,0,0,1,8.093,24.142Z" transform="translate(-13.01 -11.89)" fill="#1e1d26"/>
      </g>
      <g id="Grupo_1099979" data-name="Grupo 1099979" transform="translate(20.738 18.837)">
        <g id="Grupo_1099957" data-name="Grupo 1099957" transform="translate(0.015 1.071)">
          <g id="Grupo_1099956" data-name="Grupo 1099956">
            <path id="Trazado_874491" data-name="Trazado 874491" d="M59.055,36.17a6.323,6.323,0,0,1-3.2,3.443l.61.149a8.093,8.093,0,0,1-14.518,5.72l-.19-.108a20.865,20.865,0,0,1-4.053,1.22,7.57,7.57,0,0,1-5.49-.556,5.579,5.579,0,0,1-1.911-6.48,6.858,6.858,0,0,1,.407-.908,8.648,8.648,0,0,1,.718-1.112.07.07,0,0,0-.054-.027l-.583.759c-.095.122-.19.244-.3.366A7.581,7.581,0,0,1,18.212,37.58a7.776,7.776,0,0,1-.325-7.13l1.166,1.179a5.77,5.77,0,0,1,4.46-9.475l.3,1.03a5,5,0,0,1,1.017-3.945,6.547,6.547,0,0,1,4.311-2.332,10.064,10.064,0,0,1,4.921.718l-1.017,1.545a7.308,7.308,0,0,1,12.213-.136l-.325.271a7.008,7.008,0,0,1,6.005-.108,6.912,6.912,0,0,1,3.4,3.836,6.807,6.807,0,0,1,.285,3.89l-.895-.054h-.054a.1.1,0,0,1,.054.014,7,7,0,0,1,4.853,3.362,6.889,6.889,0,0,1,.474,5.924Z" transform="translate(-16.223 -14.82)" fill="#1e1d26"/>
            <path id="Trazado_874492" data-name="Trazado 874492" d="M48.826,49.9a9.4,9.4,0,0,1-7.035-3.145A22.519,22.519,0,0,1,38.171,47.8c-2.63.515-4.663.285-6.208-.691a6.272,6.272,0,0,1-2.7-5.748,8.564,8.564,0,0,1-4.7,1.139,8.524,8.524,0,0,1-8.079-8.174,8.5,8.5,0,0,1,.8-4.04c.014-.041.041-.068.054-.108A6.712,6.712,0,0,1,17.4,25.9a6.978,6.978,0,0,1,5.734-4.433,6.222,6.222,0,0,1,1.193-2.576,7.532,7.532,0,0,1,4.948-2.7,10.9,10.9,0,0,1,5.083.651,8.266,8.266,0,0,1,5.016-1.762,8.423,8.423,0,0,1,6.574,3.131,7.813,7.813,0,0,1,5.68.352,8,8,0,0,1,3.9,4.365,7.812,7.812,0,0,1,.447,3.755,7.865,7.865,0,0,1,4.243,10.085A7.415,7.415,0,0,1,57.7,40.063,9.3,9.3,0,0,1,52,49.308a8.5,8.5,0,0,1-3.172.6Zm-6.8-5.26a1.027,1.027,0,0,1,.515.149l.19.108a1.165,1.165,0,0,1,.271.244,7.111,7.111,0,0,0,12.8-4.351.953.953,0,0,1-.637-.827.985.985,0,0,1,.569-.99,5.42,5.42,0,0,0,2.7-2.914,6.107,6.107,0,0,0-.393-5.1,6.006,6.006,0,0,0-4.175-2.887c-.027,0-.054-.014-.081-.014a.979.979,0,0,1,.19-1.938h.122a5.858,5.858,0,0,0-.366-2.521,5.988,5.988,0,0,0-2.914-3.294,6.07,6.07,0,0,0-5.151.108.982.982,0,0,1-1.369-1.179,6.571,6.571,0,0,0-4.866-2.223,6.452,6.452,0,0,0-5.178,2.792l-.081.122a.993.993,0,0,1-1.356.285.968.968,0,0,1-.285-1.342c.027-.054.068-.095.095-.149l.23-.339a8.359,8.359,0,0,0-3.28-.271,5.647,5.647,0,0,0-3.674,1.966,4.065,4.065,0,0,0-.827,3.172.967.967,0,0,1-.732,1.125.982.982,0,0,1-1.166-.691l-.081-.271a4.774,4.774,0,0,0-2.969,7.822.973.973,0,0,1-.108,1.342.988.988,0,0,1-1.356-.041l-.054-.054a7.322,7.322,0,0,0-.149,1.735,6.831,6.831,0,0,0,.895,3.091,6.609,6.609,0,0,0,10.709.895c.081-.095.176-.2.258-.312l.583-.773a.986.986,0,0,1,1.22-.285,1.012,1.012,0,0,1,.163.095.955.955,0,0,1,.42.664,1.009,1.009,0,0,1-.19.759,7.12,7.12,0,0,0-.637.976,6.5,6.5,0,0,0-.352.773c-.624,1.749-.244,4.229,1.5,5.327,1.1.7,2.67.84,4.785.42a20.444,20.444,0,0,0,3.863-1.166,2.527,2.527,0,0,1,.352-.041Z" transform="translate(-16.473 -15.08)" fill="#1e1d26"/>
          </g>
        </g>
        <g id="Grupo_1099959" data-name="Grupo 1099959" transform="translate(0.966 0.976)">
          <g id="Grupo_1099958" data-name="Grupo 1099958">
            <path id="Trazado_874493" data-name="Trazado 874493" d="M59.055,35.37a6.323,6.323,0,0,1-3.2,3.443l.61.149a8.093,8.093,0,0,1-14.518,5.72l-.19-.108a20.865,20.865,0,0,1-4.053,1.22,7.57,7.57,0,0,1-5.49-.556,5.579,5.579,0,0,1-1.911-6.48,6.858,6.858,0,0,1,.407-.908,8.648,8.648,0,0,1,.718-1.112.07.07,0,0,0-.054-.027l-.583.759c-.095.122-.19.244-.3.366A7.581,7.581,0,0,1,18.212,36.78a7.776,7.776,0,0,1-.325-7.13l1.166,1.179a5.77,5.77,0,0,1,4.46-9.475l.3,1.03a5,5,0,0,1,1.017-3.945,6.547,6.547,0,0,1,4.311-2.332,10.064,10.064,0,0,1,4.921.718l-1.017,1.545a7.308,7.308,0,0,1,12.213-.136l-.325.271a7.008,7.008,0,0,1,6.005-.108,6.912,6.912,0,0,1,3.4,3.836,6.807,6.807,0,0,1,.285,3.89l-.895-.054h-.054a.1.1,0,0,1,.054.014,7,7,0,0,1,4.853,3.362,6.893,6.893,0,0,1,.474,5.924Z" transform="translate(-17.174 -15.01)" fill="#95cbfc"/>
          </g>
        </g>
        <g id="Grupo_1099973" data-name="Grupo 1099973">
          <g id="Grupo_1099960" data-name="Grupo 1099960" transform="translate(32.208 11.036)">
            <path id="Trazado_874494" data-name="Trazado 874494" d="M45.533,37.639a5.868,5.868,0,0,1-5.205-3.064.979.979,0,0,1,1.749-.881,3.961,3.961,0,0,0,4.148,1.925,5.165,5.165,0,0,0,3.728-3.24,5.934,5.934,0,0,0-4.609-8,.982.982,0,0,1,.312-1.938A7.873,7.873,0,0,1,51.769,33.07a7.127,7.127,0,0,1-5.205,4.46,4.437,4.437,0,0,1-1.03.108Z" transform="translate(-40.222 -22.432)" fill="#1e1d26"/>
          </g>
          <g id="Grupo_1099961" data-name="Grupo 1099961" transform="translate(24.772 23.958)">
            <path id="Trazado_874495" data-name="Trazado 874495" d="M42.332,42.83a9.346,9.346,0,0,1-7.4-3.579.977.977,0,0,1,1.559-1.179,7.11,7.11,0,0,0,12.756-5.029.975.975,0,1,1,1.938-.2,9.347,9.347,0,0,1-5.693,9.408,8.935,8.935,0,0,1-3.158.583Z" transform="translate(-34.736 -31.964)" fill="#1e1d26"/>
          </g>
          <g id="Grupo_1099962" data-name="Grupo 1099962" transform="translate(18.978 16.816)">
            <path id="Trazado_874496" data-name="Trazado 874496" d="M31.435,37.993a.978.978,0,0,1-.542-.163.965.965,0,0,1-.258-1.356,10.674,10.674,0,0,1,7.971-4.622,7.148,7.148,0,0,1,4.622-4.772,7.071,7.071,0,0,1,7.225,1.627.978.978,0,1,1-1.383,1.383,5.153,5.153,0,0,0-5.192-1.166A5.091,5.091,0,0,0,40.4,32.91a.972.972,0,0,1-.976.868h-.041a8.773,8.773,0,0,0-7.117,3.782A1.055,1.055,0,0,1,31.435,37.993Z" transform="translate(-30.462 -26.695)" fill="#1e1d26"/>
          </g>
          <g id="Grupo_1099963" data-name="Grupo 1099963" transform="translate(12.795 11.414)">
            <path id="Trazado_874497" data-name="Trazado 874497" d="M32.284,44.277a6.7,6.7,0,0,1-3.674-.949,6.518,6.518,0,0,1-2.3-7.645,9.964,9.964,0,0,1,5.6-5.531,24.91,24.91,0,0,1,6.466-1.64,10.021,10.021,0,0,0-1.383-4.324.979.979,0,0,1,1.681-1,12.066,12.066,0,0,1,1.694,6.168.966.966,0,0,1-.84.962,27,27,0,0,0-6.832,1.613,8.173,8.173,0,0,0-4.555,4.406,4.594,4.594,0,0,0,1.5,5.327c1.112.691,2.67.84,4.772.42a21.344,21.344,0,0,0,12.254-7.374.974.974,0,1,1,1.518,1.22,23.229,23.229,0,0,1-13.393,8.066,11.292,11.292,0,0,1-2.508.285Z" transform="translate(-25.901 -22.71)" fill="#1e1d26"/>
          </g>
          <g id="Grupo_1099964" data-name="Grupo 1099964" transform="translate(17.642 5.576)">
            <path id="Trazado_874498" data-name="Trazado 874498" d="M32.911,32.388a.461.461,0,0,1-.136-.014,3.365,3.365,0,0,1-2.7-2.318,3.321,3.321,0,0,1,.312-2.589,4.623,4.623,0,0,1-.908-2.6,5.481,5.481,0,0,1,.99-3.308,7.023,7.023,0,0,1,12.227.895,3.264,3.264,0,0,1,1.749.732,5.811,5.811,0,0,1,2.223,3.524,5.888,5.888,0,0,1-.732,4.107A.976.976,0,0,1,44.27,29.8a3.872,3.872,0,0,0,.488-2.711,3.819,3.819,0,0,0-1.478-2.332,1.715,1.715,0,0,0-.651-.352.967.967,0,0,1-.84.108,1.026,1.026,0,0,1-.637-.637,5.077,5.077,0,0,0-9.069-1.261,3.675,3.675,0,0,0-.664,2.142,2.262,2.262,0,0,0,.813,1.776.941.941,0,0,1,.434.746.957.957,0,0,1-.325.8,1.372,1.372,0,0,0-.393,1.4,1.409,1.409,0,0,0,1.1.935.967.967,0,0,1,.827,1.1.978.978,0,0,1-.962.881Z" transform="translate(-29.476 -18.403)" fill="#1e1d26"/>
          </g>
          <g id="Grupo_1099965" data-name="Grupo 1099965" transform="translate(25.445 2.759)">
            <path id="Trazado_874499" data-name="Trazado 874499" d="M48.229,26.62a1.336,1.336,0,0,1-.23-.027.981.981,0,0,1-.732-1.179,5.838,5.838,0,0,0-10.289-4.934.976.976,0,0,1-1.545-1.193,7.789,7.789,0,0,1,13.732,6.574.953.953,0,0,1-.935.759Z" transform="translate(-35.233 -16.326)" fill="#1e1d26"/>
          </g>
          <g id="Grupo_1099966" data-name="Grupo 1099966" transform="translate(15.882)">
            <path id="Trazado_874500" data-name="Trazado 874500" d="M29.157,19.6a1.076,1.076,0,0,1-.529-.149.982.982,0,0,1-.3-1.356,8.366,8.366,0,0,1,6.886-3.809H35.3a8.38,8.38,0,0,1,6.886,3.674.977.977,0,1,1-1.627,1.084,6.467,6.467,0,0,0-5.26-2.806H35.23a6.5,6.5,0,0,0-5.26,2.914A.971.971,0,0,1,29.157,19.6Z" transform="translate(-28.178 -14.29)" fill="#1e1d26"/>
          </g>
          <g id="Grupo_1099967" data-name="Grupo 1099967" transform="translate(6.575 1.024)">
            <path id="Trazado_874501" data-name="Trazado 874501" d="M22.583,24.134a.962.962,0,0,1-.908-.624,5.9,5.9,0,0,1,.935-5.693,7.564,7.564,0,0,1,4.948-2.7,11.034,11.034,0,0,1,5.409.773.983.983,0,1,1-.718,1.83,9.054,9.054,0,0,0-4.433-.664,5.589,5.589,0,0,0-3.674,1.966,3.942,3.942,0,0,0-.664,3.768.985.985,0,0,1-.556,1.274.758.758,0,0,1-.339.068Z" transform="translate(-21.312 -15.045)" fill="#1e1d26"/>
          </g>
          <g id="Grupo_1099968" data-name="Grupo 1099968" transform="translate(0.573 6.344)">
            <path id="Trazado_874502" data-name="Trazado 874502" d="M19.942,31.156a1,1,0,0,1-.624-.217,6.965,6.965,0,0,1-2.06-7.51,6.949,6.949,0,0,1,6.358-4.46h.027a.984.984,0,0,1,.976.99.972.972,0,0,1-.976.976h-.027a4.8,4.8,0,0,0-3.05,8.513.986.986,0,0,1,.136,1.383,1.1,1.1,0,0,1-.759.325Z" transform="translate(-16.884 -18.97)" fill="#1e1d26"/>
          </g>
          <g id="Grupo_1099969" data-name="Grupo 1099969" transform="translate(0 14.626)">
            <path id="Trazado_874503" data-name="Trazado 874503" d="M25,37.876c-.149,0-.3,0-.447-.014a8.57,8.57,0,0,1-7.279-12.227.976.976,0,1,1,1.762.84A6.592,6.592,0,0,0,24.647,35.9a6.749,6.749,0,0,0,5.639-2.63.977.977,0,0,1,1.559,1.179A8.551,8.551,0,0,1,25,37.876Z" transform="translate(-16.461 -25.08)" fill="#1e1d26"/>
          </g>
          <g id="Grupo_1099970" data-name="Grupo 1099970" transform="translate(10.833 7.328)">
            <path id="Trazado_874504" data-name="Trazado 874504" d="M29.993,34.477a.963.963,0,0,1-.5-.136,6.229,6.229,0,0,1-2.7-3.375,6.116,6.116,0,0,1-.136-3.24,3.531,3.531,0,0,1-1.6-1.572,4.987,4.987,0,0,1-.5-3.389A4.937,4.937,0,0,1,26.4,19.891.977.977,0,1,1,27.58,21.45a3,3,0,0,0-1.112,1.722,2.95,2.95,0,0,0,.3,2.033,1.4,1.4,0,0,0,1.193.868.943.943,0,0,1,.773.461,1,1,0,0,1,.068.895,4.159,4.159,0,0,0,1.694,5.219.974.974,0,0,1,.339,1.342.962.962,0,0,1-.84.488Z" transform="translate(-24.453 -19.696)" fill="#1e1d26"/>
          </g>
          <g id="Grupo_1099971" data-name="Grupo 1099971" transform="translate(6.12 17.437)">
            <path id="Trazado_874505" data-name="Trazado 874505" d="M21.944,31.717a.985.985,0,0,1-.624-.23A1,1,0,0,1,21.2,30.1a8.492,8.492,0,0,1,7.51-2.874.98.98,0,0,1-.285,1.938,6.475,6.475,0,0,0-5.734,2.2.978.978,0,0,1-.746.352Z" transform="translate(-20.976 -27.153)" fill="#1e1d26"/>
          </g>
          <g id="Grupo_1099972" data-name="Grupo 1099972" transform="translate(4.963 11.977)">
            <path id="Trazado_874506" data-name="Trazado 874506" d="M23.63,26.71a5.556,5.556,0,0,1-3.064-.908.979.979,0,0,1,1.071-1.64,3.593,3.593,0,0,0,4.731-.691.981.981,0,0,1,1.5,1.261,5.573,5.573,0,0,1-3.443,1.911A4.157,4.157,0,0,1,23.63,26.71Z" transform="translate(-20.123 -23.126)" fill="#1e1d26"/>
          </g>
        </g>
        <g id="Grupo_1099974" data-name="Grupo 1099974" transform="translate(1.015 19.181)" opacity="0.1">
          <path id="Trazado_874507" data-name="Trazado 874507" d="M30.521,33.049A7.581,7.581,0,0,1,18.24,31.992a7.6,7.6,0,0,1-1.03-3.552,30.1,30.1,0,0,0,4.582,2.4,29.851,29.851,0,0,0,8.73,2.21Z" transform="translate(-17.21 -28.44)" fill="#1e1d26"/>
        </g>
        <g id="Grupo_1099975" data-name="Grupo 1099975" transform="translate(37.533 8.188)" opacity="0.1">
          <path id="Trazado_874508" data-name="Trazado 874508" d="M45.045,24.22l-.895-.054a19.182,19.182,0,0,0,.61-3.836A6.584,6.584,0,0,1,45.045,24.22Z" transform="translate(-44.15 -20.33)" fill="#1e1d26"/>
        </g>
        <g id="Grupo_1099976" data-name="Grupo 1099976" transform="translate(13.758 12.037)" opacity="0.1">
          <path id="Trazado_874509" data-name="Trazado 874509" d="M55.7,32.469a6.323,6.323,0,0,1-3.2,3.443l.61.149a8.093,8.093,0,0,1-14.518,5.72l-.19-.108a20.865,20.865,0,0,1-4.053,1.22,7.57,7.57,0,0,1-5.49-.556,5.579,5.579,0,0,1-1.911-6.48,6.858,6.858,0,0,1,.407-.908,30.638,30.638,0,0,0,10.709-.908c3.945-1.057,7.808-3.05,10.18-6.358a14.334,14.334,0,0,0,2.115-4.514,7,7,0,0,1,4.853,3.362,6.882,6.882,0,0,1,.488,5.937Z" transform="translate(-26.611 -23.17)" fill="#1e1d26"/>
        </g>
        <g id="Grupo_1099977" data-name="Grupo 1099977" transform="translate(14.879 4.253)">
          <path id="Trazado_874510" data-name="Trazado 874510" d="M28.281,26.527a.823.823,0,0,1-.813-.746,8.158,8.158,0,0,1,5.07-8.3.812.812,0,1,1,.61,1.5,6.653,6.653,0,0,0-3.131,2.657,6.55,6.55,0,0,0-.935,3.985.818.818,0,0,1-.746.881c-.014.014-.027.014-.054.014Z" transform="translate(-27.438 -17.427)" fill="#fff"/>
        </g>
        <g id="Grupo_1099978" data-name="Grupo 1099978" transform="translate(21.983 3.414)">
          <path id="Trazado_874511" data-name="Trazado 874511" d="M33.494,18.518a.817.817,0,0,1-.312-1.572l.217-.081a.812.812,0,0,1,.61,1.5l-.217.081a.568.568,0,0,1-.3.068Z" transform="translate(-32.679 -16.809)" fill="#fff"/>
        </g>
      </g>
      <g id="Grupo_1099980" data-name="Grupo 1099980" transform="translate(14.126 10.205)">
        <path id="Trazado_874512" data-name="Trazado 874512" d="M51.269,69.068h-.027c-5.49-.054-18.327-.163-23.559-.2a3.459,3.459,0,0,1-3.4-3.186l-.068-.908c-.054-.664-.095-1.315-.149-1.993a2.387,2.387,0,0,0-.624-1.437c-6.8-7.442-10.6-14.531-11.6-21.662A28.463,28.463,0,0,1,22.965,13.355a28.623,28.623,0,0,1,12.471-5.11,29.256,29.256,0,0,1,33.4,33.1,28.638,28.638,0,0,1-13,20.171,2.393,2.393,0,0,0-1.125,2.02v2.115a3.394,3.394,0,0,1-1.03,2.44A3.523,3.523,0,0,1,51.269,69.068ZM39.706,9.871a25.988,25.988,0,0,0-3.972.3,26.714,26.714,0,0,0-11.617,4.758A26.452,26.452,0,0,0,13.775,39.4c.949,6.737,4.582,13.488,11.115,20.618a4.317,4.317,0,0,1,1.125,2.616c.041.664.095,1.328.149,1.979l.068.908A1.487,1.487,0,0,0,27.7,66.886c5.232.027,18.083.149,23.573.2a1.563,1.563,0,0,0,1.044-.42,1.534,1.534,0,0,0,.447-1.057v-.773c0-.447.014-.895,0-1.328a4.334,4.334,0,0,1,2.033-3.687A26.627,26.627,0,0,0,66.9,41.035a27.759,27.759,0,0,0-7.808-23.3A27.916,27.916,0,0,0,39.706,9.871Z" transform="translate(-11.583 -7.922)" fill="#1e1d26"/>
      </g>
      <g id="Grupo_1099981" data-name="Grupo 1099981" transform="translate(36.895 50.205)">
        <path id="Trazado_874513" data-name="Trazado 874513" d="M29.356,58.441a.981.981,0,0,1-.976-.976l.068-19.059a.976.976,0,1,1,1.952,0l-.068,19.059A.972.972,0,0,1,29.356,58.441Z" transform="translate(-28.38 -37.43)" fill="#1e1d26"/>
      </g>
      <g id="Grupo_1099982" data-name="Grupo 1099982" transform="translate(46.41 50.205)">
        <path id="Trazado_874514" data-name="Trazado 874514" d="M36.376,58.441a.981.981,0,0,1-.976-.976l.068-19.059a.976.976,0,1,1,1.952,0l-.068,19.059A.972.972,0,0,1,36.376,58.441Z" transform="translate(-35.4 -37.43)" fill="#1e1d26"/>
      </g>
      <g id="Grupo_1099983" data-name="Grupo 1099983" transform="translate(41.544 1.5)">
        <path id="Trazado_874515" data-name="Trazado 874515" d="M32.786,8.779A.972.972,0,0,1,31.81,7.8V2.476a.976.976,0,1,1,1.952,0V7.79A.984.984,0,0,1,32.786,8.779Z" transform="translate(-31.81 -1.5)" fill="#1e1d26"/>
      </g>
      <g id="Grupo_1099984" data-name="Grupo 1099984" transform="translate(58.529 5.336)">
        <path id="Trazado_874516" data-name="Trazado 874516" d="M45.316,10.932a1,1,0,0,1-.678-.271.982.982,0,0,1-.027-1.383L49.1,4.628a.978.978,0,0,1,1.41,1.356l-4.487,4.65a.954.954,0,0,1-.7.3Z" transform="translate(-44.34 -4.33)" fill="#1e1d26"/>
      </g>
      <g id="Grupo_1099985" data-name="Grupo 1099985" transform="translate(65.992 13.097)">
        <path id="Trazado_874517" data-name="Trazado 874517" d="M50.828,14.67a1,1,0,0,1-.8-.407.982.982,0,0,1,.23-1.369l3.714-2.657a.982.982,0,0,1,1.139,1.6l-3.728,2.657A1,1,0,0,1,50.828,14.67Z" transform="translate(-49.845 -10.055)" fill="#1e1d26"/>
      </g>
      <g id="Grupo_1099986" data-name="Grupo 1099986" transform="translate(71.418 22.237)">
        <path id="Trazado_874518" data-name="Trazado 874518" d="M54.827,21.735a1,1,0,0,1-.895-.569.979.979,0,0,1,.488-1.288l6.642-3a.974.974,0,1,1,.8,1.776l-6.642,3A.972.972,0,0,1,54.827,21.735Z" transform="translate(-53.848 -16.798)" fill="#1e1d26"/>
      </g>
      <g id="Grupo_1099987" data-name="Grupo 1099987" transform="translate(73.88 32.588)">
        <path id="Trazado_874519" data-name="Trazado 874519" d="M56.634,26.6a.968.968,0,0,1-.962-.854.987.987,0,0,1,.84-1.1l1.6-.2a.978.978,0,1,1,.258,1.938l-1.6.2a.508.508,0,0,1-.136.014Z" transform="translate(-55.664 -24.434)" fill="#1e1d26"/>
      </g>
      <g id="Grupo_1099988" data-name="Grupo 1099988" transform="translate(73.687 42.021)">
        <path id="Trazado_874520" data-name="Trazado 874520" d="M62.731,35.063a.851.851,0,0,1-.258-.041l-6.236-1.708a.978.978,0,0,1,.529-1.884L63,33.138a.981.981,0,0,1-.271,1.925Z" transform="translate(-55.522 -31.392)" fill="#1e1d26"/>
      </g>
      <g id="Grupo_1099989" data-name="Grupo 1099989" transform="translate(71.839 50.298)">
        <path id="Trazado_874521" data-name="Trazado 874521" d="M56.519,40.415a.963.963,0,0,1-.556-.176l-1.383-.962a.974.974,0,0,1,1.112-1.6l1.383.962a.967.967,0,0,1,.244,1.356A.955.955,0,0,1,56.519,40.415Z" transform="translate(-54.159 -37.499)" fill="#1e1d26"/>
      </g>
      <g id="Grupo_1099990" data-name="Grupo 1099990" transform="translate(68.412 56.183)">
        <path id="Trazado_874522" data-name="Trazado 874522" d="M58.136,48.794a.946.946,0,0,1-.651-.258l-5.531-4.988A.979.979,0,0,1,53.27,42.1L58.8,47.086a.971.971,0,0,1,.068,1.383,1.011,1.011,0,0,1-.732.325Z" transform="translate(-51.63 -41.84)" fill="#1e1d26"/>
      </g>
      <g id="Grupo_1099991" data-name="Grupo 1099991" transform="translate(63.042 62.811)">
        <path id="Trazado_874523" data-name="Trazado 874523" d="M49.92,49.862a.954.954,0,0,1-.664-.258l-1.274-1.179a.978.978,0,1,1,1.328-1.437l1.274,1.179a.976.976,0,0,1-.664,1.694Z" transform="translate(-47.669 -46.729)" fill="#1e1d26"/>
      </g>
      <g id="Grupo_1099992" data-name="Grupo 1099992" transform="translate(21.341 5.331)">
        <path id="Trazado_874524" data-name="Trazado 874524" d="M22.374,10.933a.954.954,0,0,1-.7-.3l-4.487-4.65a.978.978,0,0,1,1.41-1.356l4.487,4.65a.97.97,0,0,1-.027,1.383A1,1,0,0,1,22.374,10.933Z" transform="translate(-16.906 -4.326)" fill="#1e1d26"/>
      </g>
      <g id="Grupo_1099993" data-name="Grupo 1099993" transform="translate(14.634 13.101)">
        <path id="Trazado_874525" data-name="Trazado 874525" d="M16.664,14.67a1,1,0,0,1-.569-.176l-3.728-2.657a.982.982,0,0,1,1.139-1.6l3.714,2.657a.99.99,0,0,1,.23,1.369A.97.97,0,0,1,16.664,14.67Z" transform="translate(-11.958 -10.058)" fill="#1e1d26"/>
      </g>
      <g id="Grupo_1099994" data-name="Grupo 1099994" transform="translate(6.297 22.224)">
        <path id="Trazado_874526" data-name="Trazado 874526" d="M13.429,21.738a1.088,1.088,0,0,1-.407-.081l-6.642-3a1,1,0,0,1-.488-1.3.979.979,0,0,1,1.288-.488l6.642,3a.979.979,0,0,1,.488,1.288.955.955,0,0,1-.881.583Z" transform="translate(-5.808 -16.788)" fill="#1e1d26"/>
      </g>
      <g id="Grupo_1099995" data-name="Grupo 1099995" transform="translate(8.894 32.588)">
        <path id="Trazado_874527" data-name="Trazado 874527" d="M10.294,26.6a.375.375,0,0,1-.122-.014l-1.6-.2a.978.978,0,0,1,.258-1.938l1.6.2a.97.97,0,0,1,.84,1.1.991.991,0,0,1-.976.854Z" transform="translate(-7.724 -24.434)" fill="#1e1d26"/>
      </g>
      <g id="Grupo_1099996" data-name="Grupo 1099996" transform="translate(4.432 42.021)">
        <path id="Trazado_874528" data-name="Trazado 874528" d="M5.419,35.063a.981.981,0,0,1-.271-1.925l6.236-1.708a.978.978,0,1,1,.529,1.884L5.676,35.022A.851.851,0,0,1,5.419,35.063Z" transform="translate(-4.432 -31.392)" fill="#1e1d26"/>
      </g>
      <g id="Grupo_1099997" data-name="Grupo 1099997" transform="translate(11.141 50.298)">
        <path id="Trazado_874529" data-name="Trazado 874529" d="M10.355,40.415A.976.976,0,0,1,9.8,38.639l1.383-.962a.963.963,0,0,1,1.356.244.974.974,0,0,1-.244,1.356l-1.383.962A.963.963,0,0,1,10.355,40.415Z" transform="translate(-9.381 -37.499)" fill="#1e1d26"/>
      </g>
      <g id="Grupo_1099998" data-name="Grupo 1099998" transform="translate(10.412 56.188)">
        <path id="Trazado_874530" data-name="Trazado 874530" d="M9.828,48.793a.983.983,0,0,1-.664-1.708L14.695,42.1a.979.979,0,1,1,1.315,1.45l-5.531,4.988a.9.9,0,0,1-.651.258Z" transform="translate(-8.844 -41.844)" fill="#1e1d26"/>
      </g>
      <g id="Grupo_1099999" data-name="Grupo 1099999" transform="translate(20.044 62.811)">
        <path id="Trazado_874531" data-name="Trazado 874531" d="M16.926,49.862a1,1,0,0,1-.718-.312.983.983,0,0,1,.054-1.383l1.274-1.179a.978.978,0,1,1,1.328,1.437L17.59,49.6A.978.978,0,0,1,16.926,49.862Z" transform="translate(-15.949 -46.729)" fill="#1e1d26"/>
      </g>
      <g id="Grupo_1100000" data-name="Grupo 1100000" transform="translate(49.889 4.992)">
        <path id="Trazado_874532" data-name="Trazado 874532" d="M38.947,8.69a1.129,1.129,0,0,1-.3-.041.984.984,0,0,1-.637-1.234l.84-2.657a.982.982,0,0,1,1.871.6l-.84,2.657A1,1,0,0,1,38.947,8.69Z" transform="translate(-37.966 -4.076)" fill="#1e1d26"/>
      </g>
      <g id="Grupo_1100001" data-name="Grupo 1100001" transform="translate(31.2 3.532)">
        <path id="Trazado_874533" data-name="Trazado 874533" d="M26.336,8.246a.973.973,0,0,1-.922-.651L24.234,4.3a.978.978,0,0,1,1.844-.651l1.179,3.294a.972.972,0,0,1-.6,1.247A.911.911,0,0,1,26.336,8.246Z" transform="translate(-24.179 -2.999)" fill="#1e1d26"/>
      </g>
    </g>
  </g>
</svg>
