<svg xmlns="http://www.w3.org/2000/svg" width="104" height="132" viewBox="0 0 104 132">
  <g id="Grupo_1100003" data-name="Grupo 1100003" transform="translate(-632.051 -2726)">
    <rect id="Rectángulo_401228" data-name="Rectángulo 401228" width="104" height="132" rx="14" transform="translate(632.051 2726)" fill="#a6aedf"/>
    <g id="tarea" transform="translate(605.547 2744)">
      <path id="Trazado_874534" data-name="Trazado 874534" d="M44,146.658V70.177a3.119,3.119,0,0,1,3.119-3.119h63.058a3.119,3.119,0,0,1,3.119,3.119v76.481a3.119,3.119,0,0,1-3.119,3.119H47.124A3.119,3.119,0,0,1,44,146.658Z" transform="translate(-6.083 -54.378)" fill="#0e80ac"/>
      <path id="Trazado_874535" data-name="Trazado 874535" d="M365.035,67.058h-3.628v79.6a3.119,3.119,0,0,1-3.119,3.119h6.747a3.119,3.119,0,0,0,3.119-3.119V70.177A3.119,3.119,0,0,0,365.035,67.058Z" transform="translate(-260.935 -54.377)" fill="#057195"/>
      <path id="Trazado_874536" data-name="Trazado 874536" d="M79.711,67.058v73.016a2.057,2.057,0,0,0,2.057,2.057h51.678a2.057,2.057,0,0,0,2.057-2.057V67.058Z" transform="translate(-35.037 -54.377)" fill="#f7f0f0"/>
      <path id="Trazado_874537" data-name="Trazado 874537" d="M166.1,11.973A4.473,4.473,0,0,0,161.625,7.5h-3.411a4.473,4.473,0,0,0-4.473,4.473,2.269,2.269,0,0,1-2.269,2.269h-2.729a4.52,4.52,0,0,0-4.52,4.52v2.375a2.146,2.146,0,0,0,2.146,2.146h27.1a2.146,2.146,0,0,0,2.146-2.146V18.762a4.52,4.52,0,0,0-4.52-4.52h-2.729A2.269,2.269,0,0,1,166.1,11.973Z" transform="translate(-87.35 -6.082)" fill="#fd7e42"/>
      <path id="Trazado_874538" data-name="Trazado 874538" d="M235.824,14.242h-2.729a2.269,2.269,0,0,1-2.269-2.269A4.473,4.473,0,0,0,226.352,7.5h-2.308v6.836a2.269,2.269,0,0,0,2.269,2.269h2.729a4.52,4.52,0,0,1,4.52,4.52v2.157H238.2a2.146,2.146,0,0,0,2.146-2.146V18.762A4.52,4.52,0,0,0,235.824,14.242Z" transform="translate(-152.077 -6.082)" fill="#fa6931"/>
      <path id="Trazado_874539" data-name="Trazado 874539" d="M246.051,196.622l-5.507-4.414-1.9,1.025-32.176,40.146-5.115,10.271a1.981,1.981,0,0,0,3.021,2.421l8.911-7.229L245.463,198.7Z" transform="translate(-133.51 -155.862)" fill="#fa6931"/>
      <path id="Trazado_874540" data-name="Trazado 874540" d="M206.579,409.641l-5.143,10.328a1.992,1.992,0,0,0,3.037,2.435l8.96-7.269Z" transform="translate(-133.574 -332.179)" fill="#557981"/>
      <path id="Trazado_874541" data-name="Trazado 874541" d="M410.78,155.708a4.368,4.368,0,0,0-6.14.677l-5.188,6.473,6.816,5.463,5.188-6.473A4.368,4.368,0,0,0,410.78,155.708Z" transform="translate(-294.315 -125.486)" fill="#ffc3ab"/>
      <path id="Trazado_874542" data-name="Trazado 874542" d="M131.546,137.658a1.418,1.418,0,0,0-1.975.35l-4.507,6.446-2.921-2.6a1.418,1.418,0,0,0-1.884,2.12l3.109,2.763a2.614,2.614,0,0,0,3.877-.456l4.651-6.652A1.418,1.418,0,0,0,131.546,137.658Z" transform="translate(-67.531 -111.42)"/>
      <path id="Trazado_874543" data-name="Trazado 874543" d="M131.547,247.218a1.418,1.418,0,0,0-1.975.35l-4.507,6.446-2.921-2.6a1.418,1.418,0,0,0-1.884,2.12l3.109,2.764a2.614,2.614,0,0,0,3.877-.456l4.651-6.652A1.418,1.418,0,0,0,131.547,247.218Z" transform="translate(-67.532 -200.262)"/>
      <path id="Trazado_874544" data-name="Trazado 874544" d="M131.546,355.306a1.418,1.418,0,0,0-1.975.35l-4.507,6.446-2.921-2.6a1.418,1.418,0,1,0-1.884,2.12l3.109,2.763a2.614,2.614,0,0,0,3.877-.456l4.651-6.652A1.418,1.418,0,0,0,131.546,355.306Z" transform="translate(-67.531 -287.911)"/>
      <path id="Trazado_874545" data-name="Trazado 874545" d="M235.152,141.344H215.109a1.418,1.418,0,1,0,0,2.836h20.043a1.418,1.418,0,0,0,0-2.836Z" transform="translate(-143.681 -114.616)"/>
      <path id="Trazado_874546" data-name="Trazado 874546" d="M235.152,174.675H215.109a1.418,1.418,0,1,0,0,2.836h20.043a1.418,1.418,0,0,0,0-2.836Z" transform="translate(-143.681 -141.644)"/>
      <path id="Trazado_874547" data-name="Trazado 874547" d="M236.57,249.918a1.418,1.418,0,0,0-1.418-1.418H215.109a1.418,1.418,0,1,0,0,2.836h20.043A1.418,1.418,0,0,0,236.57,249.918Z" transform="translate(-143.681 -201.509)"/>
      <path id="Trazado_874548" data-name="Trazado 874548" d="M215.109,281.831a1.418,1.418,0,1,0,0,2.836H225.13a1.418,1.418,0,1,0,0-2.836Z" transform="translate(-143.681 -228.537)"/>
      <path id="Trazado_874549" data-name="Trazado 874549" d="M117.351,29.116a5.783,5.783,0,0,0-8.134.9L71.854,76.63c-.18.224.093-.234-4.869,9.705H46.731a.64.64,0,0,1-.639-.639V14.1h9.363v.956a3.568,3.568,0,0,0,3.564,3.564h27.1a3.568,3.568,0,0,0,3.564-3.564V14.1h9.363v21.67a1.418,1.418,0,1,0,2.836,0V14.1H104.1a1.7,1.7,0,0,1,1.7,1.7V27.325a1.418,1.418,0,0,0,2.836,0V15.8a4.542,4.542,0,0,0-4.537-4.537H89.513a5.948,5.948,0,0,0-5.766-4.52H81.018a.852.852,0,0,1-.851-.851A5.9,5.9,0,0,0,74.276,0H70.865a5.9,5.9,0,0,0-5.891,5.891.852.852,0,0,1-.851.851H61.394a5.948,5.948,0,0,0-5.766,4.52H41.041A4.542,4.542,0,0,0,36.5,15.8V92.281a4.542,4.542,0,0,0,4.537,4.537H104.1a4.542,4.542,0,0,0,4.537-4.537V56.146a1.418,1.418,0,0,0-2.836,0V92.281a1.7,1.7,0,0,1-1.7,1.7H41.041a1.7,1.7,0,0,1-1.7-1.7V15.8a1.7,1.7,0,0,1,1.7-1.7h2.215V85.7a3.479,3.479,0,0,0,3.476,3.475H66.264a3.39,3.39,0,0,0,5.5,2.139L74.4,89.172H98.409a3.479,3.479,0,0,0,3.476-3.475V64.553a1.418,1.418,0,1,0-2.836,0V85.7a.64.64,0,0,1-.639.639H77.894a35.92,35.92,0,0,0,2.99-2.468l37.364-46.618a5.793,5.793,0,0,0-.9-8.133ZM58.292,12.681a3.106,3.106,0,0,1,3.1-3.1h2.729A3.692,3.692,0,0,0,67.81,5.891a3.058,3.058,0,0,1,3.055-3.055h3.411A3.058,3.058,0,0,1,77.33,5.891a3.692,3.692,0,0,0,3.687,3.687h2.729a3.106,3.106,0,0,1,3.1,3.1v2.375a.728.728,0,0,1-.727.727h-27.1a.728.728,0,0,1-.727-.727ZM69.973,89.108a.562.562,0,0,1-.858-.687l4.363-8.761,4.1,3.283ZM79.6,80.932,75,77.242l30.358-37.877,4.6,3.689Zm36.433-45.456-4.3,5.366-4.6-3.689,4.3-5.366a2.95,2.95,0,0,1,4.6,3.689Z" transform="translate(0 0)"/>
    </g>
  </g>
</svg>
