<svg xmlns="http://www.w3.org/2000/svg" width="98" height="98" viewBox="0 0 98 98">
  <g id="Grupo_1100017" data-name="Grupo 1100017" transform="translate(-751.051 -3100)">
    <rect id="Rectángulo_401496" data-name="Rectángulo 401496" width="98" height="98" rx="49" transform="translate(751.051 3100)" fill="#2436b1"/>
    <g id="argumentos" transform="translate(760.051 3108.869)">
      <g id="Grupo_1100015" data-name="Grupo 1100015" transform="translate(1.184 1.314)">
        <g id="Grupo_1100004" data-name="Grupo 1100004" transform="translate(0 46.708)">
          <path id="Trazado_874550" data-name="Trazado 874550" d="M25.923,307.317a10.443,10.443,0,1,1-7.973-3.7,10.51,10.51,0,0,1,4.75,1.171l3.223-.716Z" transform="translate(-7.506 -303.617)" fill="#fff6e0"/>
        </g>
        <g id="Grupo_1100013" data-name="Grupo 1100013" transform="translate(9.77)">
          <g id="Grupo_1100010" data-name="Grupo 1100010" transform="translate(5.661 9.576)">
            <path id="Trazado_874551" data-name="Trazado 874551" d="M301.522,117.818h-.006a8.84,8.84,0,0,1-8.84-8.84V77.154a8.84,8.84,0,0,1,8.84-8.84h.006a8.84,8.84,0,0,1,8.84,8.84v31.824A8.84,8.84,0,0,1,301.522,117.818Z" transform="translate(-263.106 -68.314)" fill="#828cb3"/>
            <ellipse id="Elipse_11526" data-name="Elipse 11526" cx="5.553" cy="5.55" rx="5.553" ry="5.55" transform="translate(25.641 3.163)" fill="#ffea00"/>
            <g id="Grupo_1100009" data-name="Grupo 1100009" transform="translate(0 5.272)">
              <g id="Grupo_1100007" data-name="Grupo 1100007">
                <g id="Grupo_1100006" data-name="Grupo 1100006">
                  <path id="Trazado_874552" data-name="Trazado 874552" d="M105.293,352.966V341.379a16.7,16.7,0,0,1,16.7-16.7h10.417a16.7,16.7,0,0,1,16.7,16.7v11.587Z" transform="translate(-105.293 -289.493)" fill="#ffea00"/>
                  <path id="Trazado_874553" data-name="Trazado 874553" d="M215.583,342.434h0a5.35,5.35,0,0,1-5.35-5.35v-7.248h10.7v7.248A5.35,5.35,0,0,1,215.583,342.434Z" transform="translate(-193.67 -293.838)" fill="#ffcab9"/>
                  <path id="Trazado_874554" data-name="Trazado 874554" d="M167.035,142.847h-.041a14.432,14.432,0,0,1-14.432-14.432V116.156a14.432,14.432,0,0,1,14.432-14.432h.041l14.432,19.48v7.211A14.432,14.432,0,0,1,167.035,142.847Z" transform="translate(-145.103 -101.724)" fill="#ffcab9"/>
                  <g id="Grupo_1100005" data-name="Grupo 1100005" transform="translate(18.756 10.96)">
                    <path id="Trazado_874555" data-name="Trazado 874555" d="M235.442,171.175v15.731A14.436,14.436,0,0,1,224.146,201a14.475,14.475,0,0,0,3.135.343h.041a14.432,14.432,0,0,0,14.432-14.432V179.7Z" transform="translate(-224.146 -171.175)" fill="#fabba7"/>
                  </g>
                </g>
              </g>
              <path id="Trazado_874556" data-name="Trazado 874556" d="M152.562,122.286v-6.1a14.452,14.452,0,1,1,28.9,0V121.2c-8.463,0-11.189-8.466-11.189-8.466s-2.286,9.548-17.716,9.548" transform="translate(-145.103 -101.725)" fill="#828cb3"/>
              <g id="Grupo_1100008" data-name="Grupo 1100008" transform="translate(18.756)">
                <path id="Trazado_874557" data-name="Trazado 874557" d="M227.3,101.724a14.493,14.493,0,0,0-3.156.347,14.461,14.461,0,0,1,11.3,14.11v3.081a10.785,10.785,0,0,0,6.312,1.941v-5.023A14.455,14.455,0,0,0,227.3,101.724Z" transform="translate(-224.146 -101.724)" fill="#717eb3"/>
              </g>
            </g>
          </g>
          <g id="Grupo_1100011" data-name="Grupo 1100011">
            <path id="Trazado_874558" data-name="Trazado 874558" d="M92.518,29.171a13.1,13.1,0,1,0-10,4.641,13.183,13.183,0,0,0,5.958-1.468l4.042.9V29.171Z" transform="translate(-69.418 -7.63)" fill="#fff6e0"/>
            <path id="Trazado_874559" data-name="Trazado 874559" d="M135.355,7.63a13.126,13.126,0,0,0-3.156.385,13.1,13.1,0,0,1,9.944,12.706,13.494,13.494,0,0,1-9.987,12.7,12.934,12.934,0,0,0,9.157-1.073l4.042.9V29.171a13.085,13.085,0,0,0-10-21.541Z" transform="translate(-122.256 -7.63)" fill="#fff0cc"/>
          </g>
          <g id="Grupo_1100012" data-name="Grupo 1100012" transform="translate(39.303 52.247)">
            <path id="Trazado_874560" data-name="Trazado 874560" d="M321.58,343.359a13.1,13.1,0,1,0,10-4.641,13.183,13.183,0,0,0-5.958,1.468l-4.042-.9v4.071Z" transform="translate(-318.481 -338.718)" fill="#fff6e0"/>
            <path id="Trazado_874561" data-name="Trazado 874561" d="M384.65,338.718a12.6,12.6,0,0,0-3.113.395,13.09,13.09,0,0,1-.043,25.4,13.092,13.092,0,1,0,3.156-25.8Z" transform="translate(-371.55 -338.718)" fill="#fff0cc"/>
          </g>
        </g>
        <g id="Grupo_1100014" data-name="Grupo 1100014" transform="translate(57.541 15.54)">
          <path id="Trazado_874562" data-name="Trazado 874562" d="M374.613,123.283a10.443,10.443,0,1,1,7.973,3.7,10.51,10.51,0,0,1-4.75-1.171l-3.223.716Z" transform="translate(-372.142 -106.109)" fill="#fff6e0"/>
          <path id="Trazado_874563" data-name="Trazado 874563" d="M421.48,106.109a10.444,10.444,0,0,0-3.156.486,10.436,10.436,0,0,1,.036,19.889,10.155,10.155,0,0,0,3.12.5,10.437,10.437,0,1,0,0-20.873Z" transform="translate(-411.036 -106.109)" fill="#fff0cc"/>
        </g>
      </g>
      <g id="Grupo_1100016" data-name="Grupo 1100016" transform="translate(0 0.13)">
        <path id="Trazado_874564" data-name="Trazado 874564" d="M92.091,361.267a1.184,1.184,0,0,0,0,2.367A1.184,1.184,0,0,0,92.091,361.267Z" transform="translate(-76.596 -304.278)"/>
        <path id="Trazado_874565" data-name="Trazado 874565" d="M67.586,361.267a1.184,1.184,0,0,0,0,2.367A1.184,1.184,0,0,0,67.586,361.267Z" transform="translate(-55.958 -304.278)"/>
        <path id="Trazado_874566" data-name="Trazado 874566" d="M43.08,361.267a1.184,1.184,0,0,0,0,2.367A1.184,1.184,0,0,0,43.08,361.267Z" transform="translate(-35.319 -304.278)"/>
        <path id="Trazado_874567" data-name="Trazado 874567" d="M177.066,84.323a1.184,1.184,0,0,0,0,2.367A1.184,1.184,0,0,0,177.066,84.323Z" transform="translate(-148.162 -71.037)"/>
        <path id="Trazado_874568" data-name="Trazado 874568" d="M146.328,84.323a1.184,1.184,0,0,0,0,2.367A1.184,1.184,0,0,0,146.328,84.323Z" transform="translate(-122.274 -71.037)"/>
        <path id="Trazado_874569" data-name="Trazado 874569" d="M115.59,84.323a1.184,1.184,0,0,0,0,2.367A1.184,1.184,0,0,0,115.59,84.323Z" transform="translate(-96.387 -71.037)"/>
        <path id="Trazado_874570" data-name="Trazado 874570" d="M65.055,52.479V38.131c7.428,3,15.853-2.863,15.741-10.84A11.671,11.671,0,0,0,64.562,16.624a10.065,10.065,0,0,0-16.847-3.751,6.775,6.775,0,0,0-5.23,2.609,15.8,15.8,0,0,0-4.159-.5A14.437,14.437,0,0,0,24.054.13a14.2,14.2,0,0,0-5.56,1.122,1.184,1.184,0,0,0,.922,2.18c11.594-4.7,21.694,9,13.736,18.657-.623.736-.281,2.5-.281,3.361-.867-.193-2.529-.918-3.395-.478-11.658,5.8-22.733-8.22-14.531-18.24A1.184,1.184,0,0,0,13.136,5.2C5.6,14.025,11.527,27.876,23.014,28.64a15.786,15.786,0,0,0-.123,1.953V42.853a15.528,15.528,0,0,0,2.853,8.987,17.75,17.75,0,0,0-3.409,2.091,11.7,11.7,0,0,0-1.55-2.63V48.475a1.183,1.183,0,0,0-1.44-1.155l-2.82.627A11.614,11.614,0,1,0,15.432,69.44V79.634a1.184,1.184,0,0,0,2.367,0V68.048a15.524,15.524,0,0,1,9.519-14.314,15.686,15.686,0,0,0,4.673,3.309v2.365a6.536,6.536,0,0,0,13.071,0V57.042a15.689,15.689,0,0,0,4.675-3.31,15.5,15.5,0,0,1,2.436,1.289v2.757a14.27,14.27,0,0,0-3.1,8.873,1.184,1.184,0,0,0,2.367,0,11.9,11.9,0,0,1,2.819-7.685c.623-.736.281-2.5.281-3.361.868.193,2.528.918,3.395.478,7.78-4.153,17.434,1.81,17.338,10.567C75.141,79.025,58.732,83.1,52.828,72.233a1.184,1.184,0,0,0-2.09,1.112c7.081,13.026,26.744,8.136,26.9-6.694A14.3,14.3,0,0,0,65.055,52.479Zm-49.583,14.4a9.248,9.248,0,1,1,.37-16.631,4.176,4.176,0,0,0,2.575-.3,4.03,4.03,0,0,0,.281,2.536,9.3,9.3,0,0,1,1.749,3.144,17.95,17.95,0,0,0-4.974,11.247ZM47.81,15.237a4.379,4.379,0,0,1,3.709,6.672,15.716,15.716,0,0,0-6.6-5.572,4.392,4.392,0,0,1,2.895-1.1ZM25.258,30.594a13.4,13.4,0,0,1,.149-1.983,14.357,14.357,0,0,0,4.753-1.338l3.637.809a1.183,1.183,0,0,0,1.44-1.155V23.278a14.272,14.272,0,0,0,2.789-5.921A13.4,13.4,0,0,1,51.8,30.594v3.8a11.077,11.077,0,0,1-8.879-7.581,1.192,1.192,0,0,0-2.276.08c-1.581,6.323-9.853,8.432-15.383,8.626V30.594ZM42.7,59.407a4.169,4.169,0,0,1-8.337,0v-1.5a15.769,15.769,0,0,0,8.337,0ZM38.548,56.1h-.041A13.263,13.263,0,0,1,25.258,42.853V37.886C31.5,37.678,38.377,35.66,41.8,30A13.053,13.053,0,0,0,51.8,36.771v6.082A13.263,13.263,0,0,1,38.548,56.1Zm24.094-3.7a14.253,14.253,0,0,0-5.391,1.387,17.535,17.535,0,0,0-3.927-.835,17.883,17.883,0,0,0-2.015-1.107,15.528,15.528,0,0,0,2.854-8.989V30.594a15.524,15.524,0,0,0-1.39-6.438A6.757,6.757,0,0,0,50.606,13.48a7.7,7.7,0,0,1,11.841,4.339,11.657,11.657,0,0,0-2.434,16.63v2.825a1.183,1.183,0,0,0,1.44,1.155l1.235-.275ZM62.38,35.8a4.029,4.029,0,0,0-.281-2.535A9.284,9.284,0,1,1,64.955,35.5,4.2,4.2,0,0,0,62.38,35.8Z" transform="translate(0 -0.13)"/>
        <path id="Trazado_874571" data-name="Trazado 874571" d="M364.654,412.937a1.184,1.184,0,0,0,0,2.367A1.184,1.184,0,0,0,364.654,412.937Z" transform="translate(-306.147 -347.794)"/>
        <path id="Trazado_874572" data-name="Trazado 874572" d="M395.392,412.937a1.184,1.184,0,0,0,0,2.367A1.184,1.184,0,0,0,395.392,412.937Z" transform="translate(-332.035 -347.794)"/>
        <path id="Trazado_874573" data-name="Trazado 874573" d="M426.129,412.937a1.184,1.184,0,0,0,0,2.367A1.184,1.184,0,0,0,426.129,412.937Z" transform="translate(-357.921 -347.794)"/>
        <path id="Trazado_874574" data-name="Trazado 874574" d="M407.716,165.733a1.184,1.184,0,0,0,0,2.367A1.184,1.184,0,0,0,407.716,165.733Z" transform="translate(-342.414 -139.6)"/>
        <path id="Trazado_874575" data-name="Trazado 874575" d="M432.222,165.733a1.184,1.184,0,0,0,0,2.367A1.184,1.184,0,0,0,432.222,165.733Z" transform="translate(-363.053 -139.6)"/>
        <path id="Trazado_874576" data-name="Trazado 874576" d="M456.728,168.1a1.184,1.184,0,0,0,0-2.367A1.184,1.184,0,0,0,456.728,168.1Z" transform="translate(-383.692 -139.6)"/>
      </g>
    </g>
  </g>
</svg>
