<svg xmlns="http://www.w3.org/2000/svg" width="98" height="98" viewBox="0 0 98 98">
  <g id="Grupo_1100018" data-name="Grupo 1100018" transform="translate(-1171.051 -3100)">
    <rect id="Rectángulo_401489" data-name="Rectángulo 401489" width="98" height="98" rx="49" transform="translate(1171.051 3100)" fill="#2436b1"/>
    <g id="argumento" transform="translate(1159.076 3116)">
      <path id="Trazado_874577" data-name="Trazado 874577" d="M96.517,46.7a1.658,1.658,0,0,0,1.2-2.441L92.9,35.541c0-.024,0-.048,0-.073,0-.647-.025-4.273-.072-4.908l-.2-1.812C90.831,16.521,80.356,10.1,67.653,10a25.47,25.47,0,0,0-8.772,49.457L56.3,71.591l20.5,2.717L79.792,63.2c.039.049,10.964.966,11.174.966a2.154,2.154,0,0,0,2.227-2.227V47.264Z" transform="translate(-8.692 -8.693)" fill="#ffdaae"/>
      <path id="Trazado_874578" data-name="Trazado 874578" d="M280.693,403.924a1.287,1.287,0,0,1-.255-.025,1.319,1.319,0,0,1-.244-.074,1.29,1.29,0,0,1-.226-.12,1.31,1.31,0,0,1-.582-1.088,1.285,1.285,0,0,1,.026-.255,1.321,1.321,0,0,1,.074-.244,1.3,1.3,0,0,1,.12-.226,1.269,1.269,0,0,1,.361-.361,1.3,1.3,0,0,1,.226-.12,1.307,1.307,0,0,1,1.587.481,1.287,1.287,0,0,1,.119.226,1.323,1.323,0,0,1,.076.244,1.392,1.392,0,0,1,.025.255,1.307,1.307,0,0,1-1.307,1.307Z" transform="translate(-215.072 -348.857)"/>
      <path id="Trazado_874579" data-name="Trazado 874579" d="M100.044,135.052l-5.32,1.425,1.456-5.434a11.682,11.682,0,1,1,3.864,4.009Z" transform="translate(-54.438 -98.661)" fill="#ff5a5a"/>
      <path id="Trazado_874580" data-name="Trazado 874580" d="M202.684,67.408a11.681,11.681,0,0,0-22.612-4.118c.169-.007.338-.01.508-.01a11.687,11.687,0,0,1,10.933,15.8,11.605,11.605,0,0,0,5.725-1.791l5.32,1.425L201.1,73.274A11.635,11.635,0,0,0,202.684,67.408Z" transform="translate(-128.739 -48.444)" fill="#ff8c5a"/>
      <path id="Trazado_874581" data-name="Trazado 874581" d="M125.015,196.245a1.289,1.289,0,0,1-.255-.026,1.318,1.318,0,0,1-.244-.075,1.29,1.29,0,0,1-.226-.12,1.27,1.27,0,0,1-.361-.361,1.3,1.3,0,0,1-.12-.226,1.33,1.33,0,0,1-.075-.244,1.288,1.288,0,0,1-.026-.255,1.311,1.311,0,0,1,.026-.256,1.393,1.393,0,0,1,.075-.244,1.336,1.336,0,0,1,.12-.225,1.3,1.3,0,0,1,.361-.362,1.291,1.291,0,0,1,.226-.12,1.3,1.3,0,0,1,1.423.284,1.3,1.3,0,0,1,.284.423,1.384,1.384,0,0,1,.074.244,1.308,1.308,0,0,1-1.282,1.563Z" transform="translate(-79.743 -168.321)"/>
      <path id="Trazado_874582" data-name="Trazado 874582" d="M90.17,34.933l-4.652-8.421c0-1.022-.027-4.105-.075-4.741,0-.016,0-.031,0-.047l-.2-1.812c0-.015,0-.03-.006-.046A21.527,21.527,0,0,0,76.3,5.067C71.7,1.805,65.71.053,58.971,0H58.76A26.777,26.777,0,0,0,48.678,51.587L46.333,62.626a1.307,1.307,0,0,0,1.107,1.567l20.5,2.718a1.306,1.306,0,0,0,1.434-.956l2.7-10.036.643.058c1.207.108,2.731.239,3.8.33.92.078,5.521.469,5.762.469A3.547,3.547,0,0,0,84.864,55.7a3.384,3.384,0,0,0,.945-2.477V39.674l2.227-.379a2.965,2.965,0,0,0,2.134-4.363Zm-2.28,1.589a.338.338,0,0,1-.262.192l-.022,0-3.323.566a1.307,1.307,0,0,0-1.088,1.289V53.243q0,.027,0,.055a.782.782,0,0,1-.219.589.951.951,0,0,1-.676.276c-.745-.047-10.087-.833-10.949-.941a1.307,1.307,0,0,0-1.514.943l-2.692,10L49.183,61.788,51.2,52.293l9.027,1.763a1.307,1.307,0,1,0,.5-2.566L50.542,49.5A24.162,24.162,0,0,1,58.76,2.614h.19c13.022.1,22.1,6.847,23.69,17.608l.2,1.763c.026.4.046,1.976.058,3.242h-2.8a1.307,1.307,0,0,0,0,2.614h3.174L87.882,36.2A.338.338,0,0,1,87.889,36.521Z" transform="translate(0 0)"/>
      <path id="Trazado_874583" data-name="Trazado 874583" d="M108.01,45.729a12.985,12.985,0,0,0-11.83,7.627A12.986,12.986,0,0,0,86.088,72.3l-1.32,4.925a1.307,1.307,0,0,0,1.6,1.6l4.784-1.281a12.943,12.943,0,0,0,6.429,1.705h0a13,13,0,0,0,11.829-7.629A12.968,12.968,0,0,0,114.442,70l4.784,1.281a1.307,1.307,0,0,0,1.6-1.6l-1.32-4.925a12.986,12.986,0,0,0-11.5-19.024ZM97.586,76.639h0a10.333,10.333,0,0,1-5.533-1.6,1.307,1.307,0,0,0-1.037-.158l-3.134.839.87-3.248a1.307,1.307,0,0,0-.133-1,10.372,10.372,0,1,1,19.269-6.415H96.222a1.307,1.307,0,1,0,0,2.614h11.639c-.005.039-.009.079-.015.118s-.013.084-.02.125c-.021.129-.044.258-.069.386l-.02.1q-.044.208-.1.414l-.016.064q-.06.23-.13.456l0,.015A10.392,10.392,0,0,1,97.586,76.639Zm19.261-11.719.87,3.248-3.134-.839a1.306,1.306,0,0,0-1.037.158,10.337,10.337,0,0,1-3.225,1.341,12.961,12.961,0,0,0,.213-1.548l0-.018q.011-.142.018-.285c0-.016,0-.031,0-.047,0-.089.008-.179.01-.268,0-.021,0-.042,0-.064q0-.165,0-.331c0-.2-.005-.39-.014-.583,0-.017,0-.035,0-.052-.009-.184-.022-.367-.039-.549,0-.025,0-.051-.007-.077q-.026-.266-.062-.528l-.012-.086q-.038-.26-.086-.516l-.016-.085q-.05-.258-.11-.512l-.018-.073q-.063-.26-.136-.517l-.014-.046q-.077-.265-.165-.525l0-.01c-.059-.173-.122-.345-.188-.515l-.02-.053q-.1-.243-.2-.481l-.032-.072q-.1-.232-.216-.459l-.039-.079q-.113-.225-.234-.444l-.042-.076q-.124-.221-.256-.436l-.04-.064q-.137-.22-.282-.435l-.028-.04q-.149-.218-.307-.43l-.013-.018c-.106-.142-.215-.281-.327-.418l-.04-.05q-.161-.2-.33-.386l-.056-.063q-.166-.185-.339-.363l-.064-.066q-.173-.176-.354-.346l-.065-.061q-.183-.17-.373-.334l-.058-.049c-.131-.111-.264-.221-.4-.327l-.037-.029q-.206-.161-.419-.313l-.025-.018q-.214-.153-.436-.3l-.057-.038q-.213-.137-.432-.266l-.074-.044q-.216-.126-.436-.243l-.082-.043q-.222-.116-.448-.224l-.08-.037q-.231-.108-.466-.207l-.067-.028c-.163-.067-.327-.132-.494-.193l-.038-.013q-.252-.091-.509-.173l-.031-.01c-.171-.054-.344-.1-.519-.15l-.066-.018q-.253-.066-.51-.122l-.083-.018q-.253-.054-.51-.1l-.09-.015q-.258-.042-.519-.074l-.036-.005a10.372,10.372,0,0,1,17.858,10.555A1.306,1.306,0,0,0,116.846,64.921Z" transform="translate(-45.745 -39.752)"/>
    </g>
  </g>
</svg>
