<svg xmlns="http://www.w3.org/2000/svg" width="82" height="82" viewBox="0 0 82 82">
  <g id="Grupo_1100020" data-name="Grupo 1100020" transform="translate(-768.051 -1033)">
    <circle id="Elipse_11497" data-name="Elipse 11497" cx="41" cy="41" r="41" transform="translate(768.051 1033)" fill="#ff9b6a"/>
    <g id="senal-de-trafico" transform="translate(783.051 1047.997)">
      <path id="Trazado_874585" data-name="Trazado 874585" d="M17.858,14.181h-6a.123.123,0,0,0-.087.036l-4.24,4.239a.123.123,0,0,0-.036.087v6a.123.123,0,0,0,.036.087l4.24,4.24a.123.123,0,0,0,.087.036h6a.123.123,0,0,0,.087-.036l4.24-4.24a.123.123,0,0,0,.036-.087v-6a.123.123,0,0,0-.036-.087l-4.24-4.24A.123.123,0,0,0,17.858,14.181Z" transform="translate(-6.734 -12.73)" fill="#f1f4f6"/>
      <path id="Trazado_874586" data-name="Trazado 874586" d="M42.114,18.456l-4.24-4.24a.123.123,0,0,0-.087-.036H35.8L37.419,15.8a2.2,2.2,0,0,1,.644,1.555v3.572a3.9,3.9,0,0,1-1.141,2.756l-2.029,2.029a3.9,3.9,0,0,1-2.756,1.141H29.7l2.007,2.007a.123.123,0,0,0,.087.036h6a.123.123,0,0,0,.087-.036l4.24-4.24a.123.123,0,0,0,.036-.087v-6A.123.123,0,0,0,42.114,18.456Z" transform="translate(-26.664 -12.729)" fill="#dfeaef"/>
      <path id="Trazado_874587" data-name="Trazado 874587" d="M35.546,48.982l-2.729-2.729a.118.118,0,0,1-.035-.084V42.31a.118.118,0,0,1,.035-.084L35.546,39.5a.118.118,0,0,1,.084-.035h3.859a.118.118,0,0,1,.084.035L42.3,42.227a.118.118,0,0,1,.035.084V46.17a.118.118,0,0,1-.035.084l-2.729,2.729a.118.118,0,0,1-.084.035H35.629A.118.118,0,0,1,35.546,48.982Z" transform="translate(-29.433 -35.429)" fill="#dd636e"/>
      <path id="Trazado_874588" data-name="Trazado 874588" d="M76.887,52.132v2.873a3.9,3.9,0,0,1-1.141,2.756L73.717,59.79a3.9,3.9,0,0,1-.777.6h2.6a.118.118,0,0,0,.084-.035l2.729-2.729a.118.118,0,0,0,.035-.084v-3.86a.118.118,0,0,0-.035-.084Z" transform="translate(-65.488 -46.803)" fill="#da4a54"/>
      <path id="Trazado_874589" data-name="Trazado 874589" d="M66.825,158.254h2.6v31.935h-2.6Z" transform="translate(-59.997 -142.082)" fill="#9bb9c1"/>
      <circle id="Elipse_11527" data-name="Elipse 11527" cx="7.36" cy="7.36" r="7.36" transform="translate(36.826 1.451)" fill="#f1f4f6"/>
      <path id="Trazado_874590" data-name="Trazado 874590" d="M184.527,23.43l-7.517-7.517a.526.526,0,0,1,0-.744l7.517-7.517a.526.526,0,0,1,.744,0l7.517,7.517a.526.526,0,0,1,0,.744l-7.517,7.517A.526.526,0,0,1,184.527,23.43Z" transform="translate(-158.786 -6.729)" fill="#f4dd45"/>
      <path id="Trazado_874591" data-name="Trazado 874591" d="M388.107,14.957a7.36,7.36,0,0,1-5.171,12.6,7.412,7.412,0,0,1-1.084-.079,7.36,7.36,0,1,0,6.255-12.518Z" transform="translate(-342.836 -13.426)" fill="#dfeaef"/>
      <path id="Trazado_874592" data-name="Trazado 874592" d="M236.528,15.169l-7.517-7.517a.526.526,0,0,0-.744,0l-.65.65,3.331,3.331a2.638,2.638,0,0,1,0,3.73l-5.374,5.374,2.693,2.693a.526.526,0,0,0,.744,0l7.517-7.517a.526.526,0,0,0,0-.744Z" transform="translate(-202.527 -6.729)" fill="#f1d333"/>
      <path id="Trazado_874593" data-name="Trazado 874593" d="M421.052,157.249a7.4,7.4,0,0,1-1.3-.114v32.049h2.6V157.135A7.4,7.4,0,0,1,421.052,157.249Z" transform="translate(-376.866 -141.078)" fill="#9bb9c1"/>
      <path id="Trazado_874594" data-name="Trazado 874594" d="M244.534,155.286a.526.526,0,0,1-.744,0l-.927-.927v32.332h2.6V154.359Z" transform="translate(-218.049 -138.585)" fill="#9bb9c1"/>
      <g id="Grupo_1100019" data-name="Grupo 1100019" transform="translate(6.828 15.774)">
        <path id="Trazado_874595" data-name="Trazado 874595" d="M243.791,155.286l-.927-.927V156.4l.927.927a.526.526,0,0,0,.744,0l.927-.927v-2.043l-.927.927A.526.526,0,0,1,243.791,155.286Z" transform="translate(-224.878 -154.359)" fill="#86a0af"/>
        <path id="Trazado_874596" data-name="Trazado 874596" d="M66.825,158.253h2.6V160.3h-2.6Z" transform="translate(-66.825 -157.855)" fill="#86a0af"/>
        <path id="Trazado_874597" data-name="Trazado 874597" d="M421.052,157.249a7.4,7.4,0,0,1-1.3-.114v2.043a7.44,7.44,0,0,0,2.6,0v-2.043A7.4,7.4,0,0,1,421.052,157.249Z" transform="translate(-383.693 -156.851)" fill="#86a0af"/>
      </g>
      <circle id="Elipse_11528" data-name="Elipse 11528" cx="4.777" cy="4.777" r="4.777" transform="translate(39.409 4.035)" fill="#4073c8"/>
      <path id="Trazado_874598" data-name="Trazado 874598" d="M422.215,58.952a4.777,4.777,0,0,0,4.148-8.295,7.372,7.372,0,0,1-4.148,8.295Z" transform="translate(-379.076 -45.479)" fill="#3b66c1"/>
      <path id="Trazado_874599" data-name="Trazado 874599" d="M35.313,474.251H24.21a.113.113,0,0,1-.113-.113v-1.047a2.282,2.282,0,0,1,2.282-2.282h6.765a2.282,2.282,0,0,1,2.282,2.282v1.047A.113.113,0,0,1,35.313,474.251Z" transform="translate(-21.635 -422.703)" fill="#d0e2e7"/>
      <path id="Trazado_874600" data-name="Trazado 874600" d="M211.351,474.251h-11.1a.113.113,0,0,1-.113-.113v-1.047a2.282,2.282,0,0,1,2.282-2.282h6.765a2.282,2.282,0,0,1,2.282,2.282v1.047A.113.113,0,0,1,211.351,474.251Z" transform="translate(-179.687 -422.703)" fill="#d0e2e7"/>
      <path id="Trazado_874601" data-name="Trazado 874601" d="M388.24,474.251h-11.1a.113.113,0,0,1-.113-.113v-1.047a2.282,2.282,0,0,1,2.282-2.282h6.765a2.282,2.282,0,0,1,2.282,2.282v1.047A.113.113,0,0,1,388.24,474.251Z" transform="translate(-338.503 -422.703)" fill="#d0e2e7"/>
      <path id="Trazado_874602" data-name="Trazado 874602" d="M11.752,6.94a.883.883,0,0,0-.628-.26h-6a.884.884,0,0,0-.629.26L.26,11.18a.883.883,0,0,0-.26.629v1.478a.766.766,0,0,0,1.533,0V12.075L5.4,8.213h5.463l3.863,3.863v5.462L10.858,21.4H5.4L1.533,17.538v-.675a.766.766,0,0,0-1.533,0V17.8a.882.882,0,0,0,.26.629l4.24,4.24a.883.883,0,0,0,.629.26h.933v30.4H4.744A3.052,3.052,0,0,0,1.7,56.383v1.047a.88.88,0,0,0,.879.879h11.1a.88.88,0,0,0,.879-.879V56.383a3.052,3.052,0,0,0-3.048-3.048H10.191v-30.4h.933a.883.883,0,0,0,.629-.26l4.239-4.239a.883.883,0,0,0,.261-.629v-6a.883.883,0,0,0-.26-.629Zm1.272,49.443v.394h-9.8v-.394a1.517,1.517,0,0,1,1.516-1.516h6.765A1.517,1.517,0,0,1,13.025,56.383ZM8.659,53.335H7.594v-30.4H8.659Z" transform="translate(0 -5.995)"/>
      <path id="Trazado_874603" data-name="Trazado 874603" d="M28.9,43.049h3.859a.879.879,0,0,0,.626-.259l2.729-2.729a.879.879,0,0,0,.259-.626V35.576a.879.879,0,0,0-.259-.626l-2.729-2.729a.879.879,0,0,0-.626-.259H28.9a.879.879,0,0,0-.626.259L25.541,34.95a.879.879,0,0,0-.259.626v3.859a.879.879,0,0,0,.259.626L28.27,42.79a.88.88,0,0,0,.626.259Zm-2.081-7.2,2.349-2.349h3.323l2.349,2.349v3.323l-2.349,2.349H29.164l-2.349-2.349Z" transform="translate(-22.699 -28.694)"/>
      <path id="Trazado_874604" data-name="Trazado 874604" d="M361.053,6.681a8.127,8.127,0,0,0-2.065,15.987V53.336h-1.318a3.052,3.052,0,0,0-3.048,3.048v1.047a.88.88,0,0,0,.879.879h11.1a.88.88,0,0,0,.879-.879V56.384a3.052,3.052,0,0,0-3.048-3.048h-1.318V22.667a8.12,8.12,0,0,0,3.209-1.677.766.766,0,1,0-1-1.165,6.574,6.574,0,1,1,1.879-2.655.766.766,0,1,0,1.431.549,8.131,8.131,0,0,0-7.589-11.037Zm4.9,49.7v.394h-9.8v-.394a1.517,1.517,0,0,1,1.516-1.516h6.765A1.517,1.517,0,0,1,365.952,56.384Zm-4.366-33.468V53.336h-1.065V22.917a8.14,8.14,0,0,0,1.065,0Z" transform="translate(-316.868 -5.996)"/>
      <path id="Trazado_874605" data-name="Trazado 874605" d="M179.078.381a1.294,1.294,0,0,0-1.828,0L169.734,7.9a1.292,1.292,0,0,0,0,1.828l6.366,6.366V28.546a.766.766,0,0,0,1.533,0V17.506a1.3,1.3,0,0,0,1.065,0V47.34h-1.065V32.123a.766.766,0,0,0-1.533,0V47.34h-1.318a3.052,3.052,0,0,0-3.048,3.048v1.047a.88.88,0,0,0,.879.879h11.1a.88.88,0,0,0,.879-.879V50.388a3.052,3.052,0,0,0-3.048-3.048h-1.318V16.091l6.366-6.366a1.292,1.292,0,0,0,0-1.828Zm3.984,50.007v.394h-9.8v-.394a1.517,1.517,0,0,1,1.516-1.516h6.765A1.517,1.517,0,0,1,183.062,50.388Zm-4.9-34.4-7.177-7.177,7.177-7.177,7.177,7.177Z" transform="translate(-152.052 0)"/>
      <path id="Trazado_874606" data-name="Trazado 874606" d="M208.159,34.36,203.718,38.8a.886.886,0,0,0,0,1.251l4.441,4.441a.886.886,0,0,0,1.251,0l4.441-4.441a.886.886,0,0,0,0-1.251L209.41,34.36A.886.886,0,0,0,208.159,34.36Zm4.15,5.066-3.524,3.524-3.524-3.524,3.524-3.524Z" transform="translate(-182.672 -30.614)"/>
      <path id="Trazado_874607" data-name="Trazado 874607" d="M383.754,31.965a5.543,5.543,0,1,0,5.543,5.543A5.549,5.549,0,0,0,383.754,31.965Zm0,9.554a4.01,4.01,0,1,1,4.01-4.01A4.015,4.015,0,0,1,383.754,41.519Z" transform="translate(-339.568 -28.697)"/>
    </g>
  </g>
</svg>
