<svg xmlns="http://www.w3.org/2000/svg" width="82" height="82" viewBox="0 0 82 82">
  <g id="Grupo_1100021" data-name="Grupo 1100021" transform="translate(-1084.051 -1033)">
    <circle id="Elipse_11497" data-name="Elipse 11497" cx="41" cy="41" r="41" transform="translate(1084.051 1033)" fill="#ff9b6a"/>
    <g id="filled_outline" data-name="filled outline" transform="translate(1080.051 1025)">
      <path id="Trazado_874608" data-name="Trazado 874608" d="M24,24H80.127V46.257H68.515l-3.871,5.806V46.257H24Z" transform="translate(-7.032 -3.516)" fill="#fcc419"/>
      <path id="Trazado_874609" data-name="Trazado 874609" d="M362.645,73.322a.968.968,0,0,1,.966,1.032.99.99,0,0,1-1,.9h-.239a.968.968,0,0,1,.926,1.247.99.99,0,0,1-.955.688h-.668a.968.968,0,0,1,.968.968h0a.968.968,0,0,1-.968.968h-4.583a2.953,2.953,0,0,1-2.088-.865l-.1-.1H352V72.355h2.9v-.52a1.21,1.21,0,0,1,.291-.787L357.806,68l.774.581a1.452,1.452,0,0,1,.29,2.032l-.581.774h7.742a.968.968,0,0,1,.968.968h0a.968.968,0,0,1-.968.968h-3.871" transform="translate(-295.356 -42.194)" fill="#f5a000"/>
      <path id="Trazado_874610" data-name="Trazado 874610" d="M326.774,331.612l-1.935-6.774H320l2.98,9.685a4.1,4.1,0,0,0,3.92,2.9h0a4.1,4.1,0,0,0,3.808-2.578l4.775-11.937,3.331-.833a1.21,1.21,0,0,0,.789-.633l.369-.738a.484.484,0,0,0-.433-.7h-7.12a1.21,1.21,0,0,0-1.117.744Z" transform="translate(-267.227 -263.711)" fill="#ff99c0"/>
      <path id="Trazado_874611" data-name="Trazado 874611" d="M39.722,331.612l1.935-6.774H46.5l-2.98,9.685a4.1,4.1,0,0,1-3.92,2.9h0a4.1,4.1,0,0,1-3.808-2.578L31.013,322.9l-3.331-.833a1.21,1.21,0,0,1-.789-.633l-.369-.738a.484.484,0,0,1,.433-.7h7.12a1.21,1.21,0,0,1,1.117.744Z" transform="translate(-9.206 -263.711)" fill="#ff99c0"/>
      <path id="Trazado_874612" data-name="Trazado 874612" d="M152.764,314.749,152,317.806h4.839v12.58h15.483v-12.58h4.839l-.764-3.057A3.629,3.629,0,0,0,172.876,312H156.285a3.629,3.629,0,0,0-3.521,2.749Z" transform="translate(-119.549 -256.679)" fill="#3b69b0"/>
      <rect id="Rectángulo_401538" data-name="Rectángulo 401538" width="15.69" height="2.989" transform="translate(36.921 73.359)" fill="#0e3e86"/>
      <path id="Trazado_874613" data-name="Trazado 874613" d="M47.612,75.871h-2.9v-.283a1.656,1.656,0,0,0-.485-1.169,1.652,1.652,0,0,1-.483-1.167V72h-.968a1.452,1.452,0,0,0-1.452,1.452V74.9H37a.99.99,0,0,0-1,.9.968.968,0,0,0,.966,1.032A.968.968,0,0,0,36,77.871a.99.99,0,0,0,1,.9h.239a.968.968,0,0,0-.926,1.247.99.99,0,0,0,.955.688h.6a.954.954,0,0,0-.876,1.2.917.917,0,0,0,.876.733h5.19a1.656,1.656,0,0,0,1.169-.485,1.652,1.652,0,0,1,1.167-.483h2.219Z" transform="translate(-17.58 -45.71)" fill="#f5a000"/>
      <path id="Trazado_874614" data-name="Trazado 874614" d="M162.04,63.129v-.968a1.452,1.452,0,0,0-1.452-1.452h-.847V52.5c-.853-.971-1.935-.379-1.935.465v3.387c0-.845-1.082-1.436-1.935-.465v.737a.968.968,0,0,0-1.2-.939h0a.968.968,0,0,0-.733.939V53.954c-.853-.971-1.935-.379-1.935.465v8.009a1.713,1.713,0,0,0,.5,1.2,1.652,1.652,0,0,1,.472,1.156V67h5.322V64.1h0a2.371,2.371,0,0,0,1.659-.677l.3-.29Z" transform="translate(-119.549 -28.129)" fill="#f5a000"/>
      <path id="Trazado_874615" data-name="Trazado 874615" d="M258.043,54.559l.61-.488a1.21,1.21,0,0,1,.756-.265h.827a1.652,1.652,0,0,1,1.168.484h0a1.652,1.652,0,0,1,.484,1.168v.759a.492.492,0,0,1-.492.492h0a1.149,1.149,0,0,1-.812-.336l-.631-.631-1.452.968h0a1.452,1.452,0,0,0,1.452,1.452h0l.645-.967a1.089,1.089,0,0,1,.906-.485h0a.385.385,0,0,1,.385.385v.765a3.326,3.326,0,0,1-.351,1.488l-.392.785a1.21,1.21,0,0,1-.7.607l-2.428.809v1.935h-4.839l-.922-7.839a2.422,2.422,0,0,1,.032-.768l1.011-4.941h0a1.337,1.337,0,0,1,1.31,1.605l-.463,2.266,1.089-5.322h0a1.536,1.536,0,0,1,1.51,1.822l-.663,3.5L257.17,48h0a1.573,1.573,0,0,1,1.557,1.8l-.683,4.763" transform="translate(-207.663 -24.613)" fill="#f5a000"/>
      <path id="Trazado_874616" data-name="Trazado 874616" d="M243.868,280.313v-5.458H240v5.458a1.934,1.934,0,0,0,1.938,1.934h0A1.934,1.934,0,0,0,243.868,280.313Z" transform="translate(-196.904 -224.027)" fill="#ff99c0"/>
      <path id="Trazado_874617" data-name="Trazado 874617" d="M245.8,227.367v3.927a2.2,2.2,0,0,1-2.2,2.2h-.544A3.061,3.061,0,0,1,240,230.428v-3.061a2.9,2.9,0,0,1,2.825-2.9h.15a2.9,2.9,0,0,1,2.825,2.9Z" transform="translate(-196.904 -179.734)" fill="#ff99c0"/>
      <path id="Trazado_874618" data-name="Trazado 874618" d="M232.8,229.415v-3a3.224,3.224,0,0,1,3.963-3.2,3.178,3.178,0,0,1,.7.254l.233.116a3.215,3.215,0,0,0,1.441.34h1.629v1.594q0,.062,0,.123a2.278,2.278,0,0,1-3.168,1.939l-2.379-1,.153.3a1.086,1.086,0,0,1-.408,1.42c-.039.023-.122.063-.122.063C233.97,228.8,232.8,229.415,232.8,229.415Z" transform="translate(-190.575 -178.556)" fill="#0e3e86"/>
      <circle id="Elipse_11529" data-name="Elipse 11529" cx="1.114" cy="1.114" r="1.114" transform="translate(42.225 49.508)" fill="#ff99c0"/>
      <path id="Trazado_874619" data-name="Trazado 874619" d="M78,231.611H70.88a1.689,1.689,0,0,0-1.563,1.042l-4,9.592L63,233.758a4.107,4.107,0,0,0-3.99-3.115H53.048v-.769a2.371,2.371,0,0,0,1.556-2.223v-2.317a2.8,2.8,0,0,0,1.556-2.519v-1.557a.484.484,0,0,0-.484-.484H54.085a2.68,2.68,0,0,1-1.193-.282l-.225-.112a3.588,3.588,0,0,0-.791-.287,3.641,3.641,0,0,0-1.361-.058,3.684,3.684,0,0,0-3.1,3.656v2.733h0a1.642,1.642,0,0,0,.775,1.4v4.421a2.429,2.429,0,0,0,4.857,0v-.637h5.967a3.14,3.14,0,0,1,3.051,2.382l.614,2.457H58.461a.484.484,0,0,0-.484.484v12.1H43.462v-12.1a.484.484,0,0,0-.484-.484H38.759l.614-2.457a3.14,3.14,0,0,1,3.051-2.382h4.425a.484.484,0,0,0,0-.968H42.424a4.107,4.107,0,0,0-3.989,3.115l-2.316,8.487-4-9.592a1.689,1.689,0,0,0-1.563-1.042h-7.12a.968.968,0,0,0-.866,1.4l.369.738a1.691,1.691,0,0,0,1.1.886l3.091.773,4.683,11.708a4.585,4.585,0,0,0,8.64-.355l2.034-6.61v12.266a.484.484,0,1,0,.968,0V250H57.977v2.419a.484.484,0,1,0,.968,0V240.151l2.034,6.609a4.585,4.585,0,0,0,8.64.355L74.3,235.407l3.091-.772a1.692,1.692,0,0,0,1.1-.886l.369-.738a.968.968,0,0,0-.865-1.4Zm-29.619-7.919a2.711,2.711,0,0,1,2.274-2.7,2.675,2.675,0,0,1,1,.043,2.627,2.627,0,0,1,.579.21l.225.113a3.652,3.652,0,0,0,1.626.384h1.107v1.073a1.84,1.84,0,0,1-1.427,1.8.97.97,0,0,1-.587-.062l-2.733-1.145a.484.484,0,0,0-.619.665l.15.3A.578.578,0,0,1,49.9,225a1.636,1.636,0,0,0-.837-.227h-.033a1.647,1.647,0,0,0-.651.146Zm3.272,9.588a1.461,1.461,0,0,1-2.494-1.033v-4.721a.484.484,0,0,0-.323-.456.677.677,0,0,1-.278-.185.694.694,0,0,1,0-.922.683.683,0,0,1,.985-.02.484.484,0,0,0,.537.1,1.55,1.55,0,0,0,.83-.893,1.534,1.534,0,0,0,.088-.457l1.8.754a1.972,1.972,0,0,0,.833.156v2.047a1.4,1.4,0,0,1-1.4,1.4,3.061,3.061,0,0,1-1.708-.517.484.484,0,0,0-.538.8,4.02,4.02,0,0,0,2.093.675v2.232A1.452,1.452,0,0,1,51.653,233.28Zm-12.117,13.2a3.618,3.618,0,0,1-6.817.28l-4.775-11.937a.484.484,0,0,0-.332-.29l-3.331-.833a.725.725,0,0,1-.473-.38l-.369-.738h7.12a.724.724,0,0,1,.67.447l4.528,10.868a.484.484,0,0,0,.912-.053l1.835-6.423h3.818Zm38.1-13.159a.725.725,0,0,1-.473.38l-3.331.832a.484.484,0,0,0-.332.29L68.72,246.755a3.618,3.618,0,0,1-6.817-.28l-2.787-9.059h3.818l1.835,6.423a.484.484,0,0,0,.912.053l4.528-10.868a.724.724,0,0,1,.67-.447H78Z" transform="translate(-5.688 -175.805)"/>
      <path id="Trazado_874620" data-name="Trazado 874620" d="M33,78.506a1.4,1.4,0,0,0,1.347,1.107h5.19a2.122,2.122,0,0,0,1.51-.625,1.16,1.16,0,0,1,.826-.342H44.1a.484.484,0,1,0,0-.968H41.877a2.122,2.122,0,0,0-1.51.625,1.16,1.16,0,0,1-.826.342H36.758a1.5,1.5,0,0,0,.081-.484,1.481,1.481,0,0,0-.364-.977,1.443,1.443,0,0,0-.008-1.926,1.443,1.443,0,0,0,0-1.935,1.437,1.437,0,0,0,.288-1.452h.569v.5a1.917,1.917,0,0,0,1.915,1.915.484.484,0,1,0,0-.968.949.949,0,0,1-.948-.948V69.935a.969.969,0,0,1,.968-.968h.484v1.168a1.16,1.16,0,0,0,.342.826l.567.567a.2.2,0,0,1,.059.142v.684a.484.484,0,0,0,.484.484h2.419v3.387a.484.484,0,1,0,.968,0V72.355a.484.484,0,0,0-.484-.484H41.677v-.2a1.16,1.16,0,0,0-.342-.826l-.567-.567a.2.2,0,0,1-.059-.142V68.484A.484.484,0,0,0,40.225,68h-.968a1.938,1.938,0,0,0-1.935,1.935V70.9H33.452a1.449,1.449,0,0,0-1.079,2.419,1.446,1.446,0,0,0,.154,2.086,1.447,1.447,0,0,0,.573,2.128A1.5,1.5,0,0,0,33,78.506Zm1.347.139a.435.435,0,0,1-.4-.359.528.528,0,0,1,.1-.451.4.4,0,0,1,.308-.157h1.1a.489.489,0,0,1,0,.968Zm-.628-1.935a.484.484,0,0,1,0-.968h1.664a.484.484,0,0,1,0,.968Zm-.272-1.935a.484.484,0,0,1,0-.968h1.935a.484.484,0,0,1,0,.968Zm0-2.9h1.935a.484.484,0,1,1,0,.968H33.452a.484.484,0,1,1,0-.968Z" transform="translate(-14.065 -42.194)"/>
      <path id="Trazado_874621" data-name="Trazado 874621" d="M149.452,49.452A1.453,1.453,0,0,0,148,50.9v8.025a2.122,2.122,0,0,0,.626,1.51,1.16,1.16,0,0,1,.342.826v2.219a.484.484,0,0,0,.484.484h3.387a.484.484,0,0,0,0-.968h-2.9V61.264a2.122,2.122,0,0,0-.626-1.51,1.16,1.16,0,0,1-.342-.826V50.9a.484.484,0,1,1,.968,0v3.871a1.449,1.449,0,0,0,2.419,1.079,1.449,1.449,0,0,0,2.419-1.079V49.452a.484.484,0,1,1,.968,0v7.258h-.484a1.453,1.453,0,0,0-1.452,1.452.484.484,0,0,0,.968,0,.484.484,0,0,1,.484-.484h1.935a.969.969,0,0,1,.968.968v.484h-1.168a1.161,1.161,0,0,0-.826.342l-.567.567a.2.2,0,0,1-.142.059h-.684a.484.484,0,0,0-.484.484v2.9a.484.484,0,1,0,.968,0V61.064h.2a1.161,1.161,0,0,0,.826-.342l.567-.567a.2.2,0,0,1,.142-.059h1.652a.484.484,0,0,0,.484-.484v-.968a1.938,1.938,0,0,0-1.935-1.935h-.484V49.452a1.452,1.452,0,1,0-2.9,0v2.02a1.443,1.443,0,0,0-1.6.442,1.44,1.44,0,0,0-1.17-.212c-.045.011-.089.025-.132.04V50.9A1.453,1.453,0,0,0,149.452,49.452Zm3.387,3.387a.484.484,0,1,1,.968,0v1.935a.484.484,0,1,1-.968,0Zm-1.569-.2a.491.491,0,0,1,.119-.015.484.484,0,0,1,.483.484v1.664a.484.484,0,0,1-.968,0V53.11a.484.484,0,0,1,.366-.469Z" transform="translate(-116.033 -24.613)"/>
      <path id="Trazado_874622" data-name="Trazado 874622" d="M358.161,75.13h-5.606l-.826-.826a.484.484,0,0,0-.342-.142h-2.9a.484.484,0,1,0,0,.968h2.7l.826.826a.484.484,0,0,0,.342.142h5.806a1.45,1.45,0,0,0,1.311-2.073,1.452,1.452,0,0,0,.583-2.133,1.443,1.443,0,0,0,.44-1.6h2.02a1.452,1.452,0,1,0,0-2.9h-6.774a1.938,1.938,0,0,0-.387-2.71l-.774-.581a.484.484,0,0,0-.658.073l-2.273,2.652a3.1,3.1,0,0,0-.708,1.533h-2.457a.484.484,0,0,0-.484.484v3.871a.484.484,0,0,0,.968,0V69.324h2.419a.484.484,0,0,0,.484-.484,2.134,2.134,0,0,1,.513-1.388l1.979-2.308.411.309a.969.969,0,0,1,.194,1.355l-.581.774a.484.484,0,0,0,.387.774h7.742a.484.484,0,1,1,0,.968h-3.871a.484.484,0,1,0,0,.968h.484a.484.484,0,1,1,0,.968h-.272a.484.484,0,1,0,0,.968.484.484,0,0,1,0,.968h-.7a.484.484,0,0,0,0,.968.484.484,0,1,1,0,.968Z" transform="translate(-291.84 -38.679)"/>
      <path id="Trazado_874623" data-name="Trazado 874623" d="M73.579,20H16.484a.484.484,0,0,0-.484.484V42.741a.484.484,0,0,0,.484.484h5.322a.484.484,0,1,0,0-.968H16.968V20.968H73.095v21.29H61.482a.484.484,0,0,0-.4.215L58.1,46.949V42.741a.484.484,0,0,0-.484-.484H23.742a.484.484,0,0,0,0,.968H57.128v5.322a.484.484,0,0,0,.886.268l3.727-5.591H73.579a.484.484,0,0,0,.484-.484V20.484A.484.484,0,0,0,73.579,20Z"/>
      <path id="Trazado_874624" data-name="Trazado 874624" d="M258.854,51.942a2.136,2.136,0,0,0-2.136-2.136h-.827a1.7,1.7,0,0,0-.722.163l.519-3.621A2.056,2.056,0,0,0,253.653,44a.484.484,0,0,0-.476.395l-.114.606a2.012,2.012,0,0,0-1.346-.517.484.484,0,0,0-.474.387l-.3,1.483a1.812,1.812,0,0,0-1.158-.418.484.484,0,0,0-.474.387L248.3,51.264a2.9,2.9,0,0,0-.039.921l.922,7.839a.484.484,0,0,0,.481.427h2.932a.484.484,0,1,0,0-.968h-2.5l-.872-7.412a1.934,1.934,0,0,1,.026-.614l.914-4.467a.855.855,0,0,1,.459.937l-.463,2.266a.484.484,0,0,0,.377.571.489.489,0,0,0,.1.01.484.484,0,0,0,.474-.387l.463-2.265h0l.532-2.6a1.054,1.054,0,0,1,.67,1.06l-.678,3.619a.484.484,0,1,0,.951.178l.644-3.438a.479.479,0,0,0,.018-.06c.008-.04.011-.08.016-.121l.322-1.72a1.089,1.089,0,0,1,.689,1.172l-.683,4.763a.484.484,0,0,0,.41.548.5.5,0,0,0,.069,0,.482.482,0,0,0,.3-.107h0l.609-.488a.728.728,0,0,1,.454-.159h.827a1.168,1.168,0,0,1,1.168,1.168l-.008.767a.661.661,0,0,1-.47-.195l-.631-.631a.484.484,0,0,0-.611-.06l-1.452.968a.484.484,0,0,0-.215.4,1.938,1.938,0,0,0,1.935,1.935.484.484,0,0,0,.4-.215l.644-.967a.6.6,0,0,1,.4-.261v.658a2.858,2.858,0,0,1-.3,1.272l-.392.785a.721.721,0,0,1-.42.364l-2.428.809a.484.484,0,0,0-.331.459v1.935a.484.484,0,1,0,.968,0V58.38l2.1-.7a1.683,1.683,0,0,0,.98-.849l.392-.785a3.83,3.83,0,0,0,.4-1.7v-.765a.864.864,0,0,0-.111-.425.969.969,0,0,0,.111-.452Zm-2.177,1.468-.481.721a.971.971,0,0,1-.7-.7l.876-.584.351.351c.021.021.043.042.065.062A1.581,1.581,0,0,0,256.677,53.41Z" transform="translate(-204.146 -21.097)"/>
    </g>
  </g>
</svg>
