<svg xmlns="http://www.w3.org/2000/svg" width="82" height="82" viewBox="0 0 82 82">
  <g id="Grupo_1100022" data-name="Grupo 1100022" transform="translate(-2844 10575)">
    <circle id="Elipse_11497" data-name="Elipse 11497" cx="41" cy="41" r="41" transform="translate(2844 -10575)" fill="#ff9b6a"/>
    <g id="dolor-de-oidos" transform="translate(2854 -10585.5)">
      <path id="Trazado_874625" data-name="Trazado 874625" d="M302.051,287.069v23.69a11.917,11.917,0,0,0,11.01-7.356l4.175-10.08a19.278,19.278,0,0,1,4.179-6.254Z" transform="translate(-265.153 -231.372)" fill="#ffd1bd"/>
      <path id="Trazado_874626" data-name="Trazado 874626" d="M222.814,31A18.437,18.437,0,0,0,204.5,49.5V74.055a11.917,11.917,0,0,0,11.917,11.917c3.49,0,6.636-2.9,7.971-7.356l1.32-4.4a10.994,10.994,0,0,1,2.757-4.616l7.315-7.315A18.324,18.324,0,0,0,222.814,31Z" transform="translate(-179.519 -6.584)" fill="#ffe4d9"/>
      <path id="Trazado_874627" data-name="Trazado 874627" d="M262.515,237.348l-10.131-3.728a5.232,5.232,0,0,1-2.862,9.564l0,3.665,2.474,3.263h5.235Z" transform="translate(-219.039 -184.452)" fill="#ff8178"/>
      <path id="Trazado_874628" data-name="Trazado 874628" d="M262.818,76a12.828,12.828,0,0,0-12.73,11.251,3.649,3.649,0,0,0-.028.459,33.262,33.262,0,0,0,.991,5.5h8.693l1.763,13.772a9.135,9.135,0,0,1,3.375-4.112l4.965-3.318a12.8,12.8,0,0,0,5.8-10.73Z" transform="translate(-219.513 -46.087)" fill="#ffd1bd"/>
      <path id="Trazado_874629" data-name="Trazado 874629" d="M253.232,172.231h6.02a5.436,5.436,0,0,1,3.936,1.658,5.47,5.47,0,0,1,1.142,5.943l-3.315,8-2.69,6.494a4.586,4.586,0,0,1-8.824-1.757v-3.241a6.354,6.354,0,0,0,6-11.14l-4.368-2.912a3.663,3.663,0,0,1-1.632-3.049v-2.556a12.889,12.889,0,0,1,.1-1.576,3.67,3.67,0,0,0,3.635,4.131Z" transform="translate(-219.021 -126.936)" fill="#ffba9c"/>
      <path id="Trazado_874630" data-name="Trazado 874630" d="M367.327,88.827A12.827,12.827,0,0,0,354.5,76,12.827,12.827,0,0,0,367.327,88.827Z" transform="translate(-311.195 -46.087)" fill="#ffba9c"/>
      <circle id="Elipse_11530" data-name="Elipse 11530" cx="10.078" cy="10.078" r="10.078" transform="translate(0.916 43.656)" fill="#ffa18c"/>
      <circle id="Elipse_11531" data-name="Elipse 11531" cx="6.413" cy="6.413" r="6.413" transform="translate(4.581 47.321)" fill="#ff8178"/>
      <circle id="Elipse_11532" data-name="Elipse 11532" cx="2.749" cy="2.749" r="2.749" transform="translate(8.246 50.986)" fill="#fc424b"/>
      <path id="Trazado_874631" data-name="Trazado 874631" d="M10.994,181a10.994,10.994,0,1,0,10.994,10.994A11.007,11.007,0,0,0,10.994,181Zm0,20.156a9.162,9.162,0,1,1,9.162-9.162A9.172,9.172,0,0,1,10.994,201.156Z" transform="translate(0 -138.26)"/>
      <path id="Trazado_874632" data-name="Trazado 874632" d="M37.33,211a7.33,7.33,0,1,0,7.33,7.329A7.338,7.338,0,0,0,37.33,211Zm0,12.827a5.5,5.5,0,1,1,5.5-5.5A5.5,5.5,0,0,1,37.33,223.827Z" transform="translate(-26.335 -164.595)"/>
      <path id="Trazado_874633" data-name="Trazado 874633" d="M63.665,241a3.665,3.665,0,1,0,3.665,3.665A3.669,3.669,0,0,0,63.665,241Zm0,5.5a1.832,1.832,0,1,1,1.832-1.832A1.834,1.834,0,0,1,63.665,246.5Z" transform="translate(-52.67 -190.931)"/>
      <path id="Trazado_874634" data-name="Trazado 874634" d="M216.24,23.5A19.262,19.262,0,0,0,197,42.74V51.9a.916.916,0,1,0,1.832,0V42.74a17.408,17.408,0,1,1,29.716,12.309,20.1,20.1,0,0,0-4.378,6.552L220,71.681a11,11,0,0,1-21.164-4.21v-11.9a.916.916,0,1,0-1.832,0v11.9a12.833,12.833,0,0,0,24.689,4.911l4.175-10.08a18.276,18.276,0,0,1,3.98-5.957A19.24,19.24,0,0,0,216.24,23.5Z" transform="translate(-172.935)"/>
      <path id="Trazado_874635" data-name="Trazado 874635" d="M242.921,97.319a.916.916,0,0,0-.916.916l0,6.906a5.5,5.5,0,0,0,10.586,2.107l2.69-6.495a8.22,8.22,0,0,1,3.037-3.7l4.959-3.313A13.743,13.743,0,1,0,242.1,80.562a13.874,13.874,0,0,0-.1,1.68V84.8a4.572,4.572,0,0,0,2.04,3.812l1.235.823a4.345,4.345,0,0,1,1.89,3.586,4.277,4.277,0,0,1-4.245,4.3Zm24.694-16.03A11.93,11.93,0,0,1,256.7,70.371,11.93,11.93,0,0,1,267.615,81.288ZM254.86,70.365a13.763,13.763,0,0,0,12.76,12.76,11.891,11.891,0,0,1-5.358,9.086L257.5,95.4l1.1-2.646a6.413,6.413,0,0,0-5.925-8.868h-6.02a2.706,2.706,0,0,1-2.053-.925,2.775,2.775,0,0,1-.675-2.162A11.931,11.931,0,0,1,254.86,70.365Zm-9.8,16.72a2.743,2.743,0,0,1-1.224-2.287v-.056a4.575,4.575,0,0,0,2.816.972h6.02a4.581,4.581,0,0,1,4.232,6.334l-3.315,8-2.691,6.5a3.67,3.67,0,0,1-7.061-1.406v-2A7.269,7.269,0,0,0,249.425,90l-3.133-2.089ZM249,93.02a6.109,6.109,0,0,0-.107-1.134,5.437,5.437,0,0,1-5.056,9.37V99.082A6.125,6.125,0,0,0,249,93.02Z" transform="translate(-212.438 -39.503)"/>
    </g>
  </g>
</svg>
