<svg xmlns="http://www.w3.org/2000/svg" width="82" height="82" viewBox="0 0 82 82">
  <g id="Grupo_1100023" data-name="Grupo 1100023" transform="translate(-3180 10575)">
    <circle id="Elipse_11497" data-name="Elipse 11497" cx="41" cy="41" r="41" transform="translate(3180 -10575)" fill="#ff9b6a"/>
    <g id="Filled_outline" transform="translate(3189.491 -10565.568)">
      <path id="Trazado_874636" data-name="Trazado 874636" d="M53.417,11.483A13.835,13.835,0,0,0,35.064,12.77L32,15.833l-3.064-3.064a13.836,13.836,0,0,0-18.353-1.287A13.59,13.59,0,0,0,9.451,31.711L30.462,52.722a2.176,2.176,0,0,0,3.076,0L54.549,31.711a13.588,13.588,0,0,0-1.132-20.228Z" fill="#fb5058"/>
      <path id="Trazado_874637" data-name="Trazado 874637" d="M50.792,44.341c-7.966,4.329-21.3,2.392-27.287-4.021l.4-1.734a12.023,12.023,0,0,0,.133-4.69l-.309-1.824a2.044,2.044,0,0,0-4.045.1l-.37,3.143c-.632-.833-1.945-2.863-2.974-4.481a4.9,4.9,0,0,0-5.822-2.094,5.571,5.571,0,0,0-3.226,4.026,5.071,5.071,0,0,0,.3,3.555c2.409,5.037,9.172,13.729,19.386,17.342C38.059,57.588,52.79,55.069,50.792,44.341Z" fill="#ffc588"/>
      <path id="Trazado_874638" data-name="Trazado 874638" d="M13.208,44.341c7.966,4.329,21.3,2.392,27.287-4.021l-.4-1.734a12.023,12.023,0,0,1-.133-4.69l.309-1.824a2.044,2.044,0,0,1,4.045.1l.37,3.143c.632-.833,1.945-2.863,2.974-4.481a4.9,4.9,0,0,1,5.822-2.094,5.571,5.571,0,0,1,3.226,4.026,5.071,5.071,0,0,1-.3,3.555c-2.409,5.037-9.172,13.729-19.386,17.342C25.941,57.588,11.21,55.069,13.208,44.341Z" fill="#ffdbaa"/>
      <path id="Trazado_874639" data-name="Trazado 874639" d="M56.851,30.5a14.66,14.66,0,0,0-2.805-19.789A14.775,14.775,0,0,0,34.352,12.06L32,14.419l-2.354-2.361A14.778,14.778,0,0,0,9.952,10.707,14.662,14.662,0,0,0,7.148,30.5a8.87,8.87,0,0,0-.822,2,6.1,6.1,0,0,0,.361,4.258,35.319,35.319,0,0,0,5.471,7.911,8.715,8.715,0,0,0,2.949,8.264c2.684,2.3,7.012,3.487,11.811,3.487a31.066,31.066,0,0,0,5.126-.437,31.86,31.86,0,0,0,5.153.437c5.24,0,9.72-1.429,12.308-4.057a8.751,8.751,0,0,0,2.337-7.691,35.14,35.14,0,0,0,5.474-7.914,6.062,6.062,0,0,0,.359-4.256,8.936,8.936,0,0,0-.824-2.006ZM11.207,12.265a12.776,12.776,0,0,1,17.025,1.207l3.06,3.07a1.031,1.031,0,0,0,1.417,0l3.057-3.068a12.775,12.775,0,0,1,17.027-1.209,12.671,12.671,0,0,1,2.763,16.6,5.681,5.681,0,0,0-1.7-1.052A5.867,5.867,0,0,0,46.821,30.3c-.541.851-1.027,1.606-1.449,2.25l-.058-.493A3.059,3.059,0,0,0,42.29,29.37l-.126,0a3.06,3.06,0,0,0-2.875,2.533L38.98,33.73a12.948,12.948,0,0,0,.145,5.079l.274,1.2a19.026,19.026,0,0,1-7.435,4.263,18.867,18.867,0,0,1-7.36-4.267l.271-1.2a12.9,12.9,0,0,0,.142-5.074l-.3-1.833a3.053,3.053,0,0,0-2.924-2.524h-.1a3.028,3.028,0,0,0-3,2.683l-.058.494c-.492-.752-1.009-1.56-1.446-2.255a5.883,5.883,0,0,0-7.039-2.482,5.679,5.679,0,0,0-1.7,1.049,12.67,12.67,0,0,1,2.762-16.6ZM8.253,33.035a4.578,4.578,0,0,1,2.624-3.358,3.931,3.931,0,0,1,4.616,1.692c.976,1.55,2.352,3.671,3.02,4.552a1,1,0,0,0,1.789-.488l.37-3.142a1.029,1.029,0,0,1,1.017-.915h.059a1.05,1.05,0,0,1,.994.864l.3,1.828a10.9,10.9,0,0,1-.12,4.3l-.39,1.73a1,1,0,0,0,.243.9,18.738,18.738,0,0,0,5.907,4.13c-5.18,1-10.786.562-14.866-1.6A33.474,33.474,0,0,1,8.491,35.9,4.1,4.1,0,0,1,8.253,33.035ZM48.08,50.959C46,53.066,42.28,54.271,37.905,54.4a35.178,35.178,0,0,0,12.05-7.777A6.432,6.432,0,0,1,48.08,50.959Zm7.432-15.065c-2.175,4.548-8.586,13.211-18.817,16.831-7.563,2.676-16.284,2.111-20.288-1.312a6.571,6.571,0,0,1-2.374-5.556c8.443,3.7,21.233,1.527,27.191-4.853a1,1,0,0,0,.244-.9l-.4-1.734a10.963,10.963,0,0,1-.121-4.3l.309-1.824a1.048,1.048,0,0,1,.986-.869,1.07,1.07,0,0,1,1.08.921l.37,3.144a1,1,0,0,0,1.79.488c.661-.872,2.008-2.956,3.021-4.549a3.926,3.926,0,0,1,4.611-1.7,4.6,4.6,0,0,1,2.631,3.365,4.056,4.056,0,0,1-.237,2.853Z"/>
    </g>
  </g>
</svg>
