<svg xmlns="http://www.w3.org/2000/svg" width="82" height="82" viewBox="0 0 82 82">
  <g id="Grupo_1100028" data-name="Grupo 1100028" transform="translate(-3501 10575)">
    <circle id="Elipse_11497" data-name="Elipse 11497" cx="41" cy="41" r="41" transform="translate(3501 -10575)" fill="#ff9b6a"/>
    <g id="lengua" transform="translate(3513 -10596.563)">
      <g id="Grupo_1100027" data-name="Grupo 1100027" transform="translate(0.883 37.437)">
        <path id="Trazado_874640" data-name="Trazado 874640" d="M13.593,100.522l.521,2.492,15.1,13.666h29.06l12.1-15.57Z" transform="translate(-12.885 -93.913)" fill="#fdd1d5"/>
        <g id="Grupo_1100026" data-name="Grupo 1100026" transform="translate(0 0)">
          <path id="Trazado_874641" data-name="Trazado 874641" d="M66.727,97.635a29.634,29.634,0,0,1-29.664,24.532A29.615,29.615,0,0,1,8.888,97.635c1.318,1.662,11.2,13.693,28.175,14.035C54.928,112.031,65.535,99.137,66.727,97.635Z" transform="translate(-8.731 -91.363)" fill="#f8a6af"/>
          <g id="Grupo_1100024" data-name="Grupo 1100024" transform="translate(14.434 6.272)">
            <path id="Trazado_874642" data-name="Trazado 874642" d="M168.569,103.4a29.539,29.539,0,0,1-27.276,17.016,28.743,28.743,0,0,1-10.388-2.23,28.885,28.885,0,0,0,13.9,3.985,29.634,29.634,0,0,0,29.664-24.532A37.232,37.232,0,0,1,168.569,103.4Z" transform="translate(-130.906 -97.636)" fill="#f58a97"/>
          </g>
          <path id="Trazado_874643" data-name="Trazado 874643" d="M65.036,51.232a.867.867,0,0,0,.17-1.625A62.4,62.4,0,0,0,50.429,44.58a18.676,18.676,0,0,0-8.939,0,16.548,16.548,0,0,0-3.938,1.656,1.848,1.848,0,0,1-1.86,0,16.543,16.543,0,0,0-3.938-1.656,18.676,18.676,0,0,0-8.939,0A62.4,62.4,0,0,0,8.038,49.608a.867.867,0,0,0,.17,1.625A121.337,121.337,0,0,0,36.58,54.607a121.336,121.336,0,0,0,28.456-3.375Z" transform="translate(-7.546 -44.036)" fill="#f8a6af"/>
          <path id="Trazado_874644" data-name="Trazado 874644" d="M65.036,51.232a.867.867,0,0,0,.17-1.625A62.4,62.4,0,0,0,50.429,44.58a18.676,18.676,0,0,0-8.939,0,16.548,16.548,0,0,0-3.938,1.656,1.848,1.848,0,0,1-1.86,0,16.543,16.543,0,0,0-3.938-1.656,18.676,18.676,0,0,0-8.939,0A62.4,62.4,0,0,0,8.038,49.608a.867.867,0,0,0,.17,1.625A121.337,121.337,0,0,0,36.58,54.607a121.336,121.336,0,0,0,28.456-3.375Z" transform="translate(-7.546 -44.036)" fill="#f8a6af"/>
          <path id="Trazado_874645" data-name="Trazado 874645" d="M311.454,49.613a62.392,62.392,0,0,0-14.777-5.028,20.419,20.419,0,0,0-7.354-.345q1.025.139,2.088.345a37.272,37.272,0,0,1,10.443,3.748,1.382,1.382,0,0,1-.444,2.588c-11.8,1.748-14.91,2.883-14.986,3.638a121.373,121.373,0,0,0,24.859-3.322.867.867,0,0,0,.17-1.625Z" transform="translate(-253.794 -44.041)" fill="#f58a97"/>
          <path id="Trazado_874646" data-name="Trazado 874646" d="M154.552,203.36A13.464,13.464,0,0,1,141.1,189.881V174.457a6.108,6.108,0,0,1,5.6-6.109q.319-.025.65-.036a14.605,14.605,0,0,1,6.25,1.191,2.379,2.379,0,0,0,1.891.005,14.545,14.545,0,0,1,5.248-1.2,14.359,14.359,0,0,1,1.644.033,6.116,6.116,0,0,1,5.62,6.112v15.425A13.464,13.464,0,0,1,154.552,203.36Z" transform="translate(-125.476 -153.762)" fill="#f58a97"/>
          <g id="Grupo_1100025" data-name="Grupo 1100025" transform="translate(27.321 14.54)">
            <path id="Trazado_874647" data-name="Trazado 874647" d="M250.631,168.346a14.387,14.387,0,0,0-1.644-.033c-.446.017-.874.054-1.286.106a6.122,6.122,0,0,1,5.039,6.038v15.425a13.471,13.471,0,0,1-11.694,13.365,13.455,13.455,0,0,0,15.2-13.365V174.457A6.116,6.116,0,0,0,250.631,168.346Z" transform="translate(-241.047 -168.303)" fill="#f07281"/>
          </g>
        </g>
        <path id="Trazado_874648" data-name="Trazado 874648" d="M58.459,336.52l-.4.128a9.128,9.128,0,0,0-5.931,5.931l-.128.4a.665.665,0,0,1-1.267,0l-.128-.4a9.128,9.128,0,0,0-5.931-5.931l-.4-.128a.665.665,0,0,1,0-1.267l.4-.128a9.128,9.128,0,0,0,5.931-5.931l.128-.4a.665.665,0,0,1,1.267,0l.128.4a9.128,9.128,0,0,0,5.931,5.931l.4.128A.665.665,0,0,1,58.459,336.52Z" transform="translate(-39.562 -295.063)" fill="#ffe179"/>
        <path id="Trazado_874649" data-name="Trazado 874649" d="M102.258,335.253l-.4-.128a9.128,9.128,0,0,1-5.931-5.931l-.128-.4a.665.665,0,0,0-1.267,0l-.128.4a9.123,9.123,0,0,1-.993,2.125,9.127,9.127,0,0,0,4.937,3.806.8.8,0,0,1,0,1.523,9.127,9.127,0,0,0-4.937,3.806,9.121,9.121,0,0,1,.993,2.125l.128.4a.665.665,0,0,0,1.267,0l.128-.4a9.127,9.127,0,0,1,5.93-5.931l.4-.128A.665.665,0,0,0,102.258,335.253Z" transform="translate(-83.361 -295.063)" fill="#fbd268"/>
      </g>
      <path id="Trazado_874650" data-name="Trazado 874650" d="M29.082,58.757v19.75a.878.878,0,1,0,1.755,0V58.757a.878.878,0,0,0-1.755,0Zm29.84-16.54a62.65,62.65,0,0,0-14.988-5.1c-4.777-.925-7.311-.539-9.337.015a17.43,17.43,0,0,0-4.147,1.744.975.975,0,0,1-.978,0,17.435,17.435,0,0,0-4.148-1.744c-2.026-.554-4.56-.94-9.337-.015A62.653,62.653,0,0,0,1,42.217a1.743,1.743,0,0,0-.625,2.649A30.677,30.677,0,0,0,15.632,65.44v8.116c0,.1,0,.207,0,.311A8.233,8.233,0,0,1,14.283,71.3l-.128-.4a1.542,1.542,0,0,0-2.939,0l-.128.4a8.262,8.262,0,0,1-5.361,5.361l-.4.128a1.542,1.542,0,0,0,0,2.939l.4.128a8.263,8.263,0,0,1,5.361,5.36l.128.4a1.542,1.542,0,0,0,2.939,0l.128-.4a8.262,8.262,0,0,1,3.325-4.388,14.311,14.311,0,0,0,21.168,4.044.878.878,0,0,0-1.082-1.382,12.556,12.556,0,0,1-18.524-3.468q.234-.091.474-.167l.4-.128a1.542,1.542,0,0,0,0-2.939l-.4-.128a8.231,8.231,0,0,1-2.08-1,12.617,12.617,0,0,1-.176-2.1V58.133a5.31,5.31,0,0,1,5.4-5.268,13.814,13.814,0,0,1,5.873,1.119,3.271,3.271,0,0,0,2.588.005A13.665,13.665,0,0,1,37.721,52.9a5.259,5.259,0,0,1,4.811,5.236V73.556a12.548,12.548,0,0,1-2.22,7.152.877.877,0,1,0,1.445,1,14.3,14.3,0,0,0,2.529-8.147V65.421A30.693,30.693,0,0,0,59.546,44.867,1.765,1.765,0,0,0,58.922,42.217ZM15.632,58.133v5.288A28.923,28.923,0,0,1,2.7,46.878a40.7,40.7,0,0,0,13.312,9A6.978,6.978,0,0,0,15.632,58.133ZM18.886,78.26a10.1,10.1,0,0,0-6.2,6.2,10.022,10.022,0,0,0-6.2-6.2,10.022,10.022,0,0,0,6.2-6.2A10.091,10.091,0,0,0,18.886,78.26ZM52.774,55.736A29.209,29.209,0,0,1,44.287,63.4V58.131a6.961,6.961,0,0,0-.385-2.286,41.589,41.589,0,0,0,13.33-9A29.031,29.031,0,0,1,52.774,55.736Zm5.03-12.1a1.131,1.131,0,0,1-.608.372,120.567,120.567,0,0,1-27.237,3.124h-.041c-2.263,0-4.556-.066-6.816-.2a.878.878,0,0,0-.1,1.752c2.293.131,4.619.2,6.915.2h.042a122.345,122.345,0,0,0,25.415-2.673A39.585,39.585,0,0,1,43.12,54.27a6.969,6.969,0,0,0-5.263-3.124,15.37,15.37,0,0,0-7.31,1.233,1.509,1.509,0,0,1-1.194-.007,15.573,15.573,0,0,0-6.624-1.261,7.164,7.164,0,0,0-5.947,3.183A38.762,38.762,0,0,1,4.506,46.2a122.676,122.676,0,0,0,14.359,2.177.877.877,0,1,0,.159-1.748A120.865,120.865,0,0,1,2.717,44.007a1.115,1.115,0,0,1-.6-.371l0,0a60.6,60.6,0,0,1,14.209-4.791,17.862,17.862,0,0,1,8.54-.015A15.673,15.673,0,0,1,28.589,40.4a2.736,2.736,0,0,0,2.742,0,15.669,15.669,0,0,1,3.729-1.569,17.859,17.859,0,0,1,8.54.015,60.591,60.591,0,0,1,14.207,4.79l0,0Z" transform="translate(0)"/>
    </g>
  </g>
</svg>
