<svg xmlns="http://www.w3.org/2000/svg" width="82" height="82" viewBox="0 0 82 82">
  <g id="Grupo_1100030" data-name="Grupo 1100030" transform="translate(-3837 10575)">
    <circle id="Elipse_11497" data-name="Elipse 11497" cx="41" cy="41" r="41" transform="translate(3837 -10575)" fill="#ff9b6a"/>
    <g id="respirar" transform="translate(3847 -10566)">
      <path id="Trazado_874651" data-name="Trazado 874651" d="M117.448,41.661a10.692,10.692,0,0,1-7.735,10.355,10.22,10.22,0,0,1-2.744.372h-6.442a11.7,11.7,0,0,1-11.856,0H82.229a10.747,10.747,0,0,1-1.5-21.343l.123,1.665C79.992,18.336,88.491,7,88.491,7h12.26s8.045,10.729,7.694,24.548l.029-.5A10.651,10.651,0,0,1,117.448,41.661Zm0,0" transform="translate(-62.852 -6.132)" fill="#fcd0b9"/>
      <path id="Trazado_874652" data-name="Trazado 874652" d="M237.155,31.045l-.029.5C237.477,17.729,229.433,7,229.433,7H218.648c5.928,5.527,9.964,16.447,9.964,29.019a51.935,51.935,0,0,1-2.977,17.76,10,10,0,0,0,3.573-1.39h6.442a10.22,10.22,0,0,0,2.744-.372,10.782,10.782,0,0,0-1.24-20.971Zm0,0" transform="translate(-191.534 -6.132)" fill="#edc2b0"/>
      <path id="Trazado_874653" data-name="Trazado 874653" d="M143.568,306.2c-1.728-.556-3.426-.081-3.793,1.06s.736,2.516,2.464,3.072,3.426.081,3.793-1.06S145.3,306.753,143.568,306.2Zm0,0" transform="translate(-122.38 -268.022)" fill="#4f4c4d"/>
      <path id="Trazado_874654" data-name="Trazado 874654" d="M327.032,307.257c-.367-1.141-2.065-1.616-3.793-1.06s-2.831,1.931-2.464,3.072,2.065,1.616,3.793,1.06S327.4,308.4,327.032,307.257Zm0,0" transform="translate(-280.934 -268.022)" fill="#4f4c4d"/>
      <path id="Trazado_874655" data-name="Trazado 874655" d="M19.39,401.257a2.727,2.727,0,0,0,.259-1.156,3.376,3.376,0,0,0-3.6-3.1,3.376,3.376,0,0,0-3.6,3.1,2.7,2.7,0,0,0,.115.781,5.7,5.7,0,0,0-1.355-.161c-2.329,0-4.216,1.36-4.216,3.038,0,1.5,1.509,2.746,3.493,2.993a3.119,3.119,0,0,0-.021.356,3.224,3.224,0,0,0,6.449,0,3.105,3.105,0,0,0-.018-.336c.189.016.381.026.576.026,2.431,0,4.4-1.3,4.4-2.914C21.881,402.726,20.865,401.727,19.39,401.257Zm0,0" transform="translate(-6.132 -347.768)" fill="#a8b3cc"/>
      <path id="Trazado_874656" data-name="Trazado 874656" d="M12.456,403.2a5.7,5.7,0,0,1,1.355.161,2.7,2.7,0,0,1-.115-.781,3.376,3.376,0,0,1,3.6-3.1,3.931,3.931,0,0,1,2.352.757c0-.046,0-.091,0-.137a3.376,3.376,0,0,0-3.6-3.1,3.376,3.376,0,0,0-3.6,3.1,2.7,2.7,0,0,0,.115.781,5.7,5.7,0,0,0-1.355-.161c-2.329,0-4.216,1.36-4.216,3.038a2.7,2.7,0,0,0,1.262,2.167C8.48,404.395,10.275,403.2,12.456,403.2Zm0,0" transform="translate(-6.132 -347.768)" fill="#4c5770"/>
      <path id="Trazado_874657" data-name="Trazado 874657" d="M397.129,421.03c0-1.4-1.665-2.542-3.72-2.542a4.8,4.8,0,0,0-2.454.633A3.289,3.289,0,0,0,387.7,417a3.108,3.108,0,0,0-3.348,2.79,2.552,2.552,0,0,0,.9,1.9c-1.887.292-3.257,1.162-3.257,2.189,0,1.267,2.082,2.294,4.65,2.294a8.415,8.415,0,0,0,2.485-.356,3.032,3.032,0,0,0,2.723,1.968,3.315,3.315,0,0,0,3.038-3.534,4.058,4.058,0,0,0-.093-.868C396.168,423.01,397.129,422.1,397.129,421.03Zm0,0" transform="translate(-334.628 -365.287)" fill="#4c5770"/>
      <path id="Trazado_874658" data-name="Trazado 874658" d="M410.053,418.488a4.8,4.8,0,0,0-2.454.633,3.289,3.289,0,0,0-3.25-2.121A3.113,3.113,0,0,0,401,419.771a3.881,3.881,0,0,1,1.488-.291,3.289,3.289,0,0,1,3.25,2.121,4.8,4.8,0,0,1,2.454-.633c1.92,0,3.5.995,3.7,2.27a2.574,2.574,0,0,0,1.881-2.208C413.773,419.627,412.108,418.488,410.053,418.488Zm0,0" transform="translate(-351.272 -365.287)" fill="#a8b3cc"/>
      <path id="Trazado_874659" data-name="Trazado 874659" d="M100.837,47.124a.868.868,0,0,1,0-1.736,9.748,9.748,0,0,0,9.611-9.859,10,10,0,0,0-2.377-6.49,9.581,9.581,0,0,0-4.908-3.078q-.034.878-.116,1.772a.868.868,0,0,1-1.731-.129l.129-2.245c.286-11.994-5.947-21.7-7.276-23.624H82.808a42.7,42.7,0,0,0-3.964,7.332,39.525,39.525,0,0,0-3.268,17.363l.085,1.159a.868.868,0,0,1-1.73.143q-.054-.6-.088-1.189l-.044-.591a9.581,9.581,0,0,0-4.936,3.085,10,10,0,0,0-2.377,6.49A9.748,9.748,0,0,0,76.1,45.388a.868.868,0,0,1,0,1.736,11.486,11.486,0,0,1-11.347-11.6,11.738,11.738,0,0,1,2.792-7.617,11.3,11.3,0,0,1,6.248-3.737A42.208,42.208,0,0,1,77.267,8.34a41.59,41.59,0,0,1,4.4-7.993A.869.869,0,0,1,82.359,0H94.619a.869.869,0,0,1,.695.347,41.575,41.575,0,0,1,4.4,7.993,42.2,42.2,0,0,1,3.478,15.844,11.3,11.3,0,0,1,6.2,3.728,11.738,11.738,0,0,1,2.792,7.617A11.486,11.486,0,0,1,100.837,47.124Zm0,0" transform="translate(-56.72)"/>
      <path id="Trazado_874660" data-name="Trazado 874660" d="M163.164,300.859a2.751,2.751,0,0,0-1.979-1.736,5.124,5.124,0,0,0-2.906.116c-2.218.713-3.547,2.542-3.025,4.165a2.318,2.318,0,0,0,.311.621.848.848,0,0,0-.015.153c0,2.555-3.464,4.712-7.565,4.712s-7.565-2.158-7.565-4.712a.857.857,0,0,0-.014-.153,2.317,2.317,0,0,0,.311-.621c.522-1.622-.807-3.451-3.024-4.165a5.134,5.134,0,0,0-2.907-.116,2.753,2.753,0,0,0-1.979,1.736c-.522,1.622.807,3.451,3.025,4.165a5.591,5.591,0,0,0,1.7.274,4.5,4.5,0,0,0,1.2-.158l.045-.014a6.027,6.027,0,0,0,2.761,3.721,12.554,12.554,0,0,0,12.884,0,6.028,6.028,0,0,0,2.761-3.721l.044.014a4.5,4.5,0,0,0,1.2.158,5.59,5.59,0,0,0,1.7-.274C162.358,304.31,163.687,302.481,163.164,300.859Zm-26.8,2.512c-1.318-.424-2.092-1.4-1.9-1.98a1.078,1.078,0,0,1,.793-.6,2.771,2.771,0,0,1,.735-.093,3.871,3.871,0,0,1,1.172.19c1.318.424,2.092,1.4,1.9,1.98a1.077,1.077,0,0,1-.793.6A3.444,3.444,0,0,1,136.365,303.371Zm23.243,0a3.433,3.433,0,0,1-1.907.1,1.08,1.08,0,0,1-.794-.6c-.188-.585.586-1.556,1.9-1.98a3.871,3.871,0,0,1,1.172-.19,2.771,2.771,0,0,1,.735.093,1.081,1.081,0,0,1,.793.6C161.7,301.976,160.926,302.947,159.608,303.371Zm0,0" transform="translate(-116.24 -261.89)"/>
      <path id="Trazado_874661" data-name="Trazado 874661" d="M295.6,104.451a.868.868,0,0,1-.868-.861,68.279,68.279,0,0,0-1.857-16.135,26.584,26.584,0,0,0-1.764-5.172.868.868,0,0,1,1.537-.808c.151.287,3.7,7.18,3.821,22.1a.868.868,0,0,1-.861.875Zm0,0" transform="translate(-254.921 -70.968)"/>
      <path id="Trazado_874662" data-name="Trazado 874662" d="M147.869,403.632a.868.868,0,0,1-.625-1.47c2.43-2.524,2.619-9.7,2.487-12.25a.868.868,0,1,1,1.734-.09,39.143,39.143,0,0,1-.158,5.324c-.39,3.922-1.337,6.688-2.812,8.221A.865.865,0,0,1,147.869,403.632Zm0,0" transform="translate(-128.771 -340.758)"/>
      <path id="Trazado_874663" data-name="Trazado 874663" d="M193.867,407.63a.869.869,0,0,1-.828-1.13,26.677,26.677,0,0,0,1.294-8.259,15.212,15.212,0,0,0-.315-3.171.868.868,0,1,1,1.682-.43c.053.207,1.275,5.16-1.005,12.382A.867.867,0,0,1,193.867,407.63Zm0,0" transform="translate(-169.065 -345.129)"/>
      <path id="Trazado_874664" data-name="Trazado 874664" d="M230.87,410.555a.868.868,0,0,1-.807-1.187c1.741-4.41.344-11.216.33-11.284a.868.868,0,0,1,1.7-.358c.063.3,1.52,7.38-.414,12.279A.868.868,0,0,1,230.87,410.555Zm0,0" transform="translate(-201.479 -347.806)"/>
      <path id="Trazado_874665" data-name="Trazado 874665" d="M7.565,405.005a4.075,4.075,0,0,1-4.076-3.667C1.428,400.824,0,399.347,0,397.627c0-2.191,2.233-3.906,5.084-3.906.127,0,.254,0,.38.011A4.281,4.281,0,0,1,9.921,390a4.243,4.243,0,0,1,4.464,3.968,3.583,3.583,0,0,1-.059.648,3.593,3.593,0,0,1,2.291,3.135c0,2.055-2.175,3.68-5,3.777A4.079,4.079,0,0,1,7.565,405.005Zm-2.48-9.549c-1.815,0-3.348.994-3.348,2.17,0,1.021,1.175,1.937,2.733,2.131a.868.868,0,0,1,.755.96,2.283,2.283,0,0,0-.016.257,2.357,2.357,0,0,0,4.712,0,2.257,2.257,0,0,0-.013-.243.868.868,0,0,1,.938-.958c.172.015.341.022.5.022,1.883,0,3.534-.956,3.534-2.046,0-.727-.741-1.433-1.888-1.8a.869.869,0,0,1-.523-1.194,1.853,1.853,0,0,0,.178-.789,2.521,2.521,0,0,0-2.728-2.232,2.521,2.521,0,0,0-2.728,2.232,1.842,1.842,0,0,0,.078.531.868.868,0,0,1-1.037,1.094A4.838,4.838,0,0,0,5.084,395.456Zm0,0" transform="translate(0 -341.636)"/>
      <path id="Trazado_874666" data-name="Trazado 874666" d="M375.07,387.736c0-1.912-2.015-3.41-4.588-3.41a6.029,6.029,0,0,0-2.043.351,4.365,4.365,0,0,0-3.661-1.839,4.662,4.662,0,0,0-2.3.6,5.729,5.729,0,0,1-1.292-3.575.868.868,0,0,0-1.736,0,7.494,7.494,0,0,0,1.733,4.732,3.288,3.288,0,0,0-.617,1.9,3.24,3.24,0,0,0,.3,1.361,5.475,5.475,0,0,0-1.456.714,11.2,11.2,0,0,1-1.719-7.646.868.868,0,0,0-1.691-.394,12.832,12.832,0,0,0,2.287,9.506,2.04,2.04,0,0,0-.078.551c0,1.8,2.373,3.162,5.518,3.162a9.778,9.778,0,0,0,2.039-.211,3.755,3.755,0,0,0,3.169,1.823,4.181,4.181,0,0,0,3.906-4.4c0-.095,0-.19-.008-.285A3.33,3.33,0,0,0,375.07,387.736Zm-3.424,1.52a.868.868,0,0,0-.617,1.021,3.243,3.243,0,0,1,.073.684,2.46,2.46,0,0,1-2.17,2.666,2.163,2.163,0,0,1-1.925-1.44.868.868,0,0,0-1.058-.488,7.577,7.577,0,0,1-2.226.316c-2.346,0-3.782-.923-3.782-1.426,0-.395.876-1.077,2.521-1.331a.868.868,0,0,0,.446-1.506,1.7,1.7,0,0,1-.611-1.256,2.258,2.258,0,0,1,2.48-1.922,2.452,2.452,0,0,1,2.418,1.5.868.868,0,0,0,1.279.5,3.948,3.948,0,0,1,2.007-.509c1.52,0,2.852.782,2.852,1.674C373.334,388.366,372.655,388.976,371.646,389.256Zm0,0" transform="translate(-311.701 -331.993)"/>
      <path id="Trazado_874667" data-name="Trazado 874667" d="M322.523,401.251a.867.867,0,0,1-.673-.319c-1.748-2.143-2.4-5.23-1.941-9.175a25.037,25.037,0,0,1,1.178-5.189.868.868,0,0,1,1.631.6c-.031.084-3.006,8.4.477,12.67a.868.868,0,0,1-.671,1.417Zm0,0" transform="translate(-280.112 -338.13)"/>
      <g id="Grupo_1100029" data-name="Grupo 1100029" transform="translate(10.417 40.851)">
        <path id="Trazado_874668" data-name="Trazado 874668" d="M85.86,444.93a.93.93,0,1,1-.93-.93A.93.93,0,0,1,85.86,444.93Zm0,0" transform="translate(-84 -429.79)" fill="#fff"/>
        <path id="Trazado_874669" data-name="Trazado 874669" d="M452.736,465.806a.87.87,0,1,0-.868.806A.839.839,0,0,0,452.736,465.806Zm0,0" transform="translate(-405.488 -448.186)" fill="#fff"/>
        <path id="Trazado_874670" data-name="Trazado 874670" d="M262.065,330.3a1.95,1.95,0,1,0-1.186,2.145A1.753,1.753,0,0,0,262.065,330.3Zm0,0" transform="translate(-236.807 -329.416)" fill="#fff"/>
      </g>
    </g>
  </g>
</svg>
