<svg xmlns="http://www.w3.org/2000/svg" width="82" height="82" viewBox="0 0 82 82">
  <g id="Grupo_1100053" data-name="Grupo 1100053" transform="translate(-183.051 -2088)">
    <circle id="Elipse_11497" data-name="Elipse 11497" cx="41" cy="41" r="41" transform="translate(183.051 2088)" fill="#2436b1"/>
    <g id="idea-" transform="translate(196.051 2097.459)">
      <g id="Grupo_1100051" data-name="Grupo 1100051" transform="translate(0.814 5.354)">
        <path id="Trazado_874740" data-name="Trazado 874740" d="M192.78,248.247c8.345,0,15.11,6.114,15.11,13.656a12.466,12.466,0,0,1-.985,4.859,2.927,2.927,0,0,0,.329,2.87q1.193,1.629,2.537,3.159a1.159,1.159,0,0,1-.609,1.891,16.437,16.437,0,0,1-8.682-.239,2.9,2.9,0,0,0-1.875.064,16.456,16.456,0,0,1-5.824,1.052c-8.345,0-15.11-6.114-15.11-13.656s6.765-13.656,15.11-13.656Z" transform="translate(-159.206 -222.617)" fill="#73da8c"/>
        <path id="Trazado_874741" data-name="Trazado 874741" d="M187.324,261.3a21.075,21.075,0,0,1,4.129-12.561c-7.723.608-13.782,6.465-13.782,13.6,0,7.542,6.765,13.656,15.11,13.656.158,0,.314,0,.471-.007A21.1,21.1,0,0,1,187.324,261.3Z" transform="translate(-159.206 -223.053)" fill="#00c755"/>
        <path id="Trazado_874742" data-name="Trazado 874742" d="M34.609,90.378c-8.345,0-15.11,6.114-15.11,13.656a12.466,12.466,0,0,0,.985,4.859,2.927,2.927,0,0,1-.329,2.87q-1.193,1.629-2.537,3.159a1.159,1.159,0,0,0,.609,1.891,16.437,16.437,0,0,0,8.682-.239,2.9,2.9,0,0,1,1.875.064,16.456,16.456,0,0,0,5.824,1.052c8.345,0,15.11-6.114,15.11-13.656s-6.765-13.656-15.11-13.656Z" transform="translate(-16.263 -81.878)" fill="#c2eafb"/>
        <g id="Grupo_1100050" data-name="Grupo 1100050" transform="translate(42.907 17.802)">
          <path id="Trazado_874743" data-name="Trazado 874743" d="M413.963,182.113a1.516,1.516,0,0,0-1.516-1.516h-5.415v-2.036a2.459,2.459,0,0,0-2.459-2.459h-.265a1.364,1.364,0,0,0-1.364,1.364v12.463a2.241,2.241,0,0,0,2.241,2.241h5.172a1.257,1.257,0,0,0,1.267-1.193,1.238,1.238,0,0,0-1.237-1.283h.958a1.537,1.537,0,0,0,1.547-1.474,1.516,1.516,0,0,0-1.516-1.559h1.07a1.516,1.516,0,1,0,0-3.032A1.516,1.516,0,0,0,413.963,182.113Z" transform="translate(-402.944 -176.102)" fill="#fff8e6"/>
          <path id="Trazado_874744" data-name="Trazado 874744" d="M406.423,185.4a11.783,11.783,0,0,1,1.019-4.807h-.41v-2.036a2.459,2.459,0,0,0-2.459-2.459h-.265a1.364,1.364,0,0,0-1.364,1.364v12.463a2.241,2.241,0,0,0,2.241,2.241h3.365A11.771,11.771,0,0,1,406.423,185.4Z" transform="translate(-402.944 -176.102)" fill="#ffeab7"/>
        </g>
        <path id="Trazado_874745" data-name="Trazado 874745" d="M29.751,104.62a21.094,21.094,0,0,1,5.494-14.229c-.211-.008-.423-.013-.636-.013-8.345,0-15.11,6.114-15.11,13.656a12.466,12.466,0,0,0,.985,4.859,2.927,2.927,0,0,1-.329,2.87q-1.193,1.629-2.537,3.159a1.159,1.159,0,0,0,.609,1.891,16.437,16.437,0,0,0,8.682-.239,2.9,2.9,0,0,1,1.875.064,16.425,16.425,0,0,0,5.478,1.048,21.082,21.082,0,0,1-4.512-13.066Z" transform="translate(-16.263 -81.879)" fill="#78cbed"/>
        <path id="Trazado_874746" data-name="Trazado 874746" d="M158.069,236.589c0-1.584-1.142-1.736-2.557-1.741s-2.563.141-2.568,1.725a2.579,2.579,0,1,0,5.126.016Z" transform="translate(-137.162 -210.672)" fill="#3e4f61"/>
        <path id="Trazado_874747" data-name="Trazado 874747" d="M45.459,164.436H42.237A1.636,1.636,0,0,1,40.6,162.8v-1a1.636,1.636,0,0,1,1.636-1.636h3.222a1.636,1.636,0,0,1,1.636,1.636v1A1.636,1.636,0,0,1,45.459,164.436Z" transform="translate(-37.009 -144.092)" fill="#3e4f61"/>
        <path id="Trazado_874748" data-name="Trazado 874748" d="M21.175,18.876A6.839,6.839,0,1,0,9.06,23.227a6.685,6.685,0,0,1,1.553,4.252v.139h7.445v-.137a6.69,6.69,0,0,1,1.554-4.255A6.81,6.81,0,0,0,21.175,18.876Z" transform="translate(-7.497 -12.037)" fill="#f8ea69"/>
        <path id="Trazado_874749" data-name="Trazado 874749" d="M11.883,18.587a9.047,9.047,0,0,1,2.788-6.541c-.08,0-.16-.008-.241-.009A6.839,6.839,0,0,0,9.06,23.226a6.685,6.685,0,0,1,1.553,4.252v.139h7.445V27.48q0-.146.007-.292a9.077,9.077,0,0,1-6.182-8.6Z" transform="translate(-7.497 -12.036)" fill="#f6ca56"/>
        <path id="Trazado_874750" data-name="Trazado 874750" d="M38.351,138.6H33.16a1.636,1.636,0,0,1-1.636-1.636v-1a1.636,1.636,0,0,1,1.636-1.636h5.191a1.636,1.636,0,0,1,1.636,1.636v1A1.636,1.636,0,0,1,38.351,138.6Z" transform="translate(-28.917 -121.062)" fill="#516980"/>
        <path id="Trazado_874751" data-name="Trazado 874751" d="M356.287,222.482h-3.2a1.516,1.516,0,0,1-1.516-1.516V211.62a1.516,1.516,0,0,1,1.516-1.516h3.2a1.516,1.516,0,0,1,1.516,1.516v9.347A1.516,1.516,0,0,1,356.287,222.482Z" transform="translate(-314.24 -188.613)" fill="#34b6e2"/>
      </g>
      <g id="Grupo_1100052" data-name="Grupo 1100052" transform="translate(0 4.541)">
        <path id="Trazado_874752" data-name="Trazado 874752" d="M247.61,357a.814.814,0,0,0-.814.814v1.306a.814.814,0,0,0,1.628,0v-1.306A.814.814,0,0,0,247.61,357Z" transform="translate(-220.018 -318.759)"/>
        <path id="Trazado_874753" data-name="Trazado 874753" d="M373.684,359.122v-1.306a.814.814,0,1,0-1.628,0v1.306a.814.814,0,0,0,1.628,0Z" transform="translate(-331.687 -318.759)"/>
        <path id="Trazado_874754" data-name="Trazado 874754" d="M295.52,371.122a3.19,3.19,0,0,0,2.405-1.1.814.814,0,1,0-1.227-1.069,1.56,1.56,0,0,1-2.356,0,.814.814,0,0,0-1.227,1.069A3.19,3.19,0,0,0,295.52,371.122Z" transform="translate(-261.132 -329.168)"/>
        <path id="Trazado_874755" data-name="Trazado 874755" d="M148.827,227.348c-1.013,0-3.377-.011-3.385,2.536a3.842,3.842,0,0,0,.95,2.573,3.22,3.22,0,0,0,2.415,1.119h.01A3.544,3.544,0,0,0,152.2,229.9a2.245,2.245,0,0,0-1.19-2.19,4.784,4.784,0,0,0-2.179-.367Zm-.01,4.6h0a1.614,1.614,0,0,1-1.2-.572,2.218,2.218,0,0,1-.539-1.487c0-.631.072-.913,1.706-.913h.046a3.749,3.749,0,0,1,1.444.189c.114.058.3.156.3.735a1.923,1.923,0,0,1-1.751,2.049Z" transform="translate(-129.662 -203.172)"/>
        <path id="Trazado_874756" data-name="Trazado 874756" d="M95.144,221.714a2.327,2.327,0,0,0-2.326,2.32.814.814,0,0,0,.811.816h0a.814.814,0,0,0,.814-.811.7.7,0,0,1,.7-.7h0a.7.7,0,0,1,.7.7.814.814,0,0,0,.811.816h0a.814.814,0,0,0,.814-.811,2.327,2.327,0,0,0-2.32-2.334Z" transform="translate(-82.747 -198.15)"/>
        <path id="Trazado_874757" data-name="Trazado 874757" d="M217.466,224.423a.814.814,0,0,0,.811.816h0a.814.814,0,0,0,.814-.811.7.7,0,0,1,.7-.7h0a.7.7,0,0,1,.7.7.814.814,0,0,0,.811.816h0a.814.814,0,0,0,.814-.811,2.327,2.327,0,1,0-4.653-.014Z" transform="translate(-193.87 -198.497)"/>
        <path id="Trazado_874758" data-name="Trazado 874758" d="M55.554,29.167a2.333,2.333,0,0,0-2.33-2.33h-4.6V25.615a3.276,3.276,0,0,0-3.273-3.273h-.265a2.18,2.18,0,0,0-2.177,2.177v1.514l-.047,0h-3.2a2.332,2.332,0,0,0-2.33,2.33v2.058a17.588,17.588,0,0,0-2.521-.243,13.3,13.3,0,0,0,.271-2.665,13.962,13.962,0,0,0-6.239-11.488.814.814,0,0,0-.931,1.335A12.356,12.356,0,0,1,33.456,27.51a11.664,11.664,0,0,1-.463,3.257c-1.576,5.412-7.024,9.349-13.249,9.574-.184.007-.375.01-.584.01a15.588,15.588,0,0,1-5.537-1,3.734,3.734,0,0,0-2.4-.08,15.646,15.646,0,0,1-8.253.225.349.349,0,0,1-.257-.237.327.327,0,0,1,.068-.324c.9-1.022,1.768-2.1,2.582-3.216a3.758,3.758,0,0,0,.424-3.666,11.528,11.528,0,0,1-.849-5.8,2.43,2.43,0,0,0,1.1.263h3.23a2.449,2.449,0,0,0,2.446-2.446v-.844A2.448,2.448,0,0,0,12.7,21.26v-1a2.434,2.434,0,0,0-.265-1.106,6.025,6.025,0,0,1,1.123-2.092,7.649,7.649,0,0,0,1.08-1.733,15.857,15.857,0,0,1,9.516.145.814.814,0,0,0,.517-1.543,17.494,17.494,0,0,0-9.474-.433,7.75,7.75,0,0,0,.1-.96c0-.114.007-.227.007-.343A7.662,7.662,0,0,0,2.328,6.685,7.6,7.6,0,0,0,0,12.039c0,.2,0,.4.011.591a7.591,7.591,0,0,0,1.737,4.432,6.045,6.045,0,0,1,1.123,2.091,2.434,2.434,0,0,0-.265,1.107v1a2.448,2.448,0,0,0,.985,1.962v.844a2.463,2.463,0,0,0,.021.314,13.255,13.255,0,0,0,.673,8.3,2.123,2.123,0,0,1-.237,2.072c-.786,1.073-1.624,2.117-2.491,3.1a1.972,1.972,0,0,0,1.031,3.219,17.278,17.278,0,0,0,9.112-.252,2.1,2.1,0,0,1,1.348.047,17.164,17.164,0,0,0,5.688,1.1,13.26,13.26,0,0,0-.271,2.666,13.962,13.962,0,0,0,6.295,11.526.814.814,0,0,0,.925-1.339A12.357,12.357,0,0,1,20.092,44.64a11.667,11.667,0,0,1,.319-2.7,16.692,16.692,0,0,0,8.752-3.165,14.621,14.621,0,0,0,5.21-6.972h.015a15.977,15.977,0,0,1,2.945.274v5.636a2.332,2.332,0,0,0,2.33,2.33h3.2a2.319,2.319,0,0,0,1.437-.495,3.037,3.037,0,0,0,1.664.5h1.776a11.658,11.658,0,0,1,.025,9.144,3.763,3.763,0,0,0,.422,3.667c.81,1.106,1.679,2.188,2.582,3.215a.328.328,0,0,1,.069.326.349.349,0,0,1-.257.237,15.656,15.656,0,0,1-8.253-.225,3.737,3.737,0,0,0-2.4.081,15.854,15.854,0,0,1-10.4.236.814.814,0,0,0-.5,1.548A17.482,17.482,0,0,0,40.5,58a2.1,2.1,0,0,1,1.35-.048,17.284,17.284,0,0,0,9.112.252,1.972,1.972,0,0,0,1.03-3.22c-.871-.991-1.71-2.035-2.491-3.1a2.127,2.127,0,0,1-.235-2.073,13.279,13.279,0,0,0,.226-9.777h1.645a2.055,2.055,0,0,0,1.979-2.695,2.32,2.32,0,0,0,1.166-3.067,2.328,2.328,0,0,0,.711-3.593,2.321,2.321,0,0,0,.562-1.516ZM9.267,24.885H6.037a.819.819,0,0,1-.818-.818V23.71h4.866v.357A.819.819,0,0,1,9.267,24.885Zm1.8-4.625v1a.823.823,0,0,1-.822.822H5.057a.823.823,0,0,1-.822-.822v-1a.823.823,0,0,1,.822-.822h5.191A.823.823,0,0,1,11.071,20.26ZM1.637,12.539c-.009-.153-.011-.311-.009-.469a6.038,6.038,0,0,1,6.024-5.9h.084a6.047,6.047,0,0,1,5.941,6.024c0,.092,0,.183-.006.272A5.963,5.963,0,0,1,12.3,16.025a7.689,7.689,0,0,0-1.171,1.95,2.437,2.437,0,0,0-.882-.165H5.057a2.438,2.438,0,0,0-.88.164A7.726,7.726,0,0,0,3,16.026a5.974,5.974,0,0,1-1.367-3.487ZM39.663,38.41a.7.7,0,0,1-.7-.7V28.361a.7.7,0,0,1,.7-.7h3.2c.016,0,.031,0,.047,0v9.32a3.036,3.036,0,0,0,.306,1.332.7.7,0,0,1-.353.1ZM53.224,31.5a.7.7,0,1,1,0,1.405h-1.07a.814.814,0,1,0,0,1.628.7.7,0,0,1,.7.723.724.724,0,0,1-.734.682h-.958a.814.814,0,0,0,0,1.628.424.424,0,0,1,.424.44.443.443,0,0,1-.453.408H45.962a1.429,1.429,0,0,1-1.427-1.427V24.52a.55.55,0,0,1,.55-.55h.265a1.647,1.647,0,0,1,1.645,1.645v2.036a.814.814,0,0,0,.814.814h5.415a.7.7,0,1,1,0,1.405.814.814,0,1,0,0,1.627Z" transform="translate(0 -4.541)"/>
      </g>
    </g>
  </g>
</svg>
