<svg id="Grupo_1100106" data-name="Grupo 1100106" xmlns="http://www.w3.org/2000/svg" width="82" height="82" viewBox="0 0 82 82">
  <circle id="Elipse_11497" data-name="Elipse 11497" cx="41" cy="41" r="41" fill="#405f5a"/>
  <g id="hablando" transform="translate(14 18)">
    <g id="Grupo_1100104" data-name="Grupo 1100104" transform="translate(0.787 0.786)">
      <g id="Grupo_1100101" data-name="Grupo 1100101">
        <g id="Grupo_1100096" data-name="Grupo 1100096" transform="translate(0 15.431)">
          <g id="Grupo_1100094" data-name="Grupo 1100094" transform="translate(0 5.085)">
            <path id="Trazado_874786" data-name="Trazado 874786" d="M7.505,242.2s4.342,23.411,26.054,23.411S59.612,242.2,59.612,242.2Z" transform="translate(-7.505 -242.199)" fill="#fc5a95"/>
            <path id="Trazado_874787" data-name="Trazado 874787" d="M262.327,242.194s-4.342,23.411-26.053,23.411q-1.19,0-2.311-.093c19.712-1.587,23.743-23.318,23.743-23.318Z" transform="translate(-210.22 -242.194)" fill="#fb3a82"/>
            <path id="Trazado_874788" data-name="Trazado 874788" d="M7.505,242.2s6.9,16.388,25.982,16.388S59.612,242.2,59.612,242.2Z" transform="translate(-7.505 -242.199)" fill="#cf0e50"/>
            <path id="Trazado_874789" data-name="Trazado 874789" d="M7.51,242.194a24.266,24.266,0,0,0,2.3,3.976,77.679,77.679,0,0,0,16.169,2.4,7.6,7.6,0,0,1,2.074.381,17.933,17.933,0,0,0,11.011,0,7.619,7.619,0,0,1,2.076-.381,73.721,73.721,0,0,0,10.266-1.124,28.7,28.7,0,0,1-15.057,11.01c16.932-1.521,23.264-16.261,23.264-16.261Z" transform="translate(-7.509 -242.194)" fill="#be0c4a"/>
            <path id="Trazado_874790" data-name="Trazado 874790" d="M173.9,351.122a30.222,30.222,0,0,1-21.725.032,19.563,19.563,0,0,1,21.725-.032Z" transform="translate(-137.011 -336.769)" fill="#fc95bb"/>
          </g>
          <path id="Trazado_874791" data-name="Trazado 874791" d="M41.021,201.922a76.655,76.655,0,0,0,18.592-3.146,93.3,93.3,0,0,0-15.947-4.883,11.4,11.4,0,0,0-7.822,1.322,4.6,4.6,0,0,1-4.568,0,11.4,11.4,0,0,0-7.822-1.322A93.3,93.3,0,0,0,7.5,198.776,76.654,76.654,0,0,0,26.1,201.922a10.852,10.852,0,0,1,2.954.537,14.7,14.7,0,0,0,9.015,0,10.857,10.857,0,0,1,2.955-.537Z" transform="translate(-7.505 -193.69)" fill="#fc78a8"/>
          <g id="Grupo_1100095" data-name="Grupo 1100095" transform="translate(14.185)">
            <path id="Trazado_874792" data-name="Trazado 874792" d="M328.711,196.177a7.972,7.972,0,0,1-5.173,2.077l-1.809,1.809a1.161,1.161,0,0,1-1.981-.82V197.41a8.032,8.032,0,0,1-3.583-3.593,11.251,11.251,0,0,1,3.8.078A78.187,78.187,0,0,1,328.711,196.177Z" transform="translate(-297.989 -193.692)" fill="#fc5a95"/>
            <path id="Trazado_874793" data-name="Trazado 874793" d="M149.679,194.094l-2.512,3.5a1.216,1.216,0,0,1-1.977,0l-2.391-3.333c.586-.131,1.175-.254,1.763-.367A11.257,11.257,0,0,1,149.679,194.094Z" transform="translate(-142.799 -193.69)" fill="#fc5a95"/>
            <path id="Trazado_874794" data-name="Trazado 874794" d="M297.542,198.775c-2.286.668-4.457,1.2-6.5,1.627a82.638,82.638,0,0,0-14.5-4.809,9.853,9.853,0,0,0-3.24-.145,4.294,4.294,0,0,0,.47-.233,11.393,11.393,0,0,1,7.822-1.322A93.254,93.254,0,0,1,297.542,198.775Z" transform="translate(-259.62 -193.69)" fill="#fc5a95"/>
          </g>
        </g>
        <g id="Grupo_1100100" data-name="Grupo 1100100" transform="translate(3.967)">
          <g id="Grupo_1100099" data-name="Grupo 1100099">
            <g id="Grupo_1100098" data-name="Grupo 1100098">
              <g id="Grupo_1100097" data-name="Grupo 1100097">
                <path id="Trazado_874795" data-name="Trazado 874795" d="M71.225,46.514h-19.5a6.385,6.385,0,0,0,0,12.769h3.519l2.705,3.772a1.217,1.217,0,0,0,1.977,0l2.705-3.772h8.6a6.385,6.385,0,0,0,0-12.769Z" transform="translate(-45.338 -46.514)" fill="#23f1a8"/>
                <path id="Trazado_874796" data-name="Trazado 874796" d="M267.464,52.9a6.384,6.384,0,0,0-6.385-6.385h-3.65a6.385,6.385,0,0,1,0,12.77h3.65a6.385,6.385,0,0,0,6.385-6.385Z" transform="translate(-235.193 -46.511)" fill="#26d192"/>
              </g>
            </g>
          </g>
        </g>
      </g>
      <g id="Grupo_1100103" data-name="Grupo 1100103" transform="translate(31.527 1.402)">
        <g id="Grupo_1100102" data-name="Grupo 1100102">
          <path id="Trazado_874797" data-name="Trazado 874797" d="M308.213,67.887a8,8,0,1,1,8.207,7.995l-1.809,1.809a1.16,1.16,0,0,1-1.981-.821V75.039A8,8,0,0,1,308.213,67.887Z" transform="translate(-308.213 -59.887)" fill="#fddd45"/>
          <path id="Trazado_874798" data-name="Trazado 874798" d="M361.921,76.457a8,8,0,0,1-7.791,8.167l-1.809,1.809a1.161,1.161,0,0,1-1.981-.82v-.937l1.719-1.72a7.984,7.984,0,0,0,5.761-13.3,8.025,8.025,0,0,1,4.1,6.8Z" transform="translate(-345.923 -68.629)" fill="#f8c52d"/>
        </g>
      </g>
    </g>
    <g id="Grupo_1100105" data-name="Grupo 1100105">
      <path id="Trazado_874799" data-name="Trazado 874799" d="M53.678,60.368a.792.792,0,0,0-.48-.776c-.04-.017-3.581-1.495-8.236-2.928a8.751,8.751,0,0,0,3.937-5.6.786.786,0,1,0-1.537-.333A7.187,7.187,0,0,1,40.5,56.411a.787.787,0,0,0-.536.23L38.156,58.45a.374.374,0,0,1-.639-.265V56.354a.786.786,0,0,0-.434-.7,7.213,7.213,0,0,1,3.23-13.663h.107a7.273,7.273,0,0,1,6.83,5.246.786.786,0,0,0,1.512-.433,8.856,8.856,0,0,0-8.319-6.386,8.736,8.736,0,0,0-4.371,1.088,7.2,7.2,0,0,0-5.433-2.492H24.026a.786.786,0,1,0,0,1.573H30.64A5.623,5.623,0,0,1,34.759,42.4c-.211.173-.416.355-.613.549A8.723,8.723,0,0,0,31.528,49.2a8.845,8.845,0,0,0,.344,2.445,5.626,5.626,0,0,1-1.231.136h-8.6a.786.786,0,0,0-.639.328L18.7,55.883a.43.43,0,0,1-.7,0L15.3,52.111a.786.786,0,0,0-.639-.328H11.138a5.6,5.6,0,0,1,0-11.2h9.007a.786.786,0,1,0,0-1.573H11.138a7.171,7.171,0,1,0,0,14.342h3.115l1.115,1.554A97.124,97.124,0,0,0,.493,59.587a.793.793,0,0,0-.477.884,34.917,34.917,0,0,0,2.43,7.263A30.372,30.372,0,0,0,12.384,80.2a.786.786,0,1,0,.9-1.293A28.79,28.79,0,0,1,3.9,67.126q-.233-.513-.438-1.005a31.647,31.647,0,0,0,2.607,2.947,28.759,28.759,0,0,0,8.262,5.79,29.469,29.469,0,0,0,12.44,2.633A29.621,29.621,0,0,0,39.23,74.859a29.109,29.109,0,0,0,8.311-5.789A32.061,32.061,0,0,0,50.268,66a34.641,34.641,0,0,1-2.946,5.633,25.577,25.577,0,0,1-7.7,7.785,23.511,23.511,0,0,1-12.784,3.52,24.223,24.223,0,0,1-10.309-2.168.786.786,0,0,0-.664,1.426,25.784,25.784,0,0,0,10.973,2.315,25.051,25.051,0,0,0,13.651-3.78,27.168,27.168,0,0,0,8.177-8.283,36.616,36.616,0,0,0,5-11.974.97.97,0,0,0,.014-.108Zm-31.23-7.012h8.192a7.184,7.184,0,0,0,1.8-.23,8.705,8.705,0,0,0,.881,1.413,12.415,12.415,0,0,0-4.591,1.535,3.811,3.811,0,0,1-3.79,0,12.4,12.4,0,0,0-3.482-1.344ZM16.37,56.307l.353.492a2,2,0,0,0,3.255,0l.474-.661a10.783,10.783,0,0,1,3.715,1.3,5.384,5.384,0,0,0,5.346,0,10.759,10.759,0,0,1,5.254-1.421,8.881,8.881,0,0,0,1.177.806v1.361a1.946,1.946,0,0,0,3.323,1.377l1.593-1.593a8.827,8.827,0,0,0,1.886-.324l.025.008c3.09.884,5.844,1.86,7.643,2.536a74.252,74.252,0,0,1-16.141,2.488,11.654,11.654,0,0,0-3.169.574,13.908,13.908,0,0,1-8.53,0,11.658,11.658,0,0,0-3.169-.574A74.245,74.245,0,0,1,3.267,60.19a90.483,90.483,0,0,1,13.1-3.883Zm1.388,18.213a18.778,18.778,0,0,1,18.112-.027,28.786,28.786,0,0,1-9.1,1.425A28.693,28.693,0,0,1,17.758,74.521ZM46.391,68a27.522,27.522,0,0,1-7.853,5.451c-.257.117-.516.23-.776.339a20.351,20.351,0,0,0-21.89.032c-.285-.119-.568-.241-.849-.37A27.177,27.177,0,0,1,7.22,68,29.9,29.9,0,0,1,2.3,61.557a76.217,76.217,0,0,0,17.048,2.691,10.078,10.078,0,0,1,2.741.5,15.483,15.483,0,0,0,9.5,0,10.081,10.081,0,0,1,2.74-.5,76.2,76.2,0,0,0,17.031-2.687A30.3,30.3,0,0,1,46.391,68Z" transform="translate(0 -39.014)"/>
      <path id="Trazado_874800" data-name="Trazado 874800" d="M115.525,86.549a.786.786,0,0,0,0-1.573h-2.281a.786.786,0,0,0,0,1.573Z" transform="translate(-100.667 -80.157)"/>
      <path id="Trazado_874801" data-name="Trazado 874801" d="M113.246,116.418h16.178a.786.786,0,1,0,0-1.573H113.246a.786.786,0,0,0,0,1.573Z" transform="translate(-100.669 -106.895)"/>
      <path id="Trazado_874802" data-name="Trazado 874802" d="M179.181,84.976h-10.35a.786.786,0,0,0,0,1.573h10.35a.786.786,0,1,0,0-1.573Z" transform="translate(-150.427 -80.157)"/>
    </g>
  </g>
</svg>
