<svg xmlns="http://www.w3.org/2000/svg" width="82" height="82" viewBox="0 0 82 82">
  <g id="Grupo_1100108" data-name="Grupo 1100108" transform="translate(-603.051 -2232)">
    <circle id="Elipse_11497" data-name="Elipse 11497" cx="41" cy="41" r="41" transform="translate(603.051 2232)" fill="#405f5a"/>
    <g id="boca" transform="translate(610.052 2195.425)">
      <path id="Trazado_874803" data-name="Trazado 874803" d="M45.167,89.479h0a56.04,56.04,0,0,0,28.8-13.991h0L58.579,60.579A12.012,12.012,0,0,0,44.228,58.8l-3.441,1.981L37.345,58.8a12.011,12.011,0,0,0-14.351,1.782L7.6,75.488h0a56.038,56.038,0,0,0,28.8,13.991h0A27.077,27.077,0,0,0,45.167,89.479Z" transform="translate(-6.589 -6.601)" fill="#f26464"/>
      <path id="Trazado_874804" data-name="Trazado 874804" d="M42.71,89.489h0c-10.757-1.763-22.867-6.626-30.9-13.991h0s14.97-17.387,22.7-17.871a12.012,12.012,0,0,0-11.512,2.962L7.6,75.5h0a56.038,56.038,0,0,0,28.8,13.991h0a27.082,27.082,0,0,0,7.534.172Q43.323,89.589,42.71,89.489Z" transform="translate(-6.589 -6.611)" fill="#dd5757"/>
      <path id="Trazado_874805" data-name="Trazado 874805" d="M149.01,169.118a54.163,54.163,0,0,1,28.585,0A54.166,54.166,0,0,1,149.01,169.118Z" transform="translate(-129.105 -101.91)" fill="#3c4a5e"/>
      <g id="Grupo_1100107" data-name="Grupo 1100107" transform="translate(28.059 54.764)">
        <ellipse id="Elipse_11533" data-name="Elipse 11533" cx="3.027" cy="2.018" rx="3.027" ry="2.018" transform="translate(14.716 0)" fill="#f78181"/>
        <ellipse id="Elipse_11534" data-name="Elipse 11534" cx="6.138" cy="0.811" rx="6.138" ry="0.811" transform="translate(0 16.432)" fill="#f78181"/>
      </g>
      <path id="Trazado_874806" data-name="Trazado 874806" d="M178.026,407.637a17.221,17.221,0,0,1-24.327,0,1.016,1.016,0,1,0-1.437,1.436,19.255,19.255,0,0,0,27.2,0,1.016,1.016,0,1,0-1.437-1.436Z" transform="translate(-131.665 -309.972)"/>
      <path id="Trazado_874807" data-name="Trazado 874807" d="M184.227,375.671a1.016,1.016,0,0,0,0,1.436,13.133,13.133,0,0,0,9.306,3.867,13.321,13.321,0,0,0,4.119-.656,1.016,1.016,0,0,0-.628-1.932,11.129,11.129,0,0,1-11.361-2.716A1.016,1.016,0,0,0,184.227,375.671Z" transform="translate(-159.36 -282.276)"/>
      <path id="Trazado_874808" data-name="Trazado 874808" d="M302.951,378.652a1.011,1.011,0,0,0,.6-.194,13.289,13.289,0,0,0,1.581-1.351,1.016,1.016,0,0,0-1.437-1.437,11.235,11.235,0,0,1-1.338,1.143,1.016,1.016,0,0,0,.6,1.838Z" transform="translate(-261.601 -282.276)"/>
      <path id="Trazado_874809" data-name="Trazado 874809" d="M226.313,345.142a1.016,1.016,0,0,0-1.437-1.436,5.124,5.124,0,0,1-7.246,0,1.016,1.016,0,0,0-1.437,1.436,7.155,7.155,0,0,0,10.119,0Z" transform="translate(-187.056 -254.58)"/>
      <path id="Trazado_874810" data-name="Trazado 874810" d="M49.406,163.057a55.124,55.124,0,0,1-10.992,3,26.016,26.016,0,0,1-8.434,0A54.873,54.873,0,0,1,2.5,153.037l4.706-4.559a1.016,1.016,0,0,0,.023-1.436h0a1.016,1.016,0,0,0-1.436-.023L.308,152.335a1.016,1.016,0,0,0,.02,1.478,56.909,56.909,0,0,0,29.323,14.245,28.041,28.041,0,0,0,9.091,0,57.153,57.153,0,0,0,11.433-3.122A1.016,1.016,0,0,0,50.7,163.5,1.04,1.04,0,0,0,49.406,163.057Z" transform="translate(0 -84.178)"/>
      <path id="Trazado_874811" data-name="Trazado 874811" d="M124.721,68.157l-15.39-14.909a13.027,13.027,0,0,0-15.565-1.933L90.832,53,87.9,51.315a13.027,13.027,0,0,0-15.565,1.933L65.675,59.7a1.016,1.016,0,0,0,1.414,1.459l6.658-6.45a11.043,11.043,0,0,1,13.137-1.631l3.441,1.981a1.017,1.017,0,0,0,1.014,0l3.441-1.981a11.043,11.043,0,0,1,13.137,1.631l14.608,14.152a54.961,54.961,0,0,1-12.959,8.509,1.016,1.016,0,1,0,.865,1.838A56.994,56.994,0,0,0,124.7,69.635a1.015,1.015,0,0,0,.02-1.478Z" transform="translate(-56.635 0)"/>
      <path id="Trazado_874812" data-name="Trazado 874812" d="M156.712,165.474a55.188,55.188,0,0,0,14.56-1.954,1.016,1.016,0,0,0,0-1.959,55.216,55.216,0,0,0-29.121,0,1.016,1.016,0,0,0,0,1.959A55.19,55.19,0,0,0,156.712,165.474Zm9.759-2.934a53.2,53.2,0,0,1-19.517,0A53.2,53.2,0,0,1,166.471,162.54Z" transform="translate(-122.515 -95.332)"/>
    </g>
  </g>
</svg>
