<svg id="Grupo_1100093" data-name="Grupo 1100093" xmlns="http://www.w3.org/2000/svg" width="82" height="82" viewBox="0 0 82 82">
  <circle id="Elipse_11497" data-name="Elipse 11497" cx="41" cy="41" r="41" fill="#405f5a"/>
  <g id="igualada" transform="translate(16.117 25.742)">
    <g id="Grupo_1100072" data-name="Grupo 1100072">
      <g id="Grupo_1100055" data-name="Grupo 1100055" transform="translate(46.432 8.781)">
        <g id="Grupo_1100054" data-name="Grupo 1100054">
          <path id="Trazado_874759" data-name="Trazado 874759" d="M8.863,201.7a1.354,1.354,0,0,0,1.354-1.354V189.663a1.354,1.354,0,1,0-2.709,0v10.677A1.355,1.355,0,0,0,8.863,201.7Z" transform="translate(-7.509 -188.309)" fill="#ff9b6a"/>
        </g>
      </g>
      <g id="Grupo_1100057" data-name="Grupo 1100057" transform="translate(40.628 3.874)">
        <g id="Grupo_1100056" data-name="Grupo 1100056">
          <path id="Trazado_874760" data-name="Trazado 874760" d="M67.561,161.881a1.354,1.354,0,0,0,1.354-1.354V140.034a1.354,1.354,0,0,0-2.709,0v20.492A1.355,1.355,0,0,0,67.561,161.881Z" transform="translate(-66.207 -138.68)" fill="#ff9b6a"/>
        </g>
      </g>
      <g id="Grupo_1100059" data-name="Grupo 1100059" transform="translate(34.824)">
        <g id="Grupo_1100058" data-name="Grupo 1100058">
          <path id="Trazado_874761" data-name="Trazado 874761" d="M126.259,130.447a1.354,1.354,0,0,0,1.354-1.354v-28.24a1.354,1.354,0,0,0-2.709,0v28.24A1.354,1.354,0,0,0,126.259,130.447Z" transform="translate(-124.905 -99.498)" fill="#ff9b6a"/>
        </g>
      </g>
      <g id="Grupo_1100061" data-name="Grupo 1100061" transform="translate(29.02 5.23)">
        <g id="Grupo_1100060" data-name="Grupo 1100060">
          <path id="Trazado_874762" data-name="Trazado 874762" d="M184.957,172.881a1.354,1.354,0,0,0,1.354-1.354v-17.78a1.354,1.354,0,1,0-2.709,0v17.78A1.354,1.354,0,0,0,184.957,172.881Z" transform="translate(-183.603 -152.392)" fill="#ff9b6a"/>
        </g>
      </g>
      <g id="Grupo_1100063" data-name="Grupo 1100063" transform="translate(23.216 10.977)">
        <g id="Grupo_1100062" data-name="Grupo 1100062">
          <path id="Trazado_874763" data-name="Trazado 874763" d="M243.656,219.507a1.354,1.354,0,0,0,1.354-1.354v-6.287a1.354,1.354,0,1,0-2.709,0v6.287A1.355,1.355,0,0,0,243.656,219.507Z" transform="translate(-242.302 -210.511)" fill="#ff9b6a"/>
        </g>
      </g>
      <g id="Grupo_1100065" data-name="Grupo 1100065" transform="translate(17.412 0.839)">
        <g id="Grupo_1100064" data-name="Grupo 1100064">
          <path id="Trazado_874764" data-name="Trazado 874764" d="M302.354,137.258a1.354,1.354,0,0,0,1.354-1.354V109.342a1.354,1.354,0,0,0-2.709,0V135.9A1.354,1.354,0,0,0,302.354,137.258Z" transform="translate(-301 -107.988)" fill="#ff9b6a"/>
        </g>
      </g>
      <g id="Grupo_1100067" data-name="Grupo 1100067" transform="translate(11.608 8.997)">
        <g id="Grupo_1100066" data-name="Grupo 1100066">
          <path id="Trazado_874765" data-name="Trazado 874765" d="M361.053,203.446a1.354,1.354,0,0,0,1.354-1.354V191.845a1.354,1.354,0,1,0-2.709,0v10.246A1.355,1.355,0,0,0,361.053,203.446Z" transform="translate(-359.699 -190.491)" fill="#ff9b6a"/>
        </g>
      </g>
      <g id="Grupo_1100069" data-name="Grupo 1100069" transform="translate(5.804 5.618)">
        <g id="Grupo_1100068" data-name="Grupo 1100068">
          <path id="Trazado_874766" data-name="Trazado 874766" d="M419.751,176.025a1.354,1.354,0,0,0,1.354-1.354V157.665a1.354,1.354,0,0,0-2.709,0v17.005A1.354,1.354,0,0,0,419.751,176.025Z" transform="translate(-418.397 -156.311)" fill="#ff9b6a"/>
        </g>
      </g>
      <g id="Grupo_1100071" data-name="Grupo 1100071" transform="translate(0 12.277)">
        <g id="Grupo_1100070" data-name="Grupo 1100070">
          <path id="Trazado_874767" data-name="Trazado 874767" d="M478.449,230.058A1.354,1.354,0,0,0,479.8,228.7v-3.686a1.354,1.354,0,1,0-2.709,0V228.7A1.354,1.354,0,0,0,478.449,230.058Z" transform="translate(-477.095 -223.663)" fill="#ff9b6a"/>
        </g>
      </g>
    </g>
  </g>
</svg>
