<svg xmlns="http://www.w3.org/2000/svg" xmlns:xlink="http://www.w3.org/1999/xlink" width="292" height="226" viewBox="0 0 292 226">
  <defs>
    <clipPath id="clip-path">
      <rect id="Rectángulo_401304" data-name="Rectángulo 401304" width="292" height="226" transform="translate(941.99 3576)" fill="none" stroke="#707070" stroke-width="1"/>
    </clipPath>
    <clipPath id="clip-path-2">
      <path id="Trazado_873467" data-name="Trazado 873467" d="M203.818,104.19a93.252,93.252,0,1,1-93.253-93.251,93.254,93.254,0,0,1,93.253,93.251" transform="translate(-17.313 -10.939)" fill="#ff9b6a"/>
    </clipPath>
    <clipPath id="clip-path-3">
      <rect id="Rectángulo_35929" data-name="Rectángulo 35929" width="265" height="220" rx="10" transform="translate(-0.022 0)" fill="#2c423e"/>
    </clipPath>
    <clipPath id="clip-path-4">
      <rect id="Rectángulo_401432" data-name="Rectángulo 401432" width="217.417" height="225.983" fill="none"/>
    </clipPath>
  </defs>
  <g id="Grupo_1099759" data-name="Grupo 1099759" transform="translate(6571 10979)">
    <g id="Grupo_1099734" data-name="Grupo 1099734" transform="translate(-8196.73 -14269)">
      <g id="Enmascarar_grupo_1098707" data-name="Enmascarar grupo 1098707" transform="translate(683.74 -286)" clip-path="url(#clip-path)">
        <rect id="Rectángulo_401306" data-name="Rectángulo 401306" width="101.5" height="305.965" rx="50.75" transform="translate(1122.069 3697.276) rotate(-40)" fill="#0826f2"/>
        <rect id="Rectángulo_401307" data-name="Rectángulo 401307" width="117.281" height="351.393" rx="58.641" transform="translate(941.989 3833.478) rotate(-40)" fill="#454444"/>
        <rect id="Rectángulo_401312" data-name="Rectángulo 401312" width="91.367" height="274.663" rx="45.684" transform="translate(836.301 3413.628) rotate(-40)" fill="#fc6120"/>
      </g>
    </g>
    <g id="Grupo_1099758" data-name="Grupo 1099758" transform="translate(-6566.978 -10973.271)">
      <g id="Grupo_1099530" data-name="Grupo 1099530" transform="translate(10 0.272)">
        <g id="Grupo_1099525" data-name="Grupo 1099525" transform="translate(27.756 16.748)">
          <g id="Grupo_1099433" data-name="Grupo 1099433" clip-path="url(#clip-path-2)">
            <path id="Trazado_873461" data-name="Trazado 873461" d="M37.98,45.5,73.018,10.457,106,43.446l33.174-33.175,34.665,34.665,34.292-34.292,30.978,30.978,5.136-5.136L208.136.373l-34.292,34.29L139.179,0,106,33.172,73.018.185,37.98,35.224,5.138,2.382,0,7.516Z" transform="translate(-21.244 -23.063)" fill="#ff9b6a"/>
            <path id="Trazado_873462" data-name="Trazado 873462" d="M37.98,62.291,73.018,27.255,106,60.239l33.174-33.172,34.665,34.665L208.136,27.44l30.978,30.98,5.136-5.138L208.136,17.168,173.845,51.46,139.179,16.8,106,49.97,73.018,16.983,37.98,52.019,5.138,19.178,0,24.311Z" transform="translate(-21.244 -4.448)" fill="#ff9b6a"/>
            <path id="Trazado_873463" data-name="Trazado 873463" d="M37.98,79.086,73.018,44.05,106,77.037l33.174-33.172,34.665,34.663,34.292-34.292,30.978,30.98,5.136-5.138L208.136,33.964,173.845,68.256,139.179,33.59,106,66.765,73.018,33.778,37.98,68.814,5.138,35.973,0,41.109Z" transform="translate(-21.244 14.166)" fill="#ff9b6a"/>
            <path id="Trazado_873464" data-name="Trazado 873464" d="M37.98,95.882,73.018,60.844,106,93.831l33.174-33.172,34.665,34.665,34.292-34.294,30.978,30.98,5.136-5.136L208.136,50.76,173.845,85.052,139.179,50.387,106,83.561,73.018,50.572,37.98,85.61,5.138,52.767,0,57.9Z" transform="translate(-21.244 32.782)" fill="#ff9b6a"/>
            <path id="Trazado_873465" data-name="Trazado 873465" d="M37.98,112.677,73.018,77.639,106,110.626l33.174-33.172,34.665,34.665,34.292-34.292,30.978,30.98,5.136-5.136L208.136,67.555l-34.292,34.292L139.179,67.182,106,100.356,73.018,67.369,37.98,102.408,5.138,69.564,0,74.7Z" transform="translate(-21.244 51.396)" fill="#ff9b6a"/>
            <path id="Trazado_873466" data-name="Trazado 873466" d="M37.98,129.473,73.018,94.436,106,127.423l33.174-33.172,34.665,34.663,34.292-34.292,30.978,30.98,5.136-5.138L208.136,84.35l-34.292,34.292L139.179,83.977,106,117.152,73.018,84.165,37.98,119.2,5.138,86.359,0,91.5Z" transform="translate(-21.244 70.011)" fill="#ff9b6a"/>
          </g>
        </g>
        <g id="Enmascarar_grupo_1098695" data-name="Enmascarar grupo 1098695" clip-path="url(#clip-path-3)">
          <g id="Grupo_1099757" data-name="Grupo 1099757" transform="translate(23.77 7.251)">
            <g id="Grupo_1099756" data-name="Grupo 1099756" clip-path="url(#clip-path-4)">
              <path id="Trazado_874032" data-name="Trazado 874032" d="M195.4,177.592a160.325,160.325,0,0,0-7.349-19.007c-3.894-7.844-10.161-10.247-14.373-9.176a10.164,10.164,0,0,0-5.747,3.917l-9.387,13.06s2.6,3.489,8.373,19.279c10.661.981,20.081-2.41,28.483-8.073" transform="translate(12.568 11.825)" fill="#b16860"/>
              <path id="Trazado_874033" data-name="Trazado 874033" d="M175.477,211.238c9.282.648,18.6.843,27.925.833A265.838,265.838,0,0,0,194.78,175.5c-8.4,5.662-17.822,9.054-28.483,8.073.494,1.352,1.009,2.783,1.551,4.321,2.157,6.132,4.7,13.808,7.629,23.339" transform="translate(13.183 13.912)" fill="#b57567"/>
              <path id="Trazado_874034" data-name="Trazado 874034" d="M33.037,138.764c-.842-5.637-2.332-8.191-2.332-8.191-.451-2.16-1.365-3.337-1.4-7.45-.014-1.636.06-3.6.994-4.888,5.179-7.157,13.334.607,13.334.607S42.141,106,44.8,106.383s2.841,16.61,2.841,16.61a115.174,115.174,0,0,1-.032,12.118l1.139,4.31" transform="translate(2.323 8.432)" fill="#b57567"/>
              <path id="Trazado_874035" data-name="Trazado 874035" d="M45.585,132.95a.226.226,0,0,1-.172-.077c-.371-.413-9.038-10.154-8.213-13.412a1.459,1.459,0,0,1,1-1.172c1.792-.492,5.11,2.777,5.25,2.916a.231.231,0,1,1-.325.328c-.9-.9-3.514-3.15-4.8-2.8a1.02,1.02,0,0,0-.672.841c-.765,3.023,8.02,12.892,8.107,12.991a.23.23,0,0,1-.171.384" transform="translate(2.945 9.373)" fill="#503a33"/>
              <path id="Trazado_874036" data-name="Trazado 874036" d="M34.234,127.238a.239.239,0,0,1-.124-.036.232.232,0,0,1-.071-.319,10.543,10.543,0,0,1,4.869-3.917.231.231,0,0,1,.156.435,10.249,10.249,0,0,0-4.634,3.73.233.233,0,0,1-.2.107" transform="translate(2.695 9.747)" fill="#503a33"/>
              <path id="Trazado_874037" data-name="Trazado 874037" d="M34.113,124.558a2.558,2.558,0,0,1-2.075-1.706,7.735,7.735,0,0,1,.86-7.664.231.231,0,1,1,.36.289,7.257,7.257,0,0,0-.8,7.179c.5,1.084,1.242,1.507,1.778,1.432.44-.057.757-.435.862-1.037a.224.224,0,0,1,.268-.185.229.229,0,0,1,.188.267,1.556,1.556,0,0,1-1.258,1.414,1.445,1.445,0,0,1-.181.011" transform="translate(2.486 9.124)" fill="#503a33"/>
              <path id="Trazado_874038" data-name="Trazado 874038" d="M35.823,123.331a2.181,2.181,0,0,1-1.892-1.607,5.536,5.536,0,0,1,2.077-7.081.23.23,0,0,1,.314.086.233.233,0,0,1-.085.315,5,5,0,0,0-1.877,6.506c.477,1.174,1.279,1.469,1.813,1.252.664-.27,1.024-1.3.433-2.764-.932-2.295,1.388-4.579,1.488-4.675a.231.231,0,0,1,.321.331c-.022.022-2.2,2.165-1.381,4.17.739,1.821.162,3.021-.686,3.365a1.387,1.387,0,0,1-.523.1" transform="translate(2.648 9.086)" fill="#503a33"/>
              <path id="Trazado_874039" data-name="Trazado 874039" d="M31.784,125.168a1.669,1.669,0,0,1-1.218-.641,6.1,6.1,0,0,1-1.105-4.667.221.221,0,0,1,.259-.2.23.23,0,0,1,.2.26,5.71,5.71,0,0,0,.993,4.3,1.374,1.374,0,0,0,.89.486c.936-.021.985-1.183.986-1.233a.222.222,0,0,1,.237-.223.231.231,0,0,1,.223.239c-.018.571-.343,1.656-1.438,1.679Z" transform="translate(2.33 9.486)" fill="#503a33"/>
              <path id="Trazado_874040" data-name="Trazado 874040" d="M61.681,166.084c-1.417,2.27-2.246,3.691-2.246,3.691L47.276,132.321l.1-2.339a119.28,119.28,0,0,0-14.744,2.592c-.444,10.344-2.4,57.583,11.066,68.711,14.331,11.845,32.664-5.673,43.142-18.427a46.312,46.312,0,0,1-25.161-16.774" transform="translate(2.559 10.304)" fill="#b57567"/>
              <path id="Trazado_874041" data-name="Trazado 874041" d="M89.676,132.431c-10.508,3.363-24.722,24.751-30.155,33.458a46.319,46.319,0,0,0,25.162,16.774,129.74,129.74,0,0,0,8.351-11.305Z" transform="translate(4.718 10.498)" fill="#b16860"/>
              <path id="Trazado_874042" data-name="Trazado 874042" d="M84.182,171.689s-4.417,24.749-4.38,37.577h98.149c-.189-3.889-.6-7.486-.877-10.036a207.788,207.788,0,0,1-.789-21c14.169-3.98,22.338-16.487,22.338-16.487s-7.138-19.535-18.735-25.345-31.164-9.475-31.164-9.475c-24.6-3.912-40.851-1.1-55.332,1.111-16.883,2.573-30.964,27.586-30.964,27.586,7.816,12.949,21.755,16.074,21.755,16.074" transform="translate(4.949 9.906)" fill="#b26c4a"/>
              <path id="Trazado_874043" data-name="Trazado 874043" d="M167.958,175.545c-.835.283-.352,4.542-.352,4.542s14.613,1.441,27.079-15.84c0,0,.549-4.544-5.181-5.476,0,0-8.959,12.514-21.547,16.775" transform="translate(13.275 12.586)" fill="#e28279"/>
              <path id="Trazado_874044" data-name="Trazado 874044" d="M84.994,168.266c.8.268-.84,4.546-.84,4.546s-13.786,1.707-25.881-15.344c0,0-.6-4.533,4.8-5.57,0,0,9.95,12.337,21.923,16.368" transform="translate(4.618 12.041)" fill="#e28279"/>
              <path id="Trazado_874045" data-name="Trazado 874045" d="M114.144,204.546h.739a83.185,83.185,0,0,1-17.309-19.93.234.234,0,1,0-.4.247,83.592,83.592,0,0,0,16.968,19.683" transform="translate(7.7 14.626)" fill="#d49a2c"/>
              <path id="Trazado_874046" data-name="Trazado 874046" d="M99.688,204.211a75.438,75.438,0,0,1-7.355-15.319.234.234,0,1,0-.443.152,75.863,75.863,0,0,0,7.248,15.167Z" transform="translate(7.283 14.961)" fill="#d49a2c"/>
              <path id="Trazado_874047" data-name="Trazado 874047" d="M151.738,132.758a3.353,3.353,0,0,0-2.056-5.546,183.615,183.615,0,0,0-18.371-1.752c-5.261-.138-11.494-.127-16.115-.087a4.665,4.665,0,0,0-3.988,7.049c2.674,4.412,7.872,9.394,17.8,9.953a27.6,27.6,0,0,0,22.734-9.616" transform="translate(8.762 9.936)" fill="#e28279"/>
              <path id="Trazado_874048" data-name="Trazado 874048" d="M176.623,209.228c-2.967-8.255-14.035-38.994-17.03-46.482,0,0,.433-26.992,2.6-33.5a42.562,42.562,0,0,0-9.89-2.046s-2.9,19.5-3.334,32.505c0,0-29.7-1.734-39.24-2.167,0,0,1.527-26.029,2.829-32.1a62.2,62.2,0,0,0-8.111.773s-4.691,12.9-5.34,31.543c0,0-17.344,39.891-20.813,43.36l-.831,8.11Z" transform="translate(6.141 9.944)" fill="#18257b"/>
              <path id="Trazado_874049" data-name="Trazado 874049" d="M123.678,193.785c-20.166-1.626-20.074-24.1-20.072-24.325a.257.257,0,0,1,.079-.181.3.3,0,0,1,.183-.072c16.4.322,43.639,1.935,43.911,1.951a.264.264,0,0,1,.186.1.271.271,0,0,1,.054.2c-.039.231-3.9,22.407-22.387,22.407-.634,0-1.283-.026-1.953-.08m-19.553-24.058c.052,2.493,1.074,22.051,19.6,23.545,18.5,1.488,23.205-18.957,23.735-21.618-2.974-.174-27.839-1.612-43.332-1.928" transform="translate(8.213 13.413)" fill="#e28279"/>
              <path id="Trazado_874050" data-name="Trazado 874050" d="M153.943,161.136l-10.7-1.458a2.823,2.823,0,0,1-2.416-3.18l.14-1.037a2.829,2.829,0,0,1,3.182-2.415l10.7,1.458a2.827,2.827,0,0,1,2.417,3.178l-.142,1.036a2.823,2.823,0,0,1-2.791,2.443,2.951,2.951,0,0,1-.389-.026m-12.467-5.606-.14,1.038a2.306,2.306,0,0,0,1.975,2.6l10.7,1.458a2.306,2.306,0,0,0,2.6-1.975l.14-1.036a2.308,2.308,0,0,0-1.975-2.6l-10.7-1.459a2.364,2.364,0,0,0-.314-.022,2.312,2.312,0,0,0-2.286,2" transform="translate(11.161 12.13)" fill="#e28279"/>
              <path id="Trazado_874051" data-name="Trazado 874051" d="M143.617,163.406a3.9,3.9,0,1,0,3.9-3.9,3.9,3.9,0,0,0-3.9,3.9" transform="translate(11.385 12.644)" fill="#e28279"/>
              <path id="Trazado_874052" data-name="Trazado 874052" d="M108.816,156.051l-10.8-.014a2.826,2.826,0,0,1-2.82-2.827v-1.047a2.823,2.823,0,0,1,2.822-2.819h0l10.8.013a2.823,2.823,0,0,1,2.821,2.828v1.046a2.824,2.824,0,0,1-2.822,2.82Zm-10.809-.271h0Zm-1.619-5.247a2.3,2.3,0,0,0-.679,1.632v1.046a2.312,2.312,0,0,0,2.305,2.313l10.8.013h0a2.31,2.31,0,0,0,2.307-2.306v-1.047a2.307,2.307,0,0,0-2.306-2.311l-10.8-.013h0a2.294,2.294,0,0,0-1.629.673" transform="translate(7.546 11.839)" fill="#e28279"/>
              <path id="Trazado_874053" data-name="Trazado 874053" d="M98.886,159.692a3.9,3.9,0,1,0,3.345-4.389,3.9,3.9,0,0,0-3.345,4.389" transform="translate(7.836 12.308)" fill="#e28279"/>
              <path id="Trazado_874054" data-name="Trazado 874054" d="M141.742,21.653c0,11.5,9.767,20.817,21.817,20.817s21.816-9.321,21.816-20.817S175.608.837,163.559.837s-21.817,9.32-21.817,20.816" transform="translate(11.236 0.066)" fill="#503a33"/>
              <ellipse id="Elipse_11522" data-name="Elipse 11522" cx="22.201" cy="21.182" rx="22.201" ry="21.182" transform="translate(153.795 0.237)" fill="none" stroke="#503a33" stroke-linecap="round" stroke-linejoin="round" stroke-width="0.438"/>
              <path id="Trazado_874055" data-name="Trazado 874055" d="M171.074,26.111s28.422-.4,30.823,20.016-5.6,23.619-1.6,28.822S212.706,86.158,210.3,94.564s-6.405,10.409-4.4,16.013,2.8,8.006,1.2,12.81c0,0-17.212,6.005-27.221,4l-1.2-11.609-3.2,11.208a80.487,80.487,0,0,1-42.033,1.2c-22.818-5.6-36.828-3.2-44.834-9.207l4-16.414-8.406,14.412s-2.9,2-16.514-3.6c0,0-4.8-8.106-2.4-17.113C68.293,85,72.5,87.158,73.7,77.951s.367-21.365,11.309-30.624c10.408-8.807,4.8-14.01,11.209-22.818s37.629-14.41,62.048-2" transform="translate(5.122 1.213)" fill="#503a33"/>
              <path id="Trazado_874056" data-name="Trazado 874056" d="M100.893,94.236l.446-17.554s-13.085-10-18.6,4.913S92.9,102.264,100.893,94.236" transform="translate(6.467 5.819)" fill="#b57567"/>
              <path id="Trazado_874057" data-name="Trazado 874057" d="M94.548,113.84c-.145,0-.289,0-.433-.009A10.579,10.579,0,0,1,90.3,93.571a.55.55,0,0,1,.444,1.007,9.479,9.479,0,1,0,13,10.975.55.55,0,1,1,1.067.264,10.611,10.611,0,0,1-10.267,8.022" transform="translate(6.657 7.414)" fill="#e19e2c"/>
              <path id="Trazado_874058" data-name="Trazado 874058" d="M163.406,98.88l5.142-16.79s15.581-5.334,16.085,10.559-16.192,16.379-21.227,6.232" transform="translate(12.953 6.439)" fill="#b57567"/>
              <path id="Trazado_874059" data-name="Trazado 874059" d="M167.1,116.75a10.573,10.573,0,0,1-10.343-12.743.55.55,0,0,1,1.077.224,9.479,9.479,0,1,0,16.483-4.215.55.55,0,0,1,.835-.716A10.574,10.574,0,0,1,167.1,116.75" transform="translate(12.409 7.856)" fill="#e19e2c"/>
              <path id="Trazado_874060" data-name="Trazado 874060" d="M121.962,126.61a50.254,50.254,0,0,1-6.511-2.4l.21-11.161,28.427,2.2-.051,11.232c-7.27,2.124-15.26,2.34-22.075.138" transform="translate(9.152 8.961)" fill="#b16860"/>
              <path id="Trazado_874061" data-name="Trazado 874061" d="M121.97,125.791c6.816,2.2,14.805,1.986,22.075-.138l-.032,6.96c-10.729,8.02-23.967,5.141-28.664-3.335l.11-5.892a50.254,50.254,0,0,0,6.511,2.4" transform="translate(9.144 9.781)" fill="#b57567"/>
              <path id="Trazado_874062" data-name="Trazado 874062" d="M95.414,47.35S94.2,66.081,93.759,88.292c-.353,17.981,13.684,35.851,35.609,37.692,20.608,1.729,42.2-6.172,49.18-34.991s2.882-52.594-23.257-59.521S102.925,25.164,95.414,47.35" transform="translate(7.432 2.186)" fill="#b57567"/>
              <path id="Trazado_874063" data-name="Trazado 874063" d="M123.607,40.766c.115-.154.192-.24.192-.24s-.069.089-.192.24" transform="translate(9.798 3.213)" fill="#503a33"/>
              <path id="Trazado_874064" data-name="Trazado 874064" d="M159.848,75.589s3.593-3.951-3.748-9.118-9.975-4.108-11.228-1.619c-1.143,2.271.494,5.738,4.664,8.532,5,3.352,8.36,4.48,10.312,2.2" transform="translate(11.456 4.977)" fill="#503a33"/>
              <path id="Trazado_874065" data-name="Trazado 874065" d="M101.477,71.469s-2.582-4.676,5.754-8,10.655-1.692,11.3,1.02c.587,2.474-1.808,5.469-6.51,7.222-5.644,2.1-9.167,2.425-10.542-.239" transform="translate(8.014 4.884)" fill="#503a33"/>
              <path id="Trazado_874066" data-name="Trazado 874066" d="M168.533,99.109a.318.318,0,0,0,.3-.445c-.033-.078-3.283-7.774,2.109-11.223a7.053,7.053,0,0,1,5.514-1.2,8.775,8.775,0,0,1,4.848,3.707.319.319,0,0,0,.548-.325,9.281,9.281,0,0,0-5.245-4,7.663,7.663,0,0,0-6.008,1.279c-5.849,3.742-2.385,11.93-2.35,12.012a.318.318,0,0,0,.286.192" transform="translate(13.254 6.774)" fill="#503a33"/>
              <path id="Trazado_874067" data-name="Trazado 874067" d="M176.485,92.655a.318.318,0,0,0,.2-.57c-.052-.041-5.316-4.039-9.353-.147a.318.318,0,1,0,.441.459c3.643-3.512,8.473.154,8.522.192a.316.316,0,0,0,.189.066" transform="translate(13.257 7.153)" fill="#503a33"/>
              <path id="Trazado_874068" data-name="Trazado 874068" d="M126.514,90.1a.318.318,0,0,0,.144-.605,8.592,8.592,0,0,1-3.634-3.539c-.853-1.8-.526-4.487.683-5.626a2.244,2.244,0,0,1,2.805-.117c.036.019.091.053.165.1,3.872,2.348,5.659,1.36,6.476.117,1.5-2.283.584-20.54.476-22.614a.325.325,0,0,0-.336-.3.319.319,0,0,0-.3.336c.294,5.579.8,20.447-.371,22.231-.964,1.468-2.853,1.364-5.614-.312-.084-.051-.148-.09-.189-.112a2.865,2.865,0,0,0-3.546.213c-1.411,1.329-1.8,4.3-.823,6.361a9.087,9.087,0,0,0,3.936,3.841.314.314,0,0,0,.131.031" transform="translate(9.664 4.559)" fill="#503a33"/>
              <path id="Trazado_874069" data-name="Trazado 874069" d="M122.7,98.508a9.621,9.621,0,0,1-.75-3,48.478,48.478,0,0,1,14.973-2.331,13.337,13.337,0,0,1-.258,3.421A36.7,36.7,0,0,0,122.7,98.508" transform="translate(9.667 7.386)"/>
              <path id="Trazado_874070" data-name="Trazado 874070" d="M136.608,96.355c-.519,2.5-1.971,5.525-5.951,6.02-4.907.611-7.062-1.907-8.014-4.114a36.7,36.7,0,0,1,13.965-1.906" transform="translate(9.722 7.634)" fill="#7c3645"/>
              <path id="Trazado_874071" data-name="Trazado 874071" d="M95.136,93.145a.322.322,0,0,1-.117-.066.318.318,0,0,1-.025-.45c.056-.063,5.579-6.332,1.557-11.313A7.045,7.045,0,0,0,91.7,78.434a8.783,8.783,0,0,0-5.774,1.978.318.318,0,0,1-.417-.481A9.276,9.276,0,0,1,91.755,77.8a7.66,7.66,0,0,1,5.293,3.117c4.362,5.4-1.52,12.072-1.579,12.139a.317.317,0,0,1-.332.091" transform="translate(6.77 6.165)" fill="#503a33"/>
              <path id="Trazado_874072" data-name="Trazado 874072" d="M89.231,84.419a.318.318,0,0,1-.01-.6c.063-.022,6.322-2.145,8.917,2.827a.318.318,0,1,1-.563.295c-2.342-4.485-8.086-2.54-8.143-2.519a.32.32,0,0,1-.2,0" transform="translate(7.056 6.607)" fill="#503a33"/>
              <path id="Trazado_874073" data-name="Trazado 874073" d="M142.008,96.63c.542,3.035,5.588,4.671,11.271,3.657s9.85-4.3,9.309-7.333S157,88.282,151.316,89.3s-9.849,4.3-9.308,7.333" transform="translate(11.253 7.055)" fill="#b16860"/>
              <path id="Trazado_874074" data-name="Trazado 874074" d="M119.423,95.716c-.79,2.98-5.953,4.2-11.533,2.717s-9.464-5.093-8.674-8.073,5.954-4.2,11.534-2.717,9.463,5.094,8.673,8.073" transform="translate(7.857 6.898)" fill="#b16860"/>
              <path id="Trazado_874075" data-name="Trazado 874075" d="M151.44,86.668s.311-6.405-4.8-7.357-6.915,5.176-6.915,5.176" transform="translate(11.076 6.279)" fill="none" stroke="#000" stroke-linecap="round" stroke-linejoin="round" stroke-width="0.636"/>
              <line id="Línea_583" data-name="Línea 583" y1="0.984" x2="3.44" transform="translate(162.497 91.147)" fill="none" stroke="#000" stroke-linecap="round" stroke-linejoin="round" stroke-width="0.636"/>
              <line id="Línea_584" data-name="Línea 584" y1="0.781" x2="2.324" transform="translate(162.641 89.753)" fill="none" stroke="#000" stroke-linecap="round" stroke-linejoin="round" stroke-width="0.752"/>
              <path id="Trazado_874076" data-name="Trazado 874076" d="M107.46,82.906s1.66-6.2,6.819-5.541,5.006,7.04,5.006,7.04" transform="translate(8.518 6.129)" fill="none" stroke="#000" stroke-linecap="round" stroke-linejoin="round" stroke-width="0.636"/>
              <line id="Línea_585" data-name="Línea 585" x1="2.976" y1="1.987" transform="translate(113.27 86.277)" fill="none" stroke="#000" stroke-linecap="round" stroke-linejoin="round" stroke-width="0.636"/>
              <line id="Línea_586" data-name="Línea 586" x1="1.974" y1="1.454" transform="translate(114.622 85.245)" fill="none" stroke="#000" stroke-linecap="round" stroke-linejoin="round" stroke-width="0.752"/>
              <path id="Trazado_874077" data-name="Trazado 874077" d="M161.786,23.193S191.752,28.1,195.04,45.777s-6.031,43.366-6.031,43.366-11.932-6.224-19.143-7.96c-3.882-.935,3.652-6.346-.433-20.172,0,0-5.144,12.738-11.224,13.872-7.167,1.336-24.274-.845-31.863-6.111-4.168-2.892-1.751-15.484-2.836-16.076-2.149-1.172-4.287,14.524-6.572,14.945-1.556.286-12.009,7.64-14.709,3.636-2.2-3.259-.258-11.533-1.391-11.289-3.108.669-2.529,16.539-5.018,17.1-5.573,1.263-9.364,2.062-10.336,1.519-4.916-2.748-2.222-35.767,7.491-46.752s41.86-20.531,68.811-8.664" transform="translate(6.586 1.405)" fill="#503a33"/>
              <path id="Trazado_874078" data-name="Trazado 874078" d="M200.9,120.168a25.116,25.116,0,0,1-1.547-15.663c.882-3.888,2.681-7.51,3.69-11.366s1.119-8.25-1.148-11.528c-2.591-3.745-7.872-5.473-9.267-9.808-1.509-4.695,2.387-9.18,4.453-13.658a19.772,19.772,0,0,0-4.658-22.4,19.773,19.773,0,0,0-22.78-2.089" transform="translate(13.448 2.457)" fill="none" stroke="#503a33" stroke-linecap="round" stroke-linejoin="round" stroke-width="0.438"/>
              <path id="Trazado_874079" data-name="Trazado 874079" d="M112.435,16.831c-4.151.277-8.369.568-12.276,2s-7.529,4.189-9.015,8.075c-1.235,3.228-.884,6.84-1.663,10.208-1.279,5.529-5.421,9.86-9.176,14.116S72.849,60.417,72.8,66.092c-.051,5.773,3.681,11.8,1.142,16.986-1.44,2.938-4.52,4.635-6.852,6.931a17.192,17.192,0,0,0-1.258,22.272" transform="translate(4.941 1.334)" fill="none" stroke="#503a33" stroke-linecap="round" stroke-linejoin="round" stroke-width="0.438"/>
              <path id="Trazado_874080" data-name="Trazado 874080" d="M61.72,177.946a.23.23,0,0,1-.222-.169,67.118,67.118,0,0,0-4.247-10.8.231.231,0,1,1,.411-.209,67.474,67.474,0,0,1,4.28,10.889.231.231,0,0,1-.16.284.257.257,0,0,1-.063.009" transform="translate(4.536 13.21)" fill="#503a33"/>
              <path id="Trazado_874081" data-name="Trazado 874081" d="M6.915,50.15H57.842c3.131,0,6.47.152,6.47,4.711s.707,32.943.079,37.24c-.521,3.571-2.374,5.307-10.1,5.458s-42.582-.107-46.544,0c-2.5.068-7.2.068-7.514-5.318C-.083,86.757,0,60.559.036,55.62,0,49.77,6.915,50.15,6.915,50.15" transform="translate(0 3.975)" fill="#fff"/>
              <path id="Trazado_874082" data-name="Trazado 874082" d="M29.774,91.75s.406,8.126,3.657,14.22c0,0-10.361-1.828-13.611-15.643Z" transform="translate(1.571 7.16)" fill="#fff"/>
              <path id="Trazado_874083" data-name="Trazado 874083" d="M13.633,83.918c.588,0,4.249.066,4.8.008.461-.05.684-.223.7-.949s-.014-4,0-4.371c.009-.235.009-.676-.685-.706s-4.087-.022-4.724-.018a.616.616,0,0,0-.706.646V83.31c0,.294.019.608.608.608" transform="translate(1.032 6.173)" fill="#111a57"/>
              <path id="Trazado_874084" data-name="Trazado 874084" d="M27.116,78.527v4.782c0,.295.019.608.608.608s4.249.067,4.8.008c.461-.049.684-.222.7-.948s-.014-4,0-4.371c.009-.235.009-.677-.685-.706s-4.087-.022-4.724-.018a.616.616,0,0,0-.706.645" transform="translate(2.149 6.173)" fill="#111a57"/>
              <path id="Trazado_874085" data-name="Trazado 874085" d="M41.207,78.527v4.782c0,.295.019.608.608.608s4.249.067,4.8.008c.461-.049.684-.222.7-.948s-.014-4,0-4.371c.009-.235.009-.677-.685-.706s-4.087-.022-4.724-.018a.616.616,0,0,0-.706.645" transform="translate(3.266 6.173)" fill="#111a57"/>
            </g>
          </g>
        </g>
      </g>
    </g>
  </g>
</svg>
