<svg xmlns="http://www.w3.org/2000/svg" width="82" height="82" viewBox="0 0 82 82">
  <g id="Grupo_1100109" data-name="Grupo 1100109" transform="translate(-1213.051 -2232)">
    <circle id="Elipse_11497" data-name="Elipse 11497" cx="41" cy="41" r="41" transform="translate(1213.051 2232)" fill="#405f5a"/>
    <g id="hablar" transform="translate(1229.051 2247.99)">
      <path id="Trazado_874813" data-name="Trazado 874813" d="M26.252,57.248V52.522a2.428,2.428,0,0,1,2.428-2.428h0a10.8,10.8,0,0,0,10.8-10.8V37.834h4.232L40.542,27.087V25.279A15.271,15.271,0,0,0,25.271,10.008h0A15.271,15.271,0,0,0,10,25.279V57.248Z" transform="translate(-9.04 -9.038)" fill="#ffb954"/>
      <path id="Trazado_874814" data-name="Trazado 874814" d="M17.212,49.17a.96.96,0,0,1-.96-.96V43.484A3.392,3.392,0,0,1,19.64,40.1a9.849,9.849,0,0,0,9.838-9.838V28.8a.96.96,0,0,1,.96-.96h2.948l-2.8-9.516a.959.959,0,0,1-.039-.271V16.241a14.311,14.311,0,1,0-28.622,0V48.21a.96.96,0,1,1-1.92,0V16.241a16.231,16.231,0,0,1,32.462,0v1.669l3.128,10.614a.96.96,0,0,1-.921,1.232H31.4v.5A11.772,11.772,0,0,1,19.64,42.016a1.469,1.469,0,0,0-1.468,1.468V48.21A.96.96,0,0,1,17.212,49.17Z"/>
      <path id="Trazado_874815" data-name="Trazado 874815" d="M456.539,255.317a.96.96,0,0,1-.679-1.639,10.979,10.979,0,0,0,0-15.527.96.96,0,0,1,1.358-1.358,12.9,12.9,0,0,1,0,18.243A.959.959,0,0,1,456.539,255.317Z" transform="translate(-411.835 -213.793)"/>
      <path id="Trazado_874816" data-name="Trazado 874816" d="M399.161,312.624a.96.96,0,0,1-.679-1.639,1.349,1.349,0,0,0,0-1.906.96.96,0,0,1,1.358-1.358,3.272,3.272,0,0,1,0,4.622A.957.957,0,0,1,399.161,312.624Z" transform="translate(-359.966 -277.91)"/>
      <path id="Trazado_874817" data-name="Trazado 874817" d="M430.662,289.772a.96.96,0,0,1-.679-1.639,5.194,5.194,0,0,0,0-7.338.96.96,0,0,1,1.358-1.358,7.117,7.117,0,0,1,0,10.053A.957.957,0,0,1,430.662,289.772Z" transform="translate(-388.443 -252.342)"/>
      <path id="Trazado_874818" data-name="Trazado 874818" d="M48.96,67.669a.96.96,0,0,1-.96-.96,11.626,11.626,0,0,1,7.326-10.8.96.96,0,1,1,.71,1.784,9.656,9.656,0,0,0-6.116,9.018A.96.96,0,0,1,48.96,67.669Z" transform="translate(-43.391 -50.468)"/>
      <path id="Trazado_874819" data-name="Trazado 874819" d="M159.96,49.929a.96.96,0,1,1,0-1.92h0a.96.96,0,1,1,0,1.92Zm0-.96h0Zm0-.96v0Z" transform="translate(-143.728 -43.39)"/>
      <path id="Trazado_874820" data-name="Trazado 874820" d="M246.958,178.918a.961.961,0,1,1,.679-.281A.967.967,0,0,1,246.958,178.918Z" transform="translate(-222.378 -159.994)"/>
    </g>
  </g>
</svg>
