<svg xmlns="http://www.w3.org/2000/svg" width="82" height="82" viewBox="0 0 82 82">
  <g id="Grupo_1099617" data-name="Grupo 1099617" transform="translate(-948.333 -441.999)">
    <circle id="Elipse_11497" data-name="Elipse 11497" cx="41" cy="41" r="41" transform="translate(948.333 441.999)" fill="#ff9b6a"/>
    <g id="charla" transform="translate(962.541 424.956)">
      <path id="Trazado_874086" data-name="Trazado 874086" d="M14.534,101.3a16.328,16.328,0,1,0-3.266-3.266L8,104.569Z" transform="translate(-7.098 -35.477)" fill="#00f2a9"/>
      <g id="Grupo_1099760" data-name="Grupo 1099760" transform="translate(0 32.003)">
        <path id="Trazado_874087" data-name="Trazado 874087" d="M.1,65.069A.905.905,0,0,0,1.31,66.283l6.04-3.02a17.015,17.015,0,0,0,9.839,3.115,17.341,17.341,0,0,0,2.08-.138,17.139,17.139,0,0,0,25.851,7.879l6.04,3.02a.905.905,0,0,0,1.214-1.214l-3.02-6.04a17.015,17.015,0,0,0,3.115-9.839A17.207,17.207,0,0,0,35.28,42.858H33.152A17.179,17.179,0,0,0,0,49.191a17.015,17.015,0,0,0,3.115,9.839Zm35.185-20.4A15.4,15.4,0,0,1,50.659,60.046a15.239,15.239,0,0,1-3.084,9.209.905.905,0,0,0-.086.948l2.053,4.1-4.1-2.053a.907.907,0,0,0-.948.086,15.336,15.336,0,0,1-23.409-6.424A17.1,17.1,0,0,0,33.752,44.668H35.28ZM1.81,49.191A15.378,15.378,0,1,1,17.188,64.569a15.239,15.239,0,0,1-9.209-3.084.908.908,0,0,0-.948-.086l-4.1,2.053,2.053-4.1a.905.905,0,0,0-.086-.948A15.239,15.239,0,0,1,1.81,49.191Z" transform="translate(0 -32.003)" fill="#322153"/>
        <path id="Trazado_874088" data-name="Trazado 874088" d="M66.717,165.431A2.714,2.714,0,1,0,64,162.717,2.717,2.717,0,0,0,66.717,165.431Zm0-3.618a.9.9,0,1,1-.9.9A.9.9,0,0,1,66.717,161.812Z" transform="translate(-56.766 -145.529)" fill="#322153"/>
        <path id="Trazado_874089" data-name="Trazado 874089" d="M130.717,165.431A2.714,2.714,0,1,0,128,162.717,2.717,2.717,0,0,0,130.717,165.431Zm0-3.618a.9.9,0,1,1-.9.9A.9.9,0,0,1,130.717,161.812Z" transform="translate(-113.529 -145.529)" fill="#322153"/>
        <path id="Trazado_874090" data-name="Trazado 874090" d="M194.717,165.431A2.714,2.714,0,1,0,192,162.717,2.717,2.717,0,0,0,194.717,165.431Zm0-3.618a.9.9,0,1,1-.9.9A.9.9,0,0,1,194.717,161.812Z" transform="translate(-170.292 -145.529)" fill="#322153"/>
        <path id="Trazado_874091" data-name="Trazado 874091" d="M288,258.717A2.714,2.714,0,1,0,290.717,256,2.717,2.717,0,0,0,288,258.717Zm2.714-.9a.9.9,0,1,1-.9.9A.9.9,0,0,1,290.717,257.812Z" transform="translate(-255.437 -230.674)" fill="#322153"/>
        <path id="Trazado_874092" data-name="Trazado 874092" d="M354.717,261.431A2.714,2.714,0,1,0,352,258.717,2.717,2.717,0,0,0,354.717,261.431Zm0-3.618a.9.9,0,1,1-.9.9A.9.9,0,0,1,354.717,257.812Z" transform="translate(-312.2 -230.674)" fill="#322153"/>
      </g>
    </g>
  </g>
</svg>
