<svg xmlns="http://www.w3.org/2000/svg" width="132" height="132" viewBox="0 0 132 132">
  <g id="Grupo_1099761" data-name="Grupo 1099761" transform="translate(-212.051 -1460)">
    <rect id="Rectángulo_401228" data-name="Rectángulo 401228" width="132" height="132" rx="14" transform="translate(212.051 1460)" fill="#ff9b6a"/>
    <g id="ventas_1_" data-name="ventas (1)" transform="translate(230.018 1414.83)">
      <path id="Trazado_874093" data-name="Trazado 874093" d="M68.153,85.8v0l-.012,0Zm-.219,56.063v0l-.025-.01Zm-.53-.221c-23.63-9.88-23.476-13.936-46.7-13.936-18.311,0-18.311-27.682,0-27.682,23.085,0,23.284-4.069,46.481-13.818-4.487,2.541-7.872,13.957-7.872,27.659,0,13.926,3.5,25.494,8.094,27.777Z" transform="translate(-5.593 -6.154)" fill="#77cedb" fill-rule="evenodd"/>
      <path id="Trazado_874094" data-name="Trazado 874094" d="M97.15,302.58l5.457,20.979,8.475.743-3.808-20.962A83.559,83.559,0,0,0,97.15,302.58Z" transform="translate(-78.325 -180.986)" fill="#77cedb" fill-rule="evenodd"/>
      <ellipse id="Elipse_11523" data-name="Elipse 11523" cx="9.76" cy="28.187" rx="9.76" ry="28.187" transform="translate(53.715 79.525)" fill="#fcb13c"/>
      <path id="Trazado_874095" data-name="Trazado 874095" d="M63.479,134.545c2.057,0,4.056-2.806,5.627-7.341,3.721-10.745,3.721-28.242,0-38.985-1.571-4.536-3.57-7.341-5.627-7.341-2.872,0-4.979,5.47-5.627,7.341a51.974,51.974,0,0,0-2.339,11.153h8.9c1.511,0,2.8,1.07,3.653,2.8a13.859,13.859,0,0,1,0,11.072c-.855,1.732-2.142,2.8-3.653,2.8h-8.9A51.948,51.948,0,0,0,57.852,127.2C58.518,129.127,60.616,134.545,63.479,134.545ZM25.568,123.314l1.5,6.765,2.136,1.2-1.4-7.711c-.714-.095-1.455-.178-2.231-.252Zm8.5,19.642a1.356,1.356,0,0,1-1.422,1.709l-8.475-.743v0a1.35,1.35,0,0,1-1.19-1.006l-5.2-19.985c-.855-.014-1.743-.019-2.67-.019-20.1,0-20.1-30.391,0-30.391,16.705,0,21.2-2.167,31.516-7.131,2.608-1.256,14.064-7.216,16.854-7.216,3.334,0,6.215,3.5,8.177,9.172,3.93,11.351,3.93,29.391,0,40.742-1.962,5.666-4.843,9.172-8.177,9.172-2.98,0-14.174-5.892-17.09-7.3-6.039-2.914-10.047-4.847-15.767-5.941q1.721,9.468,3.442,18.938Zm-4.238-8.23,1.287,7.084-5.766-.505L20.588,123q1.126.041,2.169.1l1.8,8.152a1.351,1.351,0,0,0,.658.886l0,0Zm16.765-21.038a43.544,43.544,0,0,0,1.186,10.585,26.518,26.518,0,0,0,1.314,3.986q-.787-.377-1.529-.737c-8.305-4.007-12.912-6.231-22.816-7a8.721,8.721,0,0,1-4.242-1.9,8.418,8.418,0,0,1-2.475-4.035,1.35,1.35,0,0,0-2.583.784,11.289,11.289,0,0,0,2.823,4.863c-1.006-.017-2.059-.027-3.164-.027-16.512,0-16.513-24.973,0-24.973,1.838,0,3.531-.025,5.107-.077a14.452,14.452,0,0,0-2.968,3.57,20.354,20.354,0,0,0-2.45,10.925,1.35,1.35,0,1,0,2.7-.052,17.75,17.75,0,0,1,2.08-9.5,12.673,12.673,0,0,1,6.407-5.3c9.139-.873,13.775-3.106,21.817-6.978q1.059-.511,2.21-1.06a28.571,28.571,0,0,0-1.834,5.3A61.221,61.221,0,0,0,46.583,106.7a1.35,1.35,0,0,0,2.7-.01A58.382,58.382,0,0,1,50.8,92.714c.894-3.564,2.154-6.422,3.766-7.876a1.33,1.33,0,0,0,.273-.339q1-.459,2.082-.942A27.121,27.121,0,0,0,55.3,87.346c-3.93,11.351-3.93,29.391,0,40.742a27.173,27.173,0,0,0,1.639,3.829c-1.26-.561-2.44-1.1-3.553-1.618q-.026-.038-.058-.075a17.264,17.264,0,0,1-2.93-6.6,40.914,40.914,0,0,1-1.111-9.917,1.35,1.35,0,0,0-2.7-.015Zm33.4,13.2a1.353,1.353,0,0,1,.7-2.614l12.158,3.259a1.353,1.353,0,0,1-.7,2.614Zm-.079-34.231a1.353,1.353,0,0,1-.7-2.614l12.8-3.431a1.353,1.353,0,0,1,.7,2.614Zm1.341,16.053a1.355,1.355,0,1,1,0-2.709H95.417a1.355,1.355,0,1,1,0,2.709ZM60.8,113.341H55.269a79.81,79.81,0,0,1,0-11.26H60.8l-.046.093a13.859,13.859,0,0,0,0,11.072C60.772,113.279,60.788,113.31,60.8,113.341Zm4.838-9.971a11.27,11.27,0,0,1,0,8.681c-.395.8-.836,1.289-1.231,1.289s-.836-.493-1.231-1.289a11.27,11.27,0,0,1,0-8.68c.395-.8.836-1.289,1.231-1.289S65.246,102.574,65.641,103.37Z" fill="#010101" fill-rule="evenodd"/>
    </g>
  </g>
</svg>
